<svg width="334" height="67" viewBox="0 0 334 67" fill="none" xmlns="http://www.w3.org/2000/svg">
<rect width="334" height="67" rx="33.5" fill="#FEA4B9"/>
<path d="M46.304 23.296C48.6293 23.296 50.5707 23.5733 52.128 24.128C53.6853 24.6827 54.9227 25.44 55.84 26.4C56.7787 27.3387 57.44 28.4267 57.824 29.664C58.2293 30.9013 58.432 32.2027 58.432 33.568C58.432 34.9333 58.208 36.2453 57.76 37.504C57.3333 38.7627 56.64 39.8827 55.68 40.864C54.7413 41.824 53.4933 42.592 51.936 43.168C50.4 43.7227 48.5227 44 46.304 44H34.464V23.296H46.304ZM38.72 40.352H46.208C47.744 40.352 49.0133 40.1707 50.016 39.808C51.04 39.424 51.8507 38.912 52.448 38.272C53.0453 37.632 53.472 36.9067 53.728 36.096C53.984 35.2853 54.112 34.4427 54.112 33.568C54.112 32.6933 53.984 31.8613 53.728 31.072C53.472 30.2827 53.0453 29.5787 52.448 28.96C51.8507 28.3413 51.04 27.8507 50.016 27.488C49.0133 27.1253 47.744 26.944 46.208 26.944H38.72V40.352ZM67.453 21.12V24.768H62.621V21.12H67.453ZM62.941 28.096H67.101V44H62.941V28.096ZM79.8235 41.568C78.0955 41.568 76.5702 41.312 75.2475 40.8C73.9462 40.2667 72.9328 39.488 72.2075 38.464C71.4822 37.44 71.1195 36.2027 71.1195 34.752C71.1195 33.3227 71.4715 32.0853 72.1755 31.04C72.8795 29.9947 73.8822 29.184 75.1835 28.608C76.5062 28.032 78.0528 27.744 79.8235 27.744C80.3142 27.744 80.7835 27.776 81.2315 27.84C81.7008 27.904 82.1595 27.9893 82.6075 28.096L90.6395 28.128V31.264C89.5515 31.2853 88.4422 31.1573 87.3115 30.88C86.2022 30.5813 85.2208 30.2613 84.3675 29.92L84.2715 29.696C84.9968 30.0373 85.6795 30.464 86.3195 30.976C86.9595 31.4667 87.4715 32.0427 87.8555 32.704C88.2608 33.344 88.4635 34.0907 88.4635 34.944C88.4635 36.3307 88.1115 37.5253 87.4075 38.528C86.7035 39.5093 85.7008 40.2667 84.3995 40.8C83.1195 41.312 81.5942 41.568 79.8235 41.568ZM85.1675 50.56V49.792C85.1675 48.8107 84.8475 48.128 84.2075 47.744C83.5888 47.36 82.7355 47.168 81.6475 47.168H76.6875C75.7275 47.168 74.9168 47.0933 74.2555 46.944C73.6155 46.7947 73.1035 46.5813 72.7195 46.304C72.3355 46.0267 72.0582 45.696 71.8875 45.312C71.7168 44.9493 71.6315 44.5547 71.6315 44.128C71.6315 43.2747 71.9088 42.6347 72.4635 42.208C73.0182 41.76 73.7648 41.4613 74.7035 41.312C75.6422 41.1627 76.6768 41.1307 77.8075 41.216L79.8235 41.568C78.4795 41.6107 77.4768 41.728 76.8155 41.92C76.1755 42.0907 75.8555 42.4427 75.8555 42.976C75.8555 43.296 75.9835 43.552 76.2395 43.744C76.4955 43.9147 76.8582 44 77.3275 44H82.5435C83.9728 44 85.1888 44.1493 86.1915 44.448C87.2155 44.768 87.9942 45.2907 88.5275 46.016C89.0608 46.7627 89.3275 47.776 89.3275 49.056V50.56H85.1675ZM79.8235 38.56C80.7408 38.56 81.5408 38.4107 82.2235 38.112C82.9275 37.8133 83.4715 37.3867 83.8555 36.832C84.2395 36.256 84.4315 35.5733 84.4315 34.784C84.4315 33.9733 84.2395 33.28 83.8555 32.704C83.4715 32.128 82.9382 31.6907 82.2555 31.392C81.5728 31.072 80.7622 30.912 79.8235 30.912C78.9062 30.912 78.0955 31.072 77.3915 31.392C76.6875 31.6907 76.1435 32.128 75.7595 32.704C75.3755 33.28 75.1835 33.9733 75.1835 34.784C75.1835 35.5733 75.3755 36.256 75.7595 36.832C76.1435 37.3867 76.6768 37.8133 77.3595 38.112C78.0635 38.4107 78.8848 38.56 79.8235 38.56ZM98.7642 21.12V24.768H93.9322V21.12H98.7642ZM94.2522 28.096H98.4122V44H94.2522V28.096ZM102.079 28.096H114.431V31.328H102.079V28.096ZM106.175 23.744H110.335V44H106.175V23.744ZM125.239 44.352C123.66 44.352 122.22 44.0107 120.919 43.328C119.639 42.624 118.615 41.6533 117.847 40.416C117.1 39.1573 116.727 37.7067 116.727 36.064C116.727 34.3787 117.111 32.9173 117.879 31.68C118.647 30.4427 119.682 29.4827 120.983 28.8C122.306 28.096 123.799 27.744 125.463 27.744C127.298 27.744 128.77 28.1173 129.879 28.864C131.01 29.5893 131.831 30.5813 132.343 31.84C132.855 33.0987 133.111 34.5067 133.111 36.064C133.111 37.0027 132.962 37.9627 132.663 38.944C132.364 39.904 131.906 40.8 131.287 41.632C130.668 42.4427 129.858 43.104 128.855 43.616C127.852 44.1067 126.647 44.352 125.239 44.352ZM126.583 41.152C127.842 41.152 128.93 40.9387 129.847 40.512C130.764 40.0853 131.468 39.488 131.959 38.72C132.45 37.952 132.695 37.0667 132.695 36.064C132.695 34.976 132.439 34.0587 131.927 33.312C131.436 32.544 130.732 31.968 129.815 31.584C128.919 31.1787 127.842 30.976 126.583 30.976C124.812 30.976 123.436 31.4453 122.455 32.384C121.474 33.3013 120.983 34.528 120.983 36.064C120.983 37.088 121.218 37.984 121.687 38.752C122.156 39.4987 122.807 40.0853 123.639 40.512C124.492 40.9387 125.474 41.152 126.583 41.152ZM132.695 28.096H136.855V44H132.983C132.983 44 132.951 43.7973 132.887 43.392C132.844 42.9653 132.802 42.432 132.759 41.792C132.716 41.152 132.695 40.5227 132.695 39.904V28.096ZM141.58 21.696H145.74V44H141.58V21.696ZM170.53 44.384C169.122 44.384 167.917 44.1387 166.914 43.648C165.933 43.136 165.133 42.4747 164.514 41.664C163.896 40.832 163.437 39.9253 163.138 38.944C162.84 37.9627 162.69 37.0027 162.69 36.064C162.69 34.8907 162.829 33.8027 163.106 32.8C163.405 31.7973 163.864 30.9227 164.482 30.176C165.101 29.408 165.901 28.8107 166.882 28.384C167.885 27.9573 169.101 27.744 170.53 27.744C172.13 27.744 173.57 28.096 174.85 28.8C176.13 29.504 177.144 30.4853 177.89 31.744C178.658 32.9813 179.042 34.4213 179.042 36.064C179.042 37.7493 178.658 39.2213 177.89 40.48C177.122 41.7173 176.098 42.6773 174.818 43.36C173.538 44.0427 172.109 44.384 170.53 44.384ZM169.186 41.152C170.317 41.152 171.298 40.9387 172.13 40.512C172.984 40.0853 173.634 39.4987 174.082 38.752C174.552 37.984 174.786 37.088 174.786 36.064C174.786 34.528 174.296 33.2907 173.314 32.352C172.354 31.4133 170.978 30.944 169.186 30.944C168.056 30.944 167.021 31.1467 166.082 31.552C165.165 31.9573 164.44 32.544 163.906 33.312C163.373 34.0587 163.106 34.976 163.106 36.064C163.106 37.088 163.352 37.984 163.842 38.752C164.333 39.4987 165.037 40.0853 165.954 40.512C166.872 40.9387 167.949 41.152 169.186 41.152ZM158.946 28.096H162.914L163.106 32.32V50.4H158.946V28.096ZM182.742 28.096H186.902V44H182.742V28.096ZM193.014 31.52C191.82 31.52 190.785 31.7547 189.91 32.224C189.036 32.672 188.332 33.2267 187.798 33.888C187.265 34.5493 186.892 35.1893 186.678 35.808L186.646 34.048C186.668 33.792 186.753 33.4187 186.902 32.928C187.052 32.416 187.276 31.872 187.574 31.296C187.873 30.6987 188.268 30.1333 188.758 29.6C189.249 29.0453 189.846 28.5973 190.55 28.256C191.254 27.9147 192.076 27.744 193.014 27.744V31.52ZM205.602 44.384C203.597 44.384 201.826 44.064 200.29 43.424C198.776 42.784 197.592 41.856 196.738 40.64C195.885 39.4027 195.458 37.888 195.458 36.096C195.458 34.304 195.885 32.7893 196.738 31.552C197.592 30.2933 198.776 29.344 200.29 28.704C201.826 28.064 203.597 27.744 205.602 27.744C207.608 27.744 209.357 28.064 210.85 28.704C212.365 29.344 213.549 30.2933 214.402 31.552C215.256 32.7893 215.682 34.304 215.682 36.096C215.682 37.888 215.256 39.4027 214.402 40.64C213.549 41.856 212.365 42.784 210.85 43.424C209.357 44.064 207.608 44.384 205.602 44.384ZM205.602 41.184C206.712 41.184 207.704 40.992 208.578 40.608C209.474 40.2027 210.178 39.6267 210.69 38.88C211.202 38.112 211.458 37.184 211.458 36.096C211.458 35.008 211.202 34.08 210.69 33.312C210.178 32.5227 209.485 31.9253 208.61 31.52C207.736 31.1147 206.733 30.912 205.602 30.912C204.493 30.912 203.49 31.1147 202.594 31.52C201.698 31.9253 200.984 32.512 200.45 33.28C199.938 34.048 199.682 34.9867 199.682 36.096C199.682 37.184 199.938 38.112 200.45 38.88C200.962 39.6267 201.666 40.2027 202.562 40.608C203.458 40.992 204.472 41.184 205.602 41.184ZM227.141 44.352C225.541 44.352 224.091 44.0107 222.789 43.328C221.509 42.624 220.496 41.6533 219.749 40.416C219.003 39.1573 218.629 37.7067 218.629 36.064C218.629 34.3787 218.992 32.9173 219.717 31.68C220.464 30.4427 221.477 29.4827 222.757 28.8C224.037 28.096 225.499 27.744 227.141 27.744C228.571 27.744 229.787 27.9573 230.789 28.384C231.792 28.8107 232.603 29.408 233.221 30.176C233.84 30.9227 234.288 31.7973 234.565 32.8C234.864 33.8027 235.013 34.8907 235.013 36.064C235.013 37.0027 234.864 37.9627 234.565 38.944C234.267 39.904 233.808 40.8 233.189 41.632C232.571 42.4427 231.76 43.104 230.757 43.616C229.755 44.1067 228.549 44.352 227.141 44.352ZM228.485 41.152C229.744 41.152 230.832 40.9387 231.749 40.512C232.667 40.0853 233.371 39.488 233.861 38.72C234.352 37.952 234.597 37.0667 234.597 36.064C234.597 34.976 234.341 34.0587 233.829 33.312C233.339 32.544 232.635 31.9573 231.717 31.552C230.821 31.1467 229.744 30.944 228.485 30.944C226.715 30.944 225.339 31.4133 224.357 32.352C223.376 33.2907 222.885 34.528 222.885 36.064C222.885 37.088 223.12 37.984 223.589 38.752C224.059 39.4987 224.709 40.0853 225.541 40.512C226.395 40.9387 227.376 41.152 228.485 41.152ZM234.597 21.696H238.757V44H234.885C234.821 43.5093 234.757 42.88 234.693 42.112C234.629 41.3227 234.597 40.5867 234.597 39.904V21.696ZM262.281 44H258.121V28.096H262.281V44ZM258.345 36.352L258.377 37.44C258.335 37.7387 258.228 38.176 258.057 38.752C257.887 39.3067 257.62 39.904 257.257 40.544C256.916 41.184 256.468 41.8027 255.913 42.4C255.359 42.976 254.676 43.456 253.865 43.84C253.055 44.2027 252.095 44.384 250.985 44.384C250.111 44.384 249.247 44.2773 248.393 44.064C247.561 43.8507 246.804 43.4987 246.121 43.008C245.439 42.496 244.895 41.8133 244.489 40.96C244.084 40.1067 243.881 39.0293 243.881 37.728V28.096H248.041V37.024C248.041 38.048 248.201 38.8587 248.521 39.456C248.863 40.032 249.353 40.4373 249.993 40.672C250.633 40.9067 251.391 41.024 252.265 41.024C253.417 41.024 254.409 40.7787 255.241 40.288C256.073 39.776 256.745 39.1573 257.257 38.432C257.791 37.7067 258.153 37.0133 258.345 36.352ZM285.589 37.728C285.482 39.1147 285.034 40.3093 284.245 41.312C283.477 42.3147 282.41 43.0827 281.045 43.616C279.679 44.128 278.058 44.384 276.181 44.384C274.218 44.384 272.458 44.0747 270.901 43.456C269.365 42.816 268.149 41.888 267.253 40.672C266.378 39.4347 265.941 37.9093 265.941 36.096C265.941 34.2827 266.378 32.7573 267.253 31.52C268.149 30.2827 269.365 29.344 270.901 28.704C272.458 28.064 274.218 27.744 276.181 27.744C278.058 27.744 279.669 28.0107 281.013 28.544C282.357 29.056 283.413 29.8027 284.181 30.784C284.97 31.7653 285.429 32.9493 285.557 34.336H281.749C281.386 33.2693 280.714 32.4373 279.733 31.84C278.751 31.2427 277.567 30.944 276.181 30.944C275.071 30.944 274.058 31.136 273.141 31.52C272.245 31.904 271.519 32.48 270.965 33.248C270.431 33.9947 270.165 34.944 270.165 36.096C270.165 37.2267 270.431 38.176 270.965 38.944C271.498 39.6907 272.223 40.256 273.141 40.64C274.058 41.0027 275.071 41.184 276.181 41.184C277.674 41.184 278.89 40.8853 279.829 40.288C280.789 39.6907 281.439 38.8373 281.781 37.728H285.589ZM288.166 28.096H300.518V31.328H288.166V28.096ZM292.262 23.744H296.422V44H292.262V23.744Z" fill="white"/>
</svg>
