<svg width="199" height="83" viewBox="0 0 199 83" fill="none" xmlns="http://www.w3.org/2000/svg">
<rect width="199" height="83" rx="41.5" fill="#1C7947"/>
<path d="M33.088 45.024H37.408C37.4933 45.7493 37.824 46.4107 38.4 47.008C38.9973 47.584 39.776 48.0427 40.736 48.384C41.696 48.704 42.7733 48.864 43.968 48.864C45.056 48.864 45.952 48.7467 46.656 48.512C47.36 48.2773 47.8827 47.9467 48.224 47.52C48.5653 47.0933 48.736 46.5813 48.736 45.984C48.736 45.408 48.5227 44.9707 48.096 44.672C47.6693 44.352 46.9973 44.096 46.08 43.904C45.1627 43.6907 43.9573 43.4773 42.464 43.264C41.2907 43.0933 40.1813 42.8587 39.136 42.56C38.0907 42.24 37.1627 41.8347 36.352 41.344C35.5627 40.8533 34.9333 40.256 34.464 39.552C34.016 38.8267 33.792 37.9733 33.792 36.992C33.792 35.776 34.1333 34.7093 34.816 33.792C35.52 32.8747 36.5547 32.16 37.92 31.648C39.2853 31.136 40.96 30.88 42.944 30.88C45.9307 30.88 48.224 31.52 49.824 32.8C51.4453 34.0587 52.2347 35.7973 52.192 38.016H48.032C47.9467 36.7573 47.4133 35.8507 46.432 35.296C45.472 34.7413 44.256 34.464 42.784 34.464C41.4187 34.464 40.288 34.6667 39.392 35.072C38.5173 35.4773 38.08 36.1707 38.08 37.152C38.08 37.536 38.1867 37.8773 38.4 38.176C38.6133 38.4533 38.976 38.6987 39.488 38.912C40 39.1253 40.6933 39.328 41.568 39.52C42.4427 39.712 43.5307 39.904 44.832 40.096C46.048 40.2667 47.1467 40.5013 48.128 40.8C49.1307 41.0773 49.984 41.4507 50.688 41.92C51.4133 42.368 51.968 42.944 52.352 43.648C52.736 44.352 52.928 45.216 52.928 46.24C52.928 47.4987 52.5973 48.5973 51.936 49.536C51.296 50.4533 50.2933 51.168 48.928 51.68C47.584 52.192 45.8347 52.448 43.68 52.448C42.144 52.448 40.7893 52.288 39.616 51.968C38.4427 51.6267 37.4293 51.1787 36.576 50.624C35.7227 50.0693 35.0293 49.4613 34.496 48.8C33.9627 48.1387 33.5787 47.4773 33.344 46.816C33.1307 46.1547 33.0453 45.5573 33.088 45.024ZM55.6587 36.096H68.0107V39.328H55.6587V36.096ZM59.7547 31.744H63.9148V52H59.7547V31.744ZM78.819 52.352C77.2403 52.352 75.8003 52.0107 74.499 51.328C73.219 50.624 72.195 49.6533 71.427 48.416C70.6803 47.1573 70.307 45.7067 70.307 44.064C70.307 42.3787 70.691 40.9173 71.459 39.68C72.227 38.4427 73.2617 37.4827 74.563 36.8C75.8857 36.096 77.379 35.744 79.043 35.744C80.8777 35.744 82.3497 36.1173 83.459 36.864C84.5897 37.5893 85.411 38.5813 85.923 39.84C86.435 41.0987 86.691 42.5067 86.691 44.064C86.691 45.0027 86.5417 45.9627 86.243 46.944C85.9443 47.904 85.4857 48.8 84.867 49.632C84.2483 50.4427 83.4377 51.104 82.435 51.616C81.4323 52.1067 80.227 52.352 78.819 52.352ZM80.163 49.152C81.4217 49.152 82.5097 48.9387 83.427 48.512C84.3443 48.0853 85.0483 47.488 85.539 46.72C86.0297 45.952 86.275 45.0667 86.275 44.064C86.275 42.976 86.019 42.0587 85.507 41.312C85.0163 40.544 84.3123 39.968 83.395 39.584C82.499 39.1787 81.4217 38.976 80.163 38.976C78.3923 38.976 77.0163 39.4453 76.035 40.384C75.0537 41.3013 74.563 42.528 74.563 44.064C74.563 45.088 74.7977 45.984 75.267 46.752C75.7363 47.4987 76.387 48.0853 77.219 48.512C78.0723 48.9387 79.0537 49.152 80.163 49.152ZM86.275 36.096H90.435V52H86.563C86.563 52 86.531 51.7973 86.467 51.392C86.4243 50.9653 86.3817 50.432 86.339 49.792C86.2963 49.152 86.275 48.5227 86.275 47.904V36.096ZM94.84 36.096H99V52H94.84V36.096ZM105.112 39.52C103.917 39.52 102.883 39.7547 102.008 40.224C101.133 40.672 100.429 41.2267 99.896 41.888C99.3627 42.5493 98.9893 43.1893 98.776 43.808L98.744 42.048C98.7653 41.792 98.8507 41.4187 99 40.928C99.1493 40.416 99.3733 39.872 99.672 39.296C99.9707 38.6987 100.365 38.1333 100.856 37.6C101.347 37.0453 101.944 36.5973 102.648 36.256C103.352 35.9147 104.173 35.744 105.112 35.744V39.52ZM107.297 36.096H119.649V39.328H107.297V36.096ZM111.393 31.744H115.553V52H111.393V31.744ZM141.332 52H137.172V36.096H141.332V52ZM137.396 44.352L137.428 45.44C137.386 45.7387 137.279 46.176 137.108 46.752C136.938 47.3067 136.671 47.904 136.308 48.544C135.967 49.184 135.519 49.8027 134.964 50.4C134.41 50.976 133.727 51.456 132.916 51.84C132.106 52.2027 131.146 52.384 130.036 52.384C129.162 52.384 128.298 52.2773 127.444 52.064C126.612 51.8507 125.855 51.4987 125.172 51.008C124.49 50.496 123.946 49.8133 123.54 48.96C123.135 48.1067 122.932 47.0293 122.932 45.728V36.096H127.092V45.024C127.092 46.048 127.252 46.8587 127.572 47.456C127.914 48.032 128.404 48.4373 129.044 48.672C129.684 48.9067 130.442 49.024 131.316 49.024C132.468 49.024 133.46 48.7787 134.292 48.288C135.124 47.776 135.796 47.1573 136.308 46.432C136.842 45.7067 137.204 45.0133 137.396 44.352ZM157.344 52.384C155.936 52.384 154.731 52.1387 153.728 51.648C152.747 51.136 151.947 50.4747 151.328 49.664C150.709 48.832 150.251 47.9253 149.952 46.944C149.653 45.9627 149.504 45.0027 149.504 44.064C149.504 42.8907 149.643 41.8027 149.92 40.8C150.219 39.7973 150.677 38.9227 151.296 38.176C151.915 37.408 152.715 36.8107 153.696 36.384C154.699 35.9573 155.915 35.744 157.344 35.744C158.944 35.744 160.384 36.096 161.664 36.8C162.944 37.504 163.957 38.4853 164.704 39.744C165.472 40.9813 165.856 42.4213 165.856 44.064C165.856 45.7493 165.472 47.2213 164.704 48.48C163.936 49.7173 162.912 50.6773 161.632 51.36C160.352 52.0427 158.923 52.384 157.344 52.384ZM156 49.152C157.131 49.152 158.112 48.9387 158.944 48.512C159.797 48.0853 160.448 47.4987 160.896 46.752C161.365 45.984 161.6 45.088 161.6 44.064C161.6 42.528 161.109 41.2907 160.128 40.352C159.168 39.4133 157.792 38.944 156 38.944C154.869 38.944 153.835 39.1467 152.896 39.552C151.979 39.9573 151.253 40.544 150.72 41.312C150.187 42.0587 149.92 42.976 149.92 44.064C149.92 45.088 150.165 45.984 150.656 46.752C151.147 47.4987 151.851 48.0853 152.768 48.512C153.685 48.9387 154.763 49.152 156 49.152ZM145.76 36.096H149.728L149.92 40.32V58.4H145.76V36.096Z" fill="white"/>
</svg>
