<svg width="166" height="58" viewBox="0 0 166 58" fill="none" xmlns="http://www.w3.org/2000/svg">
<rect width="166" height="58" rx="29" fill="#E14841"/>
<path d="M36.272 33.616V30.952H46.544V33.616H36.272ZM32.408 37L39.704 21.472H43.16L50.528 37H47.048L40.664 23.008H42.2L35.864 37H32.408ZM58.6689 35.176C57.3729 35.176 56.2289 34.984 55.2369 34.6C54.2609 34.2 53.5009 33.616 52.9569 32.848C52.4129 32.08 52.1409 31.152 52.1409 30.064C52.1409 28.992 52.4049 28.064 52.9329 27.28C53.4609 26.496 54.2129 25.888 55.1889 25.456C56.1809 25.024 57.3409 24.808 58.6689 24.808C59.0369 24.808 59.3889 24.832 59.7249 24.88C60.0769 24.928 60.4209 24.992 60.7569 25.072L66.7809 25.096V27.448C65.9649 27.464 65.1329 27.368 64.2849 27.16C63.4529 26.936 62.7169 26.696 62.0769 26.44L62.0049 26.272C62.5489 26.528 63.0609 26.848 63.5409 27.232C64.0209 27.6 64.4049 28.032 64.6929 28.528C64.9969 29.008 65.1489 29.568 65.1489 30.208C65.1489 31.248 64.8849 32.144 64.3569 32.896C63.8289 33.632 63.0769 34.2 62.1009 34.6C61.1409 34.984 59.9969 35.176 58.6689 35.176ZM62.6769 41.92V41.344C62.6769 40.608 62.4369 40.096 61.9569 39.808C61.4929 39.52 60.8529 39.376 60.0369 39.376H56.3169C55.5969 39.376 54.9889 39.32 54.4929 39.208C54.0129 39.096 53.6289 38.936 53.3409 38.728C53.0529 38.52 52.8449 38.272 52.7169 37.984C52.5889 37.712 52.5249 37.416 52.5249 37.096C52.5249 36.456 52.7329 35.976 53.1489 35.656C53.5649 35.32 54.1249 35.096 54.8289 34.984C55.5329 34.872 56.3089 34.848 57.1569 34.912L58.6689 35.176C57.6609 35.208 56.9089 35.296 56.4129 35.44C55.9329 35.568 55.6929 35.832 55.6929 36.232C55.6929 36.472 55.7889 36.664 55.9809 36.808C56.1729 36.936 56.4449 37 56.7969 37H60.7089C61.7809 37 62.6929 37.112 63.4449 37.336C64.2129 37.576 64.7969 37.968 65.1969 38.512C65.5969 39.072 65.7969 39.832 65.7969 40.792V41.92H62.6769ZM58.6689 32.92C59.3569 32.92 59.9569 32.808 60.4689 32.584C60.9969 32.36 61.4049 32.04 61.6929 31.624C61.9809 31.192 62.1249 30.68 62.1249 30.088C62.1249 29.48 61.9809 28.96 61.6929 28.528C61.4049 28.096 61.0049 27.768 60.4929 27.544C59.9809 27.304 59.3729 27.184 58.6689 27.184C57.9809 27.184 57.3729 27.304 56.8449 27.544C56.3169 27.768 55.9089 28.096 55.6209 28.528C55.3329 28.96 55.1889 29.48 55.1889 30.088C55.1889 30.68 55.3329 31.192 55.6209 31.624C55.9089 32.04 56.3089 32.36 56.8209 32.584C57.3489 32.808 57.9649 32.92 58.6689 32.92ZM79.9595 33.04H82.9835C82.8555 33.856 82.5115 34.584 81.9515 35.224C81.4075 35.864 80.6635 36.368 79.7195 36.736C78.7755 37.104 77.6235 37.288 76.2635 37.288C74.7435 37.288 73.3995 37.048 72.2315 36.568C71.0635 36.072 70.1515 35.36 69.4955 34.432C68.8395 33.504 68.5115 32.384 68.5115 31.072C68.5115 29.76 68.8315 28.64 69.4715 27.712C70.1115 26.768 70.9995 26.048 72.1355 25.552C73.2875 25.056 74.6315 24.808 76.1675 24.808C77.7355 24.808 79.0395 25.056 80.0795 25.552C81.1195 26.048 81.8875 26.8 82.3835 27.808C82.8955 28.8 83.1115 30.072 83.0315 31.624H71.6555C71.7355 32.232 71.9595 32.784 72.3275 33.28C72.7115 33.776 73.2235 34.168 73.8635 34.456C74.5195 34.744 75.2955 34.888 76.1915 34.888C77.1835 34.888 78.0075 34.72 78.6635 34.384C79.3355 34.032 79.7675 33.584 79.9595 33.04ZM76.0235 27.184C74.8715 27.184 73.9355 27.44 73.2155 27.952C72.4955 28.448 72.0315 29.064 71.8235 29.8H79.9355C79.8555 29 79.4715 28.368 78.7835 27.904C78.1115 27.424 77.1915 27.184 76.0235 27.184ZM85.8331 25.072H88.9531V37H85.8331V25.072ZM94.4971 24.808C95.2331 24.808 95.9131 24.904 96.5371 25.096C97.1611 25.288 97.7051 25.584 98.1691 25.984C98.6331 26.384 98.9931 26.896 99.2491 27.52C99.5051 28.128 99.6331 28.856 99.6331 29.704V37H96.5131V30.256C96.5131 29.248 96.2651 28.512 95.7691 28.048C95.2891 27.568 94.4971 27.328 93.3931 27.328C92.5611 27.328 91.8091 27.488 91.1371 27.808C90.4651 28.128 89.9211 28.536 89.5051 29.032C89.0891 29.512 88.8491 30.016 88.7851 30.544L88.7611 29.32C88.8411 28.76 89.0251 28.216 89.3131 27.688C89.6011 27.16 89.9851 26.68 90.4651 26.248C90.9611 25.8 91.5451 25.448 92.2171 25.192C92.8891 24.936 93.6491 24.808 94.4971 24.808ZM117.114 32.296C117.034 33.336 116.698 34.232 116.106 34.984C115.53 35.736 114.73 36.312 113.706 36.712C112.682 37.096 111.466 37.288 110.058 37.288C108.586 37.288 107.266 37.056 106.098 36.592C104.946 36.112 104.034 35.416 103.362 34.504C102.706 33.576 102.378 32.432 102.378 31.072C102.378 29.712 102.706 28.568 103.362 27.64C104.034 26.712 104.946 26.008 106.098 25.528C107.266 25.048 108.586 24.808 110.058 24.808C111.466 24.808 112.674 25.008 113.682 25.408C114.69 25.792 115.482 26.352 116.058 27.088C116.65 27.824 116.994 28.712 117.09 29.752H114.234C113.962 28.952 113.458 28.328 112.722 27.88C111.986 27.432 111.098 27.208 110.058 27.208C109.226 27.208 108.466 27.352 107.778 27.64C107.106 27.928 106.562 28.36 106.146 28.936C105.746 29.496 105.546 30.208 105.546 31.072C105.546 31.92 105.746 32.632 106.146 33.208C106.546 33.768 107.09 34.192 107.778 34.48C108.466 34.752 109.226 34.888 110.058 34.888C111.178 34.888 112.09 34.664 112.794 34.216C113.514 33.768 114.002 33.128 114.258 32.296H117.114ZM118.807 25.072H122.119L127.279 36.52L124.591 37L118.807 25.072ZM133.399 25.072L125.143 41.8H121.903L125.431 35.224L130.063 25.072H133.399Z" fill="white"/>
</svg>
