<svg width="391" height="67" viewBox="0 0 391 67" fill="none" xmlns="http://www.w3.org/2000/svg">
<rect width="391" height="67" rx="33.5" fill="#1C7947"/>
<path d="M37.696 39.488V35.936H51.392V39.488H37.696ZM32.544 44L42.272 23.296H46.88L56.704 44H52.064L43.552 25.344H45.6L37.152 44H32.544ZM71.394 44.384C69.986 44.384 68.7807 44.1387 67.778 43.648C66.7967 43.136 65.9967 42.4747 65.378 41.664C64.7593 40.832 64.3007 39.9253 64.002 38.944C63.7033 37.9627 63.554 37.0027 63.554 36.064C63.554 34.8907 63.6927 33.8027 63.97 32.8C64.2687 31.7973 64.7273 30.9227 65.346 30.176C65.9647 29.408 66.7647 28.8107 67.746 28.384C68.7487 27.9573 69.9647 27.744 71.394 27.744C72.994 27.744 74.434 28.096 75.714 28.8C76.994 29.504 78.0073 30.4853 78.754 31.744C79.522 32.9813 79.906 34.4213 79.906 36.064C79.906 37.7493 79.522 39.2213 78.754 40.48C77.986 41.7173 76.962 42.6773 75.682 43.36C74.402 44.0427 72.9727 44.384 71.394 44.384ZM70.05 41.152C71.1807 41.152 72.162 40.9387 72.994 40.512C73.8473 40.0853 74.498 39.4987 74.946 38.752C75.4153 37.984 75.65 37.088 75.65 36.064C75.65 34.528 75.1593 33.2907 74.178 32.352C73.218 31.4133 71.842 30.944 70.05 30.944C68.9193 30.944 67.8847 31.1467 66.946 31.552C66.0287 31.9573 65.3033 32.544 64.77 33.312C64.2367 34.0587 63.97 34.976 63.97 36.064C63.97 37.088 64.2153 37.984 64.706 38.752C65.1967 39.4987 65.9007 40.0853 66.818 40.512C67.7353 40.9387 68.8127 41.152 70.05 41.152ZM59.81 28.096H63.778L63.97 32.32V50.4H59.81V28.096ZM95.1902 44.384C93.7822 44.384 92.5769 44.1387 91.5742 43.648C90.5929 43.136 89.7929 42.4747 89.1742 41.664C88.5556 40.832 88.0969 39.9253 87.7982 38.944C87.4996 37.9627 87.3502 37.0027 87.3502 36.064C87.3502 34.8907 87.4889 33.8027 87.7662 32.8C88.0649 31.7973 88.5236 30.9227 89.1422 30.176C89.7609 29.408 90.5609 28.8107 91.5422 28.384C92.5449 27.9573 93.7609 27.744 95.1902 27.744C96.7902 27.744 98.2302 28.096 99.5103 28.8C100.79 29.504 101.804 30.4853 102.55 31.744C103.318 32.9813 103.702 34.4213 103.702 36.064C103.702 37.7493 103.318 39.2213 102.55 40.48C101.782 41.7173 100.758 42.6773 99.4783 43.36C98.1982 44.0427 96.7689 44.384 95.1902 44.384ZM93.8462 41.152C94.9769 41.152 95.9582 40.9387 96.7902 40.512C97.6436 40.0853 98.2942 39.4987 98.7423 38.752C99.2116 37.984 99.4462 37.088 99.4462 36.064C99.4462 34.528 98.9556 33.2907 97.9742 32.352C97.0142 31.4133 95.6382 30.944 93.8462 30.944C92.7156 30.944 91.6809 31.1467 90.7422 31.552C89.8249 31.9573 89.0996 32.544 88.5662 33.312C88.0329 34.0587 87.7662 34.976 87.7662 36.064C87.7662 37.088 88.0116 37.984 88.5022 38.752C88.9929 39.4987 89.6969 40.0853 90.6142 40.512C91.5316 40.9387 92.6089 41.152 93.8462 41.152ZM83.6062 28.096H87.5742L87.7662 32.32V50.4H83.6062V28.096ZM128.145 23.296C130.471 23.296 132.412 23.5733 133.969 24.128C135.527 24.6827 136.764 25.44 137.681 26.4C138.62 27.3387 139.281 28.4267 139.665 29.664C140.071 30.9013 140.273 32.2027 140.273 33.568C140.273 34.9333 140.049 36.2453 139.601 37.504C139.175 38.7627 138.481 39.8827 137.521 40.864C136.583 41.824 135.335 42.592 133.777 43.168C132.241 43.7227 130.364 44 128.145 44H116.305V23.296H128.145ZM120.561 40.352H128.049C129.585 40.352 130.855 40.1707 131.857 39.808C132.881 39.424 133.692 38.912 134.289 38.272C134.887 37.632 135.313 36.9067 135.569 36.096C135.825 35.2853 135.953 34.4427 135.953 33.568C135.953 32.6933 135.825 31.8613 135.569 31.072C135.313 30.2827 134.887 29.5787 134.289 28.96C133.692 28.3413 132.881 27.8507 131.857 27.488C130.855 27.1253 129.585 26.944 128.049 26.944H120.561V40.352ZM159.022 38.72H163.054C162.884 39.808 162.425 40.7787 161.678 41.632C160.953 42.4853 159.961 43.1573 158.702 43.648C157.444 44.1387 155.908 44.384 154.094 44.384C152.068 44.384 150.276 44.064 148.718 43.424C147.161 42.7627 145.945 41.8133 145.07 40.576C144.196 39.3387 143.758 37.8453 143.758 36.096C143.758 34.3467 144.185 32.8533 145.038 31.616C145.892 30.3573 147.076 29.3973 148.59 28.736C150.126 28.0747 151.918 27.744 153.966 27.744C156.057 27.744 157.796 28.0747 159.182 28.736C160.569 29.3973 161.593 30.4 162.254 31.744C162.937 33.0667 163.225 34.7627 163.118 36.832H147.95C148.057 37.6427 148.356 38.3787 148.846 39.04C149.358 39.7013 150.041 40.224 150.894 40.608C151.769 40.992 152.804 41.184 153.998 41.184C155.321 41.184 156.42 40.96 157.294 40.512C158.19 40.0427 158.766 39.4453 159.022 38.72ZM153.774 30.912C152.238 30.912 150.99 31.2533 150.03 31.936C149.07 32.5973 148.452 33.4187 148.174 34.4H158.99C158.884 33.3333 158.372 32.4907 157.454 31.872C156.558 31.232 155.332 30.912 153.774 30.912ZM174.997 41.28H173.493L179.317 28.096H183.861L176.213 44H172.277L164.789 28.096H169.365L174.997 41.28ZM200.708 38.72H204.74C204.57 39.808 204.111 40.7787 203.364 41.632C202.639 42.4853 201.647 43.1573 200.388 43.648C199.13 44.1387 197.594 44.384 195.78 44.384C193.754 44.384 191.962 44.064 190.404 43.424C188.847 42.7627 187.631 41.8133 186.756 40.576C185.882 39.3387 185.444 37.8453 185.444 36.096C185.444 34.3467 185.871 32.8533 186.724 31.616C187.578 30.3573 188.762 29.3973 190.276 28.736C191.812 28.0747 193.604 27.744 195.652 27.744C197.743 27.744 199.482 28.0747 200.868 28.736C202.255 29.3973 203.279 30.4 203.94 31.744C204.623 33.0667 204.911 34.7627 204.804 36.832H189.636C189.743 37.6427 190.042 38.3787 190.532 39.04C191.044 39.7013 191.727 40.224 192.58 40.608C193.455 40.992 194.49 41.184 195.684 41.184C197.007 41.184 198.106 40.96 198.98 40.512C199.876 40.0427 200.452 39.4453 200.708 38.72ZM195.46 30.912C193.924 30.912 192.676 31.2533 191.716 31.936C190.756 32.5973 190.138 33.4187 189.86 34.4H200.676C200.57 33.3333 200.058 32.4907 199.14 31.872C198.244 31.232 197.018 30.912 195.46 30.912ZM208.86 21.696H213.02V44H208.86V21.696ZM227.243 44.384C225.238 44.384 223.467 44.064 221.931 43.424C220.417 42.784 219.233 41.856 218.379 40.64C217.526 39.4027 217.099 37.888 217.099 36.096C217.099 34.304 217.526 32.7893 218.379 31.552C219.233 30.2933 220.417 29.344 221.931 28.704C223.467 28.064 225.238 27.744 227.243 27.744C229.249 27.744 230.998 28.064 232.491 28.704C234.006 29.344 235.19 30.2933 236.043 31.552C236.897 32.7893 237.323 34.304 237.323 36.096C237.323 37.888 236.897 39.4027 236.043 40.64C235.19 41.856 234.006 42.784 232.491 43.424C230.998 44.064 229.249 44.384 227.243 44.384ZM227.243 41.184C228.353 41.184 229.345 40.992 230.219 40.608C231.115 40.2027 231.819 39.6267 232.331 38.88C232.843 38.112 233.099 37.184 233.099 36.096C233.099 35.008 232.843 34.08 232.331 33.312C231.819 32.5227 231.126 31.9253 230.251 31.52C229.377 31.1147 228.374 30.912 227.243 30.912C226.134 30.912 225.131 31.1147 224.235 31.52C223.339 31.9253 222.625 32.512 222.091 33.28C221.579 34.048 221.323 34.9867 221.323 36.096C221.323 37.184 221.579 38.112 222.091 38.88C222.603 39.6267 223.307 40.2027 224.203 40.608C225.099 40.992 226.113 41.184 227.243 41.184ZM252.623 44.384C251.215 44.384 250.009 44.1387 249.007 43.648C248.025 43.136 247.225 42.4747 246.607 41.664C245.988 40.832 245.529 39.9253 245.231 38.944C244.932 37.9627 244.783 37.0027 244.783 36.064C244.783 34.8907 244.921 33.8027 245.199 32.8C245.497 31.7973 245.956 30.9227 246.575 30.176C247.193 29.408 247.993 28.8107 248.975 28.384C249.977 27.9573 251.193 27.744 252.623 27.744C254.223 27.744 255.663 28.096 256.943 28.8C258.223 29.504 259.236 30.4853 259.983 31.744C260.751 32.9813 261.135 34.4213 261.135 36.064C261.135 37.7493 260.751 39.2213 259.983 40.48C259.215 41.7173 258.191 42.6773 256.911 43.36C255.631 44.0427 254.201 44.384 252.623 44.384ZM251.279 41.152C252.409 41.152 253.391 40.9387 254.223 40.512C255.076 40.0853 255.727 39.4987 256.175 38.752C256.644 37.984 256.879 37.088 256.879 36.064C256.879 34.528 256.388 33.2907 255.407 32.352C254.447 31.4133 253.071 30.944 251.279 30.944C250.148 30.944 249.113 31.1467 248.175 31.552C247.257 31.9573 246.532 32.544 245.999 33.312C245.465 34.0587 245.199 34.976 245.199 36.064C245.199 37.088 245.444 37.984 245.935 38.752C246.425 39.4987 247.129 40.0853 248.047 40.512C248.964 40.9387 250.041 41.152 251.279 41.152ZM241.039 28.096H245.007L245.199 32.32V50.4H241.039V28.096ZM264.835 28.096H268.995V44H264.835V28.096ZM276.387 27.744C277.368 27.744 278.275 27.872 279.107 28.128C279.939 28.384 280.664 28.7787 281.283 29.312C281.902 29.8453 282.382 30.528 282.723 31.36C283.064 32.1707 283.235 33.1413 283.235 34.272V44H279.075V35.008C279.075 33.664 278.744 32.6827 278.083 32.064C277.443 31.424 276.387 31.104 274.915 31.104C273.806 31.104 272.803 31.3173 271.907 31.744C271.011 32.1707 270.286 32.7147 269.731 33.376C269.176 34.016 268.856 34.688 268.771 35.392L268.739 33.76C268.846 33.0133 269.091 32.288 269.475 31.584C269.859 30.88 270.371 30.24 271.011 29.664C271.672 29.0667 272.451 28.5973 273.347 28.256C274.243 27.9147 275.256 27.744 276.387 27.744ZM290.243 27.744C291.224 27.744 292.131 27.872 292.963 28.128C293.795 28.384 294.52 28.7787 295.139 29.312C295.758 29.8453 296.238 30.528 296.579 31.36C296.942 32.1707 297.123 33.1413 297.123 34.272V44H292.963V35.008C292.963 33.664 292.632 32.6827 291.971 32.064C291.31 31.424 290.243 31.104 288.771 31.104C287.662 31.104 286.659 31.3173 285.763 31.744C284.867 32.1707 284.142 32.7147 283.587 33.376C283.032 34.016 282.723 34.688 282.659 35.392L282.595 33.664C282.702 32.96 282.958 32.256 283.363 31.552C283.768 30.848 284.302 30.208 284.963 29.632C285.624 29.056 286.392 28.5973 287.267 28.256C288.163 27.9147 289.155 27.744 290.243 27.744ZM316.033 38.72H320.065C319.895 39.808 319.436 40.7787 318.689 41.632C317.964 42.4853 316.972 43.1573 315.713 43.648C314.455 44.1387 312.919 44.384 311.105 44.384C309.079 44.384 307.287 44.064 305.729 43.424C304.172 42.7627 302.956 41.8133 302.081 40.576C301.207 39.3387 300.769 37.8453 300.769 36.096C300.769 34.3467 301.196 32.8533 302.049 31.616C302.903 30.3573 304.087 29.3973 305.601 28.736C307.137 28.0747 308.929 27.744 310.977 27.744C313.068 27.744 314.807 28.0747 316.193 28.736C317.58 29.3973 318.604 30.4 319.265 31.744C319.948 33.0667 320.236 34.7627 320.129 36.832H304.961C305.068 37.6427 305.367 38.3787 305.857 39.04C306.369 39.7013 307.052 40.224 307.905 40.608C308.78 40.992 309.815 41.184 311.009 41.184C312.332 41.184 313.431 40.96 314.305 40.512C315.201 40.0427 315.777 39.4453 316.033 38.72ZM310.785 30.912C309.249 30.912 308.001 31.2533 307.041 31.936C306.081 32.5973 305.463 33.4187 305.185 34.4H316.001C315.895 33.3333 315.383 32.4907 314.465 31.872C313.569 31.232 312.343 30.912 310.785 30.912ZM323.865 28.096H328.025V44H323.865V28.096ZM335.417 27.744C336.398 27.744 337.305 27.872 338.137 28.128C338.969 28.384 339.694 28.7787 340.313 29.312C340.932 29.8453 341.412 30.528 341.753 31.36C342.094 32.1707 342.265 33.1413 342.265 34.272V44H338.105V35.008C338.105 33.664 337.774 32.6827 337.113 32.064C336.473 31.424 335.417 31.104 333.945 31.104C332.836 31.104 331.833 31.3173 330.937 31.744C330.041 32.1707 329.316 32.7147 328.761 33.376C328.206 34.016 327.886 34.688 327.801 35.392L327.769 33.76C327.876 33.0133 328.121 32.288 328.505 31.584C328.889 30.88 329.401 30.24 330.041 29.664C330.702 29.0667 331.481 28.5973 332.377 28.256C333.273 27.9147 334.286 27.744 335.417 27.744ZM345.572 28.096H357.924V31.328H345.572V28.096ZM349.668 23.744H353.828V44H349.668V23.744Z" fill="white"/>
</svg>
