<svg width="188" height="83" viewBox="0 0 188 83" fill="none" xmlns="http://www.w3.org/2000/svg">
<rect width="188" height="83" rx="41.5" fill="#2C3950"/>
<path d="M46.304 31.296C48.6293 31.296 50.5707 31.5733 52.128 32.128C53.6853 32.6827 54.9227 33.44 55.84 34.4C56.7787 35.3387 57.44 36.4267 57.824 37.664C58.2293 38.9013 58.432 40.2027 58.432 41.568C58.432 42.9333 58.208 44.2453 57.76 45.504C57.3333 46.7627 56.64 47.8827 55.68 48.864C54.7413 49.824 53.4933 50.592 51.936 51.168C50.4 51.7227 48.5227 52 46.304 52H34.464V31.296H46.304ZM38.72 48.352H46.208C47.744 48.352 49.0133 48.1707 50.016 47.808C51.04 47.424 51.8507 46.912 52.448 46.272C53.0453 45.632 53.472 44.9067 53.728 44.096C53.984 43.2853 54.112 42.4427 54.112 41.568C54.112 40.6933 53.984 39.8613 53.728 39.072C53.472 38.2827 53.0453 37.5787 52.448 36.96C51.8507 36.3413 51.04 35.8507 50.016 35.488C49.0133 35.1253 47.744 34.944 46.208 34.944H38.72V48.352ZM77.181 46.72H81.213C81.0423 47.808 80.5837 48.7787 79.837 49.632C79.1117 50.4853 78.1197 51.1573 76.861 51.648C75.6023 52.1387 74.0663 52.384 72.253 52.384C70.2263 52.384 68.4343 52.064 66.877 51.424C65.3197 50.7627 64.1037 49.8133 63.229 48.576C62.3543 47.3387 61.917 45.8453 61.917 44.096C61.917 42.3467 62.3437 40.8533 63.197 39.616C64.0503 38.3573 65.2343 37.3973 66.749 36.736C68.285 36.0747 70.077 35.744 72.125 35.744C74.2157 35.744 75.9543 36.0747 77.341 36.736C78.7277 37.3973 79.7517 38.4 80.413 39.744C81.0957 41.0667 81.3837 42.7627 81.277 44.832H66.109C66.2157 45.6427 66.5143 46.3787 67.005 47.04C67.517 47.7013 68.1997 48.224 69.053 48.608C69.9277 48.992 70.9623 49.184 72.157 49.184C73.4797 49.184 74.5783 48.96 75.453 48.512C76.349 48.0427 76.925 47.4453 77.181 46.72ZM71.933 38.912C70.397 38.912 69.149 39.2533 68.189 39.936C67.229 40.5973 66.6103 41.4187 66.333 42.4H77.149C77.0423 41.3333 76.5303 40.4907 75.613 39.872C74.717 39.232 73.4903 38.912 71.933 38.912ZM84.3725 46.72H88.2125C88.4472 47.4453 88.9272 48.0427 89.6525 48.512C90.3992 48.96 91.3698 49.184 92.5645 49.184C93.3752 49.184 94.0045 49.1093 94.4525 48.96C94.9005 48.8107 95.2098 48.5973 95.3805 48.32C95.5512 48.0213 95.6365 47.6907 95.6365 47.328C95.6365 46.88 95.4978 46.5387 95.2205 46.304C94.9432 46.048 94.5165 45.8453 93.9405 45.696C93.3645 45.5467 92.6285 45.408 91.7325 45.28C90.8365 45.1307 89.9725 44.9493 89.1405 44.736C88.3085 44.5227 87.5725 44.2453 86.9325 43.904C86.2925 43.5413 85.7805 43.0933 85.3965 42.56C85.0338 42.0053 84.8525 41.3333 84.8525 40.544C84.8525 39.776 85.0338 39.0933 85.3965 38.496C85.7805 37.8987 86.3032 37.3973 86.9645 36.992C87.6472 36.5867 88.4365 36.2773 89.3325 36.064C90.2498 35.8507 91.2312 35.744 92.2765 35.744C93.8552 35.744 95.1672 35.9787 96.2125 36.448C97.2578 36.896 98.0365 37.536 98.5485 38.368C99.0818 39.1787 99.3485 40.1173 99.3485 41.184H95.6685C95.4978 40.3947 95.1565 39.8293 94.6445 39.488C94.1325 39.1253 93.3432 38.944 92.2765 38.944C91.2312 38.944 90.4418 39.104 89.9085 39.424C89.3752 39.744 89.1085 40.1813 89.1085 40.736C89.1085 41.184 89.2685 41.536 89.5885 41.792C89.9298 42.0267 90.4205 42.2187 91.0605 42.368C91.7218 42.5173 92.5432 42.6773 93.5245 42.848C94.3565 43.0187 95.1458 43.2107 95.8925 43.424C96.6605 43.6373 97.3432 43.9147 97.9405 44.256C98.5378 44.576 99.0072 45.0133 99.3485 45.568C99.7112 46.1013 99.8925 46.784 99.8925 47.616C99.8925 48.64 99.5938 49.504 98.9965 50.208C98.4205 50.912 97.5885 51.456 96.5005 51.84C95.4125 52.2027 94.1112 52.384 92.5965 52.384C91.2525 52.384 90.0898 52.2453 89.1085 51.968C88.1485 51.6693 87.3485 51.296 86.7085 50.848C86.0685 50.3787 85.5672 49.888 85.2045 49.376C84.8632 48.8427 84.6285 48.3413 84.5005 47.872C84.3725 47.4027 84.3298 47.0187 84.3725 46.72ZM108.483 29.12V32.768H103.651V29.12H108.483ZM103.971 36.096H108.131V52H103.971V36.096ZM120.853 49.568C119.125 49.568 117.6 49.312 116.277 48.8C114.976 48.2667 113.963 47.488 113.237 46.464C112.512 45.44 112.149 44.2027 112.149 42.752C112.149 41.3227 112.501 40.0853 113.205 39.04C113.909 37.9947 114.912 37.184 116.213 36.608C117.536 36.032 119.083 35.744 120.853 35.744C121.344 35.744 121.813 35.776 122.261 35.84C122.731 35.904 123.189 35.9893 123.637 36.096L131.669 36.128V39.264C130.581 39.2853 129.472 39.1573 128.341 38.88C127.232 38.5813 126.251 38.2613 125.397 37.92L125.301 37.696C126.027 38.0373 126.709 38.464 127.349 38.976C127.989 39.4667 128.501 40.0427 128.885 40.704C129.291 41.344 129.493 42.0907 129.493 42.944C129.493 44.3307 129.141 45.5253 128.437 46.528C127.733 47.5093 126.731 48.2667 125.429 48.8C124.149 49.312 122.624 49.568 120.853 49.568ZM126.197 58.56V57.792C126.197 56.8107 125.877 56.128 125.237 55.744C124.619 55.36 123.765 55.168 122.677 55.168H117.717C116.757 55.168 115.947 55.0933 115.285 54.944C114.645 54.7947 114.133 54.5813 113.749 54.304C113.365 54.0267 113.088 53.696 112.917 53.312C112.747 52.9493 112.661 52.5547 112.661 52.128C112.661 51.2747 112.939 50.6347 113.493 50.208C114.048 49.76 114.795 49.4613 115.733 49.312C116.672 49.1627 117.707 49.1307 118.837 49.216L120.853 49.568C119.509 49.6107 118.507 49.728 117.845 49.92C117.205 50.0907 116.885 50.4427 116.885 50.976C116.885 51.296 117.013 51.552 117.269 51.744C117.525 51.9147 117.888 52 118.357 52H123.573C125.003 52 126.219 52.1493 127.221 52.448C128.245 52.768 129.024 53.2907 129.557 54.016C130.091 54.7627 130.357 55.776 130.357 57.056V58.56H126.197ZM120.853 46.56C121.771 46.56 122.571 46.4107 123.253 46.112C123.957 45.8133 124.501 45.3867 124.885 44.832C125.269 44.256 125.461 43.5733 125.461 42.784C125.461 41.9733 125.269 41.28 124.885 40.704C124.501 40.128 123.968 39.6907 123.285 39.392C122.603 39.072 121.792 38.912 120.853 38.912C119.936 38.912 119.125 39.072 118.421 39.392C117.717 39.6907 117.173 40.128 116.789 40.704C116.405 41.28 116.213 41.9733 116.213 42.784C116.213 43.5733 116.405 44.256 116.789 44.832C117.173 45.3867 117.707 45.8133 118.389 46.112C119.093 46.4107 119.915 46.56 120.853 46.56ZM135.026 36.096H139.186V52H135.026V36.096ZM146.578 35.744C147.56 35.744 148.466 35.872 149.298 36.128C150.13 36.384 150.856 36.7787 151.474 37.312C152.093 37.8453 152.573 38.528 152.914 39.36C153.256 40.1707 153.426 41.1413 153.426 42.272V52H149.266V43.008C149.266 41.664 148.936 40.6827 148.274 40.064C147.634 39.424 146.578 39.104 145.106 39.104C143.997 39.104 142.994 39.3173 142.098 39.744C141.202 40.1707 140.477 40.7147 139.922 41.376C139.368 42.016 139.048 42.688 138.962 43.392L138.93 41.76C139.037 41.0133 139.282 40.288 139.666 39.584C140.05 38.88 140.562 38.24 141.202 37.664C141.864 37.0667 142.642 36.5973 143.538 36.256C144.434 35.9147 145.448 35.744 146.578 35.744Z" fill="white"/>
</svg>
