<svg width="153" height="83" viewBox="0 0 153 83" fill="none" xmlns="http://www.w3.org/2000/svg">
<rect width="153" height="83" rx="41.5" fill="#F7BA2D"/>
<path d="M37.696 47.488V43.936H51.392V47.488H37.696ZM32.544 52L42.272 31.296H46.88L56.704 52H52.064L43.552 33.344H45.6L37.152 52H32.544ZM67.5585 49.568C65.8305 49.568 64.3052 49.312 62.9825 48.8C61.6812 48.2667 60.6678 47.488 59.9425 46.464C59.2172 45.44 58.8545 44.2027 58.8545 42.752C58.8545 41.3227 59.2065 40.0853 59.9105 39.04C60.6145 37.9947 61.6172 37.184 62.9185 36.608C64.2412 36.032 65.7878 35.744 67.5585 35.744C68.0492 35.744 68.5185 35.776 68.9665 35.84C69.4358 35.904 69.8945 35.9893 70.3425 36.096L78.3745 36.128V39.264C77.2865 39.2853 76.1772 39.1573 75.0465 38.88C73.9372 38.5813 72.9558 38.2613 72.1025 37.92L72.0065 37.696C72.7318 38.0373 73.4145 38.464 74.0545 38.976C74.6945 39.4667 75.2065 40.0427 75.5905 40.704C75.9958 41.344 76.1985 42.0907 76.1985 42.944C76.1985 44.3307 75.8465 45.5253 75.1425 46.528C74.4385 47.5093 73.4358 48.2667 72.1345 48.8C70.8545 49.312 69.3292 49.568 67.5585 49.568ZM72.9025 58.56V57.792C72.9025 56.8107 72.5825 56.128 71.9425 55.744C71.3238 55.36 70.4705 55.168 69.3825 55.168H64.4225C63.4625 55.168 62.6518 55.0933 61.9905 54.944C61.3505 54.7947 60.8385 54.5813 60.4545 54.304C60.0705 54.0267 59.7932 53.696 59.6225 53.312C59.4518 52.9493 59.3665 52.5547 59.3665 52.128C59.3665 51.2747 59.6438 50.6347 60.1985 50.208C60.7532 49.76 61.4998 49.4613 62.4385 49.312C63.3772 49.1627 64.4118 49.1307 65.5425 49.216L67.5585 49.568C66.2145 49.6107 65.2118 49.728 64.5505 49.92C63.9105 50.0907 63.5905 50.4427 63.5905 50.976C63.5905 51.296 63.7185 51.552 63.9745 51.744C64.2305 51.9147 64.5932 52 65.0625 52H70.2785C71.7078 52 72.9238 52.1493 73.9265 52.448C74.9505 52.768 75.7292 53.2907 76.2625 54.016C76.7958 54.7627 77.0625 55.776 77.0625 57.056V58.56H72.9025ZM67.5585 46.56C68.4758 46.56 69.2758 46.4107 69.9585 46.112C70.6625 45.8133 71.2065 45.3867 71.5905 44.832C71.9745 44.256 72.1665 43.5733 72.1665 42.784C72.1665 41.9733 71.9745 41.28 71.5905 40.704C71.2065 40.128 70.6732 39.6907 69.9905 39.392C69.3078 39.072 68.4972 38.912 67.5585 38.912C66.6412 38.912 65.8305 39.072 65.1265 39.392C64.4225 39.6907 63.8785 40.128 63.4945 40.704C63.1105 41.28 62.9185 41.9733 62.9185 42.784C62.9185 43.5733 63.1105 44.256 63.4945 44.832C63.8785 45.3867 64.4118 45.8133 65.0945 46.112C65.7985 46.4107 66.6198 46.56 67.5585 46.56ZM86.4992 29.12V32.768H81.6672V29.12H86.4992ZM81.9872 36.096H86.1472V52H81.9872V36.096ZM91.2537 29.696H95.4137V52H91.2537V29.696ZM114.757 46.72H118.789C118.619 47.808 118.16 48.7787 117.413 49.632C116.688 50.4853 115.696 51.1573 114.437 51.648C113.179 52.1387 111.643 52.384 109.829 52.384C107.803 52.384 106.011 52.064 104.453 51.424C102.896 50.7627 101.68 49.8133 100.805 48.576C99.9306 47.3387 99.4932 45.8453 99.4932 44.096C99.4932 42.3467 99.9199 40.8533 100.773 39.616C101.627 38.3573 102.811 37.3973 104.325 36.736C105.861 36.0747 107.653 35.744 109.701 35.744C111.792 35.744 113.531 36.0747 114.917 36.736C116.304 37.3973 117.328 38.4 117.989 39.744C118.672 41.0667 118.96 42.7627 118.853 44.832H103.685C103.792 45.6427 104.091 46.3787 104.581 47.04C105.093 47.7013 105.776 48.224 106.629 48.608C107.504 48.992 108.539 49.184 109.733 49.184C111.056 49.184 112.155 48.96 113.029 48.512C113.925 48.0427 114.501 47.4453 114.757 46.72ZM109.509 38.912C107.973 38.912 106.725 39.2533 105.765 39.936C104.805 40.5973 104.187 41.4187 103.909 42.4H114.725C114.619 41.3333 114.107 40.4907 113.189 39.872C112.293 39.232 111.067 38.912 109.509 38.912Z" fill="white"/>
</svg>
