<svg width="214" height="101" viewBox="0 0 214 101" fill="none" xmlns="http://www.w3.org/2000/svg">
<rect width="214" height="101" rx="50.5" fill="#614F89"/>
<path d="M69.84 62.832H66.816L84.672 34.944H91.056V66H84.672V43.44L86.208 43.872L71.952 66H64.8L50.544 43.968L52.08 43.536V66H45.696V34.944H52.08L69.84 62.832ZM110.382 66L96.6544 34.944H103.71L115.47 62.976H113.262L124.974 34.944H131.934L118.35 66H110.382ZM143.089 55.92V50.832H157.297C158.993 50.832 160.337 50.384 161.329 49.488C162.321 48.56 162.817 47.28 162.817 45.648C162.817 43.952 162.321 42.656 161.329 41.76C160.337 40.864 158.993 40.416 157.297 40.416H143.857V66H137.473V34.944H156.721C158.449 34.944 160.065 35.152 161.569 35.568C163.105 35.984 164.433 36.624 165.553 37.488C166.705 38.352 167.601 39.456 168.241 40.8C168.881 42.144 169.201 43.76 169.201 45.648C169.201 47.504 168.881 49.088 168.241 50.4C167.601 51.712 166.705 52.784 165.553 53.616C164.433 54.416 163.105 55.008 161.569 55.392C160.065 55.744 158.449 55.92 156.721 55.92H143.089Z" fill="white"/>
</svg>
