<svg width="166" height="58" viewBox="0 0 166 58" fill="none" xmlns="http://www.w3.org/2000/svg">
<rect width="166" height="58" rx="29" fill="#1C7947"/>
<path d="M32.816 31.768H36.056C36.12 32.312 36.368 32.808 36.8 33.256C37.248 33.688 37.832 34.032 38.552 34.288C39.272 34.528 40.08 34.648 40.976 34.648C41.792 34.648 42.464 34.56 42.992 34.384C43.52 34.208 43.912 33.96 44.168 33.64C44.424 33.32 44.552 32.936 44.552 32.488C44.552 32.056 44.392 31.728 44.072 31.504C43.752 31.264 43.248 31.072 42.56 30.928C41.872 30.768 40.968 30.608 39.848 30.448C38.968 30.32 38.136 30.144 37.352 29.92C36.568 29.68 35.872 29.376 35.264 29.008C34.672 28.64 34.2 28.192 33.848 27.664C33.512 27.12 33.344 26.48 33.344 25.744C33.344 24.832 33.6 24.032 34.112 23.344C34.64 22.656 35.416 22.12 36.44 21.736C37.464 21.352 38.72 21.16 40.208 21.16C42.448 21.16 44.168 21.64 45.368 22.6C46.584 23.544 47.176 24.848 47.144 26.512H44.024C43.96 25.568 43.56 24.888 42.824 24.472C42.104 24.056 41.192 23.848 40.088 23.848C39.064 23.848 38.216 24 37.544 24.304C36.888 24.608 36.56 25.128 36.56 25.864C36.56 26.152 36.64 26.408 36.8 26.632C36.96 26.84 37.232 27.024 37.616 27.184C38 27.344 38.52 27.496 39.176 27.64C39.832 27.784 40.648 27.928 41.624 28.072C42.536 28.2 43.36 28.376 44.096 28.6C44.848 28.808 45.488 29.088 46.016 29.44C46.56 29.776 46.976 30.208 47.264 30.736C47.552 31.264 47.696 31.912 47.696 32.68C47.696 33.624 47.448 34.448 46.952 35.152C46.472 35.84 45.72 36.376 44.696 36.76C43.688 37.144 42.376 37.336 40.76 37.336C39.608 37.336 38.592 37.216 37.712 36.976C36.832 36.72 36.072 36.384 35.432 35.968C34.792 35.552 34.272 35.096 33.872 34.6C33.472 34.104 33.184 33.608 33.008 33.112C32.848 32.616 32.784 32.168 32.816 31.768ZM49.7441 25.072H59.0081V27.496H49.7441V25.072ZM52.8161 21.808H55.9361V37H52.8161V21.808ZM67.1142 37.264C65.9302 37.264 64.8502 37.008 63.8742 36.496C62.9142 35.968 62.1462 35.24 61.5702 34.312C61.0102 33.368 60.7302 32.28 60.7302 31.048C60.7302 29.784 61.0182 28.688 61.5942 27.76C62.1702 26.832 62.9462 26.112 63.9222 25.6C64.9142 25.072 66.0342 24.808 67.2822 24.808C68.6582 24.808 69.7622 25.088 70.5942 25.648C71.4422 26.192 72.0582 26.936 72.4423 27.88C72.8263 28.824 73.0182 29.88 73.0182 31.048C73.0182 31.752 72.9062 32.472 72.6823 33.208C72.4583 33.928 72.1142 34.6 71.6502 35.224C71.1862 35.832 70.5782 36.328 69.8262 36.712C69.0742 37.08 68.1702 37.264 67.1142 37.264ZM68.1222 34.864C69.0662 34.864 69.8822 34.704 70.5702 34.384C71.2582 34.064 71.7862 33.616 72.1542 33.04C72.5222 32.464 72.7062 31.8 72.7062 31.048C72.7062 30.232 72.5142 29.544 72.1302 28.984C71.7622 28.408 71.2342 27.976 70.5462 27.688C69.8742 27.384 69.0662 27.232 68.1222 27.232C66.7942 27.232 65.7622 27.584 65.0262 28.288C64.2902 28.976 63.9222 29.896 63.9222 31.048C63.9222 31.816 64.0982 32.488 64.4502 33.064C64.8022 33.624 65.2902 34.064 65.9142 34.384C66.5542 34.704 67.2902 34.864 68.1222 34.864ZM72.7062 25.072H75.8262V37H72.9222C72.9222 37 72.8982 36.848 72.8502 36.544C72.8182 36.224 72.7862 35.824 72.7542 35.344C72.7222 34.864 72.7062 34.392 72.7062 33.928V25.072ZM79.13 25.072H82.25V37H79.13V25.072ZM86.834 27.64C85.938 27.64 85.162 27.816 84.506 28.168C83.85 28.504 83.322 28.92 82.922 29.416C82.522 29.912 82.242 30.392 82.082 30.856L82.058 29.536C82.074 29.344 82.138 29.064 82.25 28.696C82.362 28.312 82.53 27.904 82.754 27.472C82.978 27.024 83.274 26.6 83.642 26.2C84.01 25.784 84.458 25.448 84.986 25.192C85.514 24.936 86.13 24.808 86.834 24.808V27.64ZM88.4731 25.072H97.7371V27.496H88.4731V25.072ZM91.5451 21.808H94.6651V37H91.5451V21.808ZM113.999 37H110.879V25.072H113.999V37ZM111.047 31.264L111.071 32.08C111.039 32.304 110.959 32.632 110.831 33.064C110.703 33.48 110.503 33.928 110.231 34.408C109.975 34.888 109.639 35.352 109.223 35.8C108.807 36.232 108.295 36.592 107.687 36.88C107.079 37.152 106.359 37.288 105.527 37.288C104.871 37.288 104.223 37.208 103.583 37.048C102.959 36.888 102.391 36.624 101.879 36.256C101.367 35.872 100.959 35.36 100.655 34.72C100.351 34.08 100.199 33.272 100.199 32.296V25.072H103.319V31.768C103.319 32.536 103.439 33.144 103.679 33.592C103.935 34.024 104.303 34.328 104.783 34.504C105.263 34.68 105.831 34.768 106.487 34.768C107.351 34.768 108.095 34.584 108.719 34.216C109.343 33.832 109.847 33.368 110.231 32.824C110.631 32.28 110.903 31.76 111.047 31.264ZM126.008 37.288C124.952 37.288 124.048 37.104 123.296 36.736C122.56 36.352 121.96 35.856 121.496 35.248C121.032 34.624 120.688 33.944 120.464 33.208C120.24 32.472 120.128 31.752 120.128 31.048C120.128 30.168 120.232 29.352 120.44 28.6C120.664 27.848 121.008 27.192 121.472 26.632C121.936 26.056 122.536 25.608 123.272 25.288C124.024 24.968 124.936 24.808 126.008 24.808C127.208 24.808 128.288 25.072 129.248 25.6C130.208 26.128 130.968 26.864 131.528 27.808C132.104 28.736 132.392 29.816 132.392 31.048C132.392 32.312 132.104 33.416 131.528 34.36C130.952 35.288 130.184 36.008 129.224 36.52C128.264 37.032 127.192 37.288 126.008 37.288ZM125 34.864C125.848 34.864 126.584 34.704 127.208 34.384C127.848 34.064 128.336 33.624 128.672 33.064C129.024 32.488 129.2 31.816 129.2 31.048C129.2 29.896 128.832 28.968 128.096 28.264C127.376 27.56 126.344 27.208 125 27.208C124.152 27.208 123.376 27.36 122.672 27.664C121.984 27.968 121.44 28.408 121.04 28.984C120.64 29.544 120.44 30.232 120.44 31.048C120.44 31.816 120.624 32.488 120.992 33.064C121.36 33.624 121.888 34.064 122.576 34.384C123.264 34.704 124.072 34.864 125 34.864ZM117.32 25.072H120.296L120.44 28.24V41.8H117.32V25.072Z" fill="white"/>
</svg>
