<svg width="157" height="58" viewBox="0 0 157 58" fill="none" xmlns="http://www.w3.org/2000/svg">
<rect width="157" height="58" rx="29" fill="#2C3950"/>
<path d="M42.728 21.472C44.472 21.472 45.928 21.68 47.096 22.096C48.264 22.512 49.192 23.08 49.88 23.8C50.584 24.504 51.08 25.32 51.368 26.248C51.672 27.176 51.824 28.152 51.824 29.176C51.824 30.2 51.656 31.184 51.32 32.128C51 33.072 50.48 33.912 49.76 34.648C49.056 35.368 48.12 35.944 46.952 36.376C45.8 36.792 44.392 37 42.728 37H33.848V21.472H42.728ZM37.04 34.264H42.656C43.808 34.264 44.76 34.128 45.512 33.856C46.28 33.568 46.888 33.184 47.336 32.704C47.784 32.224 48.104 31.68 48.296 31.072C48.488 30.464 48.584 29.832 48.584 29.176C48.584 28.52 48.488 27.896 48.296 27.304C48.104 26.712 47.784 26.184 47.336 25.72C46.888 25.256 46.28 24.888 45.512 24.616C44.76 24.344 43.808 24.208 42.656 24.208H37.04V34.264ZM65.8857 33.04H68.9098C68.7818 33.856 68.4378 34.584 67.8777 35.224C67.3338 35.864 66.5898 36.368 65.6458 36.736C64.7018 37.104 63.5498 37.288 62.1898 37.288C60.6697 37.288 59.3257 37.048 58.1577 36.568C56.9897 36.072 56.0777 35.36 55.4217 34.432C54.7657 33.504 54.4377 32.384 54.4377 31.072C54.4377 29.76 54.7577 28.64 55.3977 27.712C56.0377 26.768 56.9257 26.048 58.0617 25.552C59.2137 25.056 60.5577 24.808 62.0938 24.808C63.6617 24.808 64.9657 25.056 66.0057 25.552C67.0457 26.048 67.8137 26.8 68.3098 27.808C68.8218 28.8 69.0378 30.072 68.9578 31.624H57.5817C57.6617 32.232 57.8857 32.784 58.2537 33.28C58.6377 33.776 59.1497 34.168 59.7897 34.456C60.4457 34.744 61.2217 34.888 62.1177 34.888C63.1097 34.888 63.9337 34.72 64.5898 34.384C65.2618 34.032 65.6938 33.584 65.8857 33.04ZM61.9497 27.184C60.7977 27.184 59.8617 27.44 59.1417 27.952C58.4217 28.448 57.9577 29.064 57.7497 29.8H65.8618C65.7818 29 65.3978 28.368 64.7097 27.904C64.0378 27.424 63.1177 27.184 61.9497 27.184ZM71.2794 33.04H74.1594C74.3354 33.584 74.6954 34.032 75.2394 34.384C75.7994 34.72 76.5274 34.888 77.4234 34.888C78.0314 34.888 78.5034 34.832 78.8394 34.72C79.1754 34.608 79.4074 34.448 79.5354 34.24C79.6634 34.016 79.7274 33.768 79.7274 33.496C79.7274 33.16 79.6234 32.904 79.4154 32.728C79.2074 32.536 78.8874 32.384 78.4554 32.272C78.0234 32.16 77.4714 32.056 76.7994 31.96C76.1274 31.848 75.4794 31.712 74.8554 31.552C74.2314 31.392 73.6794 31.184 73.1994 30.928C72.7194 30.656 72.3354 30.32 72.0474 29.92C71.7754 29.504 71.6394 29 71.6394 28.408C71.6394 27.832 71.7754 27.32 72.0474 26.872C72.3354 26.424 72.7274 26.048 73.2234 25.744C73.7354 25.44 74.3274 25.208 74.9994 25.048C75.6874 24.888 76.4234 24.808 77.2074 24.808C78.3914 24.808 79.3754 24.984 80.1594 25.336C80.9434 25.672 81.5274 26.152 81.9114 26.776C82.3114 27.384 82.5114 28.088 82.5114 28.888H79.7514C79.6234 28.296 79.3674 27.872 78.9834 27.616C78.5994 27.344 78.0074 27.208 77.2074 27.208C76.4234 27.208 75.8314 27.328 75.4314 27.568C75.0314 27.808 74.8314 28.136 74.8314 28.552C74.8314 28.888 74.9514 29.152 75.1914 29.344C75.4474 29.52 75.8154 29.664 76.2954 29.776C76.7914 29.888 77.4074 30.008 78.1434 30.136C78.7674 30.264 79.3594 30.408 79.9194 30.568C80.4954 30.728 81.0074 30.936 81.4554 31.192C81.9034 31.432 82.2554 31.76 82.5114 32.176C82.7834 32.576 82.9194 33.088 82.9194 33.712C82.9194 34.48 82.6954 35.128 82.2474 35.656C81.8154 36.184 81.1914 36.592 80.3754 36.88C79.5594 37.152 78.5834 37.288 77.4474 37.288C76.4394 37.288 75.5674 37.184 74.8314 36.976C74.1114 36.752 73.5114 36.472 73.0314 36.136C72.5514 35.784 72.1754 35.416 71.9034 35.032C71.6474 34.632 71.4714 34.256 71.3754 33.904C71.2794 33.552 71.2474 33.264 71.2794 33.04ZM89.3622 19.84V22.576H85.7382V19.84H89.3622ZM85.9782 25.072H89.0982V37H85.9782V25.072ZM98.6401 35.176C97.3441 35.176 96.2001 34.984 95.2081 34.6C94.2321 34.2 93.4721 33.616 92.9281 32.848C92.3841 32.08 92.1121 31.152 92.1121 30.064C92.1121 28.992 92.3761 28.064 92.9041 27.28C93.4321 26.496 94.1841 25.888 95.1601 25.456C96.1521 25.024 97.3121 24.808 98.6401 24.808C99.0081 24.808 99.3601 24.832 99.6961 24.88C100.048 24.928 100.392 24.992 100.728 25.072L106.752 25.096V27.448C105.936 27.464 105.104 27.368 104.256 27.16C103.424 26.936 102.688 26.696 102.048 26.44L101.976 26.272C102.52 26.528 103.032 26.848 103.512 27.232C103.992 27.6 104.376 28.032 104.664 28.528C104.968 29.008 105.12 29.568 105.12 30.208C105.12 31.248 104.856 32.144 104.328 32.896C103.8 33.632 103.048 34.2 102.072 34.6C101.112 34.984 99.9681 35.176 98.6401 35.176ZM102.648 41.92V41.344C102.648 40.608 102.408 40.096 101.928 39.808C101.464 39.52 100.824 39.376 100.008 39.376H96.2881C95.5681 39.376 94.9601 39.32 94.4641 39.208C93.9841 39.096 93.6001 38.936 93.3121 38.728C93.0241 38.52 92.8161 38.272 92.6881 37.984C92.5601 37.712 92.4961 37.416 92.4961 37.096C92.4961 36.456 92.7041 35.976 93.1201 35.656C93.5361 35.32 94.0961 35.096 94.8001 34.984C95.5041 34.872 96.2801 34.848 97.1281 34.912L98.6401 35.176C97.6321 35.208 96.8801 35.296 96.3841 35.44C95.9041 35.568 95.6641 35.832 95.6641 36.232C95.6641 36.472 95.7601 36.664 95.9521 36.808C96.1441 36.936 96.4161 37 96.7681 37H100.68C101.752 37 102.664 37.112 103.416 37.336C104.184 37.576 104.768 37.968 105.168 38.512C105.568 39.072 105.768 39.832 105.768 40.792V41.92H102.648ZM98.6401 32.92C99.3281 32.92 99.9281 32.808 100.44 32.584C100.968 32.36 101.376 32.04 101.664 31.624C101.952 31.192 102.096 30.68 102.096 30.088C102.096 29.48 101.952 28.96 101.664 28.528C101.376 28.096 100.976 27.768 100.464 27.544C99.9521 27.304 99.3441 27.184 98.6401 27.184C97.9521 27.184 97.3441 27.304 96.8161 27.544C96.2881 27.768 95.8801 28.096 95.5921 28.528C95.3041 28.96 95.1601 29.48 95.1601 30.088C95.1601 30.68 95.3041 31.192 95.5921 31.624C95.8801 32.04 96.2801 32.36 96.7921 32.584C97.3201 32.808 97.9361 32.92 98.6401 32.92ZM109.27 25.072H112.39V37H109.27V25.072ZM117.934 24.808C118.67 24.808 119.35 24.904 119.974 25.096C120.598 25.288 121.142 25.584 121.606 25.984C122.07 26.384 122.43 26.896 122.686 27.52C122.942 28.128 123.07 28.856 123.07 29.704V37H119.95V30.256C119.95 29.248 119.702 28.512 119.206 28.048C118.726 27.568 117.934 27.328 116.83 27.328C115.998 27.328 115.246 27.488 114.574 27.808C113.902 28.128 113.358 28.536 112.942 29.032C112.526 29.512 112.286 30.016 112.222 30.544L112.198 29.32C112.278 28.76 112.462 28.216 112.75 27.688C113.038 27.16 113.422 26.68 113.902 26.248C114.398 25.8 114.982 25.448 115.654 25.192C116.326 24.936 117.086 24.808 117.934 24.808Z" fill="white"/>
</svg>
