<svg width="266" height="58" viewBox="0 0 266 58" fill="none" xmlns="http://www.w3.org/2000/svg">
<rect width="266" height="58" rx="29" fill="#FEA4B9"/>
<path d="M42.728 21.472C44.472 21.472 45.928 21.68 47.096 22.096C48.264 22.512 49.192 23.08 49.88 23.8C50.584 24.504 51.08 25.32 51.368 26.248C51.672 27.176 51.824 28.152 51.824 29.176C51.824 30.2 51.656 31.184 51.32 32.128C51 33.072 50.48 33.912 49.76 34.648C49.056 35.368 48.12 35.944 46.952 36.376C45.8 36.792 44.392 37 42.728 37H33.848V21.472H42.728ZM37.04 34.264H42.656C43.808 34.264 44.76 34.128 45.512 33.856C46.28 33.568 46.888 33.184 47.336 32.704C47.784 32.224 48.104 31.68 48.296 31.072C48.488 30.464 48.584 29.832 48.584 29.176C48.584 28.52 48.488 27.896 48.296 27.304C48.104 26.712 47.784 26.184 47.336 25.72C46.888 25.256 46.28 24.888 45.512 24.616C44.76 24.344 43.808 24.208 42.656 24.208H37.04V34.264ZM58.5897 19.84V22.576H54.9657V19.84H58.5897ZM55.2057 25.072H58.3257V37H55.2057V25.072ZM67.8676 35.176C66.5716 35.176 65.4276 34.984 64.4356 34.6C63.4596 34.2 62.6996 33.616 62.1556 32.848C61.6116 32.08 61.3396 31.152 61.3396 30.064C61.3396 28.992 61.6036 28.064 62.1316 27.28C62.6596 26.496 63.4116 25.888 64.3876 25.456C65.3796 25.024 66.5396 24.808 67.8676 24.808C68.2356 24.808 68.5876 24.832 68.9236 24.88C69.2756 24.928 69.6196 24.992 69.9556 25.072L75.9796 25.096V27.448C75.1636 27.464 74.3316 27.368 73.4836 27.16C72.6516 26.936 71.9156 26.696 71.2756 26.44L71.2036 26.272C71.7476 26.528 72.2596 26.848 72.7396 27.232C73.2196 27.6 73.6036 28.032 73.8916 28.528C74.1956 29.008 74.3476 29.568 74.3476 30.208C74.3476 31.248 74.0836 32.144 73.5556 32.896C73.0276 33.632 72.2756 34.2 71.2996 34.6C70.3396 34.984 69.1956 35.176 67.8676 35.176ZM71.8756 41.92V41.344C71.8756 40.608 71.6356 40.096 71.1556 39.808C70.6916 39.52 70.0516 39.376 69.2356 39.376H65.5156C64.7956 39.376 64.1876 39.32 63.6916 39.208C63.2116 39.096 62.8276 38.936 62.5396 38.728C62.2516 38.52 62.0436 38.272 61.9156 37.984C61.7876 37.712 61.7236 37.416 61.7236 37.096C61.7236 36.456 61.9316 35.976 62.3476 35.656C62.7636 35.32 63.3236 35.096 64.0276 34.984C64.7316 34.872 65.5076 34.848 66.3556 34.912L67.8676 35.176C66.8596 35.208 66.1076 35.296 65.6116 35.44C65.1316 35.568 64.8916 35.832 64.8916 36.232C64.8916 36.472 64.9876 36.664 65.1796 36.808C65.3716 36.936 65.6436 37 65.9956 37H69.9076C70.9796 37 71.8916 37.112 72.6436 37.336C73.4116 37.576 73.9956 37.968 74.3956 38.512C74.7956 39.072 74.9956 39.832 74.9956 40.792V41.92H71.8756ZM67.8676 32.92C68.5556 32.92 69.1556 32.808 69.6676 32.584C70.1956 32.36 70.6036 32.04 70.8916 31.624C71.1796 31.192 71.3236 30.68 71.3236 30.088C71.3236 29.48 71.1796 28.96 70.8916 28.528C70.6036 28.096 70.2036 27.768 69.6916 27.544C69.1796 27.304 68.5716 27.184 67.8676 27.184C67.1796 27.184 66.5716 27.304 66.0436 27.544C65.5156 27.768 65.1076 28.096 64.8196 28.528C64.5316 28.96 64.3876 29.48 64.3876 30.088C64.3876 30.68 64.5316 31.192 64.8196 31.624C65.1076 32.04 65.5076 32.36 66.0196 32.584C66.5476 32.808 67.1636 32.92 67.8676 32.92ZM82.0732 19.84V22.576H78.4492V19.84H82.0732ZM78.6892 25.072H81.8092V37H78.6892V25.072ZM84.5591 25.072H93.8231V27.496H84.5591V25.072ZM87.6311 21.808H90.7511V37H87.6311V21.808ZM101.929 37.264C100.745 37.264 99.6653 37.008 98.6893 36.496C97.7293 35.968 96.9613 35.24 96.3853 34.312C95.8253 33.368 95.5453 32.28 95.5453 31.048C95.5453 29.784 95.8333 28.688 96.4093 27.76C96.9853 26.832 97.7613 26.112 98.7373 25.6C99.7293 25.072 100.849 24.808 102.097 24.808C103.473 24.808 104.577 25.088 105.409 25.648C106.257 26.192 106.873 26.936 107.257 27.88C107.641 28.824 107.833 29.88 107.833 31.048C107.833 31.752 107.721 32.472 107.497 33.208C107.273 33.928 106.929 34.6 106.465 35.224C106.001 35.832 105.393 36.328 104.641 36.712C103.889 37.08 102.985 37.264 101.929 37.264ZM102.937 34.864C103.881 34.864 104.697 34.704 105.385 34.384C106.073 34.064 106.601 33.616 106.969 33.04C107.337 32.464 107.521 31.8 107.521 31.048C107.521 30.232 107.329 29.544 106.945 28.984C106.577 28.408 106.049 27.976 105.361 27.688C104.689 27.384 103.881 27.232 102.937 27.232C101.609 27.232 100.577 27.584 99.8413 28.288C99.1053 28.976 98.7373 29.896 98.7373 31.048C98.7373 31.816 98.9133 32.488 99.2653 33.064C99.6173 33.624 100.105 34.064 100.729 34.384C101.369 34.704 102.105 34.864 102.937 34.864ZM107.521 25.072H110.641V37H107.737C107.737 37 107.713 36.848 107.665 36.544C107.633 36.224 107.601 35.824 107.569 35.344C107.537 34.864 107.521 34.392 107.521 33.928V25.072ZM114.185 20.272H117.305V37H114.185V20.272ZM135.898 37.288C134.842 37.288 133.938 37.104 133.186 36.736C132.45 36.352 131.85 35.856 131.386 35.248C130.922 34.624 130.578 33.944 130.354 33.208C130.13 32.472 130.018 31.752 130.018 31.048C130.018 30.168 130.122 29.352 130.33 28.6C130.554 27.848 130.898 27.192 131.362 26.632C131.826 26.056 132.426 25.608 133.162 25.288C133.914 24.968 134.826 24.808 135.898 24.808C137.098 24.808 138.178 25.072 139.138 25.6C140.098 26.128 140.858 26.864 141.418 27.808C141.994 28.736 142.282 29.816 142.282 31.048C142.282 32.312 141.994 33.416 141.418 34.36C140.842 35.288 140.074 36.008 139.114 36.52C138.154 37.032 137.082 37.288 135.898 37.288ZM134.89 34.864C135.738 34.864 136.474 34.704 137.098 34.384C137.738 34.064 138.226 33.624 138.562 33.064C138.914 32.488 139.09 31.816 139.09 31.048C139.09 29.896 138.722 28.968 137.986 28.264C137.266 27.56 136.234 27.208 134.89 27.208C134.042 27.208 133.266 27.36 132.562 27.664C131.874 27.968 131.33 28.408 130.93 28.984C130.53 29.544 130.33 30.232 130.33 31.048C130.33 31.816 130.514 32.488 130.882 33.064C131.25 33.624 131.778 34.064 132.466 34.384C133.154 34.704 133.962 34.864 134.89 34.864ZM127.21 25.072H130.186L130.33 28.24V41.8H127.21V25.072ZM145.057 25.072H148.177V37H145.057V25.072ZM152.761 27.64C151.865 27.64 151.089 27.816 150.433 28.168C149.777 28.504 149.249 28.92 148.849 29.416C148.449 29.912 148.169 30.392 148.009 30.856L147.985 29.536C148.001 29.344 148.065 29.064 148.177 28.696C148.289 28.312 148.457 27.904 148.681 27.472C148.905 27.024 149.201 26.6 149.569 26.2C149.937 25.784 150.385 25.448 150.913 25.192C151.441 24.936 152.057 24.808 152.761 24.808V27.64ZM162.202 37.288C160.698 37.288 159.37 37.048 158.218 36.568C157.082 36.088 156.194 35.392 155.554 34.48C154.914 33.552 154.594 32.416 154.594 31.072C154.594 29.728 154.914 28.592 155.554 27.664C156.194 26.72 157.082 26.008 158.218 25.528C159.37 25.048 160.698 24.808 162.202 24.808C163.706 24.808 165.018 25.048 166.138 25.528C167.274 26.008 168.162 26.72 168.802 27.664C169.442 28.592 169.762 29.728 169.762 31.072C169.762 32.416 169.442 33.552 168.802 34.48C168.162 35.392 167.274 36.088 166.138 36.568C165.018 37.048 163.706 37.288 162.202 37.288ZM162.202 34.888C163.034 34.888 163.778 34.744 164.434 34.456C165.106 34.152 165.634 33.72 166.018 33.16C166.402 32.584 166.594 31.888 166.594 31.072C166.594 30.256 166.402 29.56 166.018 28.984C165.634 28.392 165.114 27.944 164.458 27.64C163.802 27.336 163.05 27.184 162.202 27.184C161.37 27.184 160.618 27.336 159.946 27.64C159.274 27.944 158.738 28.384 158.338 28.96C157.954 29.536 157.762 30.24 157.762 31.072C157.762 31.888 157.954 32.584 158.338 33.16C158.722 33.72 159.25 34.152 159.922 34.456C160.594 34.744 161.354 34.888 162.202 34.888ZM178.356 37.264C177.156 37.264 176.068 37.008 175.092 36.496C174.132 35.968 173.372 35.24 172.812 34.312C172.252 33.368 171.972 32.28 171.972 31.048C171.972 29.784 172.244 28.688 172.788 27.76C173.348 26.832 174.108 26.112 175.068 25.6C176.028 25.072 177.124 24.808 178.356 24.808C179.428 24.808 180.34 24.968 181.092 25.288C181.844 25.608 182.452 26.056 182.916 26.632C183.38 27.192 183.716 27.848 183.924 28.6C184.148 29.352 184.26 30.168 184.26 31.048C184.26 31.752 184.148 32.472 183.924 33.208C183.7 33.928 183.356 34.6 182.892 35.224C182.428 35.832 181.82 36.328 181.068 36.712C180.316 37.08 179.412 37.264 178.356 37.264ZM179.364 34.864C180.308 34.864 181.124 34.704 181.812 34.384C182.5 34.064 183.028 33.616 183.396 33.04C183.764 32.464 183.948 31.8 183.948 31.048C183.948 30.232 183.756 29.544 183.372 28.984C183.004 28.408 182.476 27.968 181.788 27.664C181.116 27.36 180.308 27.208 179.364 27.208C178.036 27.208 177.004 27.56 176.268 28.264C175.532 28.968 175.164 29.896 175.164 31.048C175.164 31.816 175.34 32.488 175.692 33.064C176.044 33.624 176.532 34.064 177.156 34.384C177.796 34.704 178.532 34.864 179.364 34.864ZM183.948 20.272H187.068V37H184.164C184.116 36.632 184.068 36.16 184.02 35.584C183.972 34.992 183.948 34.44 183.948 33.928V20.272ZM204.711 37H201.591V25.072H204.711V37ZM201.759 31.264L201.783 32.08C201.751 32.304 201.671 32.632 201.543 33.064C201.415 33.48 201.215 33.928 200.943 34.408C200.687 34.888 200.351 35.352 199.935 35.8C199.519 36.232 199.007 36.592 198.399 36.88C197.791 37.152 197.071 37.288 196.239 37.288C195.583 37.288 194.935 37.208 194.295 37.048C193.671 36.888 193.103 36.624 192.591 36.256C192.079 35.872 191.671 35.36 191.367 34.72C191.063 34.08 190.911 33.272 190.911 32.296V25.072H194.031V31.768C194.031 32.536 194.151 33.144 194.391 33.592C194.647 34.024 195.015 34.328 195.495 34.504C195.975 34.68 196.543 34.768 197.199 34.768C198.063 34.768 198.807 34.584 199.431 34.216C200.055 33.832 200.559 33.368 200.943 32.824C201.343 32.28 201.615 31.76 201.759 31.264ZM222.192 32.296C222.112 33.336 221.776 34.232 221.184 34.984C220.608 35.736 219.808 36.312 218.784 36.712C217.76 37.096 216.544 37.288 215.136 37.288C213.664 37.288 212.344 37.056 211.176 36.592C210.024 36.112 209.112 35.416 208.44 34.504C207.784 33.576 207.456 32.432 207.456 31.072C207.456 29.712 207.784 28.568 208.44 27.64C209.112 26.712 210.024 26.008 211.176 25.528C212.344 25.048 213.664 24.808 215.136 24.808C216.544 24.808 217.752 25.008 218.76 25.408C219.768 25.792 220.56 26.352 221.136 27.088C221.728 27.824 222.072 28.712 222.168 29.752H219.312C219.04 28.952 218.536 28.328 217.8 27.88C217.064 27.432 216.176 27.208 215.136 27.208C214.304 27.208 213.544 27.352 212.856 27.64C212.184 27.928 211.64 28.36 211.224 28.936C210.824 29.496 210.624 30.208 210.624 31.072C210.624 31.92 210.824 32.632 211.224 33.208C211.624 33.768 212.168 34.192 212.856 34.48C213.544 34.752 214.304 34.888 215.136 34.888C216.256 34.888 217.168 34.664 217.872 34.216C218.592 33.768 219.08 33.128 219.336 32.296H222.192ZM224.125 25.072H233.389V27.496H224.125V25.072ZM227.197 21.808H230.317V37H227.197V21.808Z" fill="white"/>
</svg>
