<svg width="334" height="83" viewBox="0 0 334 83" fill="none" xmlns="http://www.w3.org/2000/svg">
<rect width="334" height="83" rx="41.5" fill="#FEA4B9"/>
<path d="M46.304 31.296C48.6293 31.296 50.5707 31.5733 52.128 32.128C53.6853 32.6827 54.9227 33.44 55.84 34.4C56.7787 35.3387 57.44 36.4267 57.824 37.664C58.2293 38.9013 58.432 40.2027 58.432 41.568C58.432 42.9333 58.208 44.2453 57.76 45.504C57.3333 46.7627 56.64 47.8827 55.68 48.864C54.7413 49.824 53.4933 50.592 51.936 51.168C50.4 51.7227 48.5227 52 46.304 52H34.464V31.296H46.304ZM38.72 48.352H46.208C47.744 48.352 49.0133 48.1707 50.016 47.808C51.04 47.424 51.8507 46.912 52.448 46.272C53.0453 45.632 53.472 44.9067 53.728 44.096C53.984 43.2853 54.112 42.4427 54.112 41.568C54.112 40.6933 53.984 39.8613 53.728 39.072C53.472 38.2827 53.0453 37.5787 52.448 36.96C51.8507 36.3413 51.04 35.8507 50.016 35.488C49.0133 35.1253 47.744 34.944 46.208 34.944H38.72V48.352ZM67.453 29.12V32.768H62.621V29.12H67.453ZM62.941 36.096H67.101V52H62.941V36.096ZM79.8235 49.568C78.0955 49.568 76.5702 49.312 75.2475 48.8C73.9462 48.2667 72.9328 47.488 72.2075 46.464C71.4822 45.44 71.1195 44.2027 71.1195 42.752C71.1195 41.3227 71.4715 40.0853 72.1755 39.04C72.8795 37.9947 73.8822 37.184 75.1835 36.608C76.5062 36.032 78.0528 35.744 79.8235 35.744C80.3142 35.744 80.7835 35.776 81.2315 35.84C81.7008 35.904 82.1595 35.9893 82.6075 36.096L90.6395 36.128V39.264C89.5515 39.2853 88.4422 39.1573 87.3115 38.88C86.2022 38.5813 85.2208 38.2613 84.3675 37.92L84.2715 37.696C84.9968 38.0373 85.6795 38.464 86.3195 38.976C86.9595 39.4667 87.4715 40.0427 87.8555 40.704C88.2608 41.344 88.4635 42.0907 88.4635 42.944C88.4635 44.3307 88.1115 45.5253 87.4075 46.528C86.7035 47.5093 85.7008 48.2667 84.3995 48.8C83.1195 49.312 81.5942 49.568 79.8235 49.568ZM85.1675 58.56V57.792C85.1675 56.8107 84.8475 56.128 84.2075 55.744C83.5888 55.36 82.7355 55.168 81.6475 55.168H76.6875C75.7275 55.168 74.9168 55.0933 74.2555 54.944C73.6155 54.7947 73.1035 54.5813 72.7195 54.304C72.3355 54.0267 72.0582 53.696 71.8875 53.312C71.7168 52.9493 71.6315 52.5547 71.6315 52.128C71.6315 51.2747 71.9088 50.6347 72.4635 50.208C73.0182 49.76 73.7648 49.4613 74.7035 49.312C75.6422 49.1627 76.6768 49.1307 77.8075 49.216L79.8235 49.568C78.4795 49.6107 77.4768 49.728 76.8155 49.92C76.1755 50.0907 75.8555 50.4427 75.8555 50.976C75.8555 51.296 75.9835 51.552 76.2395 51.744C76.4955 51.9147 76.8582 52 77.3275 52H82.5435C83.9728 52 85.1888 52.1493 86.1915 52.448C87.2155 52.768 87.9942 53.2907 88.5275 54.016C89.0608 54.7627 89.3275 55.776 89.3275 57.056V58.56H85.1675ZM79.8235 46.56C80.7408 46.56 81.5408 46.4107 82.2235 46.112C82.9275 45.8133 83.4715 45.3867 83.8555 44.832C84.2395 44.256 84.4315 43.5733 84.4315 42.784C84.4315 41.9733 84.2395 41.28 83.8555 40.704C83.4715 40.128 82.9382 39.6907 82.2555 39.392C81.5728 39.072 80.7622 38.912 79.8235 38.912C78.9062 38.912 78.0955 39.072 77.3915 39.392C76.6875 39.6907 76.1435 40.128 75.7595 40.704C75.3755 41.28 75.1835 41.9733 75.1835 42.784C75.1835 43.5733 75.3755 44.256 75.7595 44.832C76.1435 45.3867 76.6768 45.8133 77.3595 46.112C78.0635 46.4107 78.8848 46.56 79.8235 46.56ZM98.7642 29.12V32.768H93.9322V29.12H98.7642ZM94.2522 36.096H98.4122V52H94.2522V36.096ZM102.079 36.096H114.431V39.328H102.079V36.096ZM106.175 31.744H110.335V52H106.175V31.744ZM125.239 52.352C123.66 52.352 122.22 52.0107 120.919 51.328C119.639 50.624 118.615 49.6533 117.847 48.416C117.1 47.1573 116.727 45.7067 116.727 44.064C116.727 42.3787 117.111 40.9173 117.879 39.68C118.647 38.4427 119.682 37.4827 120.983 36.8C122.306 36.096 123.799 35.744 125.463 35.744C127.298 35.744 128.77 36.1173 129.879 36.864C131.01 37.5893 131.831 38.5813 132.343 39.84C132.855 41.0987 133.111 42.5067 133.111 44.064C133.111 45.0027 132.962 45.9627 132.663 46.944C132.364 47.904 131.906 48.8 131.287 49.632C130.668 50.4427 129.858 51.104 128.855 51.616C127.852 52.1067 126.647 52.352 125.239 52.352ZM126.583 49.152C127.842 49.152 128.93 48.9387 129.847 48.512C130.764 48.0853 131.468 47.488 131.959 46.72C132.45 45.952 132.695 45.0667 132.695 44.064C132.695 42.976 132.439 42.0587 131.927 41.312C131.436 40.544 130.732 39.968 129.815 39.584C128.919 39.1787 127.842 38.976 126.583 38.976C124.812 38.976 123.436 39.4453 122.455 40.384C121.474 41.3013 120.983 42.528 120.983 44.064C120.983 45.088 121.218 45.984 121.687 46.752C122.156 47.4987 122.807 48.0853 123.639 48.512C124.492 48.9387 125.474 49.152 126.583 49.152ZM132.695 36.096H136.855V52H132.983C132.983 52 132.951 51.7973 132.887 51.392C132.844 50.9653 132.802 50.432 132.759 49.792C132.716 49.152 132.695 48.5227 132.695 47.904V36.096ZM141.58 29.696H145.74V52H141.58V29.696ZM170.53 52.384C169.122 52.384 167.917 52.1387 166.914 51.648C165.933 51.136 165.133 50.4747 164.514 49.664C163.896 48.832 163.437 47.9253 163.138 46.944C162.84 45.9627 162.69 45.0027 162.69 44.064C162.69 42.8907 162.829 41.8027 163.106 40.8C163.405 39.7973 163.864 38.9227 164.482 38.176C165.101 37.408 165.901 36.8107 166.882 36.384C167.885 35.9573 169.101 35.744 170.53 35.744C172.13 35.744 173.57 36.096 174.85 36.8C176.13 37.504 177.144 38.4853 177.89 39.744C178.658 40.9813 179.042 42.4213 179.042 44.064C179.042 45.7493 178.658 47.2213 177.89 48.48C177.122 49.7173 176.098 50.6773 174.818 51.36C173.538 52.0427 172.109 52.384 170.53 52.384ZM169.186 49.152C170.317 49.152 171.298 48.9387 172.13 48.512C172.984 48.0853 173.634 47.4987 174.082 46.752C174.552 45.984 174.786 45.088 174.786 44.064C174.786 42.528 174.296 41.2907 173.314 40.352C172.354 39.4133 170.978 38.944 169.186 38.944C168.056 38.944 167.021 39.1467 166.082 39.552C165.165 39.9573 164.44 40.544 163.906 41.312C163.373 42.0587 163.106 42.976 163.106 44.064C163.106 45.088 163.352 45.984 163.842 46.752C164.333 47.4987 165.037 48.0853 165.954 48.512C166.872 48.9387 167.949 49.152 169.186 49.152ZM158.946 36.096H162.914L163.106 40.32V58.4H158.946V36.096ZM182.742 36.096H186.902V52H182.742V36.096ZM193.014 39.52C191.82 39.52 190.785 39.7547 189.91 40.224C189.036 40.672 188.332 41.2267 187.798 41.888C187.265 42.5493 186.892 43.1893 186.678 43.808L186.646 42.048C186.668 41.792 186.753 41.4187 186.902 40.928C187.052 40.416 187.276 39.872 187.574 39.296C187.873 38.6987 188.268 38.1333 188.758 37.6C189.249 37.0453 189.846 36.5973 190.55 36.256C191.254 35.9147 192.076 35.744 193.014 35.744V39.52ZM205.602 52.384C203.597 52.384 201.826 52.064 200.29 51.424C198.776 50.784 197.592 49.856 196.738 48.64C195.885 47.4027 195.458 45.888 195.458 44.096C195.458 42.304 195.885 40.7893 196.738 39.552C197.592 38.2933 198.776 37.344 200.29 36.704C201.826 36.064 203.597 35.744 205.602 35.744C207.608 35.744 209.357 36.064 210.85 36.704C212.365 37.344 213.549 38.2933 214.402 39.552C215.256 40.7893 215.682 42.304 215.682 44.096C215.682 45.888 215.256 47.4027 214.402 48.64C213.549 49.856 212.365 50.784 210.85 51.424C209.357 52.064 207.608 52.384 205.602 52.384ZM205.602 49.184C206.712 49.184 207.704 48.992 208.578 48.608C209.474 48.2027 210.178 47.6267 210.69 46.88C211.202 46.112 211.458 45.184 211.458 44.096C211.458 43.008 211.202 42.08 210.69 41.312C210.178 40.5227 209.485 39.9253 208.61 39.52C207.736 39.1147 206.733 38.912 205.602 38.912C204.493 38.912 203.49 39.1147 202.594 39.52C201.698 39.9253 200.984 40.512 200.45 41.28C199.938 42.048 199.682 42.9867 199.682 44.096C199.682 45.184 199.938 46.112 200.45 46.88C200.962 47.6267 201.666 48.2027 202.562 48.608C203.458 48.992 204.472 49.184 205.602 49.184ZM227.141 52.352C225.541 52.352 224.091 52.0107 222.789 51.328C221.509 50.624 220.496 49.6533 219.749 48.416C219.003 47.1573 218.629 45.7067 218.629 44.064C218.629 42.3787 218.992 40.9173 219.717 39.68C220.464 38.4427 221.477 37.4827 222.757 36.8C224.037 36.096 225.499 35.744 227.141 35.744C228.571 35.744 229.787 35.9573 230.789 36.384C231.792 36.8107 232.603 37.408 233.221 38.176C233.84 38.9227 234.288 39.7973 234.565 40.8C234.864 41.8027 235.013 42.8907 235.013 44.064C235.013 45.0027 234.864 45.9627 234.565 46.944C234.267 47.904 233.808 48.8 233.189 49.632C232.571 50.4427 231.76 51.104 230.757 51.616C229.755 52.1067 228.549 52.352 227.141 52.352ZM228.485 49.152C229.744 49.152 230.832 48.9387 231.749 48.512C232.667 48.0853 233.371 47.488 233.861 46.72C234.352 45.952 234.597 45.0667 234.597 44.064C234.597 42.976 234.341 42.0587 233.829 41.312C233.339 40.544 232.635 39.9573 231.717 39.552C230.821 39.1467 229.744 38.944 228.485 38.944C226.715 38.944 225.339 39.4133 224.357 40.352C223.376 41.2907 222.885 42.528 222.885 44.064C222.885 45.088 223.12 45.984 223.589 46.752C224.059 47.4987 224.709 48.0853 225.541 48.512C226.395 48.9387 227.376 49.152 228.485 49.152ZM234.597 29.696H238.757V52H234.885C234.821 51.5093 234.757 50.88 234.693 50.112C234.629 49.3227 234.597 48.5867 234.597 47.904V29.696ZM262.281 52H258.121V36.096H262.281V52ZM258.345 44.352L258.377 45.44C258.335 45.7387 258.228 46.176 258.057 46.752C257.887 47.3067 257.62 47.904 257.257 48.544C256.916 49.184 256.468 49.8027 255.913 50.4C255.359 50.976 254.676 51.456 253.865 51.84C253.055 52.2027 252.095 52.384 250.985 52.384C250.111 52.384 249.247 52.2773 248.393 52.064C247.561 51.8507 246.804 51.4987 246.121 51.008C245.439 50.496 244.895 49.8133 244.489 48.96C244.084 48.1067 243.881 47.0293 243.881 45.728V36.096H248.041V45.024C248.041 46.048 248.201 46.8587 248.521 47.456C248.863 48.032 249.353 48.4373 249.993 48.672C250.633 48.9067 251.391 49.024 252.265 49.024C253.417 49.024 254.409 48.7787 255.241 48.288C256.073 47.776 256.745 47.1573 257.257 46.432C257.791 45.7067 258.153 45.0133 258.345 44.352ZM285.589 45.728C285.482 47.1147 285.034 48.3093 284.245 49.312C283.477 50.3147 282.41 51.0827 281.045 51.616C279.679 52.128 278.058 52.384 276.181 52.384C274.218 52.384 272.458 52.0747 270.901 51.456C269.365 50.816 268.149 49.888 267.253 48.672C266.378 47.4347 265.941 45.9093 265.941 44.096C265.941 42.2827 266.378 40.7573 267.253 39.52C268.149 38.2827 269.365 37.344 270.901 36.704C272.458 36.064 274.218 35.744 276.181 35.744C278.058 35.744 279.669 36.0107 281.013 36.544C282.357 37.056 283.413 37.8027 284.181 38.784C284.97 39.7653 285.429 40.9493 285.557 42.336H281.749C281.386 41.2693 280.714 40.4373 279.733 39.84C278.751 39.2427 277.567 38.944 276.181 38.944C275.071 38.944 274.058 39.136 273.141 39.52C272.245 39.904 271.519 40.48 270.965 41.248C270.431 41.9947 270.165 42.944 270.165 44.096C270.165 45.2267 270.431 46.176 270.965 46.944C271.498 47.6907 272.223 48.256 273.141 48.64C274.058 49.0027 275.071 49.184 276.181 49.184C277.674 49.184 278.89 48.8853 279.829 48.288C280.789 47.6907 281.439 46.8373 281.781 45.728H285.589ZM288.166 36.096H300.518V39.328H288.166V36.096ZM292.262 31.744H296.422V52H292.262V31.744Z" fill="white"/>
</svg>
