<svg width="247" height="101" viewBox="0 0 247 101" fill="none" xmlns="http://www.w3.org/2000/svg">
<rect width="247" height="101" rx="50.5" fill="#FEA4B9"/>
<path d="M81.936 54.816C81.648 57.312 80.768 59.44 79.296 61.2C77.824 62.96 75.824 64.304 73.296 65.232C70.768 66.16 67.76 66.624 64.272 66.624C61.36 66.624 58.688 66.288 56.256 65.616C53.856 64.944 51.776 63.936 50.016 62.592C48.288 61.248 46.944 59.584 45.984 57.6C45.024 55.584 44.544 53.232 44.544 50.544C44.544 47.856 45.024 45.504 45.984 43.488C46.944 41.472 48.288 39.792 50.016 38.448C51.776 37.072 53.856 36.048 56.256 35.376C58.688 34.672 61.36 34.32 64.272 34.32C67.76 34.32 70.768 34.8 73.296 35.76C75.856 36.72 77.872 38.096 79.344 39.888C80.816 41.648 81.68 43.792 81.936 46.32H75.6C75.184 44.976 74.48 43.824 73.488 42.864C72.528 41.872 71.28 41.12 69.744 40.608C68.208 40.096 66.384 39.84 64.272 39.84C61.648 39.84 59.344 40.256 57.36 41.088C55.376 41.888 53.84 43.088 52.752 44.688C51.664 46.256 51.12 48.208 51.12 50.544C51.12 52.848 51.664 54.784 52.752 56.352C53.84 57.92 55.376 59.12 57.36 59.952C59.344 60.752 61.648 61.152 64.272 61.152C66.384 61.152 68.192 60.896 69.696 60.384C71.232 59.872 72.48 59.136 73.44 58.176C74.432 57.216 75.152 56.096 75.6 54.816H81.936ZM88.7887 32.544H95.0287V66H88.7887V32.544ZM116.364 66.576C113.356 66.576 110.7 66.096 108.396 65.136C106.124 64.176 104.348 62.784 103.068 60.96C101.788 59.104 101.148 56.832 101.148 54.144C101.148 51.456 101.788 49.184 103.068 47.328C104.348 45.44 106.124 44.016 108.396 43.056C110.7 42.096 113.356 41.616 116.364 41.616C119.372 41.616 121.996 42.096 124.236 43.056C126.508 44.016 128.284 45.44 129.564 47.328C130.844 49.184 131.484 51.456 131.484 54.144C131.484 56.832 130.844 59.104 129.564 60.96C128.284 62.784 126.508 64.176 124.236 65.136C121.996 66.096 119.372 66.576 116.364 66.576ZM116.364 61.776C118.028 61.776 119.516 61.488 120.828 60.912C122.172 60.304 123.228 59.44 123.996 58.32C124.764 57.168 125.148 55.776 125.148 54.144C125.148 52.512 124.764 51.12 123.996 49.968C123.228 48.784 122.188 47.888 120.876 47.28C119.564 46.672 118.06 46.368 116.364 46.368C114.7 46.368 113.196 46.672 111.852 47.28C110.508 47.888 109.436 48.768 108.636 49.92C107.868 51.072 107.484 52.48 107.484 54.144C107.484 55.776 107.868 57.168 108.636 58.32C109.404 59.44 110.46 60.304 111.804 60.912C113.148 61.488 114.668 61.776 116.364 61.776ZM164.657 66H158.417V42.144H164.657V66ZM158.753 54.528L158.801 56.16C158.737 56.608 158.577 57.264 158.321 58.128C158.065 58.96 157.665 59.856 157.121 60.816C156.609 61.776 155.937 62.704 155.105 63.6C154.273 64.464 153.249 65.184 152.033 65.76C150.817 66.304 149.377 66.576 147.713 66.576C146.401 66.576 145.105 66.416 143.825 66.096C142.577 65.776 141.441 65.248 140.417 64.512C139.393 63.744 138.577 62.72 137.969 61.44C137.361 60.16 137.057 58.544 137.057 56.592V42.144H143.297V55.536C143.297 57.072 143.537 58.288 144.017 59.184C144.529 60.048 145.265 60.656 146.225 61.008C147.185 61.36 148.321 61.536 149.633 61.536C151.361 61.536 152.849 61.168 154.097 60.432C155.345 59.664 156.353 58.736 157.121 57.648C157.921 56.56 158.465 55.52 158.753 54.528ZM182.914 66.528C180.514 66.528 178.338 66.016 176.386 64.992C174.466 63.936 172.946 62.48 171.826 60.624C170.706 58.736 170.146 56.56 170.146 54.096C170.146 51.568 170.69 49.376 171.778 47.52C172.898 45.664 174.418 44.224 176.338 43.2C178.258 42.144 180.45 41.616 182.914 41.616C185.058 41.616 186.882 41.936 188.386 42.576C189.89 43.216 191.106 44.112 192.034 45.264C192.962 46.384 193.634 47.696 194.05 49.2C194.498 50.704 194.722 52.336 194.722 54.096C194.722 55.504 194.498 56.944 194.05 58.416C193.602 59.856 192.914 61.2 191.986 62.448C191.058 63.664 189.842 64.656 188.338 65.424C186.834 66.16 185.026 66.528 182.914 66.528ZM184.93 61.728C186.818 61.728 188.45 61.408 189.826 60.768C191.202 60.128 192.258 59.232 192.994 58.08C193.73 56.928 194.098 55.6 194.098 54.096C194.098 52.464 193.714 51.088 192.946 49.968C192.21 48.816 191.154 47.936 189.778 47.328C188.434 46.72 186.818 46.416 184.93 46.416C182.274 46.416 180.21 47.12 178.738 48.528C177.266 49.936 176.53 51.792 176.53 54.096C176.53 55.632 176.882 56.976 177.586 58.128C178.29 59.248 179.266 60.128 180.514 60.768C181.794 61.408 183.266 61.728 184.93 61.728ZM194.098 32.544H200.338V66H194.53C194.434 65.264 194.338 64.32 194.242 63.168C194.146 61.984 194.098 60.88 194.098 59.856V32.544Z" fill="white"/>
</svg>
