<svg width="269" height="101" viewBox="0 0 269 101" fill="none" xmlns="http://www.w3.org/2000/svg">
<rect width="269" height="101" rx="50.5" fill="#2C3950"/>
<path d="M63.456 34.944C66.944 34.944 69.856 35.36 72.192 36.192C74.528 37.024 76.384 38.16 77.76 39.6C79.168 41.008 80.16 42.64 80.736 44.496C81.344 46.352 81.648 48.304 81.648 50.352C81.648 52.4 81.312 54.368 80.64 56.256C80 58.144 78.96 59.824 77.52 61.296C76.112 62.736 74.24 63.888 71.904 64.752C69.6 65.584 66.784 66 63.456 66H45.696V34.944H63.456ZM52.08 60.528H63.312C65.616 60.528 67.52 60.256 69.024 59.712C70.56 59.136 71.776 58.368 72.672 57.408C73.568 56.448 74.208 55.36 74.592 54.144C74.976 52.928 75.168 51.664 75.168 50.352C75.168 49.04 74.976 47.792 74.592 46.608C74.208 45.424 73.568 44.368 72.672 43.44C71.776 42.512 70.56 41.776 69.024 41.232C67.52 40.688 65.616 40.416 63.312 40.416H52.08V60.528ZM109.771 58.08H115.82C115.564 59.712 114.876 61.168 113.755 62.448C112.668 63.728 111.18 64.736 109.292 65.472C107.404 66.208 105.1 66.576 102.38 66.576C99.3395 66.576 96.6515 66.096 94.3155 65.136C91.9795 64.144 90.1555 62.72 88.8435 60.864C87.5315 59.008 86.8755 56.768 86.8755 54.144C86.8755 51.52 87.5155 49.28 88.7955 47.424C90.0755 45.536 91.8515 44.096 94.1235 43.104C96.4275 42.112 99.1155 41.616 102.188 41.616C105.323 41.616 107.931 42.112 110.011 43.104C112.091 44.096 113.627 45.6 114.62 47.616C115.644 49.6 116.076 52.144 115.916 55.248H93.1635C93.3235 56.464 93.7715 57.568 94.5075 58.56C95.2755 59.552 96.2995 60.336 97.5795 60.912C98.8915 61.488 100.443 61.776 102.235 61.776C104.219 61.776 105.867 61.44 107.18 60.768C108.524 60.064 109.388 59.168 109.771 58.08ZM101.899 46.368C99.5955 46.368 97.7235 46.88 96.2835 47.904C94.8435 48.896 93.9155 50.128 93.4995 51.6H109.724C109.564 50 108.796 48.736 107.419 47.808C106.076 46.848 104.235 46.368 101.899 46.368ZM120.559 58.08H126.319C126.671 59.168 127.391 60.064 128.479 60.768C129.599 61.44 131.055 61.776 132.847 61.776C134.063 61.776 135.007 61.664 135.679 61.44C136.351 61.216 136.815 60.896 137.071 60.48C137.327 60.032 137.455 59.536 137.455 58.992C137.455 58.32 137.247 57.808 136.831 57.456C136.415 57.072 135.775 56.768 134.911 56.544C134.047 56.32 132.943 56.112 131.599 55.92C130.255 55.696 128.959 55.424 127.711 55.104C126.463 54.784 125.359 54.368 124.399 53.856C123.439 53.312 122.671 52.64 122.095 51.84C121.551 51.008 121.279 50 121.279 48.816C121.279 47.664 121.551 46.64 122.095 45.744C122.671 44.848 123.455 44.096 124.447 43.488C125.471 42.88 126.655 42.416 127.999 42.096C129.375 41.776 130.847 41.616 132.415 41.616C134.783 41.616 136.751 41.968 138.319 42.672C139.887 43.344 141.055 44.304 141.823 45.552C142.623 46.768 143.023 48.176 143.023 49.776H137.503C137.247 48.592 136.735 47.744 135.967 47.232C135.199 46.688 134.015 46.416 132.415 46.416C130.847 46.416 129.663 46.656 128.863 47.136C128.063 47.616 127.663 48.272 127.663 49.104C127.663 49.776 127.903 50.304 128.383 50.688C128.895 51.04 129.631 51.328 130.591 51.552C131.583 51.776 132.815 52.016 134.287 52.272C135.535 52.528 136.719 52.816 137.839 53.136C138.991 53.456 140.015 53.872 140.911 54.384C141.807 54.864 142.511 55.52 143.023 56.352C143.567 57.152 143.839 58.176 143.839 59.424C143.839 60.96 143.391 62.256 142.495 63.312C141.631 64.368 140.383 65.184 138.751 65.76C137.119 66.304 135.167 66.576 132.895 66.576C130.879 66.576 129.135 66.368 127.663 65.952C126.223 65.504 125.023 64.944 124.063 64.272C123.103 63.568 122.351 62.832 121.807 62.064C121.295 61.264 120.943 60.512 120.751 59.808C120.559 59.104 120.495 58.528 120.559 58.08ZM156.724 31.68V37.152H149.476V31.68H156.724ZM149.956 42.144H156.196V66H149.956V42.144ZM175.28 62.352C172.688 62.352 170.4 61.968 168.416 61.2C166.464 60.4 164.944 59.232 163.856 57.696C162.768 56.16 162.224 54.304 162.224 52.128C162.224 49.984 162.752 48.128 163.808 46.56C164.864 44.992 166.368 43.776 168.32 42.912C170.304 42.048 172.624 41.616 175.28 41.616C176.016 41.616 176.72 41.664 177.392 41.76C178.096 41.856 178.784 41.984 179.456 42.144L191.504 42.192V46.896C189.872 46.928 188.208 46.736 186.512 46.32C184.848 45.872 183.376 45.392 182.096 44.88L181.952 44.544C183.04 45.056 184.064 45.696 185.024 46.464C185.984 47.2 186.752 48.064 187.328 49.056C187.936 50.016 188.24 51.136 188.24 52.416C188.24 54.496 187.712 56.288 186.656 57.792C185.6 59.264 184.096 60.4 182.144 61.2C180.224 61.968 177.936 62.352 175.28 62.352ZM183.296 75.84V74.688C183.296 73.216 182.816 72.192 181.856 71.616C180.928 71.04 179.648 70.752 178.016 70.752H170.576C169.136 70.752 167.92 70.64 166.928 70.416C165.968 70.192 165.2 69.872 164.624 69.456C164.048 69.04 163.632 68.544 163.376 67.968C163.12 67.424 162.992 66.832 162.992 66.192C162.992 64.912 163.408 63.952 164.24 63.312C165.072 62.64 166.192 62.192 167.6 61.968C169.008 61.744 170.56 61.696 172.256 61.824L175.28 62.352C173.264 62.416 171.76 62.592 170.768 62.88C169.808 63.136 169.328 63.664 169.328 64.464C169.328 64.944 169.52 65.328 169.904 65.616C170.288 65.872 170.832 66 171.536 66H179.36C181.504 66 183.328 66.224 184.832 66.672C186.368 67.152 187.536 67.936 188.336 69.024C189.136 70.144 189.536 71.664 189.536 73.584V75.84H183.296ZM175.28 57.84C176.656 57.84 177.856 57.616 178.88 57.168C179.936 56.72 180.752 56.08 181.328 55.248C181.904 54.384 182.192 53.36 182.192 52.176C182.192 50.96 181.904 49.92 181.328 49.056C180.752 48.192 179.952 47.536 178.928 47.088C177.904 46.608 176.688 46.368 175.28 46.368C173.904 46.368 172.688 46.608 171.632 47.088C170.576 47.536 169.76 48.192 169.184 49.056C168.608 49.92 168.32 50.96 168.32 52.176C168.32 53.36 168.608 54.384 169.184 55.248C169.76 56.08 170.56 56.72 171.584 57.168C172.64 57.616 173.872 57.84 175.28 57.84ZM196.539 42.144H202.779V66H196.539V42.144ZM213.867 41.616C215.339 41.616 216.699 41.808 217.947 42.192C219.195 42.576 220.283 43.168 221.211 43.968C222.139 44.768 222.859 45.792 223.371 47.04C223.883 48.256 224.139 49.712 224.139 51.408V66H217.899V52.512C217.899 50.496 217.403 49.024 216.411 48.096C215.451 47.136 213.867 46.656 211.659 46.656C209.995 46.656 208.491 46.976 207.147 47.616C205.803 48.256 204.715 49.072 203.883 50.064C203.051 51.024 202.571 52.032 202.443 53.088L202.395 50.64C202.555 49.52 202.923 48.432 203.499 47.376C204.075 46.32 204.843 45.36 205.803 44.496C206.795 43.6 207.963 42.896 209.307 42.384C210.651 41.872 212.171 41.616 213.867 41.616Z" fill="white"/>
</svg>
