<svg width="199" height="67" viewBox="0 0 199 67" fill="none" xmlns="http://www.w3.org/2000/svg">
<rect width="199" height="67" rx="33.5" fill="#1C7947"/>
<path d="M33.088 37.024H37.408C37.4933 37.7493 37.824 38.4107 38.4 39.008C38.9973 39.584 39.776 40.0427 40.736 40.384C41.696 40.704 42.7733 40.864 43.968 40.864C45.056 40.864 45.952 40.7467 46.656 40.512C47.36 40.2773 47.8827 39.9467 48.224 39.52C48.5653 39.0933 48.736 38.5813 48.736 37.984C48.736 37.408 48.5227 36.9707 48.096 36.672C47.6693 36.352 46.9973 36.096 46.08 35.904C45.1627 35.6907 43.9573 35.4773 42.464 35.264C41.2907 35.0933 40.1813 34.8587 39.136 34.56C38.0907 34.24 37.1627 33.8347 36.352 33.344C35.5627 32.8533 34.9333 32.256 34.464 31.552C34.016 30.8267 33.792 29.9733 33.792 28.992C33.792 27.776 34.1333 26.7093 34.816 25.792C35.52 24.8747 36.5547 24.16 37.92 23.648C39.2853 23.136 40.96 22.88 42.944 22.88C45.9307 22.88 48.224 23.52 49.824 24.8C51.4453 26.0587 52.2347 27.7973 52.192 30.016H48.032C47.9467 28.7573 47.4133 27.8507 46.432 27.296C45.472 26.7413 44.256 26.464 42.784 26.464C41.4187 26.464 40.288 26.6667 39.392 27.072C38.5173 27.4773 38.08 28.1707 38.08 29.152C38.08 29.536 38.1867 29.8773 38.4 30.176C38.6133 30.4533 38.976 30.6987 39.488 30.912C40 31.1253 40.6933 31.328 41.568 31.52C42.4427 31.712 43.5307 31.904 44.832 32.096C46.048 32.2667 47.1467 32.5013 48.128 32.8C49.1307 33.0773 49.984 33.4507 50.688 33.92C51.4133 34.368 51.968 34.944 52.352 35.648C52.736 36.352 52.928 37.216 52.928 38.24C52.928 39.4987 52.5973 40.5973 51.936 41.536C51.296 42.4533 50.2933 43.168 48.928 43.68C47.584 44.192 45.8347 44.448 43.68 44.448C42.144 44.448 40.7893 44.288 39.616 43.968C38.4427 43.6267 37.4293 43.1787 36.576 42.624C35.7227 42.0693 35.0293 41.4613 34.496 40.8C33.9627 40.1387 33.5787 39.4773 33.344 38.816C33.1307 38.1547 33.0453 37.5573 33.088 37.024ZM55.6587 28.096H68.0107V31.328H55.6587V28.096ZM59.7547 23.744H63.9148V44H59.7547V23.744ZM78.819 44.352C77.2403 44.352 75.8003 44.0107 74.499 43.328C73.219 42.624 72.195 41.6533 71.427 40.416C70.6803 39.1573 70.307 37.7067 70.307 36.064C70.307 34.3787 70.691 32.9173 71.459 31.68C72.227 30.4427 73.2617 29.4827 74.563 28.8C75.8857 28.096 77.379 27.744 79.043 27.744C80.8777 27.744 82.3497 28.1173 83.459 28.864C84.5897 29.5893 85.411 30.5813 85.923 31.84C86.435 33.0987 86.691 34.5067 86.691 36.064C86.691 37.0027 86.5417 37.9627 86.243 38.944C85.9443 39.904 85.4857 40.8 84.867 41.632C84.2483 42.4427 83.4377 43.104 82.435 43.616C81.4323 44.1067 80.227 44.352 78.819 44.352ZM80.163 41.152C81.4217 41.152 82.5097 40.9387 83.427 40.512C84.3443 40.0853 85.0483 39.488 85.539 38.72C86.0297 37.952 86.275 37.0667 86.275 36.064C86.275 34.976 86.019 34.0587 85.507 33.312C85.0163 32.544 84.3123 31.968 83.395 31.584C82.499 31.1787 81.4217 30.976 80.163 30.976C78.3923 30.976 77.0163 31.4453 76.035 32.384C75.0537 33.3013 74.563 34.528 74.563 36.064C74.563 37.088 74.7977 37.984 75.267 38.752C75.7363 39.4987 76.387 40.0853 77.219 40.512C78.0723 40.9387 79.0537 41.152 80.163 41.152ZM86.275 28.096H90.435V44H86.563C86.563 44 86.531 43.7973 86.467 43.392C86.4243 42.9653 86.3817 42.432 86.339 41.792C86.2963 41.152 86.275 40.5227 86.275 39.904V28.096ZM94.84 28.096H99V44H94.84V28.096ZM105.112 31.52C103.917 31.52 102.883 31.7547 102.008 32.224C101.133 32.672 100.429 33.2267 99.896 33.888C99.3627 34.5493 98.9893 35.1893 98.776 35.808L98.744 34.048C98.7653 33.792 98.8507 33.4187 99 32.928C99.1493 32.416 99.3733 31.872 99.672 31.296C99.9707 30.6987 100.365 30.1333 100.856 29.6C101.347 29.0453 101.944 28.5973 102.648 28.256C103.352 27.9147 104.173 27.744 105.112 27.744V31.52ZM107.297 28.096H119.649V31.328H107.297V28.096ZM111.393 23.744H115.553V44H111.393V23.744ZM141.332 44H137.172V28.096H141.332V44ZM137.396 36.352L137.428 37.44C137.386 37.7387 137.279 38.176 137.108 38.752C136.938 39.3067 136.671 39.904 136.308 40.544C135.967 41.184 135.519 41.8027 134.964 42.4C134.41 42.976 133.727 43.456 132.916 43.84C132.106 44.2027 131.146 44.384 130.036 44.384C129.162 44.384 128.298 44.2773 127.444 44.064C126.612 43.8507 125.855 43.4987 125.172 43.008C124.49 42.496 123.946 41.8133 123.54 40.96C123.135 40.1067 122.932 39.0293 122.932 37.728V28.096H127.092V37.024C127.092 38.048 127.252 38.8587 127.572 39.456C127.914 40.032 128.404 40.4373 129.044 40.672C129.684 40.9067 130.442 41.024 131.316 41.024C132.468 41.024 133.46 40.7787 134.292 40.288C135.124 39.776 135.796 39.1573 136.308 38.432C136.842 37.7067 137.204 37.0133 137.396 36.352ZM157.344 44.384C155.936 44.384 154.731 44.1387 153.728 43.648C152.747 43.136 151.947 42.4747 151.328 41.664C150.709 40.832 150.251 39.9253 149.952 38.944C149.653 37.9627 149.504 37.0027 149.504 36.064C149.504 34.8907 149.643 33.8027 149.92 32.8C150.219 31.7973 150.677 30.9227 151.296 30.176C151.915 29.408 152.715 28.8107 153.696 28.384C154.699 27.9573 155.915 27.744 157.344 27.744C158.944 27.744 160.384 28.096 161.664 28.8C162.944 29.504 163.957 30.4853 164.704 31.744C165.472 32.9813 165.856 34.4213 165.856 36.064C165.856 37.7493 165.472 39.2213 164.704 40.48C163.936 41.7173 162.912 42.6773 161.632 43.36C160.352 44.0427 158.923 44.384 157.344 44.384ZM156 41.152C157.131 41.152 158.112 40.9387 158.944 40.512C159.797 40.0853 160.448 39.4987 160.896 38.752C161.365 37.984 161.6 37.088 161.6 36.064C161.6 34.528 161.109 33.2907 160.128 32.352C159.168 31.4133 157.792 30.944 156 30.944C154.869 30.944 153.835 31.1467 152.896 31.552C151.979 31.9573 151.253 32.544 150.72 33.312C150.187 34.0587 149.92 34.976 149.92 36.064C149.92 37.088 150.165 37.984 150.656 38.752C151.147 39.4987 151.851 40.0853 152.768 40.512C153.685 40.9387 154.763 41.152 156 41.152ZM145.76 28.096H149.728L149.92 32.32V50.4H145.76V28.096Z" fill="white"/>
</svg>
