<svg width="272" height="83" viewBox="0 0 272 83" fill="none" xmlns="http://www.w3.org/2000/svg">
<rect width="272" height="83" rx="41.5" fill="#614F89"/>
<path d="M41.376 52L32.64 31.296H37.344L44.736 49.632L43.36 49.664L50.4 31.296H55.296L62.336 49.664L60.96 49.632L68.352 31.296H72.96L64.32 52H59.104L52.192 34.048H53.536L46.592 52H41.376ZM90.463 52V43.264C90.463 42.3893 90.3137 41.664 90.015 41.088C89.7163 40.512 89.2363 40.0747 88.575 39.776C87.935 39.4773 87.071 39.328 85.983 39.328C84.9377 39.328 83.9883 39.5307 83.135 39.936C82.2817 40.32 81.5883 40.832 81.055 41.472C80.5217 42.0907 80.223 42.752 80.159 43.456L80.127 41.696C80.2337 40.992 80.479 40.288 80.863 39.584C81.247 38.88 81.759 38.24 82.399 37.664C83.039 37.088 83.807 36.6293 84.703 36.288C85.6203 35.9253 86.6443 35.744 87.775 35.744C88.7563 35.744 89.663 35.872 90.495 36.128C91.327 36.3627 92.0523 36.736 92.671 37.248C93.2897 37.76 93.7697 38.4 94.111 39.168C94.4523 39.9147 94.623 40.8 94.623 41.824V52H90.463ZM76.223 52V29.696H80.383V52H76.223ZM103.812 29.12V32.768H98.9797V29.12H103.812ZM99.2997 36.096H103.46V52H99.2997V36.096ZM107.126 36.096H119.478V39.328H107.126V36.096ZM111.222 31.744H115.382V52H111.222V31.744ZM137.038 46.72H141.07C140.9 47.808 140.441 48.7787 139.694 49.632C138.969 50.4853 137.977 51.1573 136.718 51.648C135.46 52.1387 133.924 52.384 132.11 52.384C130.084 52.384 128.292 52.064 126.734 51.424C125.177 50.7627 123.961 49.8133 123.086 48.576C122.212 47.3387 121.774 45.8453 121.774 44.096C121.774 42.3467 122.201 40.8533 123.054 39.616C123.908 38.3573 125.092 37.3973 126.606 36.736C128.142 36.0747 129.934 35.744 131.982 35.744C134.073 35.744 135.812 36.0747 137.198 36.736C138.585 37.3973 139.609 38.4 140.27 39.744C140.953 41.0667 141.241 42.7627 141.134 44.832H125.966C126.073 45.6427 126.372 46.3787 126.862 47.04C127.374 47.7013 128.057 48.224 128.91 48.608C129.785 48.992 130.82 49.184 132.014 49.184C133.337 49.184 134.436 48.96 135.31 48.512C136.206 48.0427 136.782 47.4453 137.038 46.72ZM131.79 38.912C130.254 38.912 129.006 39.2533 128.046 39.936C127.086 40.5973 126.468 41.4187 126.19 42.4H137.006C136.9 41.3333 136.388 40.4907 135.47 39.872C134.574 39.232 133.348 38.912 131.79 38.912ZM153.549 29.696H157.709V52H153.549V29.696ZM170.3 52.352C168.722 52.352 167.282 52.0107 165.98 51.328C164.7 50.624 163.676 49.6533 162.908 48.416C162.162 47.1573 161.788 45.7067 161.788 44.064C161.788 42.3787 162.172 40.9173 162.94 39.68C163.708 38.4427 164.743 37.4827 166.044 36.8C167.367 36.096 168.86 35.744 170.524 35.744C172.359 35.744 173.831 36.1173 174.94 36.864C176.071 37.5893 176.892 38.5813 177.404 39.84C177.916 41.0987 178.172 42.5067 178.172 44.064C178.172 45.0027 178.023 45.9627 177.724 46.944C177.426 47.904 176.967 48.8 176.348 49.632C175.73 50.4427 174.919 51.104 173.916 51.616C172.914 52.1067 171.708 52.352 170.3 52.352ZM171.644 49.152C172.903 49.152 173.991 48.9387 174.908 48.512C175.826 48.0853 176.53 47.488 177.02 46.72C177.511 45.952 177.756 45.0667 177.756 44.064C177.756 42.976 177.5 42.0587 176.988 41.312C176.498 40.544 175.794 39.968 174.876 39.584C173.98 39.1787 172.903 38.976 171.644 38.976C169.874 38.976 168.498 39.4453 167.516 40.384C166.535 41.3013 166.044 42.528 166.044 44.064C166.044 45.088 166.279 45.984 166.748 46.752C167.218 47.4987 167.868 48.0853 168.7 48.512C169.554 48.9387 170.535 49.152 171.644 49.152ZM177.756 36.096H181.916V52H178.044C178.044 52 178.012 51.7973 177.948 51.392C177.906 50.9653 177.863 50.432 177.82 49.792C177.778 49.152 177.756 48.5227 177.756 47.904V36.096ZM198.265 52.352C196.857 52.352 195.651 52.1067 194.649 51.616C193.646 51.104 192.835 50.4427 192.217 49.632C191.598 48.8 191.139 47.904 190.841 46.944C190.542 45.9627 190.393 45.0027 190.393 44.064C190.393 42.8907 190.531 41.8027 190.809 40.8C191.107 39.7973 191.566 38.9227 192.185 38.176C192.803 37.408 193.614 36.8107 194.617 36.384C195.619 35.9573 196.835 35.744 198.265 35.744C199.907 35.744 201.358 36.096 202.617 36.8C203.897 37.4827 204.899 38.4427 205.625 39.68C206.371 40.9173 206.745 42.3787 206.745 44.064C206.745 45.7067 206.371 47.1573 205.625 48.416C204.878 49.6533 203.865 50.624 202.585 51.328C201.305 52.0107 199.865 52.352 198.265 52.352ZM196.921 49.152C198.051 49.152 199.033 48.9387 199.865 48.512C200.697 48.0853 201.337 47.4987 201.785 46.752C202.254 45.984 202.489 45.088 202.489 44.064C202.489 42.528 201.998 41.2907 201.017 40.352C200.057 39.4133 198.691 38.944 196.921 38.944C195.683 38.944 194.606 39.1467 193.689 39.552C192.771 39.9573 192.057 40.544 191.545 41.312C191.054 42.0587 190.809 42.976 190.809 44.064C190.809 45.0667 191.054 45.952 191.545 46.72C192.035 47.488 192.739 48.0853 193.657 48.512C194.574 48.9387 195.662 49.152 196.921 49.152ZM190.809 29.696V47.904C190.809 48.5867 190.777 49.3227 190.713 50.112C190.649 50.88 190.585 51.5093 190.521 52H186.649V29.696H190.809ZM224.957 46.72H228.989C228.819 47.808 228.36 48.7787 227.613 49.632C226.888 50.4853 225.896 51.1573 224.637 51.648C223.379 52.1387 221.843 52.384 220.029 52.384C218.003 52.384 216.211 52.064 214.653 51.424C213.096 50.7627 211.88 49.8133 211.005 48.576C210.131 47.3387 209.693 45.8453 209.693 44.096C209.693 42.3467 210.12 40.8533 210.973 39.616C211.827 38.3573 213.011 37.3973 214.525 36.736C216.061 36.0747 217.853 35.744 219.901 35.744C221.992 35.744 223.731 36.0747 225.117 36.736C226.504 37.3973 227.528 38.4 228.189 39.744C228.872 41.0667 229.16 42.7627 229.053 44.832H213.885C213.992 45.6427 214.291 46.3787 214.781 47.04C215.293 47.7013 215.976 48.224 216.829 48.608C217.704 48.992 218.739 49.184 219.933 49.184C221.256 49.184 222.355 48.96 223.229 48.512C224.125 48.0427 224.701 47.4453 224.957 46.72ZM219.709 38.912C218.173 38.912 216.925 39.2533 215.965 39.936C215.005 40.5973 214.387 41.4187 214.109 42.4H224.925C224.819 41.3333 224.307 40.4907 223.389 39.872C222.493 39.232 221.267 38.912 219.709 38.912ZM233.109 29.696H237.269V52H233.109V29.696Z" fill="white"/>
</svg>
