<svg width="199" height="50" viewBox="0 0 199 50" fill="none" xmlns="http://www.w3.org/2000/svg">
<rect width="199" height="50" rx="25" fill="#FEA4B9"/>
<path d="M39.152 19.648C40.3147 19.648 41.2853 19.7867 42.064 20.064C42.8427 20.3413 43.4613 20.72 43.92 21.2C44.3893 21.6693 44.72 22.2133 44.912 22.832C45.1147 23.4507 45.216 24.1013 45.216 24.784C45.216 25.4667 45.104 26.1227 44.88 26.752C44.6667 27.3813 44.32 27.9413 43.84 28.432C43.3707 28.912 42.7467 29.296 41.968 29.584C41.2 29.8613 40.2613 30 39.152 30H33.232V19.648H39.152ZM35.36 28.176H39.104C39.872 28.176 40.5067 28.0853 41.008 27.904C41.52 27.712 41.9253 27.456 42.224 27.136C42.5227 26.816 42.736 26.4533 42.864 26.048C42.992 25.6427 43.056 25.2213 43.056 24.784C43.056 24.3467 42.992 23.9307 42.864 23.536C42.736 23.1413 42.5227 22.7893 42.224 22.48C41.9253 22.1707 41.52 21.9253 41.008 21.744C40.5067 21.5627 39.872 21.472 39.104 21.472H35.36V28.176ZM49.7265 18.56V20.384H47.3105V18.56H49.7265ZM47.4705 22.048H49.5505V30H47.4705V22.048ZM55.9117 28.784C55.0477 28.784 54.2851 28.656 53.6237 28.4C52.9731 28.1333 52.4664 27.744 52.1037 27.232C51.7411 26.72 51.5597 26.1013 51.5597 25.376C51.5597 24.6613 51.7357 24.0427 52.0877 23.52C52.4397 22.9973 52.9411 22.592 53.5917 22.304C54.2531 22.016 55.0264 21.872 55.9117 21.872C56.1571 21.872 56.3917 21.888 56.6157 21.92C56.8504 21.952 57.0797 21.9947 57.3037 22.048L61.3197 22.064V23.632C60.7757 23.6427 60.2211 23.5787 59.6558 23.44C59.1011 23.2907 58.6104 23.1307 58.1837 22.96L58.1357 22.848C58.4984 23.0187 58.8397 23.232 59.1597 23.488C59.4797 23.7333 59.7357 24.0213 59.9277 24.352C60.1304 24.672 60.2317 25.0453 60.2317 25.472C60.2317 26.1653 60.0557 26.7627 59.7037 27.264C59.3517 27.7547 58.8504 28.1333 58.1997 28.4C57.5597 28.656 56.7971 28.784 55.9117 28.784ZM58.5837 33.28V32.896C58.5837 32.4053 58.4237 32.064 58.1037 31.872C57.7944 31.68 57.3677 31.584 56.8237 31.584H54.3437C53.8637 31.584 53.4584 31.5467 53.1277 31.472C52.8077 31.3973 52.5517 31.2907 52.3597 31.152C52.1677 31.0133 52.0291 30.848 51.9437 30.656C51.8584 30.4747 51.8157 30.2773 51.8157 30.064C51.8157 29.6373 51.9544 29.3173 52.2317 29.104C52.5091 28.88 52.8824 28.7307 53.3517 28.656C53.8211 28.5813 54.3384 28.5653 54.9037 28.608L55.9117 28.784C55.2397 28.8053 54.7384 28.864 54.4077 28.96C54.0877 29.0453 53.9277 29.2213 53.9277 29.488C53.9277 29.648 53.9917 29.776 54.1197 29.872C54.2477 29.9573 54.4291 30 54.6637 30H57.2717C57.9864 30 58.5944 30.0747 59.0957 30.224C59.6077 30.384 59.9971 30.6453 60.2638 31.008C60.5304 31.3813 60.6637 31.888 60.6637 32.528V33.28H58.5837ZM55.9117 27.28C56.3704 27.28 56.7704 27.2053 57.1117 27.056C57.4637 26.9067 57.7357 26.6933 57.9277 26.416C58.1197 26.128 58.2157 25.7867 58.2157 25.392C58.2157 24.9867 58.1197 24.64 57.9277 24.352C57.7357 24.064 57.4691 23.8453 57.1277 23.696C56.7864 23.536 56.3811 23.456 55.9117 23.456C55.4531 23.456 55.0477 23.536 54.6957 23.696C54.3437 23.8453 54.0717 24.064 53.8797 24.352C53.6877 24.64 53.5917 24.9867 53.5917 25.392C53.5917 25.7867 53.6877 26.128 53.8797 26.416C54.0717 26.6933 54.3384 26.9067 54.6797 27.056C55.0317 27.2053 55.4424 27.28 55.9117 27.28ZM65.3821 18.56V20.384H62.9661V18.56H65.3821ZM63.1261 22.048H65.2061V30H63.1261V22.048ZM67.0394 22.048H73.2154V23.664H67.0394V22.048ZM69.0874 19.872H71.1674V30H69.0874V19.872ZM78.6195 30.176C77.8302 30.176 77.1102 30.0053 76.4595 29.664C75.8195 29.312 75.3075 28.8267 74.9235 28.208C74.5502 27.5787 74.3635 26.8533 74.3635 26.032C74.3635 25.1893 74.5555 24.4587 74.9395 23.84C75.3235 23.2213 75.8408 22.7413 76.4915 22.4C77.1528 22.048 77.8995 21.872 78.7315 21.872C79.6488 21.872 80.3848 22.0587 80.9395 22.432C81.5048 22.7947 81.9155 23.2907 82.1715 23.92C82.4275 24.5493 82.5555 25.2533 82.5555 26.032C82.5555 26.5013 82.4808 26.9813 82.3315 27.472C82.1822 27.952 81.9528 28.4 81.6435 28.816C81.3342 29.2213 80.9288 29.552 80.4275 29.808C79.9262 30.0533 79.3235 30.176 78.6195 30.176ZM79.2915 28.576C79.9208 28.576 80.4648 28.4693 80.9235 28.256C81.3822 28.0427 81.7342 27.744 81.9795 27.36C82.2248 26.976 82.3475 26.5333 82.3475 26.032C82.3475 25.488 82.2195 25.0293 81.9635 24.656C81.7182 24.272 81.3662 23.984 80.9075 23.792C80.4595 23.5893 79.9208 23.488 79.2915 23.488C78.4062 23.488 77.7182 23.7227 77.2275 24.192C76.7368 24.6507 76.4915 25.264 76.4915 26.032C76.4915 26.544 76.6088 26.992 76.8435 27.376C77.0782 27.7493 77.4035 28.0427 77.8195 28.256C78.2462 28.4693 78.7368 28.576 79.2915 28.576ZM82.3475 22.048H84.4275V30H82.4915C82.4915 30 82.4755 29.8987 82.4435 29.696C82.4222 29.4827 82.4008 29.216 82.3795 28.896C82.3582 28.576 82.3475 28.2613 82.3475 27.952V22.048ZM86.79 18.848H88.87V30H86.79V18.848ZM101.265 30.192C100.561 30.192 99.9585 30.0693 99.4571 29.824C98.9665 29.568 98.5665 29.2373 98.2571 28.832C97.9478 28.416 97.7185 27.9627 97.5691 27.472C97.4198 26.9813 97.3451 26.5013 97.3451 26.032C97.3451 25.4453 97.4145 24.9013 97.5531 24.4C97.7025 23.8987 97.9318 23.4613 98.2411 23.088C98.5505 22.704 98.9505 22.4053 99.4411 22.192C99.9425 21.9787 100.55 21.872 101.265 21.872C102.065 21.872 102.785 22.048 103.425 22.4C104.065 22.752 104.572 23.2427 104.945 23.872C105.329 24.4907 105.521 25.2107 105.521 26.032C105.521 26.8747 105.329 27.6107 104.945 28.24C104.561 28.8587 104.049 29.3387 103.409 29.68C102.769 30.0213 102.054 30.192 101.265 30.192ZM100.593 28.576C101.158 28.576 101.649 28.4693 102.065 28.256C102.492 28.0427 102.817 27.7493 103.041 27.376C103.276 26.992 103.393 26.544 103.393 26.032C103.393 25.264 103.148 24.6453 102.657 24.176C102.177 23.7067 101.489 23.472 100.593 23.472C100.028 23.472 99.5105 23.5733 99.0411 23.776C98.5825 23.9787 98.2198 24.272 97.9531 24.656C97.6865 25.0293 97.5531 25.488 97.5531 26.032C97.5531 26.544 97.6758 26.992 97.9211 27.376C98.1665 27.7493 98.5185 28.0427 98.9771 28.256C99.4358 28.4693 99.9745 28.576 100.593 28.576ZM95.4731 22.048H97.4571L97.5531 24.16V33.2H95.4731V22.048ZM107.371 22.048H109.451V30H107.371V22.048ZM112.507 23.76C111.91 23.76 111.393 23.8773 110.955 24.112C110.518 24.336 110.166 24.6133 109.899 24.944C109.633 25.2747 109.446 25.5947 109.339 25.904L109.323 25.024C109.334 24.896 109.377 24.7093 109.451 24.464C109.526 24.208 109.638 23.936 109.787 23.648C109.937 23.3493 110.134 23.0667 110.379 22.8C110.625 22.5227 110.923 22.2987 111.275 22.128C111.627 21.9573 112.038 21.872 112.507 21.872V23.76ZM118.801 30.192C117.798 30.192 116.913 30.032 116.145 29.712C115.388 29.392 114.796 28.928 114.369 28.32C113.942 27.7013 113.729 26.944 113.729 26.048C113.729 25.152 113.942 24.3947 114.369 23.776C114.796 23.1467 115.388 22.672 116.145 22.352C116.913 22.032 117.798 21.872 118.801 21.872C119.804 21.872 120.678 22.032 121.425 22.352C122.182 22.672 122.774 23.1467 123.201 23.776C123.628 24.3947 123.841 25.152 123.841 26.048C123.841 26.944 123.628 27.7013 123.201 28.32C122.774 28.928 122.182 29.392 121.425 29.712C120.678 30.032 119.804 30.192 118.801 30.192ZM118.801 28.592C119.356 28.592 119.852 28.496 120.289 28.304C120.737 28.1013 121.089 27.8133 121.345 27.44C121.601 27.056 121.729 26.592 121.729 26.048C121.729 25.504 121.601 25.04 121.345 24.656C121.089 24.2613 120.742 23.9627 120.305 23.76C119.868 23.5573 119.366 23.456 118.801 23.456C118.246 23.456 117.745 23.5573 117.297 23.76C116.849 23.9627 116.492 24.256 116.225 24.64C115.969 25.024 115.841 25.4933 115.841 26.048C115.841 26.592 115.969 27.056 116.225 27.44C116.481 27.8133 116.833 28.1013 117.281 28.304C117.729 28.496 118.236 28.592 118.801 28.592ZM129.571 30.176C128.771 30.176 128.045 30.0053 127.395 29.664C126.755 29.312 126.248 28.8267 125.875 28.208C125.501 27.5787 125.315 26.8533 125.315 26.032C125.315 25.1893 125.496 24.4587 125.859 23.84C126.232 23.2213 126.739 22.7413 127.379 22.4C128.019 22.048 128.749 21.872 129.571 21.872C130.285 21.872 130.893 21.9787 131.395 22.192C131.896 22.4053 132.301 22.704 132.611 23.088C132.92 23.4613 133.144 23.8987 133.283 24.4C133.432 24.9013 133.507 25.4453 133.507 26.032C133.507 26.5013 133.432 26.9813 133.283 27.472C133.133 27.952 132.904 28.4 132.595 28.816C132.285 29.2213 131.88 29.552 131.379 29.808C130.877 30.0533 130.275 30.176 129.571 30.176ZM130.243 28.576C130.872 28.576 131.416 28.4693 131.875 28.256C132.333 28.0427 132.685 27.744 132.931 27.36C133.176 26.976 133.299 26.5333 133.299 26.032C133.299 25.488 133.171 25.0293 132.915 24.656C132.669 24.272 132.317 23.9787 131.859 23.776C131.411 23.5733 130.872 23.472 130.243 23.472C129.357 23.472 128.669 23.7067 128.179 24.176C127.688 24.6453 127.443 25.264 127.443 26.032C127.443 26.544 127.56 26.992 127.795 27.376C128.029 27.7493 128.355 28.0427 128.771 28.256C129.197 28.4693 129.688 28.576 130.243 28.576ZM133.299 18.848H135.379V30H133.443C133.411 29.7547 133.379 29.44 133.347 29.056C133.315 28.6613 133.299 28.2933 133.299 27.952V18.848ZM147.141 30H145.061V22.048H147.141V30ZM145.173 26.176L145.189 26.72C145.167 26.8693 145.114 27.088 145.029 27.376C144.943 27.6533 144.81 27.952 144.629 28.272C144.458 28.592 144.234 28.9013 143.957 29.2C143.679 29.488 143.338 29.728 142.933 29.92C142.527 30.1013 142.047 30.192 141.493 30.192C141.055 30.192 140.623 30.1387 140.197 30.032C139.781 29.9253 139.402 29.7493 139.061 29.504C138.719 29.248 138.447 28.9067 138.245 28.48C138.042 28.0533 137.941 27.5147 137.941 26.864V22.048H140.021V26.512C140.021 27.024 140.101 27.4293 140.261 27.728C140.431 28.016 140.677 28.2187 140.997 28.336C141.317 28.4533 141.695 28.512 142.133 28.512C142.709 28.512 143.205 28.3893 143.621 28.144C144.037 27.888 144.373 27.5787 144.629 27.216C144.895 26.8533 145.077 26.5067 145.173 26.176ZM158.794 26.864C158.741 27.5573 158.517 28.1547 158.122 28.656C157.738 29.1573 157.205 29.5413 156.522 29.808C155.84 30.064 155.029 30.192 154.09 30.192C153.109 30.192 152.229 30.0373 151.45 29.728C150.682 29.408 150.074 28.944 149.626 28.336C149.189 27.7173 148.97 26.9547 148.97 26.048C148.97 25.1413 149.189 24.3787 149.626 23.76C150.074 23.1413 150.682 22.672 151.45 22.352C152.229 22.032 153.109 21.872 154.09 21.872C155.029 21.872 155.834 22.0053 156.506 22.272C157.178 22.528 157.706 22.9013 158.09 23.392C158.485 23.8827 158.714 24.4747 158.778 25.168H156.874C156.693 24.6347 156.357 24.2187 155.866 23.92C155.376 23.6213 154.784 23.472 154.09 23.472C153.536 23.472 153.029 23.568 152.57 23.76C152.122 23.952 151.76 24.24 151.482 24.624C151.216 24.9973 151.082 25.472 151.082 26.048C151.082 26.6133 151.216 27.088 151.482 27.472C151.749 27.8453 152.112 28.128 152.57 28.32C153.029 28.5013 153.536 28.592 154.09 28.592C154.837 28.592 155.445 28.4427 155.914 28.144C156.394 27.8453 156.72 27.4187 156.89 26.864H158.794ZM160.083 22.048H166.259V23.664H160.083V22.048ZM162.131 19.872H164.211V30H162.131V19.872Z" fill="white"/>
</svg>
