<svg width="345" height="101" viewBox="0 0 345 101" fill="none" xmlns="http://www.w3.org/2000/svg">
<rect width="345" height="101" rx="50.5" fill="#614F89"/>
<path d="M69.84 62.832H66.816L84.672 34.944H91.056V66H84.672V43.44L86.208 43.872L71.952 66H64.8L50.544 43.968L52.08 43.536V66H45.696V34.944H52.08L69.84 62.832ZM105.726 31.68V37.152H98.4784V31.68H105.726ZM98.9584 42.144H105.198V66H98.9584V42.144ZM124.282 62.352C121.69 62.352 119.402 61.968 117.418 61.2C115.466 60.4 113.946 59.232 112.858 57.696C111.77 56.16 111.226 54.304 111.226 52.128C111.226 49.984 111.754 48.128 112.81 46.56C113.866 44.992 115.37 43.776 117.322 42.912C119.306 42.048 121.626 41.616 124.282 41.616C125.018 41.616 125.722 41.664 126.394 41.76C127.098 41.856 127.786 41.984 128.458 42.144L140.506 42.192V46.896C138.874 46.928 137.21 46.736 135.514 46.32C133.85 45.872 132.378 45.392 131.098 44.88L130.954 44.544C132.042 45.056 133.066 45.696 134.026 46.464C134.986 47.2 135.754 48.064 136.33 49.056C136.938 50.016 137.242 51.136 137.242 52.416C137.242 54.496 136.714 56.288 135.658 57.792C134.602 59.264 133.098 60.4 131.146 61.2C129.226 61.968 126.938 62.352 124.282 62.352ZM132.298 75.84V74.688C132.298 73.216 131.818 72.192 130.858 71.616C129.93 71.04 128.65 70.752 127.018 70.752H119.578C118.138 70.752 116.922 70.64 115.93 70.416C114.97 70.192 114.202 69.872 113.626 69.456C113.05 69.04 112.634 68.544 112.378 67.968C112.122 67.424 111.994 66.832 111.994 66.192C111.994 64.912 112.41 63.952 113.242 63.312C114.074 62.64 115.194 62.192 116.602 61.968C118.01 61.744 119.562 61.696 121.258 61.824L124.282 62.352C122.266 62.416 120.762 62.592 119.77 62.88C118.81 63.136 118.33 63.664 118.33 64.464C118.33 64.944 118.522 65.328 118.906 65.616C119.29 65.872 119.834 66 120.538 66H128.362C130.506 66 132.33 66.224 133.834 66.672C135.37 67.152 136.538 67.936 137.338 69.024C138.138 70.144 138.538 71.664 138.538 73.584V75.84H132.298ZM124.282 57.84C125.658 57.84 126.858 57.616 127.882 57.168C128.938 56.72 129.754 56.08 130.33 55.248C130.906 54.384 131.194 53.36 131.194 52.176C131.194 50.96 130.906 49.92 130.33 49.056C129.754 48.192 128.954 47.536 127.93 47.088C126.906 46.608 125.69 46.368 124.282 46.368C122.906 46.368 121.69 46.608 120.634 47.088C119.578 47.536 118.762 48.192 118.186 49.056C117.61 49.92 117.322 50.96 117.322 52.176C117.322 53.36 117.61 54.384 118.186 55.248C118.762 56.08 119.562 56.72 120.586 57.168C121.642 57.616 122.874 57.84 124.282 57.84ZM145.541 42.144H151.781V66H145.541V42.144ZM160.949 47.28C159.157 47.28 157.605 47.632 156.293 48.336C154.981 49.008 153.925 49.84 153.125 50.832C152.325 51.824 151.765 52.784 151.445 53.712L151.397 51.072C151.429 50.688 151.557 50.128 151.781 49.392C152.005 48.624 152.341 47.808 152.789 46.944C153.237 46.048 153.829 45.2 154.565 44.4C155.301 43.568 156.197 42.896 157.253 42.384C158.309 41.872 159.541 41.616 160.949 41.616V47.28ZM177.383 66.528C175.015 66.528 172.855 66.016 170.903 64.992C168.983 63.936 167.447 62.48 166.295 60.624C165.175 58.736 164.615 56.56 164.615 54.096C164.615 51.568 165.191 49.376 166.343 47.52C167.495 45.664 169.047 44.224 170.999 43.2C172.983 42.144 175.223 41.616 177.719 41.616C180.471 41.616 182.679 42.176 184.343 43.296C186.039 44.384 187.271 45.872 188.039 47.76C188.807 49.648 189.191 51.76 189.191 54.096C189.191 55.504 188.967 56.944 188.519 58.416C188.071 59.856 187.383 61.2 186.455 62.448C185.527 63.664 184.311 64.656 182.807 65.424C181.303 66.16 179.495 66.528 177.383 66.528ZM179.399 61.728C181.287 61.728 182.919 61.408 184.295 60.768C185.671 60.128 186.727 59.232 187.463 58.08C188.199 56.928 188.567 55.6 188.567 54.096C188.567 52.464 188.183 51.088 187.415 49.968C186.679 48.816 185.623 47.952 184.247 47.376C182.903 46.768 181.287 46.464 179.399 46.464C176.743 46.464 174.679 47.168 173.207 48.576C171.735 49.952 170.999 51.792 170.999 54.096C170.999 55.632 171.351 56.976 172.055 58.128C172.759 59.248 173.735 60.128 174.983 60.768C176.263 61.408 177.735 61.728 179.399 61.728ZM188.567 42.144H194.807V66H188.999C188.999 66 188.951 65.696 188.855 65.088C188.791 64.448 188.727 63.648 188.663 62.688C188.599 61.728 188.567 60.784 188.567 59.856V42.144ZM199.734 42.144H218.262V46.992H199.734V42.144ZM205.878 35.616H212.118V66H205.878V35.616ZM230.339 31.68V37.152H223.091V31.68H230.339ZM223.571 42.144H229.811V66H223.571V42.144ZM251.055 66.576C248.047 66.576 245.391 66.096 243.087 65.136C240.815 64.176 239.039 62.784 237.759 60.96C236.479 59.104 235.839 56.832 235.839 54.144C235.839 51.456 236.479 49.184 237.759 47.328C239.039 45.44 240.815 44.016 243.087 43.056C245.391 42.096 248.047 41.616 251.055 41.616C254.063 41.616 256.687 42.096 258.927 43.056C261.199 44.016 262.975 45.44 264.255 47.328C265.535 49.184 266.175 51.456 266.175 54.144C266.175 56.832 265.535 59.104 264.255 60.96C262.975 62.784 261.199 64.176 258.927 65.136C256.687 66.096 254.063 66.576 251.055 66.576ZM251.055 61.776C252.719 61.776 254.207 61.488 255.519 60.912C256.863 60.304 257.919 59.44 258.687 58.32C259.455 57.168 259.839 55.776 259.839 54.144C259.839 52.512 259.455 51.12 258.687 49.968C257.919 48.784 256.879 47.888 255.567 47.28C254.255 46.672 252.751 46.368 251.055 46.368C249.391 46.368 247.887 46.672 246.543 47.28C245.199 47.888 244.127 48.768 243.327 49.92C242.559 51.072 242.175 52.48 242.175 54.144C242.175 55.776 242.559 57.168 243.327 58.32C244.095 59.44 245.151 60.304 246.495 60.912C247.839 61.488 249.359 61.776 251.055 61.776ZM271.747 42.144H277.987V66H271.747V42.144ZM289.075 41.616C290.547 41.616 291.907 41.808 293.155 42.192C294.403 42.576 295.491 43.168 296.419 43.968C297.347 44.768 298.067 45.792 298.579 47.04C299.091 48.256 299.347 49.712 299.347 51.408V66H293.107V52.512C293.107 50.496 292.611 49.024 291.619 48.096C290.659 47.136 289.075 46.656 286.867 46.656C285.203 46.656 283.699 46.976 282.355 47.616C281.011 48.256 279.923 49.072 279.091 50.064C278.259 51.024 277.779 52.032 277.651 53.088L277.603 50.64C277.763 49.52 278.131 48.432 278.707 47.376C279.283 46.32 280.051 45.36 281.011 44.496C282.003 43.6 283.171 42.896 284.515 42.384C285.859 41.872 287.379 41.616 289.075 41.616Z" fill="white"/>
</svg>
