<svg width="488" height="101" viewBox="0 0 488 101" fill="none" xmlns="http://www.w3.org/2000/svg">
<rect width="488" height="101" rx="50.5" fill="#FEA4B9"/>
<path d="M63.456 34.944C66.944 34.944 69.856 35.36 72.192 36.192C74.528 37.024 76.384 38.16 77.76 39.6C79.168 41.008 80.16 42.64 80.736 44.496C81.344 46.352 81.648 48.304 81.648 50.352C81.648 52.4 81.312 54.368 80.64 56.256C80 58.144 78.96 59.824 77.52 61.296C76.112 62.736 74.24 63.888 71.904 64.752C69.6 65.584 66.784 66 63.456 66H45.696V34.944H63.456ZM52.08 60.528H63.312C65.616 60.528 67.52 60.256 69.024 59.712C70.56 59.136 71.776 58.368 72.672 57.408C73.568 56.448 74.208 55.36 74.592 54.144C74.976 52.928 75.168 51.664 75.168 50.352C75.168 49.04 74.976 47.792 74.592 46.608C74.208 45.424 73.568 44.368 72.672 43.44C71.776 42.512 70.56 41.776 69.024 41.232C67.52 40.688 65.616 40.416 63.312 40.416H52.08V60.528ZM95.1795 31.68V37.152H87.9315V31.68H95.1795ZM88.4115 42.144H94.6515V66H88.4115V42.144ZM113.735 62.352C111.143 62.352 108.855 61.968 106.871 61.2C104.919 60.4 103.399 59.232 102.311 57.696C101.223 56.16 100.679 54.304 100.679 52.128C100.679 49.984 101.207 48.128 102.263 46.56C103.319 44.992 104.823 43.776 106.775 42.912C108.759 42.048 111.079 41.616 113.735 41.616C114.471 41.616 115.175 41.664 115.847 41.76C116.551 41.856 117.239 41.984 117.911 42.144L129.959 42.192V46.896C128.327 46.928 126.663 46.736 124.967 46.32C123.303 45.872 121.831 45.392 120.551 44.88L120.407 44.544C121.495 45.056 122.519 45.696 123.479 46.464C124.439 47.2 125.207 48.064 125.783 49.056C126.391 50.016 126.695 51.136 126.695 52.416C126.695 54.496 126.167 56.288 125.111 57.792C124.055 59.264 122.551 60.4 120.599 61.2C118.679 61.968 116.391 62.352 113.735 62.352ZM121.751 75.84V74.688C121.751 73.216 121.271 72.192 120.311 71.616C119.383 71.04 118.103 70.752 116.471 70.752H109.031C107.591 70.752 106.375 70.64 105.383 70.416C104.423 70.192 103.655 69.872 103.079 69.456C102.503 69.04 102.087 68.544 101.831 67.968C101.575 67.424 101.447 66.832 101.447 66.192C101.447 64.912 101.863 63.952 102.695 63.312C103.527 62.64 104.647 62.192 106.055 61.968C107.463 61.744 109.015 61.696 110.711 61.824L113.735 62.352C111.719 62.416 110.215 62.592 109.223 62.88C108.263 63.136 107.783 63.664 107.783 64.464C107.783 64.944 107.975 65.328 108.359 65.616C108.743 65.872 109.287 66 109.991 66H117.815C119.959 66 121.783 66.224 123.287 66.672C124.823 67.152 125.991 67.936 126.791 69.024C127.591 70.144 127.991 71.664 127.991 73.584V75.84H121.751ZM113.735 57.84C115.111 57.84 116.311 57.616 117.335 57.168C118.391 56.72 119.207 56.08 119.783 55.248C120.359 54.384 120.647 53.36 120.647 52.176C120.647 50.96 120.359 49.92 119.783 49.056C119.207 48.192 118.407 47.536 117.383 47.088C116.359 46.608 115.143 46.368 113.735 46.368C112.359 46.368 111.143 46.608 110.087 47.088C109.031 47.536 108.215 48.192 107.639 49.056C107.063 49.92 106.775 50.96 106.775 52.176C106.775 53.36 107.063 54.384 107.639 55.248C108.215 56.08 109.015 56.72 110.039 57.168C111.095 57.616 112.327 57.84 113.735 57.84ZM142.146 31.68V37.152H134.898V31.68H142.146ZM135.378 42.144H141.618V66H135.378V42.144ZM147.118 42.144H165.646V46.992H147.118V42.144ZM153.262 35.616H159.502V66H153.262V35.616ZM181.859 66.528C179.491 66.528 177.331 66.016 175.379 64.992C173.459 63.936 171.923 62.48 170.771 60.624C169.651 58.736 169.091 56.56 169.091 54.096C169.091 51.568 169.667 49.376 170.819 47.52C171.971 45.664 173.523 44.224 175.475 43.2C177.459 42.144 179.699 41.616 182.195 41.616C184.947 41.616 187.155 42.176 188.819 43.296C190.515 44.384 191.747 45.872 192.515 47.76C193.283 49.648 193.667 51.76 193.667 54.096C193.667 55.504 193.443 56.944 192.995 58.416C192.547 59.856 191.859 61.2 190.931 62.448C190.003 63.664 188.787 64.656 187.283 65.424C185.779 66.16 183.971 66.528 181.859 66.528ZM183.875 61.728C185.763 61.728 187.395 61.408 188.771 60.768C190.147 60.128 191.203 59.232 191.939 58.08C192.675 56.928 193.043 55.6 193.043 54.096C193.043 52.464 192.659 51.088 191.891 49.968C191.155 48.816 190.099 47.952 188.723 47.376C187.379 46.768 185.763 46.464 183.875 46.464C181.219 46.464 179.155 47.168 177.683 48.576C176.211 49.952 175.475 51.792 175.475 54.096C175.475 55.632 175.827 56.976 176.531 58.128C177.235 59.248 178.211 60.128 179.459 60.768C180.739 61.408 182.211 61.728 183.875 61.728ZM193.043 42.144H199.283V66H193.475C193.475 66 193.427 65.696 193.331 65.088C193.267 64.448 193.203 63.648 193.139 62.688C193.075 61.728 193.043 60.784 193.043 59.856V42.144ZM206.37 32.544H212.61V66H206.37V32.544ZM249.795 66.576C247.683 66.576 245.875 66.208 244.371 65.472C242.899 64.704 241.699 63.712 240.771 62.496C239.843 61.248 239.155 59.888 238.707 58.416C238.259 56.944 238.035 55.504 238.035 54.096C238.035 52.336 238.243 50.704 238.659 49.2C239.107 47.696 239.795 46.384 240.723 45.264C241.651 44.112 242.851 43.216 244.323 42.576C245.827 41.936 247.651 41.616 249.795 41.616C252.195 41.616 254.355 42.144 256.275 43.2C258.195 44.256 259.715 45.728 260.835 47.616C261.987 49.472 262.563 51.632 262.563 54.096C262.563 56.624 261.987 58.832 260.835 60.72C259.683 62.576 258.147 64.016 256.227 65.04C254.307 66.064 252.163 66.576 249.795 66.576ZM247.779 61.728C249.475 61.728 250.947 61.408 252.195 60.768C253.475 60.128 254.451 59.248 255.123 58.128C255.827 56.976 256.179 55.632 256.179 54.096C256.179 51.792 255.443 49.936 253.971 48.528C252.531 47.12 250.467 46.416 247.779 46.416C246.083 46.416 244.531 46.72 243.123 47.328C241.747 47.936 240.659 48.816 239.859 49.968C239.059 51.088 238.659 52.464 238.659 54.096C238.659 55.632 239.027 56.976 239.763 58.128C240.499 59.248 241.555 60.128 242.931 60.768C244.307 61.408 245.923 61.728 247.779 61.728ZM232.419 42.144H238.371L238.659 48.48V75.6H232.419V42.144ZM268.114 42.144H274.354V66H268.114V42.144ZM283.522 47.28C281.73 47.28 280.178 47.632 278.866 48.336C277.554 49.008 276.498 49.84 275.698 50.832C274.898 51.824 274.338 52.784 274.018 53.712L273.97 51.072C274.002 50.688 274.13 50.128 274.354 49.392C274.578 48.624 274.914 47.808 275.362 46.944C275.81 46.048 276.402 45.2 277.138 44.4C277.874 43.568 278.77 42.896 279.826 42.384C280.882 41.872 282.114 41.616 283.522 41.616V47.28ZM302.403 66.576C299.395 66.576 296.739 66.096 294.435 65.136C292.163 64.176 290.387 62.784 289.107 60.96C287.827 59.104 287.187 56.832 287.187 54.144C287.187 51.456 287.827 49.184 289.107 47.328C290.387 45.44 292.163 44.016 294.435 43.056C296.739 42.096 299.395 41.616 302.403 41.616C305.411 41.616 308.035 42.096 310.275 43.056C312.547 44.016 314.323 45.44 315.603 47.328C316.883 49.184 317.523 51.456 317.523 54.144C317.523 56.832 316.883 59.104 315.603 60.96C314.323 62.784 312.547 64.176 310.275 65.136C308.035 66.096 305.411 66.576 302.403 66.576ZM302.403 61.776C304.067 61.776 305.555 61.488 306.867 60.912C308.211 60.304 309.267 59.44 310.035 58.32C310.803 57.168 311.187 55.776 311.187 54.144C311.187 52.512 310.803 51.12 310.035 49.968C309.267 48.784 308.227 47.888 306.915 47.28C305.603 46.672 304.099 46.368 302.403 46.368C300.739 46.368 299.235 46.672 297.891 47.28C296.547 47.888 295.475 48.768 294.675 49.92C293.907 51.072 293.523 52.48 293.523 54.144C293.523 55.776 293.907 57.168 294.675 58.32C295.443 59.44 296.499 60.304 297.843 60.912C299.187 61.488 300.707 61.776 302.403 61.776ZM334.712 66.528C332.312 66.528 330.136 66.016 328.184 64.992C326.264 63.936 324.744 62.48 323.624 60.624C322.504 58.736 321.944 56.56 321.944 54.096C321.944 51.568 322.488 49.376 323.576 47.52C324.696 45.664 326.216 44.224 328.136 43.2C330.056 42.144 332.248 41.616 334.712 41.616C336.856 41.616 338.68 41.936 340.184 42.576C341.688 43.216 342.904 44.112 343.832 45.264C344.76 46.384 345.432 47.696 345.848 49.2C346.296 50.704 346.52 52.336 346.52 54.096C346.52 55.504 346.296 56.944 345.848 58.416C345.4 59.856 344.712 61.2 343.784 62.448C342.856 63.664 341.64 64.656 340.136 65.424C338.632 66.16 336.824 66.528 334.712 66.528ZM336.728 61.728C338.616 61.728 340.248 61.408 341.624 60.768C343 60.128 344.056 59.232 344.792 58.08C345.528 56.928 345.896 55.6 345.896 54.096C345.896 52.464 345.512 51.088 344.744 49.968C344.008 48.816 342.952 47.936 341.576 47.328C340.232 46.72 338.616 46.416 336.728 46.416C334.072 46.416 332.008 47.12 330.536 48.528C329.064 49.936 328.328 51.792 328.328 54.096C328.328 55.632 328.68 56.976 329.384 58.128C330.088 59.248 331.064 60.128 332.312 60.768C333.592 61.408 335.064 61.728 336.728 61.728ZM345.896 32.544H352.136V66H346.328C346.232 65.264 346.136 64.32 346.04 63.168C345.944 61.984 345.896 60.88 345.896 59.856V32.544ZM387.422 66H381.182V42.144H387.422V66ZM381.518 54.528L381.566 56.16C381.502 56.608 381.342 57.264 381.086 58.128C380.83 58.96 380.43 59.856 379.886 60.816C379.374 61.776 378.702 62.704 377.87 63.6C377.038 64.464 376.014 65.184 374.798 65.76C373.582 66.304 372.142 66.576 370.478 66.576C369.166 66.576 367.87 66.416 366.59 66.096C365.342 65.776 364.206 65.248 363.182 64.512C362.158 63.744 361.342 62.72 360.734 61.44C360.126 60.16 359.822 58.544 359.822 56.592V42.144H366.062V55.536C366.062 57.072 366.302 58.288 366.782 59.184C367.294 60.048 368.03 60.656 368.99 61.008C369.95 61.36 371.086 61.536 372.398 61.536C374.126 61.536 375.614 61.168 376.862 60.432C378.11 59.664 379.118 58.736 379.886 57.648C380.686 56.56 381.23 55.52 381.518 54.528ZM422.383 56.592C422.223 58.672 421.551 60.464 420.367 61.968C419.215 63.472 417.615 64.624 415.567 65.424C413.519 66.192 411.087 66.576 408.271 66.576C405.327 66.576 402.687 66.112 400.351 65.184C398.047 64.224 396.223 62.832 394.879 61.008C393.567 59.152 392.911 56.864 392.911 54.144C392.911 51.424 393.567 49.136 394.879 47.28C396.223 45.424 398.047 44.016 400.351 43.056C402.687 42.096 405.327 41.616 408.271 41.616C411.087 41.616 413.503 42.016 415.519 42.816C417.535 43.584 419.119 44.704 420.271 46.176C421.455 47.648 422.143 49.424 422.335 51.504H416.623C416.079 49.904 415.071 48.656 413.599 47.76C412.127 46.864 410.351 46.416 408.271 46.416C406.607 46.416 405.087 46.704 403.711 47.28C402.367 47.856 401.279 48.72 400.447 49.872C399.647 50.992 399.247 52.416 399.247 54.144C399.247 55.84 399.647 57.264 400.447 58.416C401.247 59.536 402.335 60.384 403.711 60.96C405.087 61.504 406.607 61.776 408.271 61.776C410.511 61.776 412.335 61.328 413.743 60.432C415.183 59.536 416.159 58.256 416.671 56.592H422.383ZM426.249 42.144H444.777V46.992H426.249V42.144ZM432.393 35.616H438.633V66H432.393V35.616Z" fill="white"/>
</svg>
