<svg width="153" height="67" viewBox="0 0 153 67" fill="none" xmlns="http://www.w3.org/2000/svg">
<rect width="153" height="67" rx="33.5" fill="#F7BA2D"/>
<path d="M37.696 39.488V35.936H51.392V39.488H37.696ZM32.544 44L42.272 23.296H46.88L56.704 44H52.064L43.552 25.344H45.6L37.152 44H32.544ZM67.5585 41.568C65.8305 41.568 64.3052 41.312 62.9825 40.8C61.6812 40.2667 60.6678 39.488 59.9425 38.464C59.2172 37.44 58.8545 36.2027 58.8545 34.752C58.8545 33.3227 59.2065 32.0853 59.9105 31.04C60.6145 29.9947 61.6172 29.184 62.9185 28.608C64.2412 28.032 65.7878 27.744 67.5585 27.744C68.0492 27.744 68.5185 27.776 68.9665 27.84C69.4358 27.904 69.8945 27.9893 70.3425 28.096L78.3745 28.128V31.264C77.2865 31.2853 76.1772 31.1573 75.0465 30.88C73.9372 30.5813 72.9558 30.2613 72.1025 29.92L72.0065 29.696C72.7318 30.0373 73.4145 30.464 74.0545 30.976C74.6945 31.4667 75.2065 32.0427 75.5905 32.704C75.9958 33.344 76.1985 34.0907 76.1985 34.944C76.1985 36.3307 75.8465 37.5253 75.1425 38.528C74.4385 39.5093 73.4358 40.2667 72.1345 40.8C70.8545 41.312 69.3292 41.568 67.5585 41.568ZM72.9025 50.56V49.792C72.9025 48.8107 72.5825 48.128 71.9425 47.744C71.3238 47.36 70.4705 47.168 69.3825 47.168H64.4225C63.4625 47.168 62.6518 47.0933 61.9905 46.944C61.3505 46.7947 60.8385 46.5813 60.4545 46.304C60.0705 46.0267 59.7932 45.696 59.6225 45.312C59.4518 44.9493 59.3665 44.5547 59.3665 44.128C59.3665 43.2747 59.6438 42.6347 60.1985 42.208C60.7532 41.76 61.4998 41.4613 62.4385 41.312C63.3772 41.1627 64.4118 41.1307 65.5425 41.216L67.5585 41.568C66.2145 41.6107 65.2118 41.728 64.5505 41.92C63.9105 42.0907 63.5905 42.4427 63.5905 42.976C63.5905 43.296 63.7185 43.552 63.9745 43.744C64.2305 43.9147 64.5932 44 65.0625 44H70.2785C71.7078 44 72.9238 44.1493 73.9265 44.448C74.9505 44.768 75.7292 45.2907 76.2625 46.016C76.7958 46.7627 77.0625 47.776 77.0625 49.056V50.56H72.9025ZM67.5585 38.56C68.4758 38.56 69.2758 38.4107 69.9585 38.112C70.6625 37.8133 71.2065 37.3867 71.5905 36.832C71.9745 36.256 72.1665 35.5733 72.1665 34.784C72.1665 33.9733 71.9745 33.28 71.5905 32.704C71.2065 32.128 70.6732 31.6907 69.9905 31.392C69.3078 31.072 68.4972 30.912 67.5585 30.912C66.6412 30.912 65.8305 31.072 65.1265 31.392C64.4225 31.6907 63.8785 32.128 63.4945 32.704C63.1105 33.28 62.9185 33.9733 62.9185 34.784C62.9185 35.5733 63.1105 36.256 63.4945 36.832C63.8785 37.3867 64.4118 37.8133 65.0945 38.112C65.7985 38.4107 66.6198 38.56 67.5585 38.56ZM86.4992 21.12V24.768H81.6672V21.12H86.4992ZM81.9872 28.096H86.1472V44H81.9872V28.096ZM91.2537 21.696H95.4137V44H91.2537V21.696ZM114.757 38.72H118.789C118.619 39.808 118.16 40.7787 117.413 41.632C116.688 42.4853 115.696 43.1573 114.437 43.648C113.179 44.1387 111.643 44.384 109.829 44.384C107.803 44.384 106.011 44.064 104.453 43.424C102.896 42.7627 101.68 41.8133 100.805 40.576C99.9306 39.3387 99.4932 37.8453 99.4932 36.096C99.4932 34.3467 99.9199 32.8533 100.773 31.616C101.627 30.3573 102.811 29.3973 104.325 28.736C105.861 28.0747 107.653 27.744 109.701 27.744C111.792 27.744 113.531 28.0747 114.917 28.736C116.304 29.3973 117.328 30.4 117.989 31.744C118.672 33.0667 118.96 34.7627 118.853 36.832H103.685C103.792 37.6427 104.091 38.3787 104.581 39.04C105.093 39.7013 105.776 40.224 106.629 40.608C107.504 40.992 108.539 41.184 109.733 41.184C111.056 41.184 112.155 40.96 113.029 40.512C113.925 40.0427 114.501 39.4453 114.757 38.72ZM109.509 30.912C107.973 30.912 106.725 31.2533 105.765 31.936C104.805 32.5973 104.187 33.4187 103.909 34.4H114.725C114.619 33.3333 114.107 32.4907 113.189 31.872C112.293 31.232 111.067 30.912 109.509 30.912Z" fill="white"/>
</svg>
