<svg width="173" height="67" viewBox="0 0 173 67" fill="none" xmlns="http://www.w3.org/2000/svg">
<rect width="173" height="67" rx="33.5" fill="#FEA4B9"/>
<path d="M58.624 36.544C58.432 38.208 57.8453 39.6267 56.864 40.8C55.8827 41.9733 54.5493 42.8693 52.864 43.488C51.1787 44.1067 49.1733 44.416 46.848 44.416C44.9067 44.416 43.1253 44.192 41.504 43.744C39.904 43.296 38.5173 42.624 37.344 41.728C36.192 40.832 35.296 39.7227 34.656 38.4C34.016 37.056 33.696 35.488 33.696 33.696C33.696 31.904 34.016 30.336 34.656 28.992C35.296 27.648 36.192 26.528 37.344 25.632C38.5173 24.7147 39.904 24.032 41.504 23.584C43.1253 23.1147 44.9067 22.88 46.848 22.88C49.1733 22.88 51.1787 23.2 52.864 23.84C54.5707 24.48 55.9147 25.3973 56.896 26.592C57.8773 27.7653 58.4533 29.1947 58.624 30.88H54.4C54.1227 29.984 53.6533 29.216 52.992 28.576C52.352 27.9147 51.52 27.4133 50.496 27.072C49.472 26.7307 48.256 26.56 46.848 26.56C45.0987 26.56 43.5627 26.8373 42.24 27.392C40.9173 27.9253 39.8933 28.7253 39.168 29.792C38.4427 30.8373 38.08 32.1387 38.08 33.696C38.08 35.232 38.4427 36.5227 39.168 37.568C39.8933 38.6133 40.9173 39.4133 42.24 39.968C43.5627 40.5013 45.0987 40.768 46.848 40.768C48.256 40.768 49.4613 40.5973 50.464 40.256C51.488 39.9147 52.32 39.424 52.96 38.784C53.6213 38.144 54.1013 37.3973 54.4 36.544H58.624ZM63.1925 21.696H67.3525V44H63.1925V21.696ZM81.576 44.384C79.5707 44.384 77.8 44.064 76.264 43.424C74.7493 42.784 73.5653 41.856 72.712 40.64C71.8587 39.4027 71.432 37.888 71.432 36.096C71.432 34.304 71.8587 32.7893 72.712 31.552C73.5653 30.2933 74.7493 29.344 76.264 28.704C77.8 28.064 79.5707 27.744 81.576 27.744C83.5813 27.744 85.3307 28.064 86.824 28.704C88.3387 29.344 89.5227 30.2933 90.376 31.552C91.2293 32.7893 91.656 34.304 91.656 36.096C91.656 37.888 91.2293 39.4027 90.376 40.64C89.5227 41.856 88.3387 42.784 86.824 43.424C85.3307 44.064 83.5813 44.384 81.576 44.384ZM81.576 41.184C82.6853 41.184 83.6773 40.992 84.552 40.608C85.448 40.2027 86.152 39.6267 86.664 38.88C87.176 38.112 87.432 37.184 87.432 36.096C87.432 35.008 87.176 34.08 86.664 33.312C86.152 32.5227 85.4587 31.9253 84.584 31.52C83.7093 31.1147 82.7067 30.912 81.576 30.912C80.4667 30.912 79.464 31.1147 78.568 31.52C77.672 31.9253 76.9573 32.512 76.424 33.28C75.912 34.048 75.656 34.9867 75.656 36.096C75.656 37.184 75.912 38.112 76.424 38.88C76.936 39.6267 77.64 40.2027 78.536 40.608C79.432 40.992 80.4453 41.184 81.576 41.184ZM113.771 44H109.611V28.096H113.771V44ZM109.835 36.352L109.867 37.44C109.825 37.7387 109.718 38.176 109.547 38.752C109.377 39.3067 109.11 39.904 108.747 40.544C108.406 41.184 107.958 41.8027 107.403 42.4C106.849 42.976 106.166 43.456 105.355 43.84C104.545 44.2027 103.585 44.384 102.475 44.384C101.601 44.384 100.737 44.2773 99.8832 44.064C99.0512 43.8507 98.2939 43.4987 97.6112 43.008C96.9286 42.496 96.3846 41.8133 95.9792 40.96C95.5739 40.1067 95.3712 39.0293 95.3712 37.728V28.096H99.5312V37.024C99.5312 38.048 99.6912 38.8587 100.011 39.456C100.353 40.032 100.843 40.4373 101.483 40.672C102.123 40.9067 102.881 41.024 103.755 41.024C104.907 41.024 105.899 40.7787 106.731 40.288C107.563 39.776 108.235 39.1573 108.747 38.432C109.281 37.7067 109.643 37.0133 109.835 36.352ZM125.943 44.352C124.343 44.352 122.892 44.0107 121.591 43.328C120.311 42.624 119.297 41.6533 118.551 40.416C117.804 39.1573 117.431 37.7067 117.431 36.064C117.431 34.3787 117.793 32.9173 118.519 31.68C119.265 30.4427 120.279 29.4827 121.559 28.8C122.839 28.096 124.3 27.744 125.943 27.744C127.372 27.744 128.588 27.9573 129.591 28.384C130.593 28.8107 131.404 29.408 132.023 30.176C132.641 30.9227 133.089 31.7973 133.367 32.8C133.665 33.8027 133.815 34.8907 133.815 36.064C133.815 37.0027 133.665 37.9627 133.367 38.944C133.068 39.904 132.609 40.8 131.991 41.632C131.372 42.4427 130.561 43.104 129.559 43.616C128.556 44.1067 127.351 44.352 125.943 44.352ZM127.287 41.152C128.545 41.152 129.633 40.9387 130.551 40.512C131.468 40.0853 132.172 39.488 132.663 38.72C133.153 37.952 133.399 37.0667 133.399 36.064C133.399 34.976 133.143 34.0587 132.631 33.312C132.14 32.544 131.436 31.9573 130.519 31.552C129.623 31.1467 128.545 30.944 127.287 30.944C125.516 30.944 124.14 31.4133 123.159 32.352C122.177 33.2907 121.687 34.528 121.687 36.064C121.687 37.088 121.921 37.984 122.391 38.752C122.86 39.4987 123.511 40.0853 124.343 40.512C125.196 40.9387 126.177 41.152 127.287 41.152ZM133.399 21.696H137.559V44H133.687C133.623 43.5093 133.559 42.88 133.495 42.112C133.431 41.3227 133.399 40.5867 133.399 39.904V21.696Z" fill="white"/>
</svg>
