<svg width="134" height="58" viewBox="0 0 134 58" fill="none" xmlns="http://www.w3.org/2000/svg">
<rect width="134" height="58" rx="29" fill="#F7BA2D"/>
<path d="M32.816 31.768H36.056C36.12 32.312 36.368 32.808 36.8 33.256C37.248 33.688 37.832 34.032 38.552 34.288C39.272 34.528 40.08 34.648 40.976 34.648C41.792 34.648 42.464 34.56 42.992 34.384C43.52 34.208 43.912 33.96 44.168 33.64C44.424 33.32 44.552 32.936 44.552 32.488C44.552 32.056 44.392 31.728 44.072 31.504C43.752 31.264 43.248 31.072 42.56 30.928C41.872 30.768 40.968 30.608 39.848 30.448C38.968 30.32 38.136 30.144 37.352 29.92C36.568 29.68 35.872 29.376 35.264 29.008C34.672 28.64 34.2 28.192 33.848 27.664C33.512 27.12 33.344 26.48 33.344 25.744C33.344 24.832 33.6 24.032 34.112 23.344C34.64 22.656 35.416 22.12 36.44 21.736C37.464 21.352 38.72 21.16 40.208 21.16C42.448 21.16 44.168 21.64 45.368 22.6C46.584 23.544 47.176 24.848 47.144 26.512H44.024C43.96 25.568 43.56 24.888 42.824 24.472C42.104 24.056 41.192 23.848 40.088 23.848C39.064 23.848 38.216 24 37.544 24.304C36.888 24.608 36.56 25.128 36.56 25.864C36.56 26.152 36.64 26.408 36.8 26.632C36.96 26.84 37.232 27.024 37.616 27.184C38 27.344 38.52 27.496 39.176 27.64C39.832 27.784 40.648 27.928 41.624 28.072C42.536 28.2 43.36 28.376 44.096 28.6C44.848 28.808 45.488 29.088 46.016 29.44C46.56 29.776 46.976 30.208 47.264 30.736C47.552 31.264 47.696 31.912 47.696 32.68C47.696 33.624 47.448 34.448 46.952 35.152C46.472 35.84 45.72 36.376 44.696 36.76C43.688 37.144 42.376 37.336 40.76 37.336C39.608 37.336 38.592 37.216 37.712 36.976C36.832 36.72 36.072 36.384 35.432 35.968C34.792 35.552 34.272 35.096 33.872 34.6C33.472 34.104 33.184 33.608 33.008 33.112C32.848 32.616 32.784 32.168 32.816 31.768ZM56.3921 37.264C55.2081 37.264 54.1281 37.008 53.1521 36.496C52.1921 35.968 51.4241 35.24 50.8481 34.312C50.2881 33.368 50.0081 32.28 50.0081 31.048C50.0081 29.784 50.2961 28.688 50.8721 27.76C51.4481 26.832 52.2241 26.112 53.2001 25.6C54.1921 25.072 55.3121 24.808 56.5601 24.808C57.9361 24.808 59.0401 25.088 59.8721 25.648C60.7201 26.192 61.3361 26.936 61.7201 27.88C62.1041 28.824 62.2961 29.88 62.2961 31.048C62.2961 31.752 62.1841 32.472 61.9601 33.208C61.7361 33.928 61.3921 34.6 60.9281 35.224C60.4641 35.832 59.8561 36.328 59.1041 36.712C58.3521 37.08 57.4481 37.264 56.3921 37.264ZM57.4001 34.864C58.3441 34.864 59.1601 34.704 59.8481 34.384C60.5361 34.064 61.0641 33.616 61.4321 33.04C61.8001 32.464 61.9841 31.8 61.9841 31.048C61.9841 30.232 61.7921 29.544 61.4081 28.984C61.0401 28.408 60.5121 27.976 59.8241 27.688C59.1521 27.384 58.3441 27.232 57.4001 27.232C56.0721 27.232 55.0401 27.584 54.3041 28.288C53.5681 28.976 53.2001 29.896 53.2001 31.048C53.2001 31.816 53.3761 32.488 53.7281 33.064C54.0801 33.624 54.5681 34.064 55.1921 34.384C55.8321 34.704 56.5681 34.864 57.4001 34.864ZM61.9841 25.072H65.1041V37H62.2001C62.2001 37 62.1761 36.848 62.1281 36.544C62.0961 36.224 62.0641 35.824 62.0321 35.344C62.0001 34.864 61.9841 34.392 61.9841 33.928V25.072ZM74.2158 37.264C73.0318 37.264 71.9518 37.008 70.9758 36.496C70.0158 35.968 69.2478 35.24 68.6718 34.312C68.1118 33.368 67.8318 32.28 67.8318 31.048C67.8318 29.784 68.1198 28.688 68.6958 27.76C69.2718 26.832 70.0478 26.112 71.0238 25.6C72.0158 25.072 73.1358 24.808 74.3838 24.808C75.7598 24.808 76.8638 25.088 77.6958 25.648C78.5438 26.192 79.1598 26.936 79.5438 27.88C79.9278 28.824 80.1198 29.88 80.1198 31.048C80.1198 31.752 80.0078 32.472 79.7838 33.208C79.5598 33.928 79.2158 34.6 78.7518 35.224C78.2878 35.832 77.6798 36.328 76.9278 36.712C76.1758 37.08 75.2718 37.264 74.2158 37.264ZM75.2238 34.864C76.1678 34.864 76.9838 34.704 77.6718 34.384C78.3598 34.064 78.8878 33.616 79.2558 33.04C79.6238 32.464 79.8078 31.8 79.8078 31.048C79.8078 30.232 79.6158 29.544 79.2318 28.984C78.8638 28.408 78.3358 27.976 77.6478 27.688C76.9758 27.384 76.1678 27.232 75.2238 27.232C73.8958 27.232 72.8638 27.584 72.1278 28.288C71.3918 28.976 71.0238 29.896 71.0238 31.048C71.0238 31.816 71.1998 32.488 71.5518 33.064C71.9038 33.624 72.3918 34.064 73.0158 34.384C73.6558 34.704 74.3918 34.864 75.2238 34.864ZM79.8078 25.072H82.9278V37H80.0238C80.0238 37 79.9998 36.848 79.9518 36.544C79.9198 36.224 79.8878 35.824 79.8558 35.344C79.8238 34.864 79.8078 34.392 79.8078 33.928V25.072ZM85.6076 31.768H88.8476C88.9116 32.312 89.1596 32.808 89.5916 33.256C90.0396 33.688 90.6236 34.032 91.3436 34.288C92.0636 34.528 92.8716 34.648 93.7676 34.648C94.5836 34.648 95.2556 34.56 95.7836 34.384C96.3116 34.208 96.7036 33.96 96.9596 33.64C97.2156 33.32 97.3436 32.936 97.3436 32.488C97.3436 32.056 97.1836 31.728 96.8636 31.504C96.5436 31.264 96.0396 31.072 95.3516 30.928C94.6636 30.768 93.7596 30.608 92.6396 30.448C91.7596 30.32 90.9276 30.144 90.1436 29.92C89.3596 29.68 88.6636 29.376 88.0556 29.008C87.4636 28.64 86.9916 28.192 86.6396 27.664C86.3036 27.12 86.1356 26.48 86.1356 25.744C86.1356 24.832 86.3916 24.032 86.9036 23.344C87.4316 22.656 88.2076 22.12 89.2316 21.736C90.2556 21.352 91.5116 21.16 92.9996 21.16C95.2396 21.16 96.9596 21.64 98.1596 22.6C99.3756 23.544 99.9676 24.848 99.9356 26.512H96.8156C96.7516 25.568 96.3516 24.888 95.6156 24.472C94.8956 24.056 93.9836 23.848 92.8796 23.848C91.8556 23.848 91.0076 24 90.3356 24.304C89.6796 24.608 89.3516 25.128 89.3516 25.864C89.3516 26.152 89.4316 26.408 89.5916 26.632C89.7516 26.84 90.0236 27.024 90.4076 27.184C90.7916 27.344 91.3116 27.496 91.9676 27.64C92.6236 27.784 93.4396 27.928 94.4156 28.072C95.3276 28.2 96.1516 28.376 96.8876 28.6C97.6396 28.808 98.2796 29.088 98.8076 29.44C99.3516 29.776 99.7676 30.208 100.056 30.736C100.344 31.264 100.488 31.912 100.488 32.68C100.488 33.624 100.24 34.448 99.7436 35.152C99.2636 35.84 98.5116 36.376 97.4876 36.76C96.4796 37.144 95.1676 37.336 93.5516 37.336C92.3996 37.336 91.3836 37.216 90.5036 36.976C89.6236 36.72 88.8636 36.384 88.2236 35.968C87.5836 35.552 87.0636 35.096 86.6636 34.6C86.2636 34.104 85.9756 33.608 85.7996 33.112C85.6396 32.616 85.5756 32.168 85.6076 31.768Z" fill="white"/>
</svg>
