<svg width="147" height="58" viewBox="0 0 147 58" fill="none" xmlns="http://www.w3.org/2000/svg">
<rect width="147" height="58" rx="29" fill="#2C3950"/>
<path d="M48.104 30.136V21.472H51.296V30.472C51.296 31.496 51.144 32.392 50.84 33.16C50.552 33.928 50.136 34.576 49.592 35.104C49.048 35.632 48.408 36.064 47.672 36.4C46.952 36.72 46.16 36.952 45.296 37.096C44.448 37.24 43.552 37.312 42.608 37.312C41.632 37.312 40.704 37.24 39.824 37.096C38.944 36.952 38.136 36.72 37.4 36.4C36.68 36.064 36.056 35.632 35.528 35.104C35 34.576 34.584 33.928 34.28 33.16C33.992 32.392 33.848 31.496 33.848 30.472V21.472H37.04V30.136C37.04 31.352 37.28 32.28 37.76 32.92C38.24 33.544 38.896 33.976 39.728 34.216C40.576 34.44 41.536 34.552 42.608 34.552C43.648 34.552 44.576 34.44 45.392 34.216C46.224 33.976 46.88 33.544 47.36 32.92C47.856 32.28 48.104 31.352 48.104 30.136ZM55.9246 21.472H59.1166V37H55.9246V21.472ZM70.0419 18.928L72.5619 19.84L65.2419 39.88L62.7459 38.968L70.0419 18.928ZM90.0206 30.136V21.472H93.2126V30.472C93.2126 31.496 93.0606 32.392 92.7566 33.16C92.4686 33.928 92.0526 34.576 91.5086 35.104C90.9646 35.632 90.3246 36.064 89.5886 36.4C88.8686 36.72 88.0766 36.952 87.2126 37.096C86.3646 37.24 85.4686 37.312 84.5246 37.312C83.5486 37.312 82.6206 37.24 81.7406 37.096C80.8606 36.952 80.0526 36.72 79.3166 36.4C78.5966 36.064 77.9726 35.632 77.4446 35.104C76.9166 34.576 76.5006 33.928 76.1966 33.16C75.9086 32.392 75.7646 31.496 75.7646 30.472V21.472H78.9566V30.136C78.9566 31.352 79.1966 32.28 79.6766 32.92C80.1566 33.544 80.8126 33.976 81.6446 34.216C82.4926 34.44 83.4526 34.552 84.5246 34.552C85.5646 34.552 86.4926 34.44 87.3086 34.216C88.1406 33.976 88.7966 33.544 89.2766 32.92C89.7726 32.28 90.0206 31.352 90.0206 30.136ZM109.197 21.472H113.085L105.741 30.04L105.645 30.136L100.197 37H96.3091L103.869 28L103.941 27.928L109.197 21.472ZM100.437 21.472L105.621 27.976L105.669 28.048L113.157 37H109.101L103.725 30.04L103.653 29.992L96.5491 21.472H100.437Z" fill="white"/>
</svg>
