<svg width="157" height="83" viewBox="0 0 157 83" fill="none" xmlns="http://www.w3.org/2000/svg">
<rect width="157" height="83" rx="41.5" fill="#F7BA2D"/>
<path d="M33.088 45.024H37.408C37.4933 45.7493 37.824 46.4107 38.4 47.008C38.9973 47.584 39.776 48.0427 40.736 48.384C41.696 48.704 42.7733 48.864 43.968 48.864C45.056 48.864 45.952 48.7467 46.656 48.512C47.36 48.2773 47.8827 47.9467 48.224 47.52C48.5653 47.0933 48.736 46.5813 48.736 45.984C48.736 45.408 48.5227 44.9707 48.096 44.672C47.6693 44.352 46.9973 44.096 46.08 43.904C45.1627 43.6907 43.9573 43.4773 42.464 43.264C41.2907 43.0933 40.1813 42.8587 39.136 42.56C38.0907 42.24 37.1627 41.8347 36.352 41.344C35.5627 40.8533 34.9333 40.256 34.464 39.552C34.016 38.8267 33.792 37.9733 33.792 36.992C33.792 35.776 34.1333 34.7093 34.816 33.792C35.52 32.8747 36.5547 32.16 37.92 31.648C39.2853 31.136 40.96 30.88 42.944 30.88C45.9307 30.88 48.224 31.52 49.824 32.8C51.4453 34.0587 52.2347 35.7973 52.192 38.016H48.032C47.9467 36.7573 47.4133 35.8507 46.432 35.296C45.472 34.7413 44.256 34.464 42.784 34.464C41.4187 34.464 40.288 34.6667 39.392 35.072C38.5173 35.4773 38.08 36.1707 38.08 37.152C38.08 37.536 38.1867 37.8773 38.4 38.176C38.6133 38.4533 38.976 38.6987 39.488 38.912C40 39.1253 40.6933 39.328 41.568 39.52C42.4427 39.712 43.5307 39.904 44.832 40.096C46.048 40.2667 47.1467 40.5013 48.128 40.8C49.1307 41.0773 49.984 41.4507 50.688 41.92C51.4133 42.368 51.968 42.944 52.352 43.648C52.736 44.352 52.928 45.216 52.928 46.24C52.928 47.4987 52.5973 48.5973 51.936 49.536C51.296 50.4533 50.2933 51.168 48.928 51.68C47.584 52.192 45.8347 52.448 43.68 52.448C42.144 52.448 40.7893 52.288 39.616 51.968C38.4427 51.6267 37.4293 51.1787 36.576 50.624C35.7227 50.0693 35.0293 49.4613 34.496 48.8C33.9627 48.1387 33.5787 47.4773 33.344 46.816C33.1307 46.1547 33.0453 45.5573 33.088 45.024ZM64.5227 52.352C62.9441 52.352 61.5041 52.0107 60.2027 51.328C58.9227 50.624 57.8987 49.6533 57.1307 48.416C56.3841 47.1573 56.0107 45.7067 56.0107 44.064C56.0107 42.3787 56.3947 40.9173 57.1627 39.68C57.9307 38.4427 58.9654 37.4827 60.2667 36.8C61.5894 36.096 63.0827 35.744 64.7467 35.744C66.5814 35.744 68.0534 36.1173 69.1628 36.864C70.2934 37.5893 71.1147 38.5813 71.6268 39.84C72.1388 41.0987 72.3948 42.5067 72.3948 44.064C72.3948 45.0027 72.2454 45.9627 71.9468 46.944C71.6481 47.904 71.1894 48.8 70.5708 49.632C69.9521 50.4427 69.1414 51.104 68.1388 51.616C67.1361 52.1067 65.9308 52.352 64.5227 52.352ZM65.8667 49.152C67.1254 49.152 68.2134 48.9387 69.1307 48.512C70.0481 48.0853 70.7521 47.488 71.2428 46.72C71.7334 45.952 71.9788 45.0667 71.9788 44.064C71.9788 42.976 71.7228 42.0587 71.2108 41.312C70.7201 40.544 70.0161 39.968 69.0988 39.584C68.2028 39.1787 67.1254 38.976 65.8667 38.976C64.0961 38.976 62.7201 39.4453 61.7387 40.384C60.7574 41.3013 60.2667 42.528 60.2667 44.064C60.2667 45.088 60.5014 45.984 60.9707 46.752C61.4401 47.4987 62.0907 48.0853 62.9227 48.512C63.7761 48.9387 64.7574 49.152 65.8667 49.152ZM71.9788 36.096H76.1388V52H72.2668C72.2668 52 72.2348 51.7973 72.1707 51.392C72.1281 50.9653 72.0854 50.432 72.0427 49.792C72.0001 49.152 71.9788 48.5227 71.9788 47.904V36.096ZM88.2877 52.352C86.7091 52.352 85.2691 52.0107 83.9677 51.328C82.6877 50.624 81.6637 49.6533 80.8957 48.416C80.1491 47.1573 79.7757 45.7067 79.7757 44.064C79.7757 42.3787 80.1597 40.9173 80.9277 39.68C81.6957 38.4427 82.7304 37.4827 84.0317 36.8C85.3544 36.096 86.8477 35.744 88.5117 35.744C90.3464 35.744 91.8184 36.1173 92.9277 36.864C94.0584 37.5893 94.8797 38.5813 95.3918 39.84C95.9038 41.0987 96.1597 42.5067 96.1597 44.064C96.1597 45.0027 96.0104 45.9627 95.7118 46.944C95.4131 47.904 94.9544 48.8 94.3357 49.632C93.7171 50.4427 92.9064 51.104 91.9037 51.616C90.9011 52.1067 89.6957 52.352 88.2877 52.352ZM89.6317 49.152C90.8904 49.152 91.9784 48.9387 92.8957 48.512C93.8131 48.0853 94.5171 47.488 95.0077 46.72C95.4984 45.952 95.7437 45.0667 95.7437 44.064C95.7437 42.976 95.4877 42.0587 94.9757 41.312C94.4851 40.544 93.7811 39.968 92.8637 39.584C91.9677 39.1787 90.8904 38.976 89.6317 38.976C87.8611 38.976 86.4851 39.4453 85.5037 40.384C84.5224 41.3013 84.0317 42.528 84.0317 44.064C84.0317 45.088 84.2664 45.984 84.7357 46.752C85.2051 47.4987 85.8557 48.0853 86.6877 48.512C87.5411 48.9387 88.5224 49.152 89.6317 49.152ZM95.7437 36.096H99.9037V52H96.0317C96.0317 52 95.9997 51.7973 95.9357 51.392C95.8931 50.9653 95.8504 50.432 95.8077 49.792C95.7651 49.152 95.7437 48.5227 95.7437 47.904V36.096ZM103.477 45.024H107.797C107.882 45.7493 108.213 46.4107 108.789 47.008C109.386 47.584 110.165 48.0427 111.125 48.384C112.085 48.704 113.162 48.864 114.357 48.864C115.445 48.864 116.341 48.7467 117.045 48.512C117.749 48.2773 118.271 47.9467 118.613 47.52C118.954 47.0933 119.125 46.5813 119.125 45.984C119.125 45.408 118.911 44.9707 118.485 44.672C118.058 44.352 117.386 44.096 116.469 43.904C115.551 43.6907 114.346 43.4773 112.853 43.264C111.679 43.0933 110.57 42.8587 109.525 42.56C108.479 42.24 107.551 41.8347 106.741 41.344C105.951 40.8533 105.322 40.256 104.853 39.552C104.405 38.8267 104.181 37.9733 104.181 36.992C104.181 35.776 104.522 34.7093 105.205 33.792C105.909 32.8747 106.943 32.16 108.309 31.648C109.674 31.136 111.349 30.88 113.333 30.88C116.319 30.88 118.613 31.52 120.213 32.8C121.834 34.0587 122.623 35.7973 122.581 38.016H118.421C118.335 36.7573 117.802 35.8507 116.821 35.296C115.861 34.7413 114.645 34.464 113.173 34.464C111.807 34.464 110.677 34.6667 109.781 35.072C108.906 35.4773 108.469 36.1707 108.469 37.152C108.469 37.536 108.575 37.8773 108.789 38.176C109.002 38.4533 109.365 38.6987 109.877 38.912C110.389 39.1253 111.082 39.328 111.957 39.52C112.831 39.712 113.919 39.904 115.221 40.096C116.437 40.2667 117.535 40.5013 118.517 40.8C119.519 41.0773 120.373 41.4507 121.077 41.92C121.802 42.368 122.357 42.944 122.741 43.648C123.125 44.352 123.317 45.216 123.317 46.24C123.317 47.4987 122.986 48.5973 122.325 49.536C121.685 50.4533 120.682 51.168 119.317 51.68C117.973 52.192 116.223 52.448 114.069 52.448C112.533 52.448 111.178 52.288 110.005 51.968C108.831 51.6267 107.818 51.1787 106.965 50.624C106.111 50.0693 105.418 49.4613 104.885 48.8C104.351 48.1387 103.967 47.4773 103.733 46.816C103.519 46.1547 103.434 45.5573 103.477 45.024Z" fill="white"/>
</svg>
