<svg width="249" height="101" viewBox="0 0 249 101" fill="none" xmlns="http://www.w3.org/2000/svg">
<rect width="249" height="101" rx="50.5" fill="#2C3950"/>
<path d="M74.208 52.272V34.944H80.592V52.944C80.592 54.992 80.288 56.784 79.68 58.32C79.104 59.856 78.272 61.152 77.184 62.208C76.096 63.264 74.816 64.128 73.344 64.8C71.904 65.44 70.32 65.904 68.592 66.192C66.896 66.48 65.104 66.624 63.216 66.624C61.264 66.624 59.408 66.48 57.648 66.192C55.888 65.904 54.272 65.44 52.8 64.8C51.36 64.128 50.112 63.264 49.056 62.208C48 61.152 47.168 59.856 46.56 58.32C45.984 56.784 45.696 54.992 45.696 52.944V34.944H52.08V52.272C52.08 54.704 52.56 56.56 53.52 57.84C54.48 59.088 55.792 59.952 57.456 60.432C59.152 60.88 61.072 61.104 63.216 61.104C65.296 61.104 67.152 60.88 68.784 60.432C70.448 59.952 71.76 59.088 72.72 57.84C73.712 56.56 74.208 54.704 74.208 52.272ZM89.8492 34.944H96.2332V66H89.8492V34.944ZM118.084 29.856L123.124 31.68L108.484 71.76L103.492 69.936L118.084 29.856ZM158.041 52.272V34.944H164.425V52.944C164.425 54.992 164.121 56.784 163.513 58.32C162.937 59.856 162.105 61.152 161.017 62.208C159.929 63.264 158.649 64.128 157.177 64.8C155.737 65.44 154.153 65.904 152.425 66.192C150.729 66.48 148.937 66.624 147.049 66.624C145.097 66.624 143.241 66.48 141.481 66.192C139.721 65.904 138.105 65.44 136.633 64.8C135.193 64.128 133.945 63.264 132.889 62.208C131.833 61.152 131.001 59.856 130.393 58.32C129.817 56.784 129.529 54.992 129.529 52.944V34.944H135.913V52.272C135.913 54.704 136.393 56.56 137.353 57.84C138.313 59.088 139.625 59.952 141.289 60.432C142.985 60.88 144.905 61.104 147.049 61.104C149.129 61.104 150.985 60.88 152.617 60.432C154.281 59.952 155.593 59.088 156.553 57.84C157.545 56.56 158.041 54.704 158.041 52.272ZM196.394 34.944H204.17L189.482 52.08L189.29 52.272L178.394 66H170.618L185.738 48L185.882 47.856L196.394 34.944ZM178.874 34.944L189.242 47.952L189.338 48.096L204.314 66H196.202L185.45 52.08L185.306 51.984L171.098 34.944H178.874Z" fill="white"/>
</svg>
