<svg width="287" height="101" viewBox="0 0 287 101" fill="none" xmlns="http://www.w3.org/2000/svg">
<rect width="287" height="101" rx="50.5" fill="#1C7947"/>
<path d="M43.632 55.536H50.112C50.24 56.624 50.736 57.616 51.6 58.512C52.496 59.376 53.664 60.064 55.104 60.576C56.544 61.056 58.16 61.296 59.952 61.296C61.584 61.296 62.928 61.12 63.984 60.768C65.04 60.416 65.824 59.92 66.336 59.28C66.848 58.64 67.104 57.872 67.104 56.976C67.104 56.112 66.784 55.456 66.144 55.008C65.504 54.528 64.496 54.144 63.12 53.856C61.744 53.536 59.936 53.216 57.696 52.896C55.936 52.64 54.272 52.288 52.704 51.84C51.136 51.36 49.744 50.752 48.528 50.016C47.344 49.28 46.4 48.384 45.696 47.328C45.024 46.24 44.688 44.96 44.688 43.488C44.688 41.664 45.2 40.064 46.224 38.688C47.28 37.312 48.832 36.24 50.88 35.472C52.928 34.704 55.44 34.32 58.416 34.32C62.896 34.32 66.336 35.28 68.736 37.2C71.168 39.088 72.352 41.696 72.288 45.024H66.048C65.92 43.136 65.12 41.776 63.648 40.944C62.208 40.112 60.384 39.696 58.176 39.696C56.128 39.696 54.432 40 53.088 40.608C51.776 41.216 51.12 42.256 51.12 43.728C51.12 44.304 51.28 44.816 51.6 45.264C51.92 45.68 52.464 46.048 53.232 46.368C54 46.688 55.04 46.992 56.352 47.28C57.664 47.568 59.296 47.856 61.248 48.144C63.072 48.4 64.72 48.752 66.192 49.2C67.696 49.616 68.976 50.176 70.032 50.88C71.12 51.552 71.952 52.416 72.528 53.472C73.104 54.528 73.392 55.824 73.392 57.36C73.392 59.248 72.896 60.896 71.904 62.304C70.944 63.68 69.44 64.752 67.392 65.52C65.376 66.288 62.752 66.672 59.52 66.672C57.216 66.672 55.184 66.432 53.424 65.952C51.664 65.44 50.144 64.768 48.864 63.936C47.584 63.104 46.544 62.192 45.744 61.2C44.944 60.208 44.368 59.216 44.016 58.224C43.696 57.232 43.568 56.336 43.632 55.536ZM77.4881 42.144H96.0161V46.992H77.4881V42.144ZM83.6321 35.616H89.8721V66H83.6321V35.616ZM112.228 66.528C109.86 66.528 107.7 66.016 105.748 64.992C103.828 63.936 102.292 62.48 101.14 60.624C100.02 58.736 99.4605 56.56 99.4605 54.096C99.4605 51.568 100.036 49.376 101.188 47.52C102.34 45.664 103.892 44.224 105.844 43.2C107.828 42.144 110.068 41.616 112.564 41.616C115.316 41.616 117.524 42.176 119.188 43.296C120.884 44.384 122.116 45.872 122.885 47.76C123.653 49.648 124.036 51.76 124.036 54.096C124.036 55.504 123.812 56.944 123.365 58.416C122.917 59.856 122.228 61.2 121.3 62.448C120.372 63.664 119.156 64.656 117.652 65.424C116.148 66.16 114.34 66.528 112.228 66.528ZM114.244 61.728C116.132 61.728 117.764 61.408 119.14 60.768C120.516 60.128 121.572 59.232 122.308 58.08C123.044 56.928 123.412 55.6 123.412 54.096C123.412 52.464 123.028 51.088 122.26 49.968C121.524 48.816 120.468 47.952 119.092 47.376C117.748 46.768 116.132 46.464 114.244 46.464C111.588 46.464 109.524 47.168 108.052 48.576C106.58 49.952 105.844 51.792 105.844 54.096C105.844 55.632 106.196 56.976 106.9 58.128C107.604 59.248 108.58 60.128 109.828 60.768C111.108 61.408 112.58 61.728 114.244 61.728ZM123.412 42.144H129.652V66H123.844C123.844 66 123.796 65.696 123.7 65.088C123.636 64.448 123.572 63.648 123.508 62.688C123.444 61.728 123.412 60.784 123.412 59.856V42.144ZM136.26 42.144H142.5V66H136.26V42.144ZM151.668 47.28C149.876 47.28 148.324 47.632 147.012 48.336C145.7 49.008 144.644 49.84 143.844 50.832C143.044 51.824 142.484 52.784 142.164 53.712L142.116 51.072C142.148 50.688 142.276 50.128 142.5 49.392C142.724 48.624 143.06 47.808 143.508 46.944C143.956 46.048 144.548 45.2 145.284 44.4C146.02 43.568 146.916 42.896 147.972 42.384C149.028 41.872 150.26 41.616 151.668 41.616V47.28ZM154.946 42.144H173.474V46.992H154.946V42.144ZM161.09 35.616H167.33V66H161.09V35.616ZM205.999 66H199.759V42.144H205.999V66ZM200.095 54.528L200.143 56.16C200.079 56.608 199.919 57.264 199.663 58.128C199.407 58.96 199.007 59.856 198.463 60.816C197.951 61.776 197.279 62.704 196.447 63.6C195.615 64.464 194.591 65.184 193.375 65.76C192.159 66.304 190.719 66.576 189.055 66.576C187.743 66.576 186.447 66.416 185.167 66.096C183.919 65.776 182.783 65.248 181.759 64.512C180.735 63.744 179.919 62.72 179.311 61.44C178.703 60.16 178.399 58.544 178.399 56.592V42.144H184.639V55.536C184.639 57.072 184.879 58.288 185.359 59.184C185.871 60.048 186.607 60.656 187.567 61.008C188.527 61.36 189.663 61.536 190.975 61.536C192.703 61.536 194.191 61.168 195.439 60.432C196.687 59.664 197.695 58.736 198.463 57.648C199.263 56.56 199.807 55.52 200.095 54.528ZM230.016 66.576C227.904 66.576 226.096 66.208 224.592 65.472C223.12 64.704 221.92 63.712 220.992 62.496C220.064 61.248 219.376 59.888 218.928 58.416C218.48 56.944 218.256 55.504 218.256 54.096C218.256 52.336 218.464 50.704 218.88 49.2C219.328 47.696 220.016 46.384 220.944 45.264C221.872 44.112 223.072 43.216 224.544 42.576C226.048 41.936 227.872 41.616 230.016 41.616C232.416 41.616 234.576 42.144 236.496 43.2C238.416 44.256 239.936 45.728 241.056 47.616C242.208 49.472 242.784 51.632 242.784 54.096C242.784 56.624 242.208 58.832 241.056 60.72C239.904 62.576 238.368 64.016 236.448 65.04C234.528 66.064 232.384 66.576 230.016 66.576ZM228 61.728C229.696 61.728 231.168 61.408 232.416 60.768C233.696 60.128 234.672 59.248 235.344 58.128C236.048 56.976 236.4 55.632 236.4 54.096C236.4 51.792 235.664 49.936 234.192 48.528C232.752 47.12 230.688 46.416 228 46.416C226.304 46.416 224.752 46.72 223.344 47.328C221.968 47.936 220.88 48.816 220.08 49.968C219.28 51.088 218.88 52.464 218.88 54.096C218.88 55.632 219.248 56.976 219.984 58.128C220.72 59.248 221.776 60.128 223.152 60.768C224.528 61.408 226.144 61.728 228 61.728ZM212.64 42.144H218.592L218.88 48.48V75.6H212.64V42.144Z" fill="white"/>
</svg>
