<svg width="220" height="58" viewBox="0 0 220 58" fill="none" xmlns="http://www.w3.org/2000/svg">
<rect width="220" height="58" rx="29" fill="#614F89"/>
<path d="M39.032 37L32.48 21.472H36.008L41.552 35.224L40.52 35.248L45.8 21.472H49.472L54.752 35.248L53.72 35.224L59.264 21.472H62.72L56.24 37H52.328L47.144 23.536H48.152L42.944 37H39.032ZM75.8472 37V30.448C75.8472 29.792 75.7352 29.248 75.5112 28.816C75.2873 28.384 74.9273 28.056 74.4312 27.832C73.9512 27.608 73.3032 27.496 72.4872 27.496C71.7032 27.496 70.9913 27.648 70.3513 27.952C69.7112 28.24 69.1912 28.624 68.7912 29.104C68.3912 29.568 68.1672 30.064 68.1192 30.592L68.0952 29.272C68.1752 28.744 68.3592 28.216 68.6472 27.688C68.9352 27.16 69.3192 26.68 69.7993 26.248C70.2793 25.816 70.8553 25.472 71.5273 25.216C72.2152 24.944 72.9832 24.808 73.8312 24.808C74.5672 24.808 75.2473 24.904 75.8713 25.096C76.4953 25.272 77.0392 25.552 77.5032 25.936C77.9673 26.32 78.3273 26.8 78.5833 27.376C78.8393 27.936 78.9673 28.6 78.9673 29.368V37H75.8472ZM65.1672 37V20.272H68.2872V37H65.1672ZM85.8588 19.84V22.576H82.2348V19.84H85.8588ZM82.4748 25.072H85.5948V37H82.4748V25.072ZM88.3447 25.072H97.6087V27.496H88.3447V25.072ZM91.4167 21.808H94.5367V37H91.4167V21.808ZM110.779 33.04H113.803C113.675 33.856 113.331 34.584 112.771 35.224C112.227 35.864 111.483 36.368 110.539 36.736C109.595 37.104 108.443 37.288 107.083 37.288C105.563 37.288 104.219 37.048 103.051 36.568C101.883 36.072 100.971 35.36 100.315 34.432C99.6589 33.504 99.3309 32.384 99.3309 31.072C99.3309 29.76 99.6509 28.64 100.291 27.712C100.931 26.768 101.819 26.048 102.955 25.552C104.107 25.056 105.451 24.808 106.987 24.808C108.555 24.808 109.859 25.056 110.899 25.552C111.939 26.048 112.707 26.8 113.203 27.808C113.715 28.8 113.931 30.072 113.851 31.624H102.475C102.555 32.232 102.779 32.784 103.147 33.28C103.531 33.776 104.043 34.168 104.683 34.456C105.339 34.744 106.115 34.888 107.011 34.888C108.003 34.888 108.827 34.72 109.483 34.384C110.155 34.032 110.587 33.584 110.779 33.04ZM106.843 27.184C105.691 27.184 104.755 27.44 104.035 27.952C103.315 28.448 102.851 29.064 102.643 29.8H110.755C110.675 29 110.291 28.368 109.603 27.904C108.931 27.424 108.011 27.184 106.843 27.184ZM123.162 20.272H126.282V37H123.162V20.272ZM135.725 37.264C134.541 37.264 133.461 37.008 132.485 36.496C131.525 35.968 130.757 35.24 130.181 34.312C129.621 33.368 129.341 32.28 129.341 31.048C129.341 29.784 129.629 28.688 130.205 27.76C130.781 26.832 131.557 26.112 132.533 25.6C133.525 25.072 134.645 24.808 135.893 24.808C137.269 24.808 138.373 25.088 139.205 25.648C140.053 26.192 140.669 26.936 141.053 27.88C141.437 28.824 141.629 29.88 141.629 31.048C141.629 31.752 141.517 32.472 141.293 33.208C141.069 33.928 140.725 34.6 140.261 35.224C139.797 35.832 139.189 36.328 138.437 36.712C137.685 37.08 136.781 37.264 135.725 37.264ZM136.733 34.864C137.677 34.864 138.493 34.704 139.181 34.384C139.869 34.064 140.397 33.616 140.765 33.04C141.133 32.464 141.317 31.8 141.317 31.048C141.317 30.232 141.125 29.544 140.741 28.984C140.373 28.408 139.845 27.976 139.157 27.688C138.485 27.384 137.677 27.232 136.733 27.232C135.405 27.232 134.373 27.584 133.637 28.288C132.901 28.976 132.533 29.896 132.533 31.048C132.533 31.816 132.709 32.488 133.061 33.064C133.413 33.624 133.901 34.064 134.525 34.384C135.165 34.704 135.901 34.864 136.733 34.864ZM141.317 25.072H144.437V37H141.533C141.533 37 141.509 36.848 141.461 36.544C141.429 36.224 141.397 35.824 141.365 35.344C141.333 34.864 141.317 34.392 141.317 33.928V25.072ZM156.699 37.264C155.643 37.264 154.739 37.08 153.987 36.712C153.235 36.328 152.627 35.832 152.163 35.224C151.699 34.6 151.355 33.928 151.131 33.208C150.907 32.472 150.795 31.752 150.795 31.048C150.795 30.168 150.899 29.352 151.107 28.6C151.331 27.848 151.675 27.192 152.139 26.632C152.603 26.056 153.211 25.608 153.963 25.288C154.715 24.968 155.627 24.808 156.699 24.808C157.931 24.808 159.019 25.072 159.963 25.6C160.923 26.112 161.675 26.832 162.219 27.76C162.779 28.688 163.059 29.784 163.059 31.048C163.059 32.28 162.779 33.368 162.219 34.312C161.659 35.24 160.899 35.968 159.939 36.496C158.979 37.008 157.899 37.264 156.699 37.264ZM155.691 34.864C156.539 34.864 157.275 34.704 157.899 34.384C158.523 34.064 159.003 33.624 159.339 33.064C159.691 32.488 159.867 31.816 159.867 31.048C159.867 29.896 159.499 28.968 158.763 28.264C158.043 27.56 157.019 27.208 155.691 27.208C154.763 27.208 153.955 27.36 153.267 27.664C152.579 27.968 152.043 28.408 151.659 28.984C151.291 29.544 151.107 30.232 151.107 31.048C151.107 31.8 151.291 32.464 151.659 33.04C152.027 33.616 152.555 34.064 153.243 34.384C153.931 34.704 154.747 34.864 155.691 34.864ZM151.107 20.272V33.928C151.107 34.44 151.083 34.992 151.035 35.584C150.987 36.16 150.939 36.632 150.891 37H147.987V20.272H151.107ZM176.718 33.04H179.742C179.614 33.856 179.27 34.584 178.71 35.224C178.166 35.864 177.422 36.368 176.478 36.736C175.534 37.104 174.382 37.288 173.022 37.288C171.502 37.288 170.158 37.048 168.99 36.568C167.822 36.072 166.91 35.36 166.254 34.432C165.598 33.504 165.27 32.384 165.27 31.072C165.27 29.76 165.59 28.64 166.23 27.712C166.87 26.768 167.758 26.048 168.894 25.552C170.046 25.056 171.39 24.808 172.926 24.808C174.494 24.808 175.798 25.056 176.838 25.552C177.878 26.048 178.646 26.8 179.142 27.808C179.654 28.8 179.87 30.072 179.79 31.624H168.414C168.494 32.232 168.718 32.784 169.086 33.28C169.47 33.776 169.982 34.168 170.622 34.456C171.278 34.744 172.054 34.888 172.95 34.888C173.942 34.888 174.766 34.72 175.422 34.384C176.094 34.032 176.526 33.584 176.718 33.04ZM172.782 27.184C171.63 27.184 170.694 27.44 169.974 27.952C169.254 28.448 168.79 29.064 168.582 29.8H176.694C176.614 29 176.23 28.368 175.542 27.904C174.87 27.424 173.95 27.184 172.782 27.184ZM182.832 20.272H185.952V37H182.832V20.272Z" fill="white"/>
</svg>
