<svg width="223" height="101" viewBox="0 0 223 101" fill="none" xmlns="http://www.w3.org/2000/svg">
<rect width="223" height="101" rx="50.5" fill="#F7BA2D"/>
<path d="M43.632 55.536H50.112C50.24 56.624 50.736 57.616 51.6 58.512C52.496 59.376 53.664 60.064 55.104 60.576C56.544 61.056 58.16 61.296 59.952 61.296C61.584 61.296 62.928 61.12 63.984 60.768C65.04 60.416 65.824 59.92 66.336 59.28C66.848 58.64 67.104 57.872 67.104 56.976C67.104 56.112 66.784 55.456 66.144 55.008C65.504 54.528 64.496 54.144 63.12 53.856C61.744 53.536 59.936 53.216 57.696 52.896C55.936 52.64 54.272 52.288 52.704 51.84C51.136 51.36 49.744 50.752 48.528 50.016C47.344 49.28 46.4 48.384 45.696 47.328C45.024 46.24 44.688 44.96 44.688 43.488C44.688 41.664 45.2 40.064 46.224 38.688C47.28 37.312 48.832 36.24 50.88 35.472C52.928 34.704 55.44 34.32 58.416 34.32C62.896 34.32 66.336 35.28 68.736 37.2C71.168 39.088 72.352 41.696 72.288 45.024H66.048C65.92 43.136 65.12 41.776 63.648 40.944C62.208 40.112 60.384 39.696 58.176 39.696C56.128 39.696 54.432 40 53.088 40.608C51.776 41.216 51.12 42.256 51.12 43.728C51.12 44.304 51.28 44.816 51.6 45.264C51.92 45.68 52.464 46.048 53.232 46.368C54 46.688 55.04 46.992 56.352 47.28C57.664 47.568 59.296 47.856 61.248 48.144C63.072 48.4 64.72 48.752 66.192 49.2C67.696 49.616 68.976 50.176 70.032 50.88C71.12 51.552 71.952 52.416 72.528 53.472C73.104 54.528 73.392 55.824 73.392 57.36C73.392 59.248 72.896 60.896 71.904 62.304C70.944 63.68 69.44 64.752 67.392 65.52C65.376 66.288 62.752 66.672 59.52 66.672C57.216 66.672 55.184 66.432 53.424 65.952C51.664 65.44 50.144 64.768 48.864 63.936C47.584 63.104 46.544 62.192 45.744 61.2C44.944 60.208 44.368 59.216 44.016 58.224C43.696 57.232 43.568 56.336 43.632 55.536ZM90.7841 66.528C88.4161 66.528 86.2561 66.016 84.3041 64.992C82.3841 63.936 80.8481 62.48 79.6961 60.624C78.5761 58.736 78.0161 56.56 78.0161 54.096C78.0161 51.568 78.5921 49.376 79.7441 47.52C80.8961 45.664 82.4481 44.224 84.4001 43.2C86.3841 42.144 88.6241 41.616 91.1201 41.616C93.8721 41.616 96.0801 42.176 97.7441 43.296C99.4401 44.384 100.672 45.872 101.44 47.76C102.208 49.648 102.592 51.76 102.592 54.096C102.592 55.504 102.368 56.944 101.92 58.416C101.472 59.856 100.784 61.2 99.8561 62.448C98.9281 63.664 97.7121 64.656 96.2081 65.424C94.7041 66.16 92.8961 66.528 90.7841 66.528ZM92.8001 61.728C94.6881 61.728 96.3201 61.408 97.6961 60.768C99.0721 60.128 100.128 59.232 100.864 58.08C101.6 56.928 101.968 55.6 101.968 54.096C101.968 52.464 101.584 51.088 100.816 49.968C100.08 48.816 99.0241 47.952 97.6481 47.376C96.3041 46.768 94.6881 46.464 92.8001 46.464C90.1441 46.464 88.0801 47.168 86.6081 48.576C85.1361 49.952 84.4001 51.792 84.4001 54.096C84.4001 55.632 84.7521 56.976 85.4561 58.128C86.1601 59.248 87.1361 60.128 88.3841 60.768C89.6641 61.408 91.1361 61.728 92.8001 61.728ZM101.968 42.144H108.208V66H102.4C102.4 66 102.352 65.696 102.256 65.088C102.192 64.448 102.128 63.648 102.064 62.688C102 61.728 101.968 60.784 101.968 59.856V42.144ZM126.432 66.528C124.064 66.528 121.904 66.016 119.952 64.992C118.032 63.936 116.496 62.48 115.344 60.624C114.224 58.736 113.664 56.56 113.664 54.096C113.664 51.568 114.24 49.376 115.392 47.52C116.544 45.664 118.096 44.224 120.048 43.2C122.032 42.144 124.272 41.616 126.768 41.616C129.52 41.616 131.728 42.176 133.392 43.296C135.088 44.384 136.32 45.872 137.088 47.76C137.856 49.648 138.24 51.76 138.24 54.096C138.24 55.504 138.016 56.944 137.568 58.416C137.12 59.856 136.432 61.2 135.504 62.448C134.576 63.664 133.36 64.656 131.856 65.424C130.352 66.16 128.544 66.528 126.432 66.528ZM128.448 61.728C130.336 61.728 131.968 61.408 133.344 60.768C134.72 60.128 135.776 59.232 136.512 58.08C137.248 56.928 137.616 55.6 137.616 54.096C137.616 52.464 137.232 51.088 136.464 49.968C135.728 48.816 134.672 47.952 133.296 47.376C131.952 46.768 130.336 46.464 128.448 46.464C125.792 46.464 123.728 47.168 122.256 48.576C120.784 49.952 120.048 51.792 120.048 54.096C120.048 55.632 120.4 56.976 121.104 58.128C121.808 59.248 122.784 60.128 124.032 60.768C125.312 61.408 126.784 61.728 128.448 61.728ZM137.616 42.144H143.856V66H138.048C138.048 66 138 65.696 137.904 65.088C137.84 64.448 137.776 63.648 137.712 62.688C137.648 61.728 137.616 60.784 137.616 59.856V42.144ZM149.215 55.536H155.695C155.823 56.624 156.319 57.616 157.183 58.512C158.079 59.376 159.247 60.064 160.687 60.576C162.127 61.056 163.743 61.296 165.535 61.296C167.167 61.296 168.511 61.12 169.567 60.768C170.623 60.416 171.407 59.92 171.919 59.28C172.431 58.64 172.687 57.872 172.687 56.976C172.687 56.112 172.367 55.456 171.727 55.008C171.087 54.528 170.079 54.144 168.703 53.856C167.327 53.536 165.519 53.216 163.279 52.896C161.519 52.64 159.855 52.288 158.287 51.84C156.719 51.36 155.327 50.752 154.111 50.016C152.927 49.28 151.983 48.384 151.279 47.328C150.607 46.24 150.271 44.96 150.271 43.488C150.271 41.664 150.783 40.064 151.807 38.688C152.863 37.312 154.415 36.24 156.463 35.472C158.511 34.704 161.023 34.32 163.999 34.32C168.479 34.32 171.919 35.28 174.319 37.2C176.751 39.088 177.935 41.696 177.871 45.024H171.631C171.503 43.136 170.703 41.776 169.231 40.944C167.791 40.112 165.967 39.696 163.759 39.696C161.711 39.696 160.015 40 158.671 40.608C157.359 41.216 156.703 42.256 156.703 43.728C156.703 44.304 156.863 44.816 157.183 45.264C157.503 45.68 158.047 46.048 158.815 46.368C159.583 46.688 160.623 46.992 161.935 47.28C163.247 47.568 164.879 47.856 166.831 48.144C168.655 48.4 170.303 48.752 171.775 49.2C173.279 49.616 174.559 50.176 175.615 50.88C176.703 51.552 177.535 52.416 178.111 53.472C178.687 54.528 178.975 55.824 178.975 57.36C178.975 59.248 178.479 60.896 177.487 62.304C176.527 63.68 175.023 64.752 172.975 65.52C170.959 66.288 168.335 66.672 165.103 66.672C162.799 66.672 160.767 66.432 159.007 65.952C157.247 65.44 155.727 64.768 154.447 63.936C153.167 63.104 152.127 62.192 151.327 61.2C150.527 60.208 149.951 59.216 149.599 58.224C149.279 57.232 149.151 56.336 149.215 55.536Z" fill="white"/>
</svg>
