<svg width="157" height="67" viewBox="0 0 157 67" fill="none" xmlns="http://www.w3.org/2000/svg">
<rect width="157" height="67" rx="33.5" fill="#F7BA2D"/>
<path d="M33.088 37.024H37.408C37.4933 37.7493 37.824 38.4107 38.4 39.008C38.9973 39.584 39.776 40.0427 40.736 40.384C41.696 40.704 42.7733 40.864 43.968 40.864C45.056 40.864 45.952 40.7467 46.656 40.512C47.36 40.2773 47.8827 39.9467 48.224 39.52C48.5653 39.0933 48.736 38.5813 48.736 37.984C48.736 37.408 48.5227 36.9707 48.096 36.672C47.6693 36.352 46.9973 36.096 46.08 35.904C45.1627 35.6907 43.9573 35.4773 42.464 35.264C41.2907 35.0933 40.1813 34.8587 39.136 34.56C38.0907 34.24 37.1627 33.8347 36.352 33.344C35.5627 32.8533 34.9333 32.256 34.464 31.552C34.016 30.8267 33.792 29.9733 33.792 28.992C33.792 27.776 34.1333 26.7093 34.816 25.792C35.52 24.8747 36.5547 24.16 37.92 23.648C39.2853 23.136 40.96 22.88 42.944 22.88C45.9307 22.88 48.224 23.52 49.824 24.8C51.4453 26.0587 52.2347 27.7973 52.192 30.016H48.032C47.9467 28.7573 47.4133 27.8507 46.432 27.296C45.472 26.7413 44.256 26.464 42.784 26.464C41.4187 26.464 40.288 26.6667 39.392 27.072C38.5173 27.4773 38.08 28.1707 38.08 29.152C38.08 29.536 38.1867 29.8773 38.4 30.176C38.6133 30.4533 38.976 30.6987 39.488 30.912C40 31.1253 40.6933 31.328 41.568 31.52C42.4427 31.712 43.5307 31.904 44.832 32.096C46.048 32.2667 47.1467 32.5013 48.128 32.8C49.1307 33.0773 49.984 33.4507 50.688 33.92C51.4133 34.368 51.968 34.944 52.352 35.648C52.736 36.352 52.928 37.216 52.928 38.24C52.928 39.4987 52.5973 40.5973 51.936 41.536C51.296 42.4533 50.2933 43.168 48.928 43.68C47.584 44.192 45.8347 44.448 43.68 44.448C42.144 44.448 40.7893 44.288 39.616 43.968C38.4427 43.6267 37.4293 43.1787 36.576 42.624C35.7227 42.0693 35.0293 41.4613 34.496 40.8C33.9627 40.1387 33.5787 39.4773 33.344 38.816C33.1307 38.1547 33.0453 37.5573 33.088 37.024ZM64.5227 44.352C62.9441 44.352 61.5041 44.0107 60.2027 43.328C58.9227 42.624 57.8987 41.6533 57.1307 40.416C56.3841 39.1573 56.0107 37.7067 56.0107 36.064C56.0107 34.3787 56.3947 32.9173 57.1627 31.68C57.9307 30.4427 58.9654 29.4827 60.2667 28.8C61.5894 28.096 63.0827 27.744 64.7467 27.744C66.5814 27.744 68.0534 28.1173 69.1628 28.864C70.2934 29.5893 71.1147 30.5813 71.6268 31.84C72.1388 33.0987 72.3948 34.5067 72.3948 36.064C72.3948 37.0027 72.2454 37.9627 71.9468 38.944C71.6481 39.904 71.1894 40.8 70.5708 41.632C69.9521 42.4427 69.1414 43.104 68.1388 43.616C67.1361 44.1067 65.9308 44.352 64.5227 44.352ZM65.8667 41.152C67.1254 41.152 68.2134 40.9387 69.1307 40.512C70.0481 40.0853 70.7521 39.488 71.2428 38.72C71.7334 37.952 71.9788 37.0667 71.9788 36.064C71.9788 34.976 71.7228 34.0587 71.2108 33.312C70.7201 32.544 70.0161 31.968 69.0988 31.584C68.2028 31.1787 67.1254 30.976 65.8667 30.976C64.0961 30.976 62.7201 31.4453 61.7387 32.384C60.7574 33.3013 60.2667 34.528 60.2667 36.064C60.2667 37.088 60.5014 37.984 60.9707 38.752C61.4401 39.4987 62.0907 40.0853 62.9227 40.512C63.7761 40.9387 64.7574 41.152 65.8667 41.152ZM71.9788 28.096H76.1388V44H72.2668C72.2668 44 72.2348 43.7973 72.1707 43.392C72.1281 42.9653 72.0854 42.432 72.0427 41.792C72.0001 41.152 71.9788 40.5227 71.9788 39.904V28.096ZM88.2877 44.352C86.7091 44.352 85.2691 44.0107 83.9677 43.328C82.6877 42.624 81.6637 41.6533 80.8957 40.416C80.1491 39.1573 79.7757 37.7067 79.7757 36.064C79.7757 34.3787 80.1597 32.9173 80.9277 31.68C81.6957 30.4427 82.7304 29.4827 84.0317 28.8C85.3544 28.096 86.8477 27.744 88.5117 27.744C90.3464 27.744 91.8184 28.1173 92.9277 28.864C94.0584 29.5893 94.8797 30.5813 95.3918 31.84C95.9038 33.0987 96.1597 34.5067 96.1597 36.064C96.1597 37.0027 96.0104 37.9627 95.7118 38.944C95.4131 39.904 94.9544 40.8 94.3357 41.632C93.7171 42.4427 92.9064 43.104 91.9037 43.616C90.9011 44.1067 89.6957 44.352 88.2877 44.352ZM89.6317 41.152C90.8904 41.152 91.9784 40.9387 92.8957 40.512C93.8131 40.0853 94.5171 39.488 95.0077 38.72C95.4984 37.952 95.7437 37.0667 95.7437 36.064C95.7437 34.976 95.4877 34.0587 94.9757 33.312C94.4851 32.544 93.7811 31.968 92.8637 31.584C91.9677 31.1787 90.8904 30.976 89.6317 30.976C87.8611 30.976 86.4851 31.4453 85.5037 32.384C84.5224 33.3013 84.0317 34.528 84.0317 36.064C84.0317 37.088 84.2664 37.984 84.7357 38.752C85.2051 39.4987 85.8557 40.0853 86.6877 40.512C87.5411 40.9387 88.5224 41.152 89.6317 41.152ZM95.7437 28.096H99.9037V44H96.0317C96.0317 44 95.9997 43.7973 95.9357 43.392C95.8931 42.9653 95.8504 42.432 95.8077 41.792C95.7651 41.152 95.7437 40.5227 95.7437 39.904V28.096ZM103.477 37.024H107.797C107.882 37.7493 108.213 38.4107 108.789 39.008C109.386 39.584 110.165 40.0427 111.125 40.384C112.085 40.704 113.162 40.864 114.357 40.864C115.445 40.864 116.341 40.7467 117.045 40.512C117.749 40.2773 118.271 39.9467 118.613 39.52C118.954 39.0933 119.125 38.5813 119.125 37.984C119.125 37.408 118.911 36.9707 118.485 36.672C118.058 36.352 117.386 36.096 116.469 35.904C115.551 35.6907 114.346 35.4773 112.853 35.264C111.679 35.0933 110.57 34.8587 109.525 34.56C108.479 34.24 107.551 33.8347 106.741 33.344C105.951 32.8533 105.322 32.256 104.853 31.552C104.405 30.8267 104.181 29.9733 104.181 28.992C104.181 27.776 104.522 26.7093 105.205 25.792C105.909 24.8747 106.943 24.16 108.309 23.648C109.674 23.136 111.349 22.88 113.333 22.88C116.319 22.88 118.613 23.52 120.213 24.8C121.834 26.0587 122.623 27.7973 122.581 30.016H118.421C118.335 28.7573 117.802 27.8507 116.821 27.296C115.861 26.7413 114.645 26.464 113.173 26.464C111.807 26.464 110.677 26.6667 109.781 27.072C108.906 27.4773 108.469 28.1707 108.469 29.152C108.469 29.536 108.575 29.8773 108.789 30.176C109.002 30.4533 109.365 30.6987 109.877 30.912C110.389 31.1253 111.082 31.328 111.957 31.52C112.831 31.712 113.919 31.904 115.221 32.096C116.437 32.2667 117.535 32.5013 118.517 32.8C119.519 33.0773 120.373 33.4507 121.077 33.92C121.802 34.368 122.357 34.944 122.741 35.648C123.125 36.352 123.317 37.216 123.317 38.24C123.317 39.4987 122.986 40.5973 122.325 41.536C121.685 42.4533 120.682 43.168 119.317 43.68C117.973 44.192 116.223 44.448 114.069 44.448C112.533 44.448 111.178 44.288 110.005 43.968C108.831 43.6267 107.818 43.1787 106.965 42.624C106.111 42.0693 105.418 41.4613 104.885 40.8C104.351 40.1387 103.967 39.4773 103.733 38.816C103.519 38.1547 103.434 37.5573 103.477 37.024Z" fill="white"/>
</svg>
