<svg width="129" height="58" viewBox="0 0 129 58" fill="none" xmlns="http://www.w3.org/2000/svg">
<rect width="129" height="58" rx="29" fill="#614F89"/>
<path d="M45.92 35.416H44.408L53.336 21.472H56.528V37H53.336V25.72L54.104 25.936L46.976 37H43.4L36.272 25.984L37.04 25.768V37H33.848V21.472H37.04L45.92 35.416ZM66.1912 37L59.3272 21.472H62.8552L68.7352 35.488H67.6312L73.4872 21.472H76.9672L70.1752 37H66.1912ZM82.5446 31.96V29.416H89.6486C90.4966 29.416 91.1686 29.192 91.6646 28.744C92.1606 28.28 92.4086 27.64 92.4086 26.824C92.4086 25.976 92.1606 25.328 91.6646 24.88C91.1686 24.432 90.4966 24.208 89.6486 24.208H82.9286V37H79.7366V21.472H89.3606C90.2246 21.472 91.0326 21.576 91.7846 21.784C92.5526 21.992 93.2166 22.312 93.7766 22.744C94.3526 23.176 94.8006 23.728 95.1206 24.4C95.4406 25.072 95.6006 25.88 95.6006 26.824C95.6006 27.752 95.4406 28.544 95.1206 29.2C94.8006 29.856 94.3526 30.392 93.7766 30.808C93.2166 31.208 92.5526 31.504 91.7846 31.696C91.0326 31.872 90.2246 31.96 89.3606 31.96H82.5446Z" fill="white"/>
</svg>
