<svg width="174" height="83" viewBox="0 0 174 83" fill="none" xmlns="http://www.w3.org/2000/svg">
<rect width="174" height="83" rx="41.5" fill="#2C3950"/>
<path d="M53.472 42.848V31.296H57.728V43.296C57.728 44.6613 57.5253 45.856 57.12 46.88C56.736 47.904 56.1813 48.768 55.456 49.472C54.7307 50.176 53.8773 50.752 52.896 51.2C51.936 51.6267 50.88 51.936 49.728 52.128C48.5973 52.32 47.4027 52.416 46.144 52.416C44.8427 52.416 43.6053 52.32 42.432 52.128C41.2587 51.936 40.1813 51.6267 39.2 51.2C38.24 50.752 37.408 50.176 36.704 49.472C36 48.768 35.4453 47.904 35.04 46.88C34.656 45.856 34.464 44.6613 34.464 43.296V31.296H38.72V42.848C38.72 44.4693 39.04 45.7067 39.68 46.56C40.32 47.392 41.1947 47.968 42.304 48.288C43.4347 48.5867 44.7147 48.736 46.144 48.736C47.5307 48.736 48.768 48.5867 49.856 48.288C50.9653 47.968 51.84 47.392 52.48 46.56C53.1413 45.7067 53.472 44.4693 53.472 42.848ZM63.8995 31.296H68.1555V52H63.8995V31.296ZM82.7225 27.904L86.0825 29.12L76.3225 55.84L72.9945 54.624L82.7225 27.904ZM109.361 42.848V31.296H113.617V43.296C113.617 44.6613 113.414 45.856 113.009 46.88C112.625 47.904 112.07 48.768 111.345 49.472C110.619 50.176 109.766 50.752 108.785 51.2C107.825 51.6267 106.769 51.936 105.617 52.128C104.486 52.32 103.291 52.416 102.033 52.416C100.731 52.416 99.4941 52.32 98.3207 52.128C97.1474 51.936 96.0701 51.6267 95.0887 51.2C94.1287 50.752 93.2967 50.176 92.5927 49.472C91.8887 48.768 91.3341 47.904 90.9287 46.88C90.5447 45.856 90.3527 44.6613 90.3527 43.296V31.296H94.6087V42.848C94.6087 44.4693 94.9287 45.7067 95.5687 46.56C96.2087 47.392 97.0834 47.968 98.1927 48.288C99.3234 48.5867 100.603 48.736 102.033 48.736C103.419 48.736 104.657 48.5867 105.745 48.288C106.854 47.968 107.729 47.392 108.369 46.56C109.03 45.7067 109.361 44.4693 109.361 42.848ZM134.929 31.296H140.113L130.321 42.72L130.193 42.848L122.929 52H117.745L127.825 40L127.921 39.904L134.929 31.296ZM123.249 31.296L130.161 39.968L130.225 40.064L140.209 52H134.801L127.633 42.72L127.537 42.656L118.065 31.296H123.249Z" fill="white"/>
</svg>
