<svg width="132" height="50" viewBox="0 0 132 50" fill="none" xmlns="http://www.w3.org/2000/svg">
<rect width="132" height="50" rx="25" fill="#1C7947"/>
<path d="M32.544 26.512H34.704C34.7467 26.8747 34.912 27.2053 35.2 27.504C35.4987 27.792 35.888 28.0213 36.368 28.192C36.848 28.352 37.3867 28.432 37.984 28.432C38.528 28.432 38.976 28.3733 39.328 28.256C39.68 28.1387 39.9413 27.9733 40.112 27.76C40.2827 27.5467 40.368 27.2907 40.368 26.992C40.368 26.704 40.2613 26.4853 40.048 26.336C39.8347 26.176 39.4987 26.048 39.04 25.952C38.5813 25.8453 37.9787 25.7387 37.232 25.632C36.6453 25.5467 36.0907 25.4293 35.568 25.28C35.0453 25.12 34.5813 24.9173 34.176 24.672C33.7813 24.4267 33.4667 24.128 33.232 23.776C33.008 23.4133 32.896 22.9867 32.896 22.496C32.896 21.888 33.0667 21.3547 33.408 20.896C33.76 20.4373 34.2773 20.08 34.96 19.824C35.6427 19.568 36.48 19.44 37.472 19.44C38.9653 19.44 40.112 19.76 40.912 20.4C41.7227 21.0293 42.1173 21.8987 42.096 23.008H40.016C39.9733 22.3787 39.7067 21.9253 39.216 21.648C38.736 21.3707 38.128 21.232 37.392 21.232C36.7093 21.232 36.144 21.3333 35.696 21.536C35.2587 21.7387 35.04 22.0853 35.04 22.576C35.04 22.768 35.0933 22.9387 35.2 23.088C35.3067 23.2267 35.488 23.3493 35.744 23.456C36 23.5627 36.3467 23.664 36.784 23.76C37.2213 23.856 37.7653 23.952 38.416 24.048C39.024 24.1333 39.5733 24.2507 40.064 24.4C40.5653 24.5387 40.992 24.7253 41.344 24.96C41.7067 25.184 41.984 25.472 42.176 25.824C42.368 26.176 42.464 26.608 42.464 27.12C42.464 27.7493 42.2987 28.2987 41.968 28.768C41.648 29.2267 41.1467 29.584 40.464 29.84C39.792 30.096 38.9173 30.224 37.84 30.224C37.072 30.224 36.3947 30.144 35.808 29.984C35.2213 29.8133 34.7147 29.5893 34.288 29.312C33.8613 29.0347 33.5147 28.7307 33.248 28.4C32.9813 28.0693 32.7893 27.7387 32.672 27.408C32.5653 27.0773 32.5227 26.7787 32.544 26.512ZM43.8294 22.048H50.0054V23.664H43.8294V22.048ZM45.8774 19.872H47.9574V30H45.8774V19.872ZM55.4095 30.176C54.6202 30.176 53.9002 30.0053 53.2495 29.664C52.6095 29.312 52.0975 28.8267 51.7135 28.208C51.3402 27.5787 51.1535 26.8533 51.1535 26.032C51.1535 25.1893 51.3455 24.4587 51.7295 23.84C52.1135 23.2213 52.6308 22.7413 53.2815 22.4C53.9428 22.048 54.6895 21.872 55.5215 21.872C56.4388 21.872 57.1748 22.0587 57.7295 22.432C58.2948 22.7947 58.7055 23.2907 58.9615 23.92C59.2175 24.5493 59.3455 25.2533 59.3455 26.032C59.3455 26.5013 59.2708 26.9813 59.1215 27.472C58.9722 27.952 58.7428 28.4 58.4335 28.816C58.1242 29.2213 57.7188 29.552 57.2175 29.808C56.7162 30.0533 56.1135 30.176 55.4095 30.176ZM56.0815 28.576C56.7108 28.576 57.2548 28.4693 57.7135 28.256C58.1722 28.0427 58.5242 27.744 58.7695 27.36C59.0148 26.976 59.1375 26.5333 59.1375 26.032C59.1375 25.488 59.0095 25.0293 58.7535 24.656C58.5082 24.272 58.1562 23.984 57.6975 23.792C57.2495 23.5893 56.7108 23.488 56.0815 23.488C55.1962 23.488 54.5082 23.7227 54.0175 24.192C53.5268 24.6507 53.2815 25.264 53.2815 26.032C53.2815 26.544 53.3988 26.992 53.6335 27.376C53.8682 27.7493 54.1935 28.0427 54.6095 28.256C55.0362 28.4693 55.5268 28.576 56.0815 28.576ZM59.1375 22.048H61.2175V30H59.2815C59.2815 30 59.2655 29.8987 59.2335 29.696C59.2122 29.4827 59.1908 29.216 59.1695 28.896C59.1482 28.576 59.1375 28.2613 59.1375 27.952V22.048ZM63.42 22.048H65.5V30H63.42V22.048ZM68.556 23.76C67.9587 23.76 67.4413 23.8773 67.004 24.112C66.5667 24.336 66.2147 24.6133 65.948 24.944C65.6813 25.2747 65.4947 25.5947 65.388 25.904L65.372 25.024C65.3827 24.896 65.4253 24.7093 65.5 24.464C65.5747 24.208 65.6867 23.936 65.836 23.648C65.9853 23.3493 66.1827 23.0667 66.428 22.8C66.6733 22.5227 66.972 22.2987 67.324 22.128C67.676 21.9573 68.0867 21.872 68.556 21.872V23.76ZM69.6487 22.048H75.8247V23.664H69.6487V22.048ZM71.6967 19.872H73.7767V30H71.6967V19.872ZM86.6662 30H84.5862V22.048H86.6662V30ZM84.6982 26.176L84.7142 26.72C84.6929 26.8693 84.6396 27.088 84.5542 27.376C84.4689 27.6533 84.3356 27.952 84.1542 28.272C83.9836 28.592 83.7596 28.9013 83.4822 29.2C83.2049 29.488 82.8636 29.728 82.4582 29.92C82.0529 30.1013 81.5729 30.192 81.0182 30.192C80.5809 30.192 80.1489 30.1387 79.7222 30.032C79.3062 29.9253 78.9276 29.7493 78.5862 29.504C78.2449 29.248 77.9729 28.9067 77.7702 28.48C77.5676 28.0533 77.4662 27.5147 77.4662 26.864V22.048H79.5462V26.512C79.5462 27.024 79.6262 27.4293 79.7862 27.728C79.9569 28.016 80.2022 28.2187 80.5222 28.336C80.8422 28.4533 81.2209 28.512 81.6582 28.512C82.2342 28.512 82.7302 28.3893 83.1462 28.144C83.5622 27.888 83.8982 27.5787 84.1542 27.216C84.4209 26.8533 84.6022 26.5067 84.6982 26.176ZM94.672 30.192C93.968 30.192 93.3653 30.0693 92.864 29.824C92.3733 29.568 91.9733 29.2373 91.664 28.832C91.3547 28.416 91.1253 27.9627 90.976 27.472C90.8267 26.9813 90.752 26.5013 90.752 26.032C90.752 25.4453 90.8213 24.9013 90.96 24.4C91.1093 23.8987 91.3387 23.4613 91.648 23.088C91.9573 22.704 92.3573 22.4053 92.848 22.192C93.3493 21.9787 93.9573 21.872 94.672 21.872C95.472 21.872 96.192 22.048 96.832 22.4C97.472 22.752 97.9787 23.2427 98.352 23.872C98.736 24.4907 98.928 25.2107 98.928 26.032C98.928 26.8747 98.736 27.6107 98.352 28.24C97.968 28.8587 97.456 29.3387 96.816 29.68C96.176 30.0213 95.4613 30.192 94.672 30.192ZM94 28.576C94.5653 28.576 95.056 28.4693 95.472 28.256C95.8987 28.0427 96.224 27.7493 96.448 27.376C96.6827 26.992 96.8 26.544 96.8 26.032C96.8 25.264 96.5547 24.6453 96.064 24.176C95.584 23.7067 94.896 23.472 94 23.472C93.4347 23.472 92.9173 23.5733 92.448 23.776C91.9893 23.9787 91.6267 24.272 91.36 24.656C91.0933 25.0293 90.96 25.488 90.96 26.032C90.96 26.544 91.0827 26.992 91.328 27.376C91.5733 27.7493 91.9253 28.0427 92.384 28.256C92.8427 28.4693 93.3813 28.576 94 28.576ZM88.88 22.048H90.864L90.96 24.16V33.2H88.88V22.048Z" fill="white"/>
</svg>
