<svg width="195" height="58" viewBox="0 0 195 58" fill="none" xmlns="http://www.w3.org/2000/svg">
<rect width="195" height="58" rx="29" fill="#614F89"/>
<path d="M45.92 35.416H44.408L53.336 21.472H56.528V37H53.336V25.72L54.104 25.936L46.976 37H43.4L36.272 25.984L37.04 25.768V37H33.848V21.472H37.04L45.92 35.416ZM63.8632 19.84V22.576H60.2392V19.84H63.8632ZM60.4792 25.072H63.5992V37H60.4792V25.072ZM73.1411 35.176C71.8451 35.176 70.7011 34.984 69.7091 34.6C68.7331 34.2 67.9731 33.616 67.4291 32.848C66.8851 32.08 66.6131 31.152 66.6131 30.064C66.6131 28.992 66.8771 28.064 67.4051 27.28C67.9331 26.496 68.6851 25.888 69.6611 25.456C70.6531 25.024 71.8131 24.808 73.1411 24.808C73.5091 24.808 73.8611 24.832 74.1971 24.88C74.5491 24.928 74.8931 24.992 75.2291 25.072L81.2531 25.096V27.448C80.4371 27.464 79.6051 27.368 78.7571 27.16C77.9251 26.936 77.1891 26.696 76.5491 26.44L76.4771 26.272C77.0211 26.528 77.5331 26.848 78.0131 27.232C78.4931 27.6 78.8771 28.032 79.1651 28.528C79.4691 29.008 79.6211 29.568 79.6211 30.208C79.6211 31.248 79.3571 32.144 78.8291 32.896C78.3011 33.632 77.5491 34.2 76.5731 34.6C75.6131 34.984 74.4691 35.176 73.1411 35.176ZM77.1491 41.92V41.344C77.1491 40.608 76.9091 40.096 76.4291 39.808C75.9651 39.52 75.3251 39.376 74.5091 39.376H70.7891C70.0691 39.376 69.4611 39.32 68.9651 39.208C68.4851 39.096 68.1011 38.936 67.8131 38.728C67.5251 38.52 67.3171 38.272 67.1891 37.984C67.0611 37.712 66.9971 37.416 66.9971 37.096C66.9971 36.456 67.2051 35.976 67.6211 35.656C68.0371 35.32 68.5971 35.096 69.3011 34.984C70.0051 34.872 70.7811 34.848 71.6291 34.912L73.1411 35.176C72.1331 35.208 71.3811 35.296 70.8851 35.44C70.4051 35.568 70.1651 35.832 70.1651 36.232C70.1651 36.472 70.2611 36.664 70.4531 36.808C70.6451 36.936 70.9171 37 71.2691 37H75.1811C76.2531 37 77.1651 37.112 77.9171 37.336C78.6851 37.576 79.2691 37.968 79.6691 38.512C80.0691 39.072 80.2691 39.832 80.2691 40.792V41.92H77.1491ZM73.1411 32.92C73.8291 32.92 74.4291 32.808 74.9411 32.584C75.4691 32.36 75.8771 32.04 76.1651 31.624C76.4531 31.192 76.5971 30.68 76.5971 30.088C76.5971 29.48 76.4531 28.96 76.1651 28.528C75.8771 28.096 75.4771 27.768 74.9651 27.544C74.4531 27.304 73.8451 27.184 73.1411 27.184C72.4531 27.184 71.8451 27.304 71.3171 27.544C70.7891 27.768 70.3811 28.096 70.0931 28.528C69.8051 28.96 69.6611 29.48 69.6611 30.088C69.6611 30.68 69.8051 31.192 70.0931 31.624C70.3811 32.04 70.7811 32.36 71.2931 32.584C71.8211 32.808 72.4371 32.92 73.1411 32.92ZM83.7706 25.072H86.8906V37H83.7706V25.072ZM91.4746 27.64C90.5786 27.64 89.8026 27.816 89.1466 28.168C88.4906 28.504 87.9626 28.92 87.5626 29.416C87.1626 29.912 86.8826 30.392 86.7226 30.856L86.6986 29.536C86.7146 29.344 86.7786 29.064 86.8906 28.696C87.0026 28.312 87.1706 27.904 87.3946 27.472C87.6186 27.024 87.9146 26.6 88.2826 26.2C88.6506 25.784 89.0986 25.448 89.6266 25.192C90.1546 24.936 90.7706 24.808 91.4746 24.808V27.64ZM99.6914 37.264C98.5074 37.264 97.4274 37.008 96.4514 36.496C95.4914 35.968 94.7234 35.24 94.1474 34.312C93.5874 33.368 93.3074 32.28 93.3074 31.048C93.3074 29.784 93.5954 28.688 94.1714 27.76C94.7474 26.832 95.5234 26.112 96.4994 25.6C97.4914 25.072 98.6114 24.808 99.8594 24.808C101.235 24.808 102.339 25.088 103.171 25.648C104.019 26.192 104.635 26.936 105.019 27.88C105.403 28.824 105.595 29.88 105.595 31.048C105.595 31.752 105.483 32.472 105.259 33.208C105.035 33.928 104.691 34.6 104.227 35.224C103.763 35.832 103.155 36.328 102.403 36.712C101.651 37.08 100.747 37.264 99.6914 37.264ZM100.699 34.864C101.643 34.864 102.459 34.704 103.147 34.384C103.835 34.064 104.363 33.616 104.731 33.04C105.099 32.464 105.283 31.8 105.283 31.048C105.283 30.232 105.091 29.544 104.707 28.984C104.339 28.408 103.811 27.976 103.123 27.688C102.451 27.384 101.643 27.232 100.699 27.232C99.3714 27.232 98.3394 27.584 97.6034 28.288C96.8674 28.976 96.4994 29.896 96.4994 31.048C96.4994 31.816 96.6754 32.488 97.0274 33.064C97.3794 33.624 97.8674 34.064 98.4914 34.384C99.1314 34.704 99.8674 34.864 100.699 34.864ZM105.283 25.072H108.403V37H105.499C105.499 37 105.475 36.848 105.427 36.544C105.395 36.224 105.363 35.824 105.331 35.344C105.299 34.864 105.283 34.392 105.283 33.928V25.072ZM110.867 25.072H120.131V27.496H110.867V25.072ZM113.939 21.808H117.059V37H113.939V21.808ZM126.169 19.84V22.576H122.545V19.84H126.169ZM122.785 25.072H125.905V37H122.785V25.072ZM136.527 37.288C135.023 37.288 133.695 37.048 132.543 36.568C131.407 36.088 130.519 35.392 129.879 34.48C129.239 33.552 128.919 32.416 128.919 31.072C128.919 29.728 129.239 28.592 129.879 27.664C130.519 26.72 131.407 26.008 132.543 25.528C133.695 25.048 135.023 24.808 136.527 24.808C138.031 24.808 139.343 25.048 140.463 25.528C141.599 26.008 142.487 26.72 143.127 27.664C143.767 28.592 144.087 29.728 144.087 31.072C144.087 32.416 143.767 33.552 143.127 34.48C142.487 35.392 141.599 36.088 140.463 36.568C139.343 37.048 138.031 37.288 136.527 37.288ZM136.527 34.888C137.359 34.888 138.103 34.744 138.759 34.456C139.431 34.152 139.959 33.72 140.343 33.16C140.727 32.584 140.919 31.888 140.919 31.072C140.919 30.256 140.727 29.56 140.343 28.984C139.959 28.392 139.439 27.944 138.783 27.64C138.127 27.336 137.375 27.184 136.527 27.184C135.695 27.184 134.943 27.336 134.271 27.64C133.599 27.944 133.063 28.384 132.663 28.96C132.279 29.536 132.087 30.24 132.087 31.072C132.087 31.888 132.279 32.584 132.663 33.16C133.047 33.72 133.575 34.152 134.247 34.456C134.919 34.744 135.679 34.888 136.527 34.888ZM146.874 25.072H149.994V37H146.874V25.072ZM155.538 24.808C156.274 24.808 156.954 24.904 157.578 25.096C158.202 25.288 158.746 25.584 159.21 25.984C159.674 26.384 160.034 26.896 160.29 27.52C160.546 28.128 160.674 28.856 160.674 29.704V37H157.554V30.256C157.554 29.248 157.306 28.512 156.81 28.048C156.33 27.568 155.538 27.328 154.434 27.328C153.602 27.328 152.85 27.488 152.178 27.808C151.506 28.128 150.962 28.536 150.546 29.032C150.13 29.512 149.89 30.016 149.826 30.544L149.802 29.32C149.882 28.76 150.066 28.216 150.354 27.688C150.642 27.16 151.026 26.68 151.506 26.248C152.002 25.8 152.586 25.448 153.258 25.192C153.93 24.936 154.69 24.808 155.538 24.808Z" fill="white"/>
</svg>
