<svg width="238" height="67" viewBox="0 0 238 67" fill="none" xmlns="http://www.w3.org/2000/svg">
<rect width="238" height="67" rx="33.5" fill="#614F89"/>
<path d="M50.56 41.888H48.544L60.448 23.296H64.704V44H60.448V28.96L61.472 29.248L51.968 44H47.2L37.696 29.312L38.72 29.024V44H34.464V23.296H38.72L50.56 41.888ZM74.4842 21.12V24.768H69.6522V21.12H74.4842ZM69.9722 28.096H74.1322V44H69.9722V28.096ZM86.8547 41.568C85.1267 41.568 83.6014 41.312 82.2787 40.8C80.9774 40.2667 79.9641 39.488 79.2387 38.464C78.5134 37.44 78.1507 36.2027 78.1507 34.752C78.1507 33.3227 78.5027 32.0853 79.2067 31.04C79.9107 29.9947 80.9134 29.184 82.2147 28.608C83.5374 28.032 85.0841 27.744 86.8547 27.744C87.3454 27.744 87.8147 27.776 88.2627 27.84C88.7321 27.904 89.1907 27.9893 89.6387 28.096L97.6707 28.128V31.264C96.5827 31.2853 95.4734 31.1573 94.3428 30.88C93.2334 30.5813 92.2521 30.2613 91.3987 29.92L91.3027 29.696C92.0281 30.0373 92.7107 30.464 93.3507 30.976C93.9907 31.4667 94.5027 32.0427 94.8867 32.704C95.2921 33.344 95.4947 34.0907 95.4947 34.944C95.4947 36.3307 95.1427 37.5253 94.4387 38.528C93.7347 39.5093 92.7321 40.2667 91.4307 40.8C90.1507 41.312 88.6254 41.568 86.8547 41.568ZM92.1987 50.56V49.792C92.1987 48.8107 91.8787 48.128 91.2387 47.744C90.6201 47.36 89.7667 47.168 88.6787 47.168H83.7187C82.7587 47.168 81.9481 47.0933 81.2867 46.944C80.6467 46.7947 80.1347 46.5813 79.7507 46.304C79.3667 46.0267 79.0894 45.696 78.9187 45.312C78.7481 44.9493 78.6627 44.5547 78.6627 44.128C78.6627 43.2747 78.9401 42.6347 79.4947 42.208C80.0494 41.76 80.7961 41.4613 81.7347 41.312C82.6734 41.1627 83.7081 41.1307 84.8387 41.216L86.8547 41.568C85.5107 41.6107 84.5081 41.728 83.8467 41.92C83.2067 42.0907 82.8867 42.4427 82.8867 42.976C82.8867 43.296 83.0147 43.552 83.2707 43.744C83.5267 43.9147 83.8894 44 84.3587 44H89.5747C91.0041 44 92.2201 44.1493 93.2227 44.448C94.2467 44.768 95.0254 45.2907 95.5588 46.016C96.0921 46.7627 96.3587 47.776 96.3587 49.056V50.56H92.1987ZM86.8547 38.56C87.7721 38.56 88.5721 38.4107 89.2547 38.112C89.9587 37.8133 90.5027 37.3867 90.8867 36.832C91.2707 36.256 91.4627 35.5733 91.4627 34.784C91.4627 33.9733 91.2707 33.28 90.8867 32.704C90.5027 32.128 89.9694 31.6907 89.2867 31.392C88.6041 31.072 87.7934 30.912 86.8547 30.912C85.9374 30.912 85.1267 31.072 84.4227 31.392C83.7187 31.6907 83.1747 32.128 82.7907 32.704C82.4067 33.28 82.2147 33.9733 82.2147 34.784C82.2147 35.5733 82.4067 36.256 82.7907 36.832C83.1747 37.3867 83.7081 37.8133 84.3907 38.112C85.0947 38.4107 85.9161 38.56 86.8547 38.56ZM101.027 28.096H105.187V44H101.027V28.096ZM111.299 31.52C110.105 31.52 109.07 31.7547 108.195 32.224C107.321 32.672 106.617 33.2267 106.083 33.888C105.55 34.5493 105.177 35.1893 104.963 35.808L104.931 34.048C104.953 33.792 105.038 33.4187 105.187 32.928C105.337 32.416 105.561 31.872 105.859 31.296C106.158 30.6987 106.553 30.1333 107.043 29.6C107.534 29.0453 108.131 28.5973 108.835 28.256C109.539 27.9147 110.361 27.744 111.299 27.744V31.52ZM122.255 44.352C120.677 44.352 119.237 44.0107 117.935 43.328C116.655 42.624 115.631 41.6533 114.863 40.416C114.117 39.1573 113.743 37.7067 113.743 36.064C113.743 34.3787 114.127 32.9173 114.895 31.68C115.663 30.4427 116.698 29.4827 117.999 28.8C119.322 28.096 120.815 27.744 122.479 27.744C124.314 27.744 125.786 28.1173 126.895 28.864C128.026 29.5893 128.847 30.5813 129.359 31.84C129.871 33.0987 130.127 34.5067 130.127 36.064C130.127 37.0027 129.978 37.9627 129.679 38.944C129.381 39.904 128.922 40.8 128.303 41.632C127.685 42.4427 126.874 43.104 125.871 43.616C124.869 44.1067 123.663 44.352 122.255 44.352ZM123.599 41.152C124.858 41.152 125.946 40.9387 126.863 40.512C127.781 40.0853 128.485 39.488 128.975 38.72C129.466 37.952 129.711 37.0667 129.711 36.064C129.711 34.976 129.455 34.0587 128.943 33.312C128.453 32.544 127.749 31.968 126.831 31.584C125.935 31.1787 124.858 30.976 123.599 30.976C121.829 30.976 120.453 31.4453 119.471 32.384C118.49 33.3013 117.999 34.528 117.999 36.064C117.999 37.088 118.234 37.984 118.703 38.752C119.173 39.4987 119.823 40.0853 120.655 40.512C121.509 40.9387 122.49 41.152 123.599 41.152ZM129.711 28.096H133.871V44H129.999C129.999 44 129.967 43.7973 129.903 43.392C129.861 42.9653 129.818 42.432 129.775 41.792C129.733 41.152 129.711 40.5227 129.711 39.904V28.096ZM137.156 28.096H149.508V31.328H137.156V28.096ZM141.252 23.744H145.412V44H141.252V23.744ZM157.559 21.12V24.768H152.727V21.12H157.559ZM153.047 28.096H157.207V44H153.047V28.096ZM171.37 44.384C169.364 44.384 167.594 44.064 166.058 43.424C164.543 42.784 163.359 41.856 162.506 40.64C161.652 39.4027 161.226 37.888 161.226 36.096C161.226 34.304 161.652 32.7893 162.506 31.552C163.359 30.2933 164.543 29.344 166.058 28.704C167.594 28.064 169.364 27.744 171.37 27.744C173.375 27.744 175.124 28.064 176.618 28.704C178.132 29.344 179.316 30.2933 180.17 31.552C181.023 32.7893 181.45 34.304 181.45 36.096C181.45 37.888 181.023 39.4027 180.17 40.64C179.316 41.856 178.132 42.784 176.618 43.424C175.124 44.064 173.375 44.384 171.37 44.384ZM171.37 41.184C172.479 41.184 173.471 40.992 174.346 40.608C175.242 40.2027 175.946 39.6267 176.458 38.88C176.97 38.112 177.226 37.184 177.226 36.096C177.226 35.008 176.97 34.08 176.458 33.312C175.946 32.5227 175.252 31.9253 174.378 31.52C173.503 31.1147 172.5 30.912 171.37 30.912C170.26 30.912 169.258 31.1147 168.362 31.52C167.466 31.9253 166.751 32.512 166.218 33.28C165.706 34.048 165.45 34.9867 165.45 36.096C165.45 37.184 165.706 38.112 166.218 38.88C166.73 39.6267 167.434 40.2027 168.33 40.608C169.226 40.992 170.239 41.184 171.37 41.184ZM185.165 28.096H189.325V44H185.165V28.096ZM196.717 27.744C197.698 27.744 198.605 27.872 199.437 28.128C200.269 28.384 200.994 28.7787 201.613 29.312C202.232 29.8453 202.712 30.528 203.053 31.36C203.394 32.1707 203.565 33.1413 203.565 34.272V44H199.405V35.008C199.405 33.664 199.074 32.6827 198.413 32.064C197.773 31.424 196.717 31.104 195.245 31.104C194.136 31.104 193.133 31.3173 192.237 31.744C191.341 32.1707 190.616 32.7147 190.061 33.376C189.506 34.016 189.186 34.688 189.101 35.392L189.069 33.76C189.176 33.0133 189.421 32.288 189.805 31.584C190.189 30.88 190.701 30.24 191.341 29.664C192.002 29.0667 192.781 28.5973 193.677 28.256C194.573 27.9147 195.586 27.744 196.717 27.744Z" fill="white"/>
</svg>
