<svg width="188" height="67" viewBox="0 0 188 67" fill="none" xmlns="http://www.w3.org/2000/svg">
<rect width="188" height="67" rx="33.5" fill="#2C3950"/>
<path d="M46.304 23.296C48.6293 23.296 50.5707 23.5733 52.128 24.128C53.6853 24.6827 54.9227 25.44 55.84 26.4C56.7787 27.3387 57.44 28.4267 57.824 29.664C58.2293 30.9013 58.432 32.2027 58.432 33.568C58.432 34.9333 58.208 36.2453 57.76 37.504C57.3333 38.7627 56.64 39.8827 55.68 40.864C54.7413 41.824 53.4933 42.592 51.936 43.168C50.4 43.7227 48.5227 44 46.304 44H34.464V23.296H46.304ZM38.72 40.352H46.208C47.744 40.352 49.0133 40.1707 50.016 39.808C51.04 39.424 51.8507 38.912 52.448 38.272C53.0453 37.632 53.472 36.9067 53.728 36.096C53.984 35.2853 54.112 34.4427 54.112 33.568C54.112 32.6933 53.984 31.8613 53.728 31.072C53.472 30.2827 53.0453 29.5787 52.448 28.96C51.8507 28.3413 51.04 27.8507 50.016 27.488C49.0133 27.1253 47.744 26.944 46.208 26.944H38.72V40.352ZM77.181 38.72H81.213C81.0423 39.808 80.5837 40.7787 79.837 41.632C79.1117 42.4853 78.1197 43.1573 76.861 43.648C75.6023 44.1387 74.0663 44.384 72.253 44.384C70.2263 44.384 68.4343 44.064 66.877 43.424C65.3197 42.7627 64.1037 41.8133 63.229 40.576C62.3543 39.3387 61.917 37.8453 61.917 36.096C61.917 34.3467 62.3437 32.8533 63.197 31.616C64.0503 30.3573 65.2343 29.3973 66.749 28.736C68.285 28.0747 70.077 27.744 72.125 27.744C74.2157 27.744 75.9543 28.0747 77.341 28.736C78.7277 29.3973 79.7517 30.4 80.413 31.744C81.0957 33.0667 81.3837 34.7627 81.277 36.832H66.109C66.2157 37.6427 66.5143 38.3787 67.005 39.04C67.517 39.7013 68.1997 40.224 69.053 40.608C69.9277 40.992 70.9623 41.184 72.157 41.184C73.4797 41.184 74.5783 40.96 75.453 40.512C76.349 40.0427 76.925 39.4453 77.181 38.72ZM71.933 30.912C70.397 30.912 69.149 31.2533 68.189 31.936C67.229 32.5973 66.6103 33.4187 66.333 34.4H77.149C77.0423 33.3333 76.5303 32.4907 75.613 31.872C74.717 31.232 73.4903 30.912 71.933 30.912ZM84.3725 38.72H88.2125C88.4472 39.4453 88.9272 40.0427 89.6525 40.512C90.3992 40.96 91.3698 41.184 92.5645 41.184C93.3752 41.184 94.0045 41.1093 94.4525 40.96C94.9005 40.8107 95.2098 40.5973 95.3805 40.32C95.5512 40.0213 95.6365 39.6907 95.6365 39.328C95.6365 38.88 95.4978 38.5387 95.2205 38.304C94.9432 38.048 94.5165 37.8453 93.9405 37.696C93.3645 37.5467 92.6285 37.408 91.7325 37.28C90.8365 37.1307 89.9725 36.9493 89.1405 36.736C88.3085 36.5227 87.5725 36.2453 86.9325 35.904C86.2925 35.5413 85.7805 35.0933 85.3965 34.56C85.0338 34.0053 84.8525 33.3333 84.8525 32.544C84.8525 31.776 85.0338 31.0933 85.3965 30.496C85.7805 29.8987 86.3032 29.3973 86.9645 28.992C87.6472 28.5867 88.4365 28.2773 89.3325 28.064C90.2498 27.8507 91.2312 27.744 92.2765 27.744C93.8552 27.744 95.1672 27.9787 96.2125 28.448C97.2578 28.896 98.0365 29.536 98.5485 30.368C99.0818 31.1787 99.3485 32.1173 99.3485 33.184H95.6685C95.4978 32.3947 95.1565 31.8293 94.6445 31.488C94.1325 31.1253 93.3432 30.944 92.2765 30.944C91.2312 30.944 90.4418 31.104 89.9085 31.424C89.3752 31.744 89.1085 32.1813 89.1085 32.736C89.1085 33.184 89.2685 33.536 89.5885 33.792C89.9298 34.0267 90.4205 34.2187 91.0605 34.368C91.7218 34.5173 92.5432 34.6773 93.5245 34.848C94.3565 35.0187 95.1458 35.2107 95.8925 35.424C96.6605 35.6373 97.3432 35.9147 97.9405 36.256C98.5378 36.576 99.0072 37.0133 99.3485 37.568C99.7112 38.1013 99.8925 38.784 99.8925 39.616C99.8925 40.64 99.5938 41.504 98.9965 42.208C98.4205 42.912 97.5885 43.456 96.5005 43.84C95.4125 44.2027 94.1112 44.384 92.5965 44.384C91.2525 44.384 90.0898 44.2453 89.1085 43.968C88.1485 43.6693 87.3485 43.296 86.7085 42.848C86.0685 42.3787 85.5672 41.888 85.2045 41.376C84.8632 40.8427 84.6285 40.3413 84.5005 39.872C84.3725 39.4027 84.3298 39.0187 84.3725 38.72ZM108.483 21.12V24.768H103.651V21.12H108.483ZM103.971 28.096H108.131V44H103.971V28.096ZM120.853 41.568C119.125 41.568 117.6 41.312 116.277 40.8C114.976 40.2667 113.963 39.488 113.237 38.464C112.512 37.44 112.149 36.2027 112.149 34.752C112.149 33.3227 112.501 32.0853 113.205 31.04C113.909 29.9947 114.912 29.184 116.213 28.608C117.536 28.032 119.083 27.744 120.853 27.744C121.344 27.744 121.813 27.776 122.261 27.84C122.731 27.904 123.189 27.9893 123.637 28.096L131.669 28.128V31.264C130.581 31.2853 129.472 31.1573 128.341 30.88C127.232 30.5813 126.251 30.2613 125.397 29.92L125.301 29.696C126.027 30.0373 126.709 30.464 127.349 30.976C127.989 31.4667 128.501 32.0427 128.885 32.704C129.291 33.344 129.493 34.0907 129.493 34.944C129.493 36.3307 129.141 37.5253 128.437 38.528C127.733 39.5093 126.731 40.2667 125.429 40.8C124.149 41.312 122.624 41.568 120.853 41.568ZM126.197 50.56V49.792C126.197 48.8107 125.877 48.128 125.237 47.744C124.619 47.36 123.765 47.168 122.677 47.168H117.717C116.757 47.168 115.947 47.0933 115.285 46.944C114.645 46.7947 114.133 46.5813 113.749 46.304C113.365 46.0267 113.088 45.696 112.917 45.312C112.747 44.9493 112.661 44.5547 112.661 44.128C112.661 43.2747 112.939 42.6347 113.493 42.208C114.048 41.76 114.795 41.4613 115.733 41.312C116.672 41.1627 117.707 41.1307 118.837 41.216L120.853 41.568C119.509 41.6107 118.507 41.728 117.845 41.92C117.205 42.0907 116.885 42.4427 116.885 42.976C116.885 43.296 117.013 43.552 117.269 43.744C117.525 43.9147 117.888 44 118.357 44H123.573C125.003 44 126.219 44.1493 127.221 44.448C128.245 44.768 129.024 45.2907 129.557 46.016C130.091 46.7627 130.357 47.776 130.357 49.056V50.56H126.197ZM120.853 38.56C121.771 38.56 122.571 38.4107 123.253 38.112C123.957 37.8133 124.501 37.3867 124.885 36.832C125.269 36.256 125.461 35.5733 125.461 34.784C125.461 33.9733 125.269 33.28 124.885 32.704C124.501 32.128 123.968 31.6907 123.285 31.392C122.603 31.072 121.792 30.912 120.853 30.912C119.936 30.912 119.125 31.072 118.421 31.392C117.717 31.6907 117.173 32.128 116.789 32.704C116.405 33.28 116.213 33.9733 116.213 34.784C116.213 35.5733 116.405 36.256 116.789 36.832C117.173 37.3867 117.707 37.8133 118.389 38.112C119.093 38.4107 119.915 38.56 120.853 38.56ZM135.026 28.096H139.186V44H135.026V28.096ZM146.578 27.744C147.56 27.744 148.466 27.872 149.298 28.128C150.13 28.384 150.856 28.7787 151.474 29.312C152.093 29.8453 152.573 30.528 152.914 31.36C153.256 32.1707 153.426 33.1413 153.426 34.272V44H149.266V35.008C149.266 33.664 148.936 32.6827 148.274 32.064C147.634 31.424 146.578 31.104 145.106 31.104C143.997 31.104 142.994 31.3173 142.098 31.744C141.202 32.1707 140.477 32.7147 139.922 33.376C139.368 34.016 139.048 34.688 138.962 35.392L138.93 33.76C139.037 33.0133 139.282 32.288 139.666 31.584C140.05 30.88 140.562 30.24 141.202 29.664C141.864 29.0667 142.642 28.5973 143.538 28.256C144.434 27.9147 145.448 27.744 146.578 27.744Z" fill="white"/>
</svg>
