<svg width="168" height="50" viewBox="0 0 168 50" fill="none" xmlns="http://www.w3.org/2000/svg">
<rect width="168" height="50" rx="25" fill="#614F89"/>
<path d="M36.688 30L32.32 19.648H34.672L38.368 28.816L37.68 28.832L41.2 19.648H43.648L47.168 28.832L46.48 28.816L50.176 19.648H52.48L48.16 30H45.552L42.096 21.024H42.768L39.296 30H36.688ZM61.2315 30V25.632C61.2315 25.1947 61.1568 24.832 61.0075 24.544C60.8582 24.256 60.6182 24.0373 60.2875 23.888C59.9675 23.7387 59.5355 23.664 58.9915 23.664C58.4688 23.664 57.9942 23.7653 57.5675 23.968C57.1408 24.16 56.7942 24.416 56.5275 24.736C56.2608 25.0453 56.1115 25.376 56.0795 25.728L56.0635 24.848C56.1168 24.496 56.2395 24.144 56.4315 23.792C56.6235 23.44 56.8795 23.12 57.1995 22.832C57.5195 22.544 57.9035 22.3147 58.3515 22.144C58.8102 21.9627 59.3222 21.872 59.8875 21.872C60.3782 21.872 60.8315 21.936 61.2475 22.064C61.6635 22.1813 62.0262 22.368 62.3355 22.624C62.6448 22.88 62.8848 23.2 63.0555 23.584C63.2262 23.9573 63.3115 24.4 63.3115 24.912V30H61.2315ZM54.1115 30V18.848H56.1915V30H54.1115ZM67.9059 18.56V20.384H65.4899V18.56H67.9059ZM65.6499 22.048H67.7299V30H65.6499V22.048ZM69.5631 22.048H75.7391V23.664H69.5631V22.048ZM71.6111 19.872H73.6911V30H71.6111V19.872ZM84.5192 27.36H86.5352C86.4499 27.904 86.2206 28.3893 85.8472 28.816C85.4846 29.2427 84.9886 29.5787 84.3592 29.824C83.7299 30.0693 82.9619 30.192 82.0552 30.192C81.0419 30.192 80.1459 30.032 79.3672 29.712C78.5886 29.3813 77.9806 28.9067 77.5432 28.288C77.1059 27.6693 76.8872 26.9227 76.8872 26.048C76.8872 25.1733 77.1006 24.4267 77.5272 23.808C77.9539 23.1787 78.5459 22.6987 79.3032 22.368C80.0712 22.0373 80.9672 21.872 81.9912 21.872C83.0366 21.872 83.9059 22.0373 84.5992 22.368C85.2926 22.6987 85.8046 23.2 86.1352 23.872C86.4766 24.5333 86.6206 25.3813 86.5672 26.416H78.9832C79.0366 26.8213 79.1859 27.1893 79.4312 27.52C79.6872 27.8507 80.0286 28.112 80.4552 28.304C80.8926 28.496 81.4099 28.592 82.0072 28.592C82.6686 28.592 83.2179 28.48 83.6552 28.256C84.1032 28.0213 84.3912 27.7227 84.5192 27.36ZM81.8952 23.456C81.1272 23.456 80.5032 23.6267 80.0232 23.968C79.5432 24.2987 79.2339 24.7093 79.0952 25.2H84.5032C84.4499 24.6667 84.1939 24.2453 83.7352 23.936C83.2872 23.616 82.6739 23.456 81.8952 23.456ZM92.7744 18.848H94.8544V30H92.7744V18.848ZM101.15 30.176C100.361 30.176 99.6408 30.0053 98.9901 29.664C98.3501 29.312 97.8381 28.8267 97.4541 28.208C97.0808 27.5787 96.8941 26.8533 96.8941 26.032C96.8941 25.1893 97.0861 24.4587 97.4701 23.84C97.8541 23.2213 98.3715 22.7413 99.0221 22.4C99.6835 22.048 100.43 21.872 101.262 21.872C102.179 21.872 102.915 22.0587 103.47 22.432C104.035 22.7947 104.446 23.2907 104.702 23.92C104.958 24.5493 105.086 25.2533 105.086 26.032C105.086 26.5013 105.011 26.9813 104.862 27.472C104.713 27.952 104.483 28.4 104.174 28.816C103.865 29.2213 103.459 29.552 102.958 29.808C102.457 30.0533 101.854 30.176 101.15 30.176ZM101.822 28.576C102.451 28.576 102.995 28.4693 103.454 28.256C103.913 28.0427 104.265 27.744 104.51 27.36C104.755 26.976 104.878 26.5333 104.878 26.032C104.878 25.488 104.75 25.0293 104.494 24.656C104.249 24.272 103.897 23.984 103.438 23.792C102.99 23.5893 102.451 23.488 101.822 23.488C100.937 23.488 100.249 23.7227 99.7581 24.192C99.2675 24.6507 99.0221 25.264 99.0221 26.032C99.0221 26.544 99.1395 26.992 99.3741 27.376C99.6088 27.7493 99.9341 28.0427 100.35 28.256C100.777 28.4693 101.267 28.576 101.822 28.576ZM104.878 22.048H106.958V30H105.022C105.022 30 105.006 29.8987 104.974 29.696C104.953 29.4827 104.931 29.216 104.91 28.896C104.889 28.576 104.878 28.2613 104.878 27.952V22.048ZM115.132 30.176C114.428 30.176 113.826 30.0533 113.324 29.808C112.823 29.552 112.418 29.2213 112.108 28.816C111.799 28.4 111.57 27.952 111.42 27.472C111.271 26.9813 111.196 26.5013 111.196 26.032C111.196 25.4453 111.266 24.9013 111.404 24.4C111.554 23.8987 111.783 23.4613 112.092 23.088C112.402 22.704 112.807 22.4053 113.308 22.192C113.81 21.9787 114.418 21.872 115.132 21.872C115.954 21.872 116.679 22.048 117.308 22.4C117.948 22.7413 118.45 23.2213 118.812 23.84C119.186 24.4587 119.372 25.1893 119.372 26.032C119.372 26.8533 119.186 27.5787 118.812 28.208C118.439 28.8267 117.932 29.312 117.292 29.664C116.652 30.0053 115.932 30.176 115.132 30.176ZM114.46 28.576C115.026 28.576 115.516 28.4693 115.932 28.256C116.348 28.0427 116.668 27.7493 116.892 27.376C117.127 26.992 117.244 26.544 117.244 26.032C117.244 25.264 116.999 24.6453 116.508 24.176C116.028 23.7067 115.346 23.472 114.46 23.472C113.842 23.472 113.303 23.5733 112.844 23.776C112.386 23.9787 112.028 24.272 111.772 24.656C111.527 25.0293 111.404 25.488 111.404 26.032C111.404 26.5333 111.527 26.976 111.772 27.36C112.018 27.744 112.37 28.0427 112.828 28.256C113.287 28.4693 113.831 28.576 114.46 28.576ZM111.404 18.848V27.952C111.404 28.2933 111.388 28.6613 111.356 29.056C111.324 29.44 111.292 29.7547 111.26 30H109.324V18.848H111.404ZM128.479 27.36H130.495C130.409 27.904 130.18 28.3893 129.807 28.816C129.444 29.2427 128.948 29.5787 128.319 29.824C127.689 30.0693 126.921 30.192 126.015 30.192C125.001 30.192 124.105 30.032 123.327 29.712C122.548 29.3813 121.94 28.9067 121.503 28.288C121.065 27.6693 120.847 26.9227 120.847 26.048C120.847 25.1733 121.06 24.4267 121.487 23.808C121.913 23.1787 122.505 22.6987 123.263 22.368C124.031 22.0373 124.927 21.872 125.951 21.872C126.996 21.872 127.865 22.0373 128.559 22.368C129.252 22.6987 129.764 23.2 130.095 23.872C130.436 24.5333 130.58 25.3813 130.527 26.416H122.943C122.996 26.8213 123.145 27.1893 123.391 27.52C123.647 27.8507 123.988 28.112 124.415 28.304C124.852 28.496 125.369 28.592 125.967 28.592C126.628 28.592 127.177 28.48 127.615 28.256C128.063 28.0213 128.351 27.7227 128.479 27.36ZM125.855 23.456C125.087 23.456 124.463 23.6267 123.983 23.968C123.503 24.2987 123.193 24.7093 123.055 25.2H128.463C128.409 24.6667 128.153 24.2453 127.695 23.936C127.247 23.616 126.633 23.456 125.855 23.456ZM132.554 18.848H134.634V30H132.554V18.848Z" fill="white"/>
</svg>
