<svg width="164" height="50" viewBox="0 0 164 50" fill="none" xmlns="http://www.w3.org/2000/svg">
<rect width="164" height="50" rx="25" fill="#1C7947"/>
<path d="M33.536 19.648H35.664V30H33.536V19.648ZM38.4675 22.048H40.5475V30H38.4675V22.048ZM44.2435 21.872C44.7342 21.872 45.1875 21.936 45.6035 22.064C46.0195 22.192 46.3822 22.3893 46.6915 22.656C47.0008 22.9227 47.2408 23.264 47.4115 23.68C47.5822 24.0853 47.6675 24.5707 47.6675 25.136V30H45.5875V25.504C45.5875 24.832 45.4222 24.3413 45.0915 24.032C44.7715 23.712 44.2435 23.552 43.5075 23.552C42.9528 23.552 42.4515 23.6587 42.0035 23.872C41.5555 24.0853 41.1928 24.3573 40.9155 24.688C40.6382 25.008 40.4782 25.344 40.4355 25.696L40.4195 24.88C40.4728 24.5067 40.5955 24.144 40.7875 23.792C40.9795 23.44 41.2355 23.12 41.5555 22.832C41.8862 22.5333 42.2755 22.2987 42.7235 22.128C43.1715 21.9573 43.6782 21.872 44.2435 21.872ZM49.3212 22.048H55.4972V23.664H49.3212V22.048ZM51.3692 19.872H53.4492V30H51.3692V19.872ZM64.2774 27.36H66.2934C66.208 27.904 65.9787 28.3893 65.6054 28.816C65.2427 29.2427 64.7467 29.5787 64.1174 29.824C63.488 30.0693 62.72 30.192 61.8134 30.192C60.8 30.192 59.904 30.032 59.1254 29.712C58.3467 29.3813 57.7387 28.9067 57.3014 28.288C56.864 27.6693 56.6454 26.9227 56.6454 26.048C56.6454 25.1733 56.8587 24.4267 57.2854 23.808C57.712 23.1787 58.304 22.6987 59.0614 22.368C59.8294 22.0373 60.7254 21.872 61.7494 21.872C62.7947 21.872 63.664 22.0373 64.3574 22.368C65.0507 22.6987 65.5627 23.2 65.8934 23.872C66.2347 24.5333 66.3787 25.3813 66.3254 26.416H58.7414C58.7947 26.8213 58.944 27.1893 59.1894 27.52C59.4454 27.8507 59.7867 28.112 60.2134 28.304C60.6507 28.496 61.168 28.592 61.7654 28.592C62.4267 28.592 62.976 28.48 63.4134 28.256C63.8614 28.0213 64.1494 27.7227 64.2774 27.36ZM61.6534 23.456C60.8854 23.456 60.2614 23.6267 59.7814 23.968C59.3014 24.2987 58.992 24.7093 58.8534 25.2H64.2614C64.208 24.6667 63.952 24.2453 63.4934 23.936C63.0454 23.616 62.432 23.456 61.6534 23.456ZM72.1611 28.784C71.2971 28.784 70.5345 28.656 69.8731 28.4C69.2225 28.1333 68.7158 27.744 68.3531 27.232C67.9905 26.72 67.8091 26.1013 67.8091 25.376C67.8091 24.6613 67.9851 24.0427 68.3371 23.52C68.6891 22.9973 69.1905 22.592 69.8411 22.304C70.5025 22.016 71.2758 21.872 72.1611 21.872C72.4065 21.872 72.6411 21.888 72.8651 21.92C73.0998 21.952 73.3291 21.9947 73.5531 22.048L77.5691 22.064V23.632C77.0251 23.6427 76.4705 23.5787 75.9051 23.44C75.3505 23.2907 74.8598 23.1307 74.4331 22.96L74.3851 22.848C74.7478 23.0187 75.0891 23.232 75.4091 23.488C75.7291 23.7333 75.9851 24.0213 76.1771 24.352C76.3798 24.672 76.4811 25.0453 76.4811 25.472C76.4811 26.1653 76.3051 26.7627 75.9531 27.264C75.6011 27.7547 75.0998 28.1333 74.4491 28.4C73.8091 28.656 73.0465 28.784 72.1611 28.784ZM74.8331 33.28V32.896C74.8331 32.4053 74.6731 32.064 74.3531 31.872C74.0438 31.68 73.6171 31.584 73.0731 31.584H70.5931C70.1131 31.584 69.7078 31.5467 69.3771 31.472C69.0571 31.3973 68.8011 31.2907 68.6091 31.152C68.4171 31.0133 68.2785 30.848 68.1931 30.656C68.1078 30.4747 68.0651 30.2773 68.0651 30.064C68.0651 29.6373 68.2038 29.3173 68.4811 29.104C68.7585 28.88 69.1318 28.7307 69.6011 28.656C70.0705 28.5813 70.5878 28.5653 71.1531 28.608L72.1611 28.784C71.4891 28.8053 70.9878 28.864 70.6571 28.96C70.3371 29.0453 70.1771 29.2213 70.1771 29.488C70.1771 29.648 70.2411 29.776 70.3691 29.872C70.4971 29.9573 70.6785 30 70.9131 30H73.5211C74.2358 30 74.8438 30.0747 75.3451 30.224C75.8571 30.384 76.2465 30.6453 76.5131 31.008C76.7798 31.3813 76.9131 31.888 76.9131 32.528V33.28H74.8331ZM72.1611 27.28C72.6198 27.28 73.0198 27.2053 73.3611 27.056C73.7131 26.9067 73.9851 26.6933 74.1771 26.416C74.3691 26.128 74.4651 25.7867 74.4651 25.392C74.4651 24.9867 74.3691 24.64 74.1771 24.352C73.9851 24.064 73.7185 23.8453 73.3771 23.696C73.0358 23.536 72.6305 23.456 72.1611 23.456C71.7025 23.456 71.2971 23.536 70.9451 23.696C70.5931 23.8453 70.3211 24.064 70.1291 24.352C69.9371 24.64 69.8411 24.9867 69.8411 25.392C69.8411 25.7867 69.9371 26.128 70.1291 26.416C70.3211 26.6933 70.5878 26.9067 70.9291 27.056C71.2811 27.2053 71.6918 27.28 72.1611 27.28ZM79.2475 22.048H81.3275V30H79.2475V22.048ZM84.3835 23.76C83.7862 23.76 83.2688 23.8773 82.8315 24.112C82.3942 24.336 82.0422 24.6133 81.7755 24.944C81.5088 25.2747 81.3222 25.5947 81.2155 25.904L81.1995 25.024C81.2102 24.896 81.2528 24.7093 81.3275 24.464C81.4022 24.208 81.5142 23.936 81.6635 23.648C81.8128 23.3493 82.0102 23.0667 82.2555 22.8C82.5008 22.5227 82.7995 22.2987 83.1515 22.128C83.5035 21.9573 83.9142 21.872 84.3835 21.872V23.76ZM89.8614 30.176C89.072 30.176 88.352 30.0053 87.7014 29.664C87.0614 29.312 86.5494 28.8267 86.1654 28.208C85.792 27.5787 85.6054 26.8533 85.6054 26.032C85.6054 25.1893 85.7974 24.4587 86.1814 23.84C86.5654 23.2213 87.0827 22.7413 87.7334 22.4C88.3947 22.048 89.1414 21.872 89.9734 21.872C90.8907 21.872 91.6267 22.0587 92.1814 22.432C92.7467 22.7947 93.1574 23.2907 93.4134 23.92C93.6694 24.5493 93.7974 25.2533 93.7974 26.032C93.7974 26.5013 93.7227 26.9813 93.5734 27.472C93.424 27.952 93.1947 28.4 92.8854 28.816C92.576 29.2213 92.1707 29.552 91.6694 29.808C91.168 30.0533 90.5654 30.176 89.8614 30.176ZM90.5334 28.576C91.1627 28.576 91.7067 28.4693 92.1654 28.256C92.624 28.0427 92.976 27.744 93.2214 27.36C93.4667 26.976 93.5894 26.5333 93.5894 26.032C93.5894 25.488 93.4614 25.0293 93.2054 24.656C92.96 24.272 92.608 23.984 92.1494 23.792C91.7014 23.5893 91.1627 23.488 90.5334 23.488C89.648 23.488 88.96 23.7227 88.4694 24.192C87.9787 24.6507 87.7334 25.264 87.7334 26.032C87.7334 26.544 87.8507 26.992 88.0854 27.376C88.32 27.7493 88.6454 28.0427 89.0614 28.256C89.488 28.4693 89.9787 28.576 90.5334 28.576ZM93.5894 22.048H95.6694V30H93.7334C93.7334 30 93.7174 29.8987 93.6854 29.696C93.664 29.4827 93.6427 29.216 93.6214 28.896C93.6 28.576 93.5894 28.2613 93.5894 27.952V22.048ZM97.3119 22.048H103.488V23.664H97.3119V22.048ZM99.3599 19.872H101.44V30H99.3599V19.872ZM107.513 18.56V20.384H105.097V18.56H107.513ZM105.257 22.048H107.337V30H105.257V22.048ZM114.419 30.192C113.416 30.192 112.531 30.032 111.763 29.712C111.005 29.392 110.413 28.928 109.987 28.32C109.56 27.7013 109.347 26.944 109.347 26.048C109.347 25.152 109.56 24.3947 109.987 23.776C110.413 23.1467 111.005 22.672 111.763 22.352C112.531 22.032 113.416 21.872 114.419 21.872C115.421 21.872 116.296 22.032 117.043 22.352C117.8 22.672 118.392 23.1467 118.819 23.776C119.245 24.3947 119.459 25.152 119.459 26.048C119.459 26.944 119.245 27.7013 118.819 28.32C118.392 28.928 117.8 29.392 117.043 29.712C116.296 30.032 115.421 30.192 114.419 30.192ZM114.419 28.592C114.973 28.592 115.469 28.496 115.907 28.304C116.355 28.1013 116.707 27.8133 116.963 27.44C117.219 27.056 117.347 26.592 117.347 26.048C117.347 25.504 117.219 25.04 116.963 24.656C116.707 24.2613 116.36 23.9627 115.923 23.76C115.485 23.5573 114.984 23.456 114.419 23.456C113.864 23.456 113.363 23.5573 112.915 23.76C112.467 23.9627 112.109 24.256 111.843 24.64C111.587 25.024 111.459 25.4933 111.459 26.048C111.459 26.592 111.587 27.056 111.843 27.44C112.099 27.8133 112.451 28.1013 112.899 28.304C113.347 28.496 113.853 28.592 114.419 28.592ZM121.316 22.048H123.396V30H121.316V22.048ZM127.092 21.872C127.583 21.872 128.036 21.936 128.452 22.064C128.868 22.192 129.231 22.3893 129.54 22.656C129.85 22.9227 130.09 23.264 130.26 23.68C130.431 24.0853 130.516 24.5707 130.516 25.136V30H128.436V25.504C128.436 24.832 128.271 24.3413 127.94 24.032C127.62 23.712 127.092 23.552 126.356 23.552C125.802 23.552 125.3 23.6587 124.852 23.872C124.404 24.0853 124.042 24.3573 123.764 24.688C123.487 25.008 123.327 25.344 123.284 25.696L123.268 24.88C123.322 24.5067 123.444 24.144 123.636 23.792C123.828 23.44 124.084 23.12 124.404 22.832C124.735 22.5333 125.124 22.2987 125.572 22.128C126.02 21.9573 126.527 21.872 127.092 21.872Z" fill="white"/>
</svg>
