<svg width="119" height="50" viewBox="0 0 119 50" fill="none" xmlns="http://www.w3.org/2000/svg">
<rect width="119" height="50" rx="25" fill="#FEA4B9"/>
<path d="M45.312 26.272C45.216 27.104 44.9227 27.8133 44.432 28.4C43.9413 28.9867 43.2747 29.4347 42.432 29.744C41.5893 30.0533 40.5867 30.208 39.424 30.208C38.4533 30.208 37.5627 30.096 36.752 29.872C35.952 29.648 35.2587 29.312 34.672 28.864C34.096 28.416 33.648 27.8613 33.328 27.2C33.008 26.528 32.848 25.744 32.848 24.848C32.848 23.952 33.008 23.168 33.328 22.496C33.648 21.824 34.096 21.264 34.672 20.816C35.2587 20.3573 35.952 20.016 36.752 19.792C37.5627 19.5573 38.4533 19.44 39.424 19.44C40.5867 19.44 41.5893 19.6 42.432 19.92C43.2853 20.24 43.9573 20.6987 44.448 21.296C44.9387 21.8827 45.2267 22.5973 45.312 23.44H43.2C43.0613 22.992 42.8267 22.608 42.496 22.288C42.176 21.9573 41.76 21.7067 41.248 21.536C40.736 21.3653 40.128 21.28 39.424 21.28C38.5493 21.28 37.7813 21.4187 37.12 21.696C36.4587 21.9627 35.9467 22.3627 35.584 22.896C35.2213 23.4187 35.04 24.0693 35.04 24.848C35.04 25.616 35.2213 26.2613 35.584 26.784C35.9467 27.3067 36.4587 27.7067 37.12 27.984C37.7813 28.2507 38.5493 28.384 39.424 28.384C40.128 28.384 40.7307 28.2987 41.232 28.128C41.744 27.9573 42.16 27.712 42.48 27.392C42.8107 27.072 43.0507 26.6987 43.2 26.272H45.312ZM47.5962 18.848H49.6762V30H47.5962V18.848ZM56.788 30.192C55.7853 30.192 54.9 30.032 54.132 29.712C53.3747 29.392 52.7827 28.928 52.356 28.32C51.9293 27.7013 51.716 26.944 51.716 26.048C51.716 25.152 51.9293 24.3947 52.356 23.776C52.7827 23.1467 53.3747 22.672 54.132 22.352C54.9 22.032 55.7853 21.872 56.788 21.872C57.7907 21.872 58.6653 22.032 59.412 22.352C60.1693 22.672 60.7613 23.1467 61.188 23.776C61.6147 24.3947 61.828 25.152 61.828 26.048C61.828 26.944 61.6147 27.7013 61.188 28.32C60.7613 28.928 60.1693 29.392 59.412 29.712C58.6653 30.032 57.7907 30.192 56.788 30.192ZM56.788 28.592C57.3427 28.592 57.8387 28.496 58.276 28.304C58.724 28.1013 59.076 27.8133 59.332 27.44C59.588 27.056 59.716 26.592 59.716 26.048C59.716 25.504 59.588 25.04 59.332 24.656C59.076 24.2613 58.7293 23.9627 58.292 23.76C57.8547 23.5573 57.3533 23.456 56.788 23.456C56.2333 23.456 55.732 23.5573 55.284 23.76C54.836 23.9627 54.4787 24.256 54.212 24.64C53.956 25.024 53.828 25.4933 53.828 26.048C53.828 26.592 53.956 27.056 54.212 27.44C54.468 27.8133 54.82 28.1013 55.268 28.304C55.716 28.496 56.2227 28.592 56.788 28.592ZM72.8856 30H70.8056V22.048H72.8856V30ZM70.9176 26.176L70.9336 26.72C70.9123 26.8693 70.859 27.088 70.7736 27.376C70.6883 27.6533 70.555 27.952 70.3736 28.272C70.203 28.592 69.979 28.9013 69.7016 29.2C69.4243 29.488 69.083 29.728 68.6776 29.92C68.2723 30.1013 67.7923 30.192 67.2376 30.192C66.8003 30.192 66.3683 30.1387 65.9416 30.032C65.5256 29.9253 65.147 29.7493 64.8056 29.504C64.4643 29.248 64.1923 28.9067 63.9896 28.48C63.787 28.0533 63.6856 27.5147 63.6856 26.864V22.048H65.7656V26.512C65.7656 27.024 65.8456 27.4293 66.0056 27.728C66.1763 28.016 66.4216 28.2187 66.7416 28.336C67.0616 28.4533 67.4403 28.512 67.8776 28.512C68.4536 28.512 68.9496 28.3893 69.3656 28.144C69.7816 27.888 70.1176 27.5787 70.3736 27.216C70.6403 26.8533 70.8216 26.5067 70.9176 26.176ZM78.9714 30.176C78.1714 30.176 77.446 30.0053 76.7954 29.664C76.1554 29.312 75.6487 28.8267 75.2754 28.208C74.902 27.5787 74.7154 26.8533 74.7154 26.032C74.7154 25.1893 74.8967 24.4587 75.2594 23.84C75.6327 23.2213 76.1394 22.7413 76.7794 22.4C77.4194 22.048 78.15 21.872 78.9714 21.872C79.686 21.872 80.294 21.9787 80.7954 22.192C81.2967 22.4053 81.702 22.704 82.0114 23.088C82.3207 23.4613 82.5447 23.8987 82.6834 24.4C82.8327 24.9013 82.9074 25.4453 82.9074 26.032C82.9074 26.5013 82.8327 26.9813 82.6834 27.472C82.534 27.952 82.3047 28.4 81.9954 28.816C81.686 29.2213 81.2807 29.552 80.7794 29.808C80.278 30.0533 79.6754 30.176 78.9714 30.176ZM79.6434 28.576C80.2727 28.576 80.8167 28.4693 81.2754 28.256C81.734 28.0427 82.086 27.744 82.3314 27.36C82.5767 26.976 82.6994 26.5333 82.6994 26.032C82.6994 25.488 82.5714 25.0293 82.3154 24.656C82.07 24.272 81.718 23.9787 81.2594 23.776C80.8114 23.5733 80.2727 23.472 79.6434 23.472C78.758 23.472 78.07 23.7067 77.5794 24.176C77.0887 24.6453 76.8434 25.264 76.8434 26.032C76.8434 26.544 76.9607 26.992 77.1954 27.376C77.43 27.7493 77.7554 28.0427 78.1714 28.256C78.598 28.4693 79.0887 28.576 79.6434 28.576ZM82.6994 18.848H84.7794V30H82.8434C82.8114 29.7547 82.7794 29.44 82.7474 29.056C82.7154 28.6613 82.6994 28.2933 82.6994 27.952V18.848Z" fill="white"/>
</svg>
