<svg width="108" height="50" viewBox="0 0 108 50" fill="none" xmlns="http://www.w3.org/2000/svg">
<rect width="108" height="50" rx="25" fill="#614F89"/>
<path d="M41.28 28.944H40.272L46.224 19.648H48.352V30H46.224V22.48L46.736 22.624L41.984 30H39.6L34.848 22.656L35.36 22.512V30H33.232V19.648H35.36L41.28 28.944ZM54.7941 30L50.2181 19.648H52.5701L56.4901 28.992H55.7541L59.6581 19.648H61.9781L57.4501 30H54.7941ZM65.6964 26.64V24.944H70.4324C70.9977 24.944 71.4457 24.7947 71.7764 24.496C72.107 24.1867 72.2724 23.76 72.2724 23.216C72.2724 22.6507 72.107 22.2187 71.7764 21.92C71.4457 21.6213 70.9977 21.472 70.4324 21.472H65.9524V30H63.8244V19.648H70.2404C70.8164 19.648 71.355 19.7173 71.8564 19.856C72.3684 19.9947 72.811 20.208 73.1844 20.496C73.5684 20.784 73.867 21.152 74.0804 21.6C74.2937 22.048 74.4004 22.5867 74.4004 23.216C74.4004 23.8347 74.2937 24.3627 74.0804 24.8C73.867 25.2373 73.5684 25.5947 73.1844 25.872C72.811 26.1387 72.3684 26.336 71.8564 26.464C71.355 26.5813 70.8164 26.64 70.2404 26.64H65.6964Z" fill="white"/>
</svg>
