<svg width="288" height="101" viewBox="0 0 288 101" fill="none" xmlns="http://www.w3.org/2000/svg">
<rect width="288" height="101" rx="50.5" fill="#E14841"/>
<path d="M50.544 59.232V53.904H71.088V59.232H50.544ZM42.816 66L57.408 34.944H64.32L79.056 66H72.096L59.328 38.016H62.4L49.728 66H42.816ZM95.3378 62.352C92.7457 62.352 90.4577 61.968 88.4737 61.2C86.5217 60.4 85.0017 59.232 83.9137 57.696C82.8257 56.16 82.2817 54.304 82.2817 52.128C82.2817 49.984 82.8097 48.128 83.8657 46.56C84.9217 44.992 86.4257 43.776 88.3777 42.912C90.3617 42.048 92.6817 41.616 95.3378 41.616C96.0738 41.616 96.7778 41.664 97.4498 41.76C98.1537 41.856 98.8417 41.984 99.5137 42.144L111.562 42.192V46.896C109.93 46.928 108.266 46.736 106.57 46.32C104.906 45.872 103.434 45.392 102.154 44.88L102.01 44.544C103.098 45.056 104.122 45.696 105.082 46.464C106.042 47.2 106.81 48.064 107.386 49.056C107.994 50.016 108.298 51.136 108.298 52.416C108.298 54.496 107.77 56.288 106.714 57.792C105.658 59.264 104.154 60.4 102.202 61.2C100.282 61.968 97.9938 62.352 95.3378 62.352ZM103.354 75.84V74.688C103.354 73.216 102.874 72.192 101.914 71.616C100.986 71.04 99.7057 70.752 98.0737 70.752H90.6337C89.1937 70.752 87.9777 70.64 86.9857 70.416C86.0257 70.192 85.2577 69.872 84.6817 69.456C84.1057 69.04 83.6897 68.544 83.4337 67.968C83.1777 67.424 83.0497 66.832 83.0497 66.192C83.0497 64.912 83.4657 63.952 84.2977 63.312C85.1297 62.64 86.2497 62.192 87.6577 61.968C89.0657 61.744 90.6177 61.696 92.3137 61.824L95.3378 62.352C93.3217 62.416 91.8177 62.592 90.8257 62.88C89.8657 63.136 89.3857 63.664 89.3857 64.464C89.3857 64.944 89.5777 65.328 89.9617 65.616C90.3457 65.872 90.8897 66 91.5937 66H99.4177C101.562 66 103.386 66.224 104.89 66.672C106.426 67.152 107.594 67.936 108.394 69.024C109.194 70.144 109.594 71.664 109.594 73.584V75.84H103.354ZM95.3378 57.84C96.7137 57.84 97.9137 57.616 98.9377 57.168C99.9937 56.72 100.81 56.08 101.386 55.248C101.962 54.384 102.25 53.36 102.25 52.176C102.25 50.96 101.962 49.92 101.386 49.056C100.81 48.192 100.01 47.536 98.9857 47.088C97.9618 46.608 96.7458 46.368 95.3378 46.368C93.9618 46.368 92.7457 46.608 91.6897 47.088C90.6337 47.536 89.8177 48.192 89.2417 49.056C88.6657 49.92 88.3777 50.96 88.3777 52.176C88.3777 53.36 88.6657 54.384 89.2417 55.248C89.8177 56.08 90.6177 56.72 91.6417 57.168C92.6977 57.616 93.9297 57.84 95.3378 57.84ZM137.919 58.08H143.967C143.711 59.712 143.023 61.168 141.903 62.448C140.815 63.728 139.327 64.736 137.439 65.472C135.551 66.208 133.247 66.576 130.527 66.576C127.487 66.576 124.799 66.096 122.463 65.136C120.127 64.144 118.303 62.72 116.991 60.864C115.679 59.008 115.023 56.768 115.023 54.144C115.023 51.52 115.663 49.28 116.943 47.424C118.223 45.536 119.999 44.096 122.271 43.104C124.575 42.112 127.263 41.616 130.335 41.616C133.471 41.616 136.079 42.112 138.159 43.104C140.239 44.096 141.775 45.6 142.767 47.616C143.791 49.6 144.223 52.144 144.063 55.248H121.311C121.471 56.464 121.919 57.568 122.655 58.56C123.423 59.552 124.447 60.336 125.727 60.912C127.039 61.488 128.591 61.776 130.383 61.776C132.367 61.776 134.015 61.44 135.327 60.768C136.671 60.064 137.535 59.168 137.919 58.08ZM130.047 46.368C127.743 46.368 125.871 46.88 124.431 47.904C122.991 48.896 122.063 50.128 121.647 51.6H137.871C137.711 50 136.943 48.736 135.567 47.808C134.223 46.848 132.383 46.368 130.047 46.368ZM149.666 42.144H155.906V66H149.666V42.144ZM166.994 41.616C168.466 41.616 169.826 41.808 171.074 42.192C172.322 42.576 173.41 43.168 174.338 43.968C175.266 44.768 175.986 45.792 176.498 47.04C177.01 48.256 177.266 49.712 177.266 51.408V66H171.026V52.512C171.026 50.496 170.53 49.024 169.538 48.096C168.578 47.136 166.994 46.656 164.786 46.656C163.122 46.656 161.618 46.976 160.274 47.616C158.93 48.256 157.842 49.072 157.01 50.064C156.178 51.024 155.698 52.032 155.57 53.088L155.522 50.64C155.682 49.52 156.05 48.432 156.626 47.376C157.202 46.32 157.97 45.36 158.93 44.496C159.922 43.6 161.09 42.896 162.434 42.384C163.778 41.872 165.298 41.616 166.994 41.616ZM212.227 56.592C212.067 58.672 211.395 60.464 210.211 61.968C209.059 63.472 207.459 64.624 205.411 65.424C203.363 66.192 200.931 66.576 198.115 66.576C195.171 66.576 192.531 66.112 190.195 65.184C187.891 64.224 186.067 62.832 184.723 61.008C183.411 59.152 182.755 56.864 182.755 54.144C182.755 51.424 183.411 49.136 184.723 47.28C186.067 45.424 187.891 44.016 190.195 43.056C192.531 42.096 195.171 41.616 198.115 41.616C200.931 41.616 203.347 42.016 205.363 42.816C207.379 43.584 208.963 44.704 210.115 46.176C211.299 47.648 211.987 49.424 212.179 51.504H206.467C205.923 49.904 204.915 48.656 203.443 47.76C201.971 46.864 200.195 46.416 198.115 46.416C196.451 46.416 194.931 46.704 193.555 47.28C192.211 47.856 191.123 48.72 190.291 49.872C189.491 50.992 189.091 52.416 189.091 54.144C189.091 55.84 189.491 57.264 190.291 58.416C191.091 59.536 192.179 60.384 193.555 60.96C194.931 61.504 196.451 61.776 198.115 61.776C200.355 61.776 202.179 61.328 203.587 60.432C205.027 59.536 206.003 58.256 206.515 56.592H212.227ZM215.614 42.144H222.238L232.558 65.04L227.182 66L215.614 42.144ZM244.798 42.144L228.286 75.6H221.806L228.862 62.448L238.126 42.144H244.798Z" fill="white"/>
</svg>
