<svg width="174" height="67" viewBox="0 0 174 67" fill="none" xmlns="http://www.w3.org/2000/svg">
<rect width="174" height="67" rx="33.5" fill="#2C3950"/>
<path d="M53.472 34.848V23.296H57.728V35.296C57.728 36.6613 57.5253 37.856 57.12 38.88C56.736 39.904 56.1813 40.768 55.456 41.472C54.7307 42.176 53.8773 42.752 52.896 43.2C51.936 43.6267 50.88 43.936 49.728 44.128C48.5973 44.32 47.4027 44.416 46.144 44.416C44.8427 44.416 43.6053 44.32 42.432 44.128C41.2587 43.936 40.1813 43.6267 39.2 43.2C38.24 42.752 37.408 42.176 36.704 41.472C36 40.768 35.4453 39.904 35.04 38.88C34.656 37.856 34.464 36.6613 34.464 35.296V23.296H38.72V34.848C38.72 36.4693 39.04 37.7067 39.68 38.56C40.32 39.392 41.1947 39.968 42.304 40.288C43.4347 40.5867 44.7147 40.736 46.144 40.736C47.5307 40.736 48.768 40.5867 49.856 40.288C50.9653 39.968 51.84 39.392 52.48 38.56C53.1413 37.7067 53.472 36.4693 53.472 34.848ZM63.8995 23.296H68.1555V44H63.8995V23.296ZM82.7225 19.904L86.0825 21.12L76.3225 47.84L72.9945 46.624L82.7225 19.904ZM109.361 34.848V23.296H113.617V35.296C113.617 36.6613 113.414 37.856 113.009 38.88C112.625 39.904 112.07 40.768 111.345 41.472C110.619 42.176 109.766 42.752 108.785 43.2C107.825 43.6267 106.769 43.936 105.617 44.128C104.486 44.32 103.291 44.416 102.033 44.416C100.731 44.416 99.4941 44.32 98.3207 44.128C97.1474 43.936 96.0701 43.6267 95.0887 43.2C94.1287 42.752 93.2967 42.176 92.5927 41.472C91.8887 40.768 91.3341 39.904 90.9287 38.88C90.5447 37.856 90.3527 36.6613 90.3527 35.296V23.296H94.6087V34.848C94.6087 36.4693 94.9287 37.7067 95.5687 38.56C96.2087 39.392 97.0834 39.968 98.1927 40.288C99.3234 40.5867 100.603 40.736 102.033 40.736C103.419 40.736 104.657 40.5867 105.745 40.288C106.854 39.968 107.729 39.392 108.369 38.56C109.03 37.7067 109.361 36.4693 109.361 34.848ZM134.929 23.296H140.113L130.321 34.72L130.193 34.848L122.929 44H117.745L127.825 32L127.921 31.904L134.929 23.296ZM123.249 23.296L130.161 31.968L130.225 32.064L140.209 44H134.801L127.633 34.72L127.537 34.656L118.065 23.296H123.249Z" fill="white"/>
</svg>
