<svg width="146" height="58" viewBox="0 0 146 58" fill="none" xmlns="http://www.w3.org/2000/svg">
<rect width="146" height="58" rx="29" fill="#FEA4B9"/>
<path d="M51.968 31.408C51.824 32.656 51.384 33.72 50.648 34.6C49.912 35.48 48.912 36.152 47.648 36.616C46.384 37.08 44.88 37.312 43.136 37.312C41.68 37.312 40.344 37.144 39.128 36.808C37.928 36.472 36.888 35.968 36.008 35.296C35.144 34.624 34.472 33.792 33.992 32.8C33.512 31.792 33.272 30.616 33.272 29.272C33.272 27.928 33.512 26.752 33.992 25.744C34.472 24.736 35.144 23.896 36.008 23.224C36.888 22.536 37.928 22.024 39.128 21.688C40.344 21.336 41.68 21.16 43.136 21.16C44.88 21.16 46.384 21.4 47.648 21.88C48.928 22.36 49.936 23.048 50.672 23.944C51.408 24.824 51.84 25.896 51.968 27.16H48.8C48.592 26.488 48.24 25.912 47.744 25.432C47.264 24.936 46.64 24.56 45.872 24.304C45.104 24.048 44.192 23.92 43.136 23.92C41.824 23.92 40.672 24.128 39.68 24.544C38.688 24.944 37.92 25.544 37.376 26.344C36.832 27.128 36.56 28.104 36.56 29.272C36.56 30.424 36.832 31.392 37.376 32.176C37.92 32.96 38.688 33.56 39.68 33.976C40.672 34.376 41.824 34.576 43.136 34.576C44.192 34.576 45.096 34.448 45.848 34.192C46.616 33.936 47.24 33.568 47.72 33.088C48.216 32.608 48.576 32.048 48.8 31.408H51.968ZM55.3944 20.272H58.5144V37H55.3944V20.272ZM69.182 37.288C67.678 37.288 66.35 37.048 65.198 36.568C64.062 36.088 63.174 35.392 62.534 34.48C61.894 33.552 61.574 32.416 61.574 31.072C61.574 29.728 61.894 28.592 62.534 27.664C63.174 26.72 64.062 26.008 65.198 25.528C66.35 25.048 67.678 24.808 69.182 24.808C70.686 24.808 71.998 25.048 73.118 25.528C74.254 26.008 75.142 26.72 75.782 27.664C76.422 28.592 76.742 29.728 76.742 31.072C76.742 32.416 76.422 33.552 75.782 34.48C75.142 35.392 74.254 36.088 73.118 36.568C71.998 37.048 70.686 37.288 69.182 37.288ZM69.182 34.888C70.014 34.888 70.758 34.744 71.414 34.456C72.086 34.152 72.614 33.72 72.998 33.16C73.382 32.584 73.574 31.888 73.574 31.072C73.574 30.256 73.382 29.56 72.998 28.984C72.614 28.392 72.094 27.944 71.438 27.64C70.782 27.336 70.03 27.184 69.182 27.184C68.35 27.184 67.598 27.336 66.926 27.64C66.254 27.944 65.718 28.384 65.318 28.96C64.934 29.536 64.742 30.24 64.742 31.072C64.742 31.888 64.934 32.584 65.318 33.16C65.702 33.72 66.23 34.152 66.902 34.456C67.574 34.744 68.334 34.888 69.182 34.888ZM93.3284 37H90.2084V25.072H93.3284V37ZM90.3764 31.264L90.4004 32.08C90.3684 32.304 90.2884 32.632 90.1604 33.064C90.0324 33.48 89.8324 33.928 89.5604 34.408C89.3044 34.888 88.9684 35.352 88.5524 35.8C88.1364 36.232 87.6244 36.592 87.0164 36.88C86.4084 37.152 85.6884 37.288 84.8564 37.288C84.2004 37.288 83.5524 37.208 82.9124 37.048C82.2884 36.888 81.7204 36.624 81.2084 36.256C80.6964 35.872 80.2884 35.36 79.9844 34.72C79.6804 34.08 79.5284 33.272 79.5284 32.296V25.072H82.6484V31.768C82.6484 32.536 82.7684 33.144 83.0084 33.592C83.2644 34.024 83.6324 34.328 84.1124 34.504C84.5924 34.68 85.1604 34.768 85.8164 34.768C86.6804 34.768 87.4244 34.584 88.0484 34.216C88.6724 33.832 89.1764 33.368 89.5604 32.824C89.9604 32.28 90.2324 31.76 90.3764 31.264ZM102.457 37.264C101.257 37.264 100.169 37.008 99.1931 36.496C98.2331 35.968 97.4731 35.24 96.9131 34.312C96.3531 33.368 96.0731 32.28 96.0731 31.048C96.0731 29.784 96.3451 28.688 96.8891 27.76C97.4491 26.832 98.2091 26.112 99.1691 25.6C100.129 25.072 101.225 24.808 102.457 24.808C103.529 24.808 104.441 24.968 105.193 25.288C105.945 25.608 106.553 26.056 107.017 26.632C107.481 27.192 107.817 27.848 108.025 28.6C108.249 29.352 108.361 30.168 108.361 31.048C108.361 31.752 108.249 32.472 108.025 33.208C107.801 33.928 107.457 34.6 106.993 35.224C106.529 35.832 105.921 36.328 105.169 36.712C104.417 37.08 103.513 37.264 102.457 37.264ZM103.465 34.864C104.409 34.864 105.225 34.704 105.913 34.384C106.601 34.064 107.129 33.616 107.497 33.04C107.865 32.464 108.049 31.8 108.049 31.048C108.049 30.232 107.857 29.544 107.473 28.984C107.105 28.408 106.577 27.968 105.889 27.664C105.217 27.36 104.409 27.208 103.465 27.208C102.137 27.208 101.105 27.56 100.369 28.264C99.6331 28.968 99.2651 29.896 99.2651 31.048C99.2651 31.816 99.4411 32.488 99.7931 33.064C100.145 33.624 100.633 34.064 101.257 34.384C101.897 34.704 102.633 34.864 103.465 34.864ZM108.049 20.272H111.169V37H108.265C108.217 36.632 108.169 36.16 108.121 35.584C108.073 34.992 108.049 34.44 108.049 33.928V20.272Z" fill="white"/>
</svg>
