<svg width="272" height="67" viewBox="0 0 272 67" fill="none" xmlns="http://www.w3.org/2000/svg">
<rect width="272" height="67" rx="33.5" fill="#614F89"/>
<path d="M41.376 44L32.64 23.296H37.344L44.736 41.632L43.36 41.664L50.4 23.296H55.296L62.336 41.664L60.96 41.632L68.352 23.296H72.96L64.32 44H59.104L52.192 26.048H53.536L46.592 44H41.376ZM90.463 44V35.264C90.463 34.3893 90.3137 33.664 90.015 33.088C89.7163 32.512 89.2363 32.0747 88.575 31.776C87.935 31.4773 87.071 31.328 85.983 31.328C84.9377 31.328 83.9883 31.5307 83.135 31.936C82.2817 32.32 81.5883 32.832 81.055 33.472C80.5217 34.0907 80.223 34.752 80.159 35.456L80.127 33.696C80.2337 32.992 80.479 32.288 80.863 31.584C81.247 30.88 81.759 30.24 82.399 29.664C83.039 29.088 83.807 28.6293 84.703 28.288C85.6203 27.9253 86.6443 27.744 87.775 27.744C88.7563 27.744 89.663 27.872 90.495 28.128C91.327 28.3627 92.0523 28.736 92.671 29.248C93.2897 29.76 93.7697 30.4 94.111 31.168C94.4523 31.9147 94.623 32.8 94.623 33.824V44H90.463ZM76.223 44V21.696H80.383V44H76.223ZM103.812 21.12V24.768H98.9797V21.12H103.812ZM99.2997 28.096H103.46V44H99.2997V28.096ZM107.126 28.096H119.478V31.328H107.126V28.096ZM111.222 23.744H115.382V44H111.222V23.744ZM137.038 38.72H141.07C140.9 39.808 140.441 40.7787 139.694 41.632C138.969 42.4853 137.977 43.1573 136.718 43.648C135.46 44.1387 133.924 44.384 132.11 44.384C130.084 44.384 128.292 44.064 126.734 43.424C125.177 42.7627 123.961 41.8133 123.086 40.576C122.212 39.3387 121.774 37.8453 121.774 36.096C121.774 34.3467 122.201 32.8533 123.054 31.616C123.908 30.3573 125.092 29.3973 126.606 28.736C128.142 28.0747 129.934 27.744 131.982 27.744C134.073 27.744 135.812 28.0747 137.198 28.736C138.585 29.3973 139.609 30.4 140.27 31.744C140.953 33.0667 141.241 34.7627 141.134 36.832H125.966C126.073 37.6427 126.372 38.3787 126.862 39.04C127.374 39.7013 128.057 40.224 128.91 40.608C129.785 40.992 130.82 41.184 132.014 41.184C133.337 41.184 134.436 40.96 135.31 40.512C136.206 40.0427 136.782 39.4453 137.038 38.72ZM131.79 30.912C130.254 30.912 129.006 31.2533 128.046 31.936C127.086 32.5973 126.468 33.4187 126.19 34.4H137.006C136.9 33.3333 136.388 32.4907 135.47 31.872C134.574 31.232 133.348 30.912 131.79 30.912ZM153.549 21.696H157.709V44H153.549V21.696ZM170.3 44.352C168.722 44.352 167.282 44.0107 165.98 43.328C164.7 42.624 163.676 41.6533 162.908 40.416C162.162 39.1573 161.788 37.7067 161.788 36.064C161.788 34.3787 162.172 32.9173 162.94 31.68C163.708 30.4427 164.743 29.4827 166.044 28.8C167.367 28.096 168.86 27.744 170.524 27.744C172.359 27.744 173.831 28.1173 174.94 28.864C176.071 29.5893 176.892 30.5813 177.404 31.84C177.916 33.0987 178.172 34.5067 178.172 36.064C178.172 37.0027 178.023 37.9627 177.724 38.944C177.426 39.904 176.967 40.8 176.348 41.632C175.73 42.4427 174.919 43.104 173.916 43.616C172.914 44.1067 171.708 44.352 170.3 44.352ZM171.644 41.152C172.903 41.152 173.991 40.9387 174.908 40.512C175.826 40.0853 176.53 39.488 177.02 38.72C177.511 37.952 177.756 37.0667 177.756 36.064C177.756 34.976 177.5 34.0587 176.988 33.312C176.498 32.544 175.794 31.968 174.876 31.584C173.98 31.1787 172.903 30.976 171.644 30.976C169.874 30.976 168.498 31.4453 167.516 32.384C166.535 33.3013 166.044 34.528 166.044 36.064C166.044 37.088 166.279 37.984 166.748 38.752C167.218 39.4987 167.868 40.0853 168.7 40.512C169.554 40.9387 170.535 41.152 171.644 41.152ZM177.756 28.096H181.916V44H178.044C178.044 44 178.012 43.7973 177.948 43.392C177.906 42.9653 177.863 42.432 177.82 41.792C177.778 41.152 177.756 40.5227 177.756 39.904V28.096ZM198.265 44.352C196.857 44.352 195.651 44.1067 194.649 43.616C193.646 43.104 192.835 42.4427 192.217 41.632C191.598 40.8 191.139 39.904 190.841 38.944C190.542 37.9627 190.393 37.0027 190.393 36.064C190.393 34.8907 190.531 33.8027 190.809 32.8C191.107 31.7973 191.566 30.9227 192.185 30.176C192.803 29.408 193.614 28.8107 194.617 28.384C195.619 27.9573 196.835 27.744 198.265 27.744C199.907 27.744 201.358 28.096 202.617 28.8C203.897 29.4827 204.899 30.4427 205.625 31.68C206.371 32.9173 206.745 34.3787 206.745 36.064C206.745 37.7067 206.371 39.1573 205.625 40.416C204.878 41.6533 203.865 42.624 202.585 43.328C201.305 44.0107 199.865 44.352 198.265 44.352ZM196.921 41.152C198.051 41.152 199.033 40.9387 199.865 40.512C200.697 40.0853 201.337 39.4987 201.785 38.752C202.254 37.984 202.489 37.088 202.489 36.064C202.489 34.528 201.998 33.2907 201.017 32.352C200.057 31.4133 198.691 30.944 196.921 30.944C195.683 30.944 194.606 31.1467 193.689 31.552C192.771 31.9573 192.057 32.544 191.545 33.312C191.054 34.0587 190.809 34.976 190.809 36.064C190.809 37.0667 191.054 37.952 191.545 38.72C192.035 39.488 192.739 40.0853 193.657 40.512C194.574 40.9387 195.662 41.152 196.921 41.152ZM190.809 21.696V39.904C190.809 40.5867 190.777 41.3227 190.713 42.112C190.649 42.88 190.585 43.5093 190.521 44H186.649V21.696H190.809ZM224.957 38.72H228.989C228.819 39.808 228.36 40.7787 227.613 41.632C226.888 42.4853 225.896 43.1573 224.637 43.648C223.379 44.1387 221.843 44.384 220.029 44.384C218.003 44.384 216.211 44.064 214.653 43.424C213.096 42.7627 211.88 41.8133 211.005 40.576C210.131 39.3387 209.693 37.8453 209.693 36.096C209.693 34.3467 210.12 32.8533 210.973 31.616C211.827 30.3573 213.011 29.3973 214.525 28.736C216.061 28.0747 217.853 27.744 219.901 27.744C221.992 27.744 223.731 28.0747 225.117 28.736C226.504 29.3973 227.528 30.4 228.189 31.744C228.872 33.0667 229.16 34.7627 229.053 36.832H213.885C213.992 37.6427 214.291 38.3787 214.781 39.04C215.293 39.7013 215.976 40.224 216.829 40.608C217.704 40.992 218.739 41.184 219.933 41.184C221.256 41.184 222.355 40.96 223.229 40.512C224.125 40.0427 224.701 39.4453 224.957 38.72ZM219.709 30.912C218.173 30.912 216.925 31.2533 215.965 31.936C215.005 32.5973 214.387 33.4187 214.109 34.4H224.925C224.819 33.3333 224.307 32.4907 223.389 31.872C222.493 31.232 221.267 30.912 219.709 30.912ZM233.109 21.696H237.269V44H233.109V21.696Z" fill="white"/>
</svg>
