<svg width="194" height="101" viewBox="0 0 194 101" fill="none" xmlns="http://www.w3.org/2000/svg">
<rect width="194" height="101" rx="50.5" fill="#614F89"/>
<path d="M59.84 62.832H56.816L74.672 34.944H81.056V66H74.672V43.44L76.208 43.872L61.952 66H54.8L40.544 43.968L42.08 43.536V66H35.696V34.944H42.08L59.84 62.832ZM100.382 66L86.6544 34.944H93.7104L105.47 62.976H103.262L114.974 34.944H121.934L108.35 66H100.382ZM133.089 55.92V50.832H147.297C148.993 50.832 150.337 50.384 151.329 49.488C152.321 48.56 152.817 47.28 152.817 45.648C152.817 43.952 152.321 42.656 151.329 41.76C150.337 40.864 148.993 40.416 147.297 40.416H133.857V66H127.473V34.944H146.721C148.449 34.944 150.065 35.152 151.569 35.568C153.105 35.984 154.433 36.624 155.553 37.488C156.705 38.352 157.601 39.456 158.241 40.8C158.881 42.144 159.201 43.76 159.201 45.648C159.201 47.504 158.881 49.088 158.241 50.4C157.601 51.712 156.705 52.784 155.553 53.616C154.433 54.416 153.105 55.008 151.569 55.392C150.065 55.744 148.449 55.92 146.721 55.92H133.089Z" fill="white"/>
</svg>
