<svg width="217" height="101" viewBox="0 0 217 101" fill="none" xmlns="http://www.w3.org/2000/svg">
<rect width="217" height="101" rx="50.5" fill="#F7BA2D"/>
<path d="M50.544 59.232V53.904H71.088V59.232H50.544ZM42.816 66L57.408 34.944H64.32L79.056 66H72.096L59.328 38.016H62.4L49.728 66H42.816ZM95.3378 62.352C92.7457 62.352 90.4577 61.968 88.4737 61.2C86.5217 60.4 85.0017 59.232 83.9137 57.696C82.8257 56.16 82.2817 54.304 82.2817 52.128C82.2817 49.984 82.8097 48.128 83.8657 46.56C84.9217 44.992 86.4257 43.776 88.3777 42.912C90.3617 42.048 92.6817 41.616 95.3378 41.616C96.0738 41.616 96.7778 41.664 97.4498 41.76C98.1537 41.856 98.8417 41.984 99.5137 42.144L111.562 42.192V46.896C109.93 46.928 108.266 46.736 106.57 46.32C104.906 45.872 103.434 45.392 102.154 44.88L102.01 44.544C103.098 45.056 104.122 45.696 105.082 46.464C106.042 47.2 106.81 48.064 107.386 49.056C107.994 50.016 108.298 51.136 108.298 52.416C108.298 54.496 107.77 56.288 106.714 57.792C105.658 59.264 104.154 60.4 102.202 61.2C100.282 61.968 97.9938 62.352 95.3378 62.352ZM103.354 75.84V74.688C103.354 73.216 102.874 72.192 101.914 71.616C100.986 71.04 99.7057 70.752 98.0737 70.752H90.6337C89.1937 70.752 87.9777 70.64 86.9857 70.416C86.0257 70.192 85.2577 69.872 84.6817 69.456C84.1057 69.04 83.6897 68.544 83.4337 67.968C83.1777 67.424 83.0497 66.832 83.0497 66.192C83.0497 64.912 83.4657 63.952 84.2977 63.312C85.1297 62.64 86.2497 62.192 87.6577 61.968C89.0657 61.744 90.6177 61.696 92.3137 61.824L95.3378 62.352C93.3217 62.416 91.8177 62.592 90.8257 62.88C89.8657 63.136 89.3857 63.664 89.3857 64.464C89.3857 64.944 89.5777 65.328 89.9617 65.616C90.3457 65.872 90.8897 66 91.5937 66H99.4177C101.562 66 103.386 66.224 104.89 66.672C106.426 67.152 107.594 67.936 108.394 69.024C109.194 70.144 109.594 71.664 109.594 73.584V75.84H103.354ZM95.3378 57.84C96.7137 57.84 97.9137 57.616 98.9377 57.168C99.9937 56.72 100.81 56.08 101.386 55.248C101.962 54.384 102.25 53.36 102.25 52.176C102.25 50.96 101.962 49.92 101.386 49.056C100.81 48.192 100.01 47.536 98.9857 47.088C97.9618 46.608 96.7458 46.368 95.3378 46.368C93.9618 46.368 92.7457 46.608 91.6897 47.088C90.6337 47.536 89.8177 48.192 89.2417 49.056C88.6657 49.92 88.3777 50.96 88.3777 52.176C88.3777 53.36 88.6657 54.384 89.2417 55.248C89.8177 56.08 90.6177 56.72 91.6417 57.168C92.6977 57.616 93.9297 57.84 95.3378 57.84ZM123.749 31.68V37.152H116.501V31.68H123.749ZM116.981 42.144H123.221V66H116.981V42.144ZM130.881 32.544H137.121V66H130.881V32.544ZM166.136 58.08H172.184C171.928 59.712 171.24 61.168 170.12 62.448C169.032 63.728 167.544 64.736 165.656 65.472C163.768 66.208 161.464 66.576 158.744 66.576C155.704 66.576 153.016 66.096 150.68 65.136C148.344 64.144 146.52 62.72 145.208 60.864C143.896 59.008 143.24 56.768 143.24 54.144C143.24 51.52 143.88 49.28 145.16 47.424C146.44 45.536 148.216 44.096 150.488 43.104C152.792 42.112 155.48 41.616 158.552 41.616C161.688 41.616 164.296 42.112 166.376 43.104C168.456 44.096 169.992 45.6 170.984 47.616C172.008 49.6 172.44 52.144 172.28 55.248H149.528C149.688 56.464 150.136 57.568 150.872 58.56C151.64 59.552 152.664 60.336 153.944 60.912C155.256 61.488 156.808 61.776 158.6 61.776C160.584 61.776 162.232 61.44 163.544 60.768C164.888 60.064 165.752 59.168 166.136 58.08ZM158.264 46.368C155.96 46.368 154.088 46.88 152.648 47.904C151.208 48.896 150.28 50.128 149.864 51.6H166.088C165.928 50 165.16 48.736 163.784 47.808C162.44 46.848 160.6 46.368 158.264 46.368Z" fill="white"/>
</svg>
