<svg width="132" height="50" viewBox="0 0 132 50" fill="none" xmlns="http://www.w3.org/2000/svg">
<rect width="132" height="50" rx="25" fill="#E14841"/>
<path d="M34.848 27.744V25.968H41.696V27.744H34.848ZM32.272 30L37.136 19.648H39.44L44.352 30H42.032L37.776 20.672H38.8L34.576 30H32.272ZM49.7793 28.784C48.9152 28.784 48.1526 28.656 47.4912 28.4C46.8406 28.1333 46.3339 27.744 45.9712 27.232C45.6086 26.72 45.4272 26.1013 45.4272 25.376C45.4272 24.6613 45.6032 24.0427 45.9552 23.52C46.3072 22.9973 46.8086 22.592 47.4592 22.304C48.1206 22.016 48.8939 21.872 49.7793 21.872C50.0246 21.872 50.2593 21.888 50.4833 21.92C50.7179 21.952 50.9472 21.9947 51.1712 22.048L55.1873 22.064V23.632C54.6433 23.6427 54.0886 23.5787 53.5233 23.44C52.9686 23.2907 52.4779 23.1307 52.0512 22.96L52.0033 22.848C52.3659 23.0187 52.7073 23.232 53.0273 23.488C53.3472 23.7333 53.6032 24.0213 53.7952 24.352C53.9979 24.672 54.0992 25.0453 54.0992 25.472C54.0992 26.1653 53.9232 26.7627 53.5712 27.264C53.2193 27.7547 52.7179 28.1333 52.0673 28.4C51.4273 28.656 50.6646 28.784 49.7793 28.784ZM52.4513 33.28V32.896C52.4513 32.4053 52.2913 32.064 51.9713 31.872C51.6619 31.68 51.2352 31.584 50.6912 31.584H48.2112C47.7312 31.584 47.3259 31.5467 46.9952 31.472C46.6752 31.3973 46.4192 31.2907 46.2272 31.152C46.0352 31.0133 45.8966 30.848 45.8112 30.656C45.7259 30.4747 45.6832 30.2773 45.6832 30.064C45.6832 29.6373 45.8219 29.3173 46.0992 29.104C46.3766 28.88 46.7499 28.7307 47.2192 28.656C47.6886 28.5813 48.2059 28.5653 48.7712 28.608L49.7793 28.784C49.1072 28.8053 48.6059 28.864 48.2752 28.96C47.9552 29.0453 47.7952 29.2213 47.7952 29.488C47.7952 29.648 47.8592 29.776 47.9872 29.872C48.1152 29.9573 48.2966 30 48.5312 30H51.1392C51.8539 30 52.4619 30.0747 52.9633 30.224C53.4752 30.384 53.8646 30.6453 54.1313 31.008C54.3979 31.3813 54.5312 31.888 54.5312 32.528V33.28H52.4513ZM49.7793 27.28C50.2379 27.28 50.6379 27.2053 50.9792 27.056C51.3312 26.9067 51.6032 26.6933 51.7952 26.416C51.9873 26.128 52.0833 25.7867 52.0833 25.392C52.0833 24.9867 51.9873 24.64 51.7952 24.352C51.6032 24.064 51.3366 23.8453 50.9952 23.696C50.6539 23.536 50.2486 23.456 49.7793 23.456C49.3206 23.456 48.9152 23.536 48.5632 23.696C48.2112 23.8453 47.9392 24.064 47.7472 24.352C47.5552 24.64 47.4592 24.9867 47.4592 25.392C47.4592 25.7867 47.5552 26.128 47.7472 26.416C47.9392 26.6933 48.2059 26.9067 48.5472 27.056C48.8992 27.2053 49.3099 27.28 49.7793 27.28ZM63.973 27.36H65.989C65.9037 27.904 65.6743 28.3893 65.301 28.816C64.9383 29.2427 64.4423 29.5787 63.813 29.824C63.1837 30.0693 62.4157 30.192 61.509 30.192C60.4957 30.192 59.5997 30.032 58.821 29.712C58.0423 29.3813 57.4343 28.9067 56.997 28.288C56.5597 27.6693 56.341 26.9227 56.341 26.048C56.341 25.1733 56.5543 24.4267 56.981 23.808C57.4077 23.1787 57.9997 22.6987 58.757 22.368C59.525 22.0373 60.421 21.872 61.445 21.872C62.4903 21.872 63.3597 22.0373 64.053 22.368C64.7463 22.6987 65.2583 23.2 65.589 23.872C65.9303 24.5333 66.0743 25.3813 66.021 26.416H58.437C58.4903 26.8213 58.6397 27.1893 58.885 27.52C59.141 27.8507 59.4823 28.112 59.909 28.304C60.3463 28.496 60.8637 28.592 61.461 28.592C62.1223 28.592 62.6717 28.48 63.109 28.256C63.557 28.0213 63.845 27.7227 63.973 27.36ZM61.349 23.456C60.581 23.456 59.957 23.6267 59.477 23.968C58.997 24.2987 58.6877 24.7093 58.549 25.2H63.957C63.9037 24.6667 63.6477 24.2453 63.189 23.936C62.741 23.616 62.1277 23.456 61.349 23.456ZM67.8887 22.048H69.9687V30H67.8887V22.048ZM73.6647 21.872C74.1554 21.872 74.6087 21.936 75.0247 22.064C75.4407 22.192 75.8034 22.3893 76.1127 22.656C76.4221 22.9227 76.6621 23.264 76.8327 23.68C77.0034 24.0853 77.0887 24.5707 77.0887 25.136V30H75.0087V25.504C75.0087 24.832 74.8434 24.3413 74.5127 24.032C74.1927 23.712 73.6647 23.552 72.9287 23.552C72.3741 23.552 71.8727 23.6587 71.4247 23.872C70.9767 24.0853 70.6141 24.3573 70.3367 24.688C70.0594 25.008 69.8994 25.344 69.8567 25.696L69.8407 24.88C69.8941 24.5067 70.0167 24.144 70.2087 23.792C70.4007 23.44 70.6567 23.12 70.9767 22.832C71.3074 22.5333 71.6967 22.2987 72.1447 22.128C72.5927 21.9573 73.0994 21.872 73.6647 21.872ZM88.7425 26.864C88.6892 27.5573 88.4652 28.1547 88.0705 28.656C87.6865 29.1573 87.1532 29.5413 86.4705 29.808C85.7878 30.064 84.9772 30.192 84.0385 30.192C83.0572 30.192 82.1772 30.0373 81.3985 29.728C80.6305 29.408 80.0225 28.944 79.5745 28.336C79.1372 27.7173 78.9185 26.9547 78.9185 26.048C78.9185 25.1413 79.1372 24.3787 79.5745 23.76C80.0225 23.1413 80.6305 22.672 81.3985 22.352C82.1772 22.032 83.0572 21.872 84.0385 21.872C84.9772 21.872 85.7825 22.0053 86.4545 22.272C87.1265 22.528 87.6545 22.9013 88.0385 23.392C88.4332 23.8827 88.6625 24.4747 88.7265 25.168H86.8225C86.6412 24.6347 86.3052 24.2187 85.8145 23.92C85.3238 23.6213 84.7318 23.472 84.0385 23.472C83.4838 23.472 82.9772 23.568 82.5185 23.76C82.0705 23.952 81.7078 24.24 81.4305 24.624C81.1638 24.9973 81.0305 25.472 81.0305 26.048C81.0305 26.6133 81.1638 27.088 81.4305 27.472C81.6972 27.8453 82.0598 28.128 82.5185 28.32C82.9772 28.5013 83.4838 28.592 84.0385 28.592C84.7852 28.592 85.3932 28.4427 85.8625 28.144C86.3425 27.8453 86.6678 27.4187 86.8385 26.864H88.7425ZM89.8712 22.048H92.0792L95.5192 29.68L93.7272 30L89.8712 22.048ZM99.5992 22.048L94.0952 33.2H91.9352L94.2872 28.816L97.3752 22.048H99.5992Z" fill="white"/>
</svg>
