<svg width="391" height="83" viewBox="0 0 391 83" fill="none" xmlns="http://www.w3.org/2000/svg">
<rect width="391" height="83" rx="41.5" fill="#1C7947"/>
<path d="M37.696 47.488V43.936H51.392V47.488H37.696ZM32.544 52L42.272 31.296H46.88L56.704 52H52.064L43.552 33.344H45.6L37.152 52H32.544ZM71.394 52.384C69.986 52.384 68.7807 52.1387 67.778 51.648C66.7967 51.136 65.9967 50.4747 65.378 49.664C64.7593 48.832 64.3007 47.9253 64.002 46.944C63.7033 45.9627 63.554 45.0027 63.554 44.064C63.554 42.8907 63.6927 41.8027 63.97 40.8C64.2687 39.7973 64.7273 38.9227 65.346 38.176C65.9647 37.408 66.7647 36.8107 67.746 36.384C68.7487 35.9573 69.9647 35.744 71.394 35.744C72.994 35.744 74.434 36.096 75.714 36.8C76.994 37.504 78.0073 38.4853 78.754 39.744C79.522 40.9813 79.906 42.4213 79.906 44.064C79.906 45.7493 79.522 47.2213 78.754 48.48C77.986 49.7173 76.962 50.6773 75.682 51.36C74.402 52.0427 72.9727 52.384 71.394 52.384ZM70.05 49.152C71.1807 49.152 72.162 48.9387 72.994 48.512C73.8473 48.0853 74.498 47.4987 74.946 46.752C75.4153 45.984 75.65 45.088 75.65 44.064C75.65 42.528 75.1593 41.2907 74.178 40.352C73.218 39.4133 71.842 38.944 70.05 38.944C68.9193 38.944 67.8847 39.1467 66.946 39.552C66.0287 39.9573 65.3033 40.544 64.77 41.312C64.2367 42.0587 63.97 42.976 63.97 44.064C63.97 45.088 64.2153 45.984 64.706 46.752C65.1967 47.4987 65.9007 48.0853 66.818 48.512C67.7353 48.9387 68.8127 49.152 70.05 49.152ZM59.81 36.096H63.778L63.97 40.32V58.4H59.81V36.096ZM95.1902 52.384C93.7822 52.384 92.5769 52.1387 91.5742 51.648C90.5929 51.136 89.7929 50.4747 89.1742 49.664C88.5556 48.832 88.0969 47.9253 87.7982 46.944C87.4996 45.9627 87.3502 45.0027 87.3502 44.064C87.3502 42.8907 87.4889 41.8027 87.7662 40.8C88.0649 39.7973 88.5236 38.9227 89.1422 38.176C89.7609 37.408 90.5609 36.8107 91.5422 36.384C92.5449 35.9573 93.7609 35.744 95.1902 35.744C96.7902 35.744 98.2302 36.096 99.5103 36.8C100.79 37.504 101.804 38.4853 102.55 39.744C103.318 40.9813 103.702 42.4213 103.702 44.064C103.702 45.7493 103.318 47.2213 102.55 48.48C101.782 49.7173 100.758 50.6773 99.4783 51.36C98.1982 52.0427 96.7689 52.384 95.1902 52.384ZM93.8462 49.152C94.9769 49.152 95.9582 48.9387 96.7902 48.512C97.6436 48.0853 98.2942 47.4987 98.7423 46.752C99.2116 45.984 99.4462 45.088 99.4462 44.064C99.4462 42.528 98.9556 41.2907 97.9742 40.352C97.0142 39.4133 95.6382 38.944 93.8462 38.944C92.7156 38.944 91.6809 39.1467 90.7422 39.552C89.8249 39.9573 89.0996 40.544 88.5662 41.312C88.0329 42.0587 87.7662 42.976 87.7662 44.064C87.7662 45.088 88.0116 45.984 88.5022 46.752C88.9929 47.4987 89.6969 48.0853 90.6142 48.512C91.5316 48.9387 92.6089 49.152 93.8462 49.152ZM83.6062 36.096H87.5742L87.7662 40.32V58.4H83.6062V36.096ZM128.145 31.296C130.471 31.296 132.412 31.5733 133.969 32.128C135.527 32.6827 136.764 33.44 137.681 34.4C138.62 35.3387 139.281 36.4267 139.665 37.664C140.071 38.9013 140.273 40.2027 140.273 41.568C140.273 42.9333 140.049 44.2453 139.601 45.504C139.175 46.7627 138.481 47.8827 137.521 48.864C136.583 49.824 135.335 50.592 133.777 51.168C132.241 51.7227 130.364 52 128.145 52H116.305V31.296H128.145ZM120.561 48.352H128.049C129.585 48.352 130.855 48.1707 131.857 47.808C132.881 47.424 133.692 46.912 134.289 46.272C134.887 45.632 135.313 44.9067 135.569 44.096C135.825 43.2853 135.953 42.4427 135.953 41.568C135.953 40.6933 135.825 39.8613 135.569 39.072C135.313 38.2827 134.887 37.5787 134.289 36.96C133.692 36.3413 132.881 35.8507 131.857 35.488C130.855 35.1253 129.585 34.944 128.049 34.944H120.561V48.352ZM159.022 46.72H163.054C162.884 47.808 162.425 48.7787 161.678 49.632C160.953 50.4853 159.961 51.1573 158.702 51.648C157.444 52.1387 155.908 52.384 154.094 52.384C152.068 52.384 150.276 52.064 148.718 51.424C147.161 50.7627 145.945 49.8133 145.07 48.576C144.196 47.3387 143.758 45.8453 143.758 44.096C143.758 42.3467 144.185 40.8533 145.038 39.616C145.892 38.3573 147.076 37.3973 148.59 36.736C150.126 36.0747 151.918 35.744 153.966 35.744C156.057 35.744 157.796 36.0747 159.182 36.736C160.569 37.3973 161.593 38.4 162.254 39.744C162.937 41.0667 163.225 42.7627 163.118 44.832H147.95C148.057 45.6427 148.356 46.3787 148.846 47.04C149.358 47.7013 150.041 48.224 150.894 48.608C151.769 48.992 152.804 49.184 153.998 49.184C155.321 49.184 156.42 48.96 157.294 48.512C158.19 48.0427 158.766 47.4453 159.022 46.72ZM153.774 38.912C152.238 38.912 150.99 39.2533 150.03 39.936C149.07 40.5973 148.452 41.4187 148.174 42.4H158.99C158.884 41.3333 158.372 40.4907 157.454 39.872C156.558 39.232 155.332 38.912 153.774 38.912ZM174.997 49.28H173.493L179.317 36.096H183.861L176.213 52H172.277L164.789 36.096H169.365L174.997 49.28ZM200.708 46.72H204.74C204.57 47.808 204.111 48.7787 203.364 49.632C202.639 50.4853 201.647 51.1573 200.388 51.648C199.13 52.1387 197.594 52.384 195.78 52.384C193.754 52.384 191.962 52.064 190.404 51.424C188.847 50.7627 187.631 49.8133 186.756 48.576C185.882 47.3387 185.444 45.8453 185.444 44.096C185.444 42.3467 185.871 40.8533 186.724 39.616C187.578 38.3573 188.762 37.3973 190.276 36.736C191.812 36.0747 193.604 35.744 195.652 35.744C197.743 35.744 199.482 36.0747 200.868 36.736C202.255 37.3973 203.279 38.4 203.94 39.744C204.623 41.0667 204.911 42.7627 204.804 44.832H189.636C189.743 45.6427 190.042 46.3787 190.532 47.04C191.044 47.7013 191.727 48.224 192.58 48.608C193.455 48.992 194.49 49.184 195.684 49.184C197.007 49.184 198.106 48.96 198.98 48.512C199.876 48.0427 200.452 47.4453 200.708 46.72ZM195.46 38.912C193.924 38.912 192.676 39.2533 191.716 39.936C190.756 40.5973 190.138 41.4187 189.86 42.4H200.676C200.57 41.3333 200.058 40.4907 199.14 39.872C198.244 39.232 197.018 38.912 195.46 38.912ZM208.86 29.696H213.02V52H208.86V29.696ZM227.243 52.384C225.238 52.384 223.467 52.064 221.931 51.424C220.417 50.784 219.233 49.856 218.379 48.64C217.526 47.4027 217.099 45.888 217.099 44.096C217.099 42.304 217.526 40.7893 218.379 39.552C219.233 38.2933 220.417 37.344 221.931 36.704C223.467 36.064 225.238 35.744 227.243 35.744C229.249 35.744 230.998 36.064 232.491 36.704C234.006 37.344 235.19 38.2933 236.043 39.552C236.897 40.7893 237.323 42.304 237.323 44.096C237.323 45.888 236.897 47.4027 236.043 48.64C235.19 49.856 234.006 50.784 232.491 51.424C230.998 52.064 229.249 52.384 227.243 52.384ZM227.243 49.184C228.353 49.184 229.345 48.992 230.219 48.608C231.115 48.2027 231.819 47.6267 232.331 46.88C232.843 46.112 233.099 45.184 233.099 44.096C233.099 43.008 232.843 42.08 232.331 41.312C231.819 40.5227 231.126 39.9253 230.251 39.52C229.377 39.1147 228.374 38.912 227.243 38.912C226.134 38.912 225.131 39.1147 224.235 39.52C223.339 39.9253 222.625 40.512 222.091 41.28C221.579 42.048 221.323 42.9867 221.323 44.096C221.323 45.184 221.579 46.112 222.091 46.88C222.603 47.6267 223.307 48.2027 224.203 48.608C225.099 48.992 226.113 49.184 227.243 49.184ZM252.623 52.384C251.215 52.384 250.009 52.1387 249.007 51.648C248.025 51.136 247.225 50.4747 246.607 49.664C245.988 48.832 245.529 47.9253 245.231 46.944C244.932 45.9627 244.783 45.0027 244.783 44.064C244.783 42.8907 244.921 41.8027 245.199 40.8C245.497 39.7973 245.956 38.9227 246.575 38.176C247.193 37.408 247.993 36.8107 248.975 36.384C249.977 35.9573 251.193 35.744 252.623 35.744C254.223 35.744 255.663 36.096 256.943 36.8C258.223 37.504 259.236 38.4853 259.983 39.744C260.751 40.9813 261.135 42.4213 261.135 44.064C261.135 45.7493 260.751 47.2213 259.983 48.48C259.215 49.7173 258.191 50.6773 256.911 51.36C255.631 52.0427 254.201 52.384 252.623 52.384ZM251.279 49.152C252.409 49.152 253.391 48.9387 254.223 48.512C255.076 48.0853 255.727 47.4987 256.175 46.752C256.644 45.984 256.879 45.088 256.879 44.064C256.879 42.528 256.388 41.2907 255.407 40.352C254.447 39.4133 253.071 38.944 251.279 38.944C250.148 38.944 249.113 39.1467 248.175 39.552C247.257 39.9573 246.532 40.544 245.999 41.312C245.465 42.0587 245.199 42.976 245.199 44.064C245.199 45.088 245.444 45.984 245.935 46.752C246.425 47.4987 247.129 48.0853 248.047 48.512C248.964 48.9387 250.041 49.152 251.279 49.152ZM241.039 36.096H245.007L245.199 40.32V58.4H241.039V36.096ZM264.835 36.096H268.995V52H264.835V36.096ZM276.387 35.744C277.368 35.744 278.275 35.872 279.107 36.128C279.939 36.384 280.664 36.7787 281.283 37.312C281.902 37.8453 282.382 38.528 282.723 39.36C283.064 40.1707 283.235 41.1413 283.235 42.272V52H279.075V43.008C279.075 41.664 278.744 40.6827 278.083 40.064C277.443 39.424 276.387 39.104 274.915 39.104C273.806 39.104 272.803 39.3173 271.907 39.744C271.011 40.1707 270.286 40.7147 269.731 41.376C269.176 42.016 268.856 42.688 268.771 43.392L268.739 41.76C268.846 41.0133 269.091 40.288 269.475 39.584C269.859 38.88 270.371 38.24 271.011 37.664C271.672 37.0667 272.451 36.5973 273.347 36.256C274.243 35.9147 275.256 35.744 276.387 35.744ZM290.243 35.744C291.224 35.744 292.131 35.872 292.963 36.128C293.795 36.384 294.52 36.7787 295.139 37.312C295.758 37.8453 296.238 38.528 296.579 39.36C296.942 40.1707 297.123 41.1413 297.123 42.272V52H292.963V43.008C292.963 41.664 292.632 40.6827 291.971 40.064C291.31 39.424 290.243 39.104 288.771 39.104C287.662 39.104 286.659 39.3173 285.763 39.744C284.867 40.1707 284.142 40.7147 283.587 41.376C283.032 42.016 282.723 42.688 282.659 43.392L282.595 41.664C282.702 40.96 282.958 40.256 283.363 39.552C283.768 38.848 284.302 38.208 284.963 37.632C285.624 37.056 286.392 36.5973 287.267 36.256C288.163 35.9147 289.155 35.744 290.243 35.744ZM316.033 46.72H320.065C319.895 47.808 319.436 48.7787 318.689 49.632C317.964 50.4853 316.972 51.1573 315.713 51.648C314.455 52.1387 312.919 52.384 311.105 52.384C309.079 52.384 307.287 52.064 305.729 51.424C304.172 50.7627 302.956 49.8133 302.081 48.576C301.207 47.3387 300.769 45.8453 300.769 44.096C300.769 42.3467 301.196 40.8533 302.049 39.616C302.903 38.3573 304.087 37.3973 305.601 36.736C307.137 36.0747 308.929 35.744 310.977 35.744C313.068 35.744 314.807 36.0747 316.193 36.736C317.58 37.3973 318.604 38.4 319.265 39.744C319.948 41.0667 320.236 42.7627 320.129 44.832H304.961C305.068 45.6427 305.367 46.3787 305.857 47.04C306.369 47.7013 307.052 48.224 307.905 48.608C308.78 48.992 309.815 49.184 311.009 49.184C312.332 49.184 313.431 48.96 314.305 48.512C315.201 48.0427 315.777 47.4453 316.033 46.72ZM310.785 38.912C309.249 38.912 308.001 39.2533 307.041 39.936C306.081 40.5973 305.463 41.4187 305.185 42.4H316.001C315.895 41.3333 315.383 40.4907 314.465 39.872C313.569 39.232 312.343 38.912 310.785 38.912ZM323.865 36.096H328.025V52H323.865V36.096ZM335.417 35.744C336.398 35.744 337.305 35.872 338.137 36.128C338.969 36.384 339.694 36.7787 340.313 37.312C340.932 37.8453 341.412 38.528 341.753 39.36C342.094 40.1707 342.265 41.1413 342.265 42.272V52H338.105V43.008C338.105 41.664 337.774 40.6827 337.113 40.064C336.473 39.424 335.417 39.104 333.945 39.104C332.836 39.104 331.833 39.3173 330.937 39.744C330.041 40.1707 329.316 40.7147 328.761 41.376C328.206 42.016 327.886 42.688 327.801 43.392L327.769 41.76C327.876 41.0133 328.121 40.288 328.505 39.584C328.889 38.88 329.401 38.24 330.041 37.664C330.702 37.0667 331.481 36.5973 332.377 36.256C333.273 35.9147 334.286 35.744 335.417 35.744ZM345.572 36.096H357.924V39.328H345.572V36.096ZM349.668 31.744H353.828V52H349.668V31.744Z" fill="white"/>
</svg>
