<svg width="194" height="85" viewBox="0 0 194 85" fill="none" xmlns="http://www.w3.org/2000/svg">
<rect width="194" height="85" rx="42.5" fill="#614F89"/>
<path d="M59.84 54.832H56.816L74.672 26.944H81.056V58H74.672V35.44L76.208 35.872L61.952 58H54.8L40.544 35.968L42.08 35.536V58H35.696V26.944H42.08L59.84 54.832ZM100.382 58L86.6544 26.944H93.7104L105.47 54.976H103.262L114.974 26.944H121.934L108.35 58H100.382ZM133.089 47.92V42.832H147.297C148.993 42.832 150.337 42.384 151.329 41.488C152.321 40.56 152.817 39.28 152.817 37.648C152.817 35.952 152.321 34.656 151.329 33.76C150.337 32.864 148.993 32.416 147.297 32.416H133.857V58H127.473V26.944H146.721C148.449 26.944 150.065 27.152 151.569 27.568C153.105 27.984 154.433 28.624 155.553 29.488C156.705 30.352 157.601 31.456 158.241 32.8C158.881 34.144 159.201 35.76 159.201 37.648C159.201 39.504 158.881 41.088 158.241 42.4C157.601 43.712 156.705 44.784 155.553 45.616C154.433 46.416 153.105 47.008 151.569 47.392C150.065 47.744 148.449 47.92 146.721 47.92H133.089Z" fill="white"/>
</svg>
