<svg width="126" height="50" viewBox="0 0 126 50" fill="none" xmlns="http://www.w3.org/2000/svg">
<rect width="126" height="50" rx="25" fill="#2C3950"/>
<path d="M39.152 19.648C40.3147 19.648 41.2853 19.7867 42.064 20.064C42.8427 20.3413 43.4613 20.72 43.92 21.2C44.3893 21.6693 44.72 22.2133 44.912 22.832C45.1147 23.4507 45.216 24.1013 45.216 24.784C45.216 25.4667 45.104 26.1227 44.88 26.752C44.6667 27.3813 44.32 27.9413 43.84 28.432C43.3707 28.912 42.7467 29.296 41.968 29.584C41.2 29.8613 40.2613 30 39.152 30H33.232V19.648H39.152ZM35.36 28.176H39.104C39.872 28.176 40.5067 28.0853 41.008 27.904C41.52 27.712 41.9253 27.456 42.224 27.136C42.5227 26.816 42.736 26.4533 42.864 26.048C42.992 25.6427 43.056 25.2213 43.056 24.784C43.056 24.3467 42.992 23.9307 42.864 23.536C42.736 23.1413 42.5227 22.7893 42.224 22.48C41.9253 22.1707 41.52 21.9253 41.008 21.744C40.5067 21.5627 39.872 21.472 39.104 21.472H35.36V28.176ZM54.5905 27.36H56.6065C56.5212 27.904 56.2918 28.3893 55.9185 28.816C55.5558 29.2427 55.0598 29.5787 54.4305 29.824C53.8012 30.0693 53.0332 30.192 52.1265 30.192C51.1132 30.192 50.2172 30.032 49.4385 29.712C48.6598 29.3813 48.0518 28.9067 47.6145 28.288C47.1772 27.6693 46.9585 26.9227 46.9585 26.048C46.9585 25.1733 47.1718 24.4267 47.5985 23.808C48.0252 23.1787 48.6172 22.6987 49.3745 22.368C50.1425 22.0373 51.0385 21.872 52.0625 21.872C53.1078 21.872 53.9772 22.0373 54.6705 22.368C55.3638 22.6987 55.8758 23.2 56.2065 23.872C56.5478 24.5333 56.6918 25.3813 56.6385 26.416H49.0545C49.1078 26.8213 49.2572 27.1893 49.5025 27.52C49.7585 27.8507 50.0998 28.112 50.5265 28.304C50.9638 28.496 51.4812 28.592 52.0785 28.592C52.7398 28.592 53.2892 28.48 53.7265 28.256C54.1745 28.0213 54.4625 27.7227 54.5905 27.36ZM51.9665 23.456C51.1985 23.456 50.5745 23.6267 50.0945 23.968C49.6145 24.2987 49.3052 24.7093 49.1665 25.2H54.5745C54.5212 24.6667 54.2652 24.2453 53.8065 23.936C53.3585 23.616 52.7452 23.456 51.9665 23.456ZM58.1862 27.36H60.1062C60.2236 27.7227 60.4636 28.0213 60.8262 28.256C61.1996 28.48 61.6849 28.592 62.2822 28.592C62.6876 28.592 63.0022 28.5547 63.2262 28.48C63.4502 28.4053 63.6049 28.2987 63.6902 28.16C63.7756 28.0107 63.8182 27.8453 63.8182 27.664C63.8182 27.44 63.7489 27.2693 63.6102 27.152C63.4716 27.024 63.2582 26.9227 62.9702 26.848C62.6822 26.7733 62.3142 26.704 61.8662 26.64C61.4182 26.5653 60.9862 26.4747 60.5702 26.368C60.1542 26.2613 59.7862 26.1227 59.4662 25.952C59.1462 25.7707 58.8902 25.5467 58.6982 25.28C58.5169 25.0027 58.4262 24.6667 58.4262 24.272C58.4262 23.888 58.5169 23.5467 58.6982 23.248C58.8902 22.9493 59.1516 22.6987 59.4822 22.496C59.8236 22.2933 60.2182 22.1387 60.6662 22.032C61.1249 21.9253 61.6156 21.872 62.1382 21.872C62.9276 21.872 63.5836 21.9893 64.1062 22.224C64.6289 22.448 65.0182 22.768 65.2742 23.184C65.5409 23.5893 65.6742 24.0587 65.6742 24.592H63.8342C63.7489 24.1973 63.5782 23.9147 63.3222 23.744C63.0662 23.5627 62.6716 23.472 62.1382 23.472C61.6156 23.472 61.2209 23.552 60.9542 23.712C60.6876 23.872 60.5542 24.0907 60.5542 24.368C60.5542 24.592 60.6342 24.768 60.7942 24.896C60.9649 25.0133 61.2102 25.1093 61.5302 25.184C61.8609 25.2587 62.2716 25.3387 62.7622 25.424C63.1782 25.5093 63.5729 25.6053 63.9462 25.712C64.3302 25.8187 64.6716 25.9573 64.9702 26.128C65.2689 26.288 65.5036 26.5067 65.6742 26.784C65.8556 27.0507 65.9462 27.392 65.9462 27.808C65.9462 28.32 65.7969 28.752 65.4982 29.104C65.2102 29.456 64.7942 29.728 64.2502 29.92C63.7062 30.1013 63.0556 30.192 62.2982 30.192C61.6262 30.192 61.0449 30.1227 60.5542 29.984C60.0742 29.8347 59.6742 29.648 59.3542 29.424C59.0342 29.1893 58.7836 28.944 58.6022 28.688C58.4316 28.4213 58.3142 28.1707 58.2502 27.936C58.1862 27.7013 58.1649 27.5093 58.1862 27.36ZM70.2415 18.56V20.384H67.8255V18.56H70.2415ZM67.9855 22.048H70.0655V30H67.9855V22.048ZM76.4267 28.784C75.5627 28.784 74.8001 28.656 74.1387 28.4C73.4881 28.1333 72.9814 27.744 72.6187 27.232C72.2561 26.72 72.0747 26.1013 72.0747 25.376C72.0747 24.6613 72.2507 24.0427 72.6027 23.52C72.9547 22.9973 73.4561 22.592 74.1067 22.304C74.7681 22.016 75.5414 21.872 76.4267 21.872C76.6721 21.872 76.9067 21.888 77.1307 21.92C77.3654 21.952 77.5947 21.9947 77.8187 22.048L81.8347 22.064V23.632C81.2907 23.6427 80.7361 23.5787 80.1707 23.44C79.6161 23.2907 79.1254 23.1307 78.6987 22.96L78.6507 22.848C79.0134 23.0187 79.3547 23.232 79.6747 23.488C79.9947 23.7333 80.2507 24.0213 80.4427 24.352C80.6454 24.672 80.7467 25.0453 80.7467 25.472C80.7467 26.1653 80.5707 26.7627 80.2187 27.264C79.8667 27.7547 79.3654 28.1333 78.7147 28.4C78.0747 28.656 77.3121 28.784 76.4267 28.784ZM79.0987 33.28V32.896C79.0987 32.4053 78.9387 32.064 78.6187 31.872C78.3094 31.68 77.8827 31.584 77.3387 31.584H74.8587C74.3787 31.584 73.9734 31.5467 73.6427 31.472C73.3227 31.3973 73.0667 31.2907 72.8747 31.152C72.6827 31.0133 72.5441 30.848 72.4587 30.656C72.3734 30.4747 72.3307 30.2773 72.3307 30.064C72.3307 29.6373 72.4694 29.3173 72.7467 29.104C73.0241 28.88 73.3974 28.7307 73.8667 28.656C74.3361 28.5813 74.8534 28.5653 75.4187 28.608L76.4267 28.784C75.7547 28.8053 75.2534 28.864 74.9227 28.96C74.6027 29.0453 74.4427 29.2213 74.4427 29.488C74.4427 29.648 74.5067 29.776 74.6347 29.872C74.7627 29.9573 74.9441 30 75.1787 30H77.7867C78.5014 30 79.1094 30.0747 79.6107 30.224C80.1227 30.384 80.5121 30.6453 80.7787 31.008C81.0454 31.3813 81.1787 31.888 81.1787 32.528V33.28H79.0987ZM76.4267 27.28C76.8854 27.28 77.2854 27.2053 77.6267 27.056C77.9787 26.9067 78.2507 26.6933 78.4427 26.416C78.6347 26.128 78.7307 25.7867 78.7307 25.392C78.7307 24.9867 78.6347 24.64 78.4427 24.352C78.2507 24.064 77.9841 23.8453 77.6427 23.696C77.3014 23.536 76.8961 23.456 76.4267 23.456C75.9681 23.456 75.5627 23.536 75.2107 23.696C74.8587 23.8453 74.5867 24.064 74.3947 24.352C74.2027 24.64 74.1067 24.9867 74.1067 25.392C74.1067 25.7867 74.2027 26.128 74.3947 26.416C74.5867 26.6933 74.8534 26.9067 75.1947 27.056C75.5467 27.2053 75.9574 27.28 76.4267 27.28ZM83.5131 22.048H85.5931V30H83.5131V22.048ZM89.2891 21.872C89.7798 21.872 90.2331 21.936 90.6491 22.064C91.0651 22.192 91.4278 22.3893 91.7371 22.656C92.0465 22.9227 92.2865 23.264 92.4571 23.68C92.6278 24.0853 92.7131 24.5707 92.7131 25.136V30H90.6331V25.504C90.6331 24.832 90.4678 24.3413 90.1371 24.032C89.8171 23.712 89.2891 23.552 88.5531 23.552C87.9985 23.552 87.4971 23.6587 87.0491 23.872C86.6011 24.0853 86.2385 24.3573 85.9611 24.688C85.6838 25.008 85.5238 25.344 85.4811 25.696L85.4651 24.88C85.5185 24.5067 85.6411 24.144 85.8331 23.792C86.0251 23.44 86.2811 23.12 86.6011 22.832C86.9318 22.5333 87.3211 22.2987 87.7691 22.128C88.2171 21.9573 88.7238 21.872 89.2891 21.872Z" fill="white"/>
</svg>
