<svg width="383" height="101" viewBox="0 0 383 101" fill="none" xmlns="http://www.w3.org/2000/svg">
<rect width="383" height="101" rx="50.5" fill="#1C7947"/>
<path d="M46.608 34.944H52.992V66H46.608V34.944ZM61.4025 42.144H67.6425V66H61.4025V42.144ZM78.7305 41.616C80.2025 41.616 81.5625 41.808 82.8105 42.192C84.0585 42.576 85.1465 43.168 86.0745 43.968C87.0025 44.768 87.7225 45.792 88.2345 47.04C88.7465 48.256 89.0025 49.712 89.0025 51.408V66H82.7625V52.512C82.7625 50.496 82.2665 49.024 81.2745 48.096C80.3145 47.136 78.7305 46.656 76.5225 46.656C74.8585 46.656 73.3545 46.976 72.0105 47.616C70.6665 48.256 69.5785 49.072 68.7465 50.064C67.9145 51.024 67.4345 52.032 67.3065 53.088L67.2585 50.64C67.4185 49.52 67.7865 48.432 68.3625 47.376C68.9385 46.32 69.7065 45.36 70.6665 44.496C71.6585 43.6 72.8265 42.896 74.1705 42.384C75.5145 41.872 77.0345 41.616 78.7305 41.616ZM93.9637 42.144H112.492V46.992H93.9637V42.144ZM100.108 35.616H106.348V66H100.108V35.616ZM138.832 58.08H144.88C144.624 59.712 143.936 61.168 142.816 62.448C141.728 63.728 140.24 64.736 138.352 65.472C136.464 66.208 134.16 66.576 131.44 66.576C128.4 66.576 125.712 66.096 123.376 65.136C121.04 64.144 119.216 62.72 117.904 60.864C116.592 59.008 115.936 56.768 115.936 54.144C115.936 51.52 116.576 49.28 117.856 47.424C119.136 45.536 120.912 44.096 123.184 43.104C125.488 42.112 128.176 41.616 131.248 41.616C134.384 41.616 136.992 42.112 139.072 43.104C141.152 44.096 142.688 45.6 143.68 47.616C144.704 49.6 145.136 52.144 144.976 55.248H122.224C122.384 56.464 122.832 57.568 123.568 58.56C124.336 59.552 125.36 60.336 126.64 60.912C127.952 61.488 129.504 61.776 131.296 61.776C133.28 61.776 134.928 61.44 136.24 60.768C137.584 60.064 138.448 59.168 138.832 58.08ZM130.96 46.368C128.656 46.368 126.784 46.88 125.344 47.904C123.904 48.896 122.976 50.128 122.56 51.6H138.784C138.624 50 137.856 48.736 136.48 47.808C135.136 46.848 133.296 46.368 130.96 46.368ZM162.483 62.352C159.891 62.352 157.603 61.968 155.619 61.2C153.667 60.4 152.147 59.232 151.059 57.696C149.971 56.16 149.427 54.304 149.427 52.128C149.427 49.984 149.955 48.128 151.011 46.56C152.067 44.992 153.571 43.776 155.523 42.912C157.507 42.048 159.827 41.616 162.483 41.616C163.219 41.616 163.923 41.664 164.595 41.76C165.299 41.856 165.987 41.984 166.659 42.144L178.707 42.192V46.896C177.075 46.928 175.411 46.736 173.715 46.32C172.051 45.872 170.579 45.392 169.299 44.88L169.155 44.544C170.243 45.056 171.267 45.696 172.227 46.464C173.187 47.2 173.955 48.064 174.531 49.056C175.139 50.016 175.443 51.136 175.443 52.416C175.443 54.496 174.915 56.288 173.859 57.792C172.803 59.264 171.299 60.4 169.347 61.2C167.427 61.968 165.139 62.352 162.483 62.352ZM170.499 75.84V74.688C170.499 73.216 170.019 72.192 169.059 71.616C168.131 71.04 166.851 70.752 165.219 70.752H157.779C156.339 70.752 155.123 70.64 154.131 70.416C153.171 70.192 152.403 69.872 151.827 69.456C151.251 69.04 150.835 68.544 150.579 67.968C150.323 67.424 150.195 66.832 150.195 66.192C150.195 64.912 150.611 63.952 151.443 63.312C152.275 62.64 153.395 62.192 154.803 61.968C156.211 61.744 157.763 61.696 159.459 61.824L162.483 62.352C160.467 62.416 158.963 62.592 157.971 62.88C157.011 63.136 156.531 63.664 156.531 64.464C156.531 64.944 156.723 65.328 157.107 65.616C157.491 65.872 158.035 66 158.739 66H166.563C168.707 66 170.531 66.224 172.035 66.672C173.571 67.152 174.739 67.936 175.539 69.024C176.339 70.144 176.739 71.664 176.739 73.584V75.84H170.499ZM162.483 57.84C163.859 57.84 165.059 57.616 166.083 57.168C167.139 56.72 167.955 56.08 168.531 55.248C169.107 54.384 169.395 53.36 169.395 52.176C169.395 50.96 169.107 49.92 168.531 49.056C167.955 48.192 167.155 47.536 166.131 47.088C165.107 46.608 163.891 46.368 162.483 46.368C161.107 46.368 159.891 46.608 158.835 47.088C157.779 47.536 156.963 48.192 156.387 49.056C155.811 49.92 155.523 50.96 155.523 52.176C155.523 53.36 155.811 54.384 156.387 55.248C156.963 56.08 157.763 56.72 158.787 57.168C159.843 57.616 161.075 57.84 162.483 57.84ZM183.743 42.144H189.983V66H183.743V42.144ZM199.151 47.28C197.359 47.28 195.807 47.632 194.495 48.336C193.183 49.008 192.127 49.84 191.327 50.832C190.527 51.824 189.967 52.784 189.647 53.712L189.599 51.072C189.631 50.688 189.759 50.128 189.983 49.392C190.207 48.624 190.543 47.808 190.991 46.944C191.439 46.048 192.031 45.2 192.767 44.4C193.503 43.568 194.399 42.896 195.455 42.384C196.511 41.872 197.743 41.616 199.151 41.616V47.28ZM215.584 66.528C213.216 66.528 211.056 66.016 209.104 64.992C207.184 63.936 205.648 62.48 204.496 60.624C203.376 58.736 202.816 56.56 202.816 54.096C202.816 51.568 203.392 49.376 204.544 47.52C205.696 45.664 207.248 44.224 209.2 43.2C211.184 42.144 213.424 41.616 215.92 41.616C218.672 41.616 220.88 42.176 222.544 43.296C224.24 44.384 225.472 45.872 226.24 47.76C227.008 49.648 227.392 51.76 227.392 54.096C227.392 55.504 227.168 56.944 226.72 58.416C226.272 59.856 225.584 61.2 224.656 62.448C223.728 63.664 222.512 64.656 221.008 65.424C219.504 66.16 217.696 66.528 215.584 66.528ZM217.6 61.728C219.488 61.728 221.12 61.408 222.496 60.768C223.872 60.128 224.928 59.232 225.664 58.08C226.4 56.928 226.768 55.6 226.768 54.096C226.768 52.464 226.384 51.088 225.616 49.968C224.88 48.816 223.824 47.952 222.448 47.376C221.104 46.768 219.488 46.464 217.6 46.464C214.944 46.464 212.88 47.168 211.408 48.576C209.936 49.952 209.2 51.792 209.2 54.096C209.2 55.632 209.552 56.976 210.256 58.128C210.96 59.248 211.936 60.128 213.184 60.768C214.464 61.408 215.936 61.728 217.6 61.728ZM226.768 42.144H233.008V66H227.2C227.2 66 227.152 65.696 227.056 65.088C226.992 64.448 226.928 63.648 226.864 62.688C226.8 61.728 226.768 60.784 226.768 59.856V42.144ZM237.936 42.144H256.464V46.992H237.936V42.144ZM244.08 35.616H250.32V66H244.08V35.616ZM268.54 31.68V37.152H261.292V31.68H268.54ZM261.772 42.144H268.012V66H261.772V42.144ZM289.256 66.576C286.248 66.576 283.592 66.096 281.288 65.136C279.016 64.176 277.24 62.784 275.96 60.96C274.68 59.104 274.04 56.832 274.04 54.144C274.04 51.456 274.68 49.184 275.96 47.328C277.24 45.44 279.016 44.016 281.288 43.056C283.592 42.096 286.248 41.616 289.256 41.616C292.264 41.616 294.888 42.096 297.128 43.056C299.4 44.016 301.176 45.44 302.456 47.328C303.736 49.184 304.376 51.456 304.376 54.144C304.376 56.832 303.736 59.104 302.456 60.96C301.176 62.784 299.4 64.176 297.128 65.136C294.888 66.096 292.264 66.576 289.256 66.576ZM289.256 61.776C290.92 61.776 292.408 61.488 293.72 60.912C295.064 60.304 296.12 59.44 296.888 58.32C297.656 57.168 298.04 55.776 298.04 54.144C298.04 52.512 297.656 51.12 296.888 49.968C296.12 48.784 295.08 47.888 293.768 47.28C292.456 46.672 290.952 46.368 289.256 46.368C287.592 46.368 286.088 46.672 284.744 47.28C283.4 47.888 282.328 48.768 281.528 49.92C280.76 51.072 280.376 52.48 280.376 54.144C280.376 55.776 280.76 57.168 281.528 58.32C282.296 59.44 283.352 60.304 284.696 60.912C286.04 61.488 287.56 61.776 289.256 61.776ZM309.949 42.144H316.189V66H309.949V42.144ZM327.277 41.616C328.749 41.616 330.109 41.808 331.357 42.192C332.605 42.576 333.693 43.168 334.621 43.968C335.549 44.768 336.269 45.792 336.781 47.04C337.293 48.256 337.549 49.712 337.549 51.408V66H331.309V52.512C331.309 50.496 330.813 49.024 329.821 48.096C328.861 47.136 327.277 46.656 325.069 46.656C323.405 46.656 321.901 46.976 320.557 47.616C319.213 48.256 318.125 49.072 317.293 50.064C316.461 51.024 315.981 52.032 315.853 53.088L315.805 50.64C315.965 49.52 316.333 48.432 316.909 47.376C317.485 46.32 318.253 45.36 319.213 44.496C320.205 43.6 321.373 42.896 322.717 42.384C324.061 41.872 325.581 41.616 327.277 41.616Z" fill="white"/>
</svg>
