<svg width="238" height="83" viewBox="0 0 238 83" fill="none" xmlns="http://www.w3.org/2000/svg">
<rect width="238" height="83" rx="41.5" fill="#614F89"/>
<path d="M50.56 49.888H48.544L60.448 31.296H64.704V52H60.448V36.96L61.472 37.248L51.968 52H47.2L37.696 37.312L38.72 37.024V52H34.464V31.296H38.72L50.56 49.888ZM74.4842 29.12V32.768H69.6522V29.12H74.4842ZM69.9722 36.096H74.1322V52H69.9722V36.096ZM86.8547 49.568C85.1267 49.568 83.6014 49.312 82.2787 48.8C80.9774 48.2667 79.9641 47.488 79.2387 46.464C78.5134 45.44 78.1507 44.2027 78.1507 42.752C78.1507 41.3227 78.5027 40.0853 79.2067 39.04C79.9107 37.9947 80.9134 37.184 82.2147 36.608C83.5374 36.032 85.0841 35.744 86.8547 35.744C87.3454 35.744 87.8147 35.776 88.2627 35.84C88.7321 35.904 89.1907 35.9893 89.6387 36.096L97.6707 36.128V39.264C96.5827 39.2853 95.4734 39.1573 94.3428 38.88C93.2334 38.5813 92.2521 38.2613 91.3987 37.92L91.3027 37.696C92.0281 38.0373 92.7107 38.464 93.3507 38.976C93.9907 39.4667 94.5027 40.0427 94.8867 40.704C95.2921 41.344 95.4947 42.0907 95.4947 42.944C95.4947 44.3307 95.1427 45.5253 94.4387 46.528C93.7347 47.5093 92.7321 48.2667 91.4307 48.8C90.1507 49.312 88.6254 49.568 86.8547 49.568ZM92.1987 58.56V57.792C92.1987 56.8107 91.8787 56.128 91.2387 55.744C90.6201 55.36 89.7667 55.168 88.6787 55.168H83.7187C82.7587 55.168 81.9481 55.0933 81.2867 54.944C80.6467 54.7947 80.1347 54.5813 79.7507 54.304C79.3667 54.0267 79.0894 53.696 78.9187 53.312C78.7481 52.9493 78.6627 52.5547 78.6627 52.128C78.6627 51.2747 78.9401 50.6347 79.4947 50.208C80.0494 49.76 80.7961 49.4613 81.7347 49.312C82.6734 49.1627 83.7081 49.1307 84.8387 49.216L86.8547 49.568C85.5107 49.6107 84.5081 49.728 83.8467 49.92C83.2067 50.0907 82.8867 50.4427 82.8867 50.976C82.8867 51.296 83.0147 51.552 83.2707 51.744C83.5267 51.9147 83.8894 52 84.3587 52H89.5747C91.0041 52 92.2201 52.1493 93.2227 52.448C94.2467 52.768 95.0254 53.2907 95.5588 54.016C96.0921 54.7627 96.3587 55.776 96.3587 57.056V58.56H92.1987ZM86.8547 46.56C87.7721 46.56 88.5721 46.4107 89.2547 46.112C89.9587 45.8133 90.5027 45.3867 90.8867 44.832C91.2707 44.256 91.4627 43.5733 91.4627 42.784C91.4627 41.9733 91.2707 41.28 90.8867 40.704C90.5027 40.128 89.9694 39.6907 89.2867 39.392C88.6041 39.072 87.7934 38.912 86.8547 38.912C85.9374 38.912 85.1267 39.072 84.4227 39.392C83.7187 39.6907 83.1747 40.128 82.7907 40.704C82.4067 41.28 82.2147 41.9733 82.2147 42.784C82.2147 43.5733 82.4067 44.256 82.7907 44.832C83.1747 45.3867 83.7081 45.8133 84.3907 46.112C85.0947 46.4107 85.9161 46.56 86.8547 46.56ZM101.027 36.096H105.187V52H101.027V36.096ZM111.299 39.52C110.105 39.52 109.07 39.7547 108.195 40.224C107.321 40.672 106.617 41.2267 106.083 41.888C105.55 42.5493 105.177 43.1893 104.963 43.808L104.931 42.048C104.953 41.792 105.038 41.4187 105.187 40.928C105.337 40.416 105.561 39.872 105.859 39.296C106.158 38.6987 106.553 38.1333 107.043 37.6C107.534 37.0453 108.131 36.5973 108.835 36.256C109.539 35.9147 110.361 35.744 111.299 35.744V39.52ZM122.255 52.352C120.677 52.352 119.237 52.0107 117.935 51.328C116.655 50.624 115.631 49.6533 114.863 48.416C114.117 47.1573 113.743 45.7067 113.743 44.064C113.743 42.3787 114.127 40.9173 114.895 39.68C115.663 38.4427 116.698 37.4827 117.999 36.8C119.322 36.096 120.815 35.744 122.479 35.744C124.314 35.744 125.786 36.1173 126.895 36.864C128.026 37.5893 128.847 38.5813 129.359 39.84C129.871 41.0987 130.127 42.5067 130.127 44.064C130.127 45.0027 129.978 45.9627 129.679 46.944C129.381 47.904 128.922 48.8 128.303 49.632C127.685 50.4427 126.874 51.104 125.871 51.616C124.869 52.1067 123.663 52.352 122.255 52.352ZM123.599 49.152C124.858 49.152 125.946 48.9387 126.863 48.512C127.781 48.0853 128.485 47.488 128.975 46.72C129.466 45.952 129.711 45.0667 129.711 44.064C129.711 42.976 129.455 42.0587 128.943 41.312C128.453 40.544 127.749 39.968 126.831 39.584C125.935 39.1787 124.858 38.976 123.599 38.976C121.829 38.976 120.453 39.4453 119.471 40.384C118.49 41.3013 117.999 42.528 117.999 44.064C117.999 45.088 118.234 45.984 118.703 46.752C119.173 47.4987 119.823 48.0853 120.655 48.512C121.509 48.9387 122.49 49.152 123.599 49.152ZM129.711 36.096H133.871V52H129.999C129.999 52 129.967 51.7973 129.903 51.392C129.861 50.9653 129.818 50.432 129.775 49.792C129.733 49.152 129.711 48.5227 129.711 47.904V36.096ZM137.156 36.096H149.508V39.328H137.156V36.096ZM141.252 31.744H145.412V52H141.252V31.744ZM157.559 29.12V32.768H152.727V29.12H157.559ZM153.047 36.096H157.207V52H153.047V36.096ZM171.37 52.384C169.364 52.384 167.594 52.064 166.058 51.424C164.543 50.784 163.359 49.856 162.506 48.64C161.652 47.4027 161.226 45.888 161.226 44.096C161.226 42.304 161.652 40.7893 162.506 39.552C163.359 38.2933 164.543 37.344 166.058 36.704C167.594 36.064 169.364 35.744 171.37 35.744C173.375 35.744 175.124 36.064 176.618 36.704C178.132 37.344 179.316 38.2933 180.17 39.552C181.023 40.7893 181.45 42.304 181.45 44.096C181.45 45.888 181.023 47.4027 180.17 48.64C179.316 49.856 178.132 50.784 176.618 51.424C175.124 52.064 173.375 52.384 171.37 52.384ZM171.37 49.184C172.479 49.184 173.471 48.992 174.346 48.608C175.242 48.2027 175.946 47.6267 176.458 46.88C176.97 46.112 177.226 45.184 177.226 44.096C177.226 43.008 176.97 42.08 176.458 41.312C175.946 40.5227 175.252 39.9253 174.378 39.52C173.503 39.1147 172.5 38.912 171.37 38.912C170.26 38.912 169.258 39.1147 168.362 39.52C167.466 39.9253 166.751 40.512 166.218 41.28C165.706 42.048 165.45 42.9867 165.45 44.096C165.45 45.184 165.706 46.112 166.218 46.88C166.73 47.6267 167.434 48.2027 168.33 48.608C169.226 48.992 170.239 49.184 171.37 49.184ZM185.165 36.096H189.325V52H185.165V36.096ZM196.717 35.744C197.698 35.744 198.605 35.872 199.437 36.128C200.269 36.384 200.994 36.7787 201.613 37.312C202.232 37.8453 202.712 38.528 203.053 39.36C203.394 40.1707 203.565 41.1413 203.565 42.272V52H199.405V43.008C199.405 41.664 199.074 40.6827 198.413 40.064C197.773 39.424 196.717 39.104 195.245 39.104C194.136 39.104 193.133 39.3173 192.237 39.744C191.341 40.1707 190.616 40.7147 190.061 41.376C189.506 42.016 189.186 42.688 189.101 43.392L189.069 41.76C189.176 41.0133 189.421 40.288 189.805 39.584C190.189 38.88 190.701 38.24 191.341 37.664C192.002 37.0667 192.781 36.5973 193.677 36.256C194.573 35.9147 195.586 35.744 196.717 35.744Z" fill="white"/>
</svg>
