<svg width="214" height="58" viewBox="0 0 214 58" fill="none" xmlns="http://www.w3.org/2000/svg">
<rect width="214" height="58" rx="29" fill="#1C7947"/>
<path d="M34.304 21.472H37.496V37H34.304V21.472ZM41.7012 25.072H44.8212V37H41.7012V25.072ZM50.3653 24.808C51.1012 24.808 51.7812 24.904 52.4053 25.096C53.0293 25.288 53.5732 25.584 54.0372 25.984C54.5013 26.384 54.8613 26.896 55.1172 27.52C55.3733 28.128 55.5013 28.856 55.5013 29.704V37H52.3812V30.256C52.3812 29.248 52.1332 28.512 51.6373 28.048C51.1573 27.568 50.3653 27.328 49.2613 27.328C48.4293 27.328 47.6772 27.488 47.0052 27.808C46.3332 28.128 45.7892 28.536 45.3732 29.032C44.9572 29.512 44.7172 30.016 44.6532 30.544L44.6292 29.32C44.7092 28.76 44.8932 28.216 45.1812 27.688C45.4692 27.16 45.8532 26.68 46.3333 26.248C46.8292 25.8 47.4132 25.448 48.0852 25.192C48.7573 24.936 49.5173 24.808 50.3653 24.808ZM57.9819 25.072H67.2459V27.496H57.9819V25.072ZM61.0539 21.808H64.1739V37H61.0539V21.808ZM80.4161 33.04H83.4401C83.3121 33.856 82.9681 34.584 82.4081 35.224C81.8641 35.864 81.1201 36.368 80.1761 36.736C79.2321 37.104 78.0801 37.288 76.7201 37.288C75.2001 37.288 73.8561 37.048 72.6881 36.568C71.5201 36.072 70.6081 35.36 69.9521 34.432C69.2961 33.504 68.9681 32.384 68.9681 31.072C68.9681 29.76 69.2881 28.64 69.9281 27.712C70.5681 26.768 71.4561 26.048 72.5921 25.552C73.7441 25.056 75.0881 24.808 76.6241 24.808C78.1921 24.808 79.4961 25.056 80.5361 25.552C81.5761 26.048 82.3441 26.8 82.8401 27.808C83.3521 28.8 83.5681 30.072 83.4881 31.624H72.1121C72.1921 32.232 72.4161 32.784 72.7841 33.28C73.1681 33.776 73.6801 34.168 74.3201 34.456C74.9761 34.744 75.7521 34.888 76.6481 34.888C77.6401 34.888 78.4641 34.72 79.1201 34.384C79.7921 34.032 80.2241 33.584 80.4161 33.04ZM76.4801 27.184C75.3281 27.184 74.3921 27.44 73.6721 27.952C72.9521 28.448 72.4881 29.064 72.2801 29.8H80.3921C80.3121 29 79.9281 28.368 79.2401 27.904C78.5681 27.424 77.6481 27.184 76.4801 27.184ZM92.2417 35.176C90.9457 35.176 89.8017 34.984 88.8097 34.6C87.8337 34.2 87.0737 33.616 86.5297 32.848C85.9857 32.08 85.7137 31.152 85.7137 30.064C85.7137 28.992 85.9777 28.064 86.5057 27.28C87.0337 26.496 87.7857 25.888 88.7617 25.456C89.7537 25.024 90.9137 24.808 92.2417 24.808C92.6097 24.808 92.9617 24.832 93.2977 24.88C93.6497 24.928 93.9937 24.992 94.3297 25.072L100.354 25.096V27.448C99.5377 27.464 98.7057 27.368 97.8577 27.16C97.0257 26.936 96.2897 26.696 95.6497 26.44L95.5777 26.272C96.1217 26.528 96.6337 26.848 97.1137 27.232C97.5937 27.6 97.9777 28.032 98.2657 28.528C98.5697 29.008 98.7217 29.568 98.7217 30.208C98.7217 31.248 98.4577 32.144 97.9297 32.896C97.4017 33.632 96.6497 34.2 95.6737 34.6C94.7137 34.984 93.5697 35.176 92.2417 35.176ZM96.2497 41.92V41.344C96.2497 40.608 96.0097 40.096 95.5297 39.808C95.0657 39.52 94.4257 39.376 93.6097 39.376H89.8897C89.1697 39.376 88.5617 39.32 88.0657 39.208C87.5857 39.096 87.2017 38.936 86.9137 38.728C86.6257 38.52 86.4177 38.272 86.2897 37.984C86.1617 37.712 86.0977 37.416 86.0977 37.096C86.0977 36.456 86.3057 35.976 86.7217 35.656C87.1377 35.32 87.6977 35.096 88.4017 34.984C89.1057 34.872 89.8817 34.848 90.7297 34.912L92.2417 35.176C91.2337 35.208 90.4817 35.296 89.9857 35.44C89.5057 35.568 89.2657 35.832 89.2657 36.232C89.2657 36.472 89.3617 36.664 89.5537 36.808C89.7457 36.936 90.0177 37 90.3697 37H94.2817C95.3537 37 96.2657 37.112 97.0177 37.336C97.7857 37.576 98.3697 37.968 98.7697 38.512C99.1697 39.072 99.3697 39.832 99.3697 40.792V41.92H96.2497ZM92.2417 32.92C92.9297 32.92 93.5297 32.808 94.0417 32.584C94.5697 32.36 94.9777 32.04 95.2657 31.624C95.5537 31.192 95.6977 30.68 95.6977 30.088C95.6977 29.48 95.5537 28.96 95.2657 28.528C94.9777 28.096 94.5777 27.768 94.0657 27.544C93.5537 27.304 92.9457 27.184 92.2417 27.184C91.5537 27.184 90.9457 27.304 90.4177 27.544C89.8897 27.768 89.4817 28.096 89.1937 28.528C88.9057 28.96 88.7617 29.48 88.7617 30.088C88.7617 30.68 88.9057 31.192 89.1937 31.624C89.4817 32.04 89.8817 32.36 90.3937 32.584C90.9217 32.808 91.5377 32.92 92.2417 32.92ZM102.871 25.072H105.991V37H102.871V25.072ZM110.575 27.64C109.679 27.64 108.903 27.816 108.247 28.168C107.591 28.504 107.063 28.92 106.663 29.416C106.263 29.912 105.983 30.392 105.823 30.856L105.799 29.536C105.815 29.344 105.879 29.064 105.991 28.696C106.103 28.312 106.271 27.904 106.495 27.472C106.719 27.024 107.015 26.6 107.383 26.2C107.751 25.784 108.199 25.448 108.727 25.192C109.255 24.936 109.871 24.808 110.575 24.808V27.64ZM118.792 37.264C117.608 37.264 116.528 37.008 115.552 36.496C114.592 35.968 113.824 35.24 113.248 34.312C112.688 33.368 112.408 32.28 112.408 31.048C112.408 29.784 112.696 28.688 113.272 27.76C113.848 26.832 114.624 26.112 115.6 25.6C116.592 25.072 117.712 24.808 118.96 24.808C120.336 24.808 121.44 25.088 122.272 25.648C123.12 26.192 123.736 26.936 124.12 27.88C124.504 28.824 124.696 29.88 124.696 31.048C124.696 31.752 124.584 32.472 124.36 33.208C124.136 33.928 123.792 34.6 123.328 35.224C122.864 35.832 122.256 36.328 121.504 36.712C120.752 37.08 119.848 37.264 118.792 37.264ZM119.8 34.864C120.744 34.864 121.56 34.704 122.248 34.384C122.936 34.064 123.464 33.616 123.832 33.04C124.2 32.464 124.384 31.8 124.384 31.048C124.384 30.232 124.192 29.544 123.808 28.984C123.44 28.408 122.912 27.976 122.224 27.688C121.552 27.384 120.744 27.232 119.8 27.232C118.472 27.232 117.44 27.584 116.704 28.288C115.968 28.976 115.6 29.896 115.6 31.048C115.6 31.816 115.776 32.488 116.128 33.064C116.48 33.624 116.968 34.064 117.592 34.384C118.232 34.704 118.968 34.864 119.8 34.864ZM124.384 25.072H127.504V37H124.6C124.6 37 124.576 36.848 124.528 36.544C124.496 36.224 124.464 35.824 124.432 35.344C124.4 34.864 124.384 34.392 124.384 33.928V25.072ZM129.968 25.072H139.232V27.496H129.968V25.072ZM133.04 21.808H136.16V37H133.04V21.808ZM145.27 19.84V22.576H141.646V19.84H145.27ZM141.886 25.072H145.006V37H141.886V25.072ZM155.628 37.288C154.124 37.288 152.796 37.048 151.644 36.568C150.508 36.088 149.62 35.392 148.98 34.48C148.34 33.552 148.02 32.416 148.02 31.072C148.02 29.728 148.34 28.592 148.98 27.664C149.62 26.72 150.508 26.008 151.644 25.528C152.796 25.048 154.124 24.808 155.628 24.808C157.132 24.808 158.444 25.048 159.564 25.528C160.7 26.008 161.588 26.72 162.228 27.664C162.868 28.592 163.188 29.728 163.188 31.072C163.188 32.416 162.868 33.552 162.228 34.48C161.588 35.392 160.7 36.088 159.564 36.568C158.444 37.048 157.132 37.288 155.628 37.288ZM155.628 34.888C156.46 34.888 157.204 34.744 157.86 34.456C158.532 34.152 159.06 33.72 159.444 33.16C159.828 32.584 160.02 31.888 160.02 31.072C160.02 30.256 159.828 29.56 159.444 28.984C159.06 28.392 158.54 27.944 157.884 27.64C157.228 27.336 156.476 27.184 155.628 27.184C154.796 27.184 154.044 27.336 153.372 27.64C152.7 27.944 152.164 28.384 151.764 28.96C151.38 29.536 151.188 30.24 151.188 31.072C151.188 31.888 151.38 32.584 151.764 33.16C152.148 33.72 152.676 34.152 153.348 34.456C154.02 34.744 154.78 34.888 155.628 34.888ZM165.974 25.072H169.094V37H165.974V25.072ZM174.638 24.808C175.374 24.808 176.054 24.904 176.678 25.096C177.302 25.288 177.846 25.584 178.31 25.984C178.774 26.384 179.134 26.896 179.39 27.52C179.646 28.128 179.774 28.856 179.774 29.704V37H176.654V30.256C176.654 29.248 176.406 28.512 175.91 28.048C175.43 27.568 174.638 27.328 173.534 27.328C172.702 27.328 171.95 27.488 171.278 27.808C170.606 28.128 170.062 28.536 169.646 29.032C169.23 29.512 168.99 30.016 168.926 30.544L168.902 29.32C168.982 28.76 169.166 28.216 169.454 27.688C169.742 27.16 170.126 26.68 170.606 26.248C171.102 25.8 171.686 25.448 172.358 25.192C173.03 24.936 173.79 24.808 174.638 24.808Z" fill="white"/>
</svg>
