<svg width="119" height="50" viewBox="0 0 119 50" fill="none" xmlns="http://www.w3.org/2000/svg">
<rect width="119" height="50" rx="25" fill="#2C3950"/>
<path d="M42.736 25.424V19.648H44.864V25.648C44.864 26.3307 44.7627 26.928 44.56 27.44C44.368 27.952 44.0907 28.384 43.728 28.736C43.3653 29.088 42.9387 29.376 42.448 29.6C41.968 29.8133 41.44 29.968 40.864 30.064C40.2987 30.16 39.7013 30.208 39.072 30.208C38.4213 30.208 37.8027 30.16 37.216 30.064C36.6293 29.968 36.0907 29.8133 35.6 29.6C35.12 29.376 34.704 29.088 34.352 28.736C34 28.384 33.7227 27.952 33.52 27.44C33.328 26.928 33.232 26.3307 33.232 25.648V19.648H35.36V25.424C35.36 26.2347 35.52 26.8533 35.84 27.28C36.16 27.696 36.5973 27.984 37.152 28.144C37.7173 28.2933 38.3573 28.368 39.072 28.368C39.7653 28.368 40.384 28.2933 40.928 28.144C41.4827 27.984 41.92 27.696 42.24 27.28C42.5707 26.8533 42.736 26.2347 42.736 25.424ZM47.9497 19.648H50.0777V30H47.9497V19.648ZM57.3612 17.952L59.0412 18.56L54.1612 31.92L52.4972 31.312L57.3612 17.952ZM70.6804 25.424V19.648H72.8084V25.648C72.8084 26.3307 72.707 26.928 72.5044 27.44C72.3124 27.952 72.035 28.384 71.6724 28.736C71.3097 29.088 70.883 29.376 70.3924 29.6C69.9124 29.8133 69.3844 29.968 68.8084 30.064C68.243 30.16 67.6457 30.208 67.0164 30.208C66.3657 30.208 65.747 30.16 65.1604 30.064C64.5737 29.968 64.035 29.8133 63.5444 29.6C63.0644 29.376 62.6484 29.088 62.2964 28.736C61.9444 28.384 61.667 27.952 61.4644 27.44C61.2724 26.928 61.1764 26.3307 61.1764 25.648V19.648H63.3044V25.424C63.3044 26.2347 63.4644 26.8533 63.7844 27.28C64.1044 27.696 64.5417 27.984 65.0964 28.144C65.6617 28.2933 66.3017 28.368 67.0164 28.368C67.7097 28.368 68.3284 28.2933 68.8724 28.144C69.427 27.984 69.8644 27.696 70.1844 27.28C70.515 26.8533 70.6804 26.2347 70.6804 25.424ZM83.4647 19.648H86.0567L81.1607 25.36L81.0967 25.424L77.4647 30H74.8727L79.9127 24L79.9607 23.952L83.4647 19.648ZM77.6247 19.648L81.0807 23.984L81.1127 24.032L86.1047 30H83.4007L79.8167 25.36L79.7687 25.328L75.0327 19.648H77.6247Z" fill="white"/>
</svg>
