<svg width="263" height="67" viewBox="0 0 263 67" fill="none" xmlns="http://www.w3.org/2000/svg">
<rect width="263" height="67" rx="33.5" fill="#1C7947"/>
<path d="M35.072 23.296H39.328V44H35.072V23.296ZM44.935 28.096H49.095V44H44.935V28.096ZM56.487 27.744C57.4683 27.744 58.375 27.872 59.207 28.128C60.039 28.384 60.7643 28.7787 61.383 29.312C62.0017 29.8453 62.4817 30.528 62.823 31.36C63.1643 32.1707 63.335 33.1413 63.335 34.272V44H59.175V35.008C59.175 33.664 58.8443 32.6827 58.183 32.064C57.543 31.424 56.487 31.104 55.015 31.104C53.9057 31.104 52.903 31.3173 52.007 31.744C51.111 32.1707 50.3857 32.7147 49.831 33.376C49.2763 34.016 48.9563 34.688 48.871 35.392L48.839 33.76C48.9457 33.0133 49.191 32.288 49.575 31.584C49.959 30.88 50.471 30.24 51.111 29.664C51.7723 29.0667 52.551 28.5973 53.447 28.256C54.343 27.9147 55.3563 27.744 56.487 27.744ZM66.6425 28.096H78.9945V31.328H66.6425V28.096ZM70.7385 23.744H74.8985V44H70.7385V23.744ZM96.5547 38.72H100.587C100.416 39.808 99.9574 40.7787 99.2107 41.632C98.4854 42.4853 97.4934 43.1573 96.2347 43.648C94.9761 44.1387 93.4401 44.384 91.6267 44.384C89.6001 44.384 87.8081 44.064 86.2507 43.424C84.6934 42.7627 83.4774 41.8133 82.6027 40.576C81.7281 39.3387 81.2907 37.8453 81.2907 36.096C81.2907 34.3467 81.7174 32.8533 82.5707 31.616C83.4241 30.3573 84.6081 29.3973 86.1227 28.736C87.6587 28.0747 89.4507 27.744 91.4987 27.744C93.5894 27.744 95.3281 28.0747 96.7147 28.736C98.1014 29.3973 99.1254 30.4 99.7867 31.744C100.469 33.0667 100.757 34.7627 100.651 36.832H85.4827C85.5894 37.6427 85.8881 38.3787 86.3787 39.04C86.8907 39.7013 87.5734 40.224 88.4267 40.608C89.3014 40.992 90.3361 41.184 91.5307 41.184C92.8534 41.184 93.9521 40.96 94.8267 40.512C95.7227 40.0427 96.2987 39.4453 96.5547 38.72ZM91.3067 30.912C89.7707 30.912 88.5227 31.2533 87.5627 31.936C86.6027 32.5973 85.9841 33.4187 85.7067 34.4H96.5227C96.4161 33.3333 95.9041 32.4907 94.9867 31.872C94.0907 31.232 92.8641 30.912 91.3067 30.912ZM112.322 41.568C110.594 41.568 109.069 41.312 107.746 40.8C106.445 40.2667 105.432 39.488 104.706 38.464C103.981 37.44 103.618 36.2027 103.618 34.752C103.618 33.3227 103.97 32.0853 104.674 31.04C105.378 29.9947 106.381 29.184 107.682 28.608C109.005 28.032 110.552 27.744 112.322 27.744C112.813 27.744 113.282 27.776 113.73 27.84C114.2 27.904 114.658 27.9893 115.106 28.096L123.138 28.128V31.264C122.05 31.2853 120.941 31.1573 119.81 30.88C118.701 30.5813 117.72 30.2613 116.866 29.92L116.77 29.696C117.496 30.0373 118.178 30.464 118.818 30.976C119.458 31.4667 119.97 32.0427 120.354 32.704C120.76 33.344 120.962 34.0907 120.962 34.944C120.962 36.3307 120.61 37.5253 119.906 38.528C119.202 39.5093 118.2 40.2667 116.898 40.8C115.618 41.312 114.093 41.568 112.322 41.568ZM117.666 50.56V49.792C117.666 48.8107 117.346 48.128 116.706 47.744C116.088 47.36 115.234 47.168 114.146 47.168H109.186C108.226 47.168 107.416 47.0933 106.754 46.944C106.114 46.7947 105.602 46.5813 105.218 46.304C104.834 46.0267 104.557 45.696 104.386 45.312C104.216 44.9493 104.13 44.5547 104.13 44.128C104.13 43.2747 104.408 42.6347 104.962 42.208C105.517 41.76 106.264 41.4613 107.202 41.312C108.141 41.1627 109.176 41.1307 110.306 41.216L112.322 41.568C110.978 41.6107 109.976 41.728 109.314 41.92C108.674 42.0907 108.354 42.4427 108.354 42.976C108.354 43.296 108.482 43.552 108.738 43.744C108.994 43.9147 109.357 44 109.826 44H115.042C116.472 44 117.688 44.1493 118.69 44.448C119.714 44.768 120.493 45.2907 121.026 46.016C121.56 46.7627 121.826 47.776 121.826 49.056V50.56H117.666ZM112.322 38.56C113.24 38.56 114.04 38.4107 114.722 38.112C115.426 37.8133 115.97 37.3867 116.354 36.832C116.738 36.256 116.93 35.5733 116.93 34.784C116.93 33.9733 116.738 33.28 116.354 32.704C115.97 32.128 115.437 31.6907 114.754 31.392C114.072 31.072 113.261 30.912 112.322 30.912C111.405 30.912 110.594 31.072 109.89 31.392C109.186 31.6907 108.642 32.128 108.258 32.704C107.874 33.28 107.682 33.9733 107.682 34.784C107.682 35.5733 107.874 36.256 108.258 36.832C108.642 37.3867 109.176 37.8133 109.858 38.112C110.562 38.4107 111.384 38.56 112.322 38.56ZM126.495 28.096H130.655V44H126.495V28.096ZM136.767 31.52C135.572 31.52 134.538 31.7547 133.663 32.224C132.788 32.672 132.084 33.2267 131.551 33.888C131.018 34.5493 130.644 35.1893 130.431 35.808L130.399 34.048C130.42 33.792 130.506 33.4187 130.655 32.928C130.804 32.416 131.028 31.872 131.327 31.296C131.626 30.6987 132.02 30.1333 132.511 29.6C133.002 29.0453 133.599 28.5973 134.303 28.256C135.007 27.9147 135.828 27.744 136.767 27.744V31.52ZM147.723 44.352C146.144 44.352 144.704 44.0107 143.403 43.328C142.123 42.624 141.099 41.6533 140.331 40.416C139.584 39.1573 139.211 37.7067 139.211 36.064C139.211 34.3787 139.595 32.9173 140.363 31.68C141.131 30.4427 142.165 29.4827 143.467 28.8C144.789 28.096 146.283 27.744 147.947 27.744C149.781 27.744 151.253 28.1173 152.363 28.864C153.493 29.5893 154.315 30.5813 154.827 31.84C155.339 33.0987 155.595 34.5067 155.595 36.064C155.595 37.0027 155.445 37.9627 155.147 38.944C154.848 39.904 154.389 40.8 153.771 41.632C153.152 42.4427 152.341 43.104 151.339 43.616C150.336 44.1067 149.131 44.352 147.723 44.352ZM149.067 41.152C150.325 41.152 151.413 40.9387 152.331 40.512C153.248 40.0853 153.952 39.488 154.443 38.72C154.933 37.952 155.179 37.0667 155.179 36.064C155.179 34.976 154.923 34.0587 154.411 33.312C153.92 32.544 153.216 31.968 152.299 31.584C151.403 31.1787 150.325 30.976 149.067 30.976C147.296 30.976 145.92 31.4453 144.939 32.384C143.957 33.3013 143.467 34.528 143.467 36.064C143.467 37.088 143.701 37.984 144.171 38.752C144.64 39.4987 145.291 40.0853 146.123 40.512C146.976 40.9387 147.957 41.152 149.067 41.152ZM155.179 28.096H159.339V44H155.467C155.467 44 155.435 43.7973 155.371 43.392C155.328 42.9653 155.285 42.432 155.243 41.792C155.2 41.152 155.179 40.5227 155.179 39.904V28.096ZM162.624 28.096H174.976V31.328H162.624V28.096ZM166.72 23.744H170.88V44H166.72V23.744ZM183.027 21.12V24.768H178.195V21.12H183.027ZM178.515 28.096H182.675V44H178.515V28.096ZM196.837 44.384C194.832 44.384 193.061 44.064 191.525 43.424C190.011 42.784 188.827 41.856 187.973 40.64C187.12 39.4027 186.693 37.888 186.693 36.096C186.693 34.304 187.12 32.7893 187.973 31.552C188.827 30.2933 190.011 29.344 191.525 28.704C193.061 28.064 194.832 27.744 196.837 27.744C198.843 27.744 200.592 28.064 202.085 28.704C203.6 29.344 204.784 30.2933 205.637 31.552C206.491 32.7893 206.917 34.304 206.917 36.096C206.917 37.888 206.491 39.4027 205.637 40.64C204.784 41.856 203.6 42.784 202.085 43.424C200.592 44.064 198.843 44.384 196.837 44.384ZM196.837 41.184C197.947 41.184 198.939 40.992 199.813 40.608C200.709 40.2027 201.413 39.6267 201.925 38.88C202.437 38.112 202.693 37.184 202.693 36.096C202.693 35.008 202.437 34.08 201.925 33.312C201.413 32.5227 200.72 31.9253 199.845 31.52C198.971 31.1147 197.968 30.912 196.837 30.912C195.728 30.912 194.725 31.1147 193.829 31.52C192.933 31.9253 192.219 32.512 191.685 33.28C191.173 34.048 190.917 34.9867 190.917 36.096C190.917 37.184 191.173 38.112 191.685 38.88C192.197 39.6267 192.901 40.2027 193.797 40.608C194.693 40.992 195.707 41.184 196.837 41.184ZM210.632 28.096H214.792V44H210.632V28.096ZM222.184 27.744C223.166 27.744 224.072 27.872 224.904 28.128C225.736 28.384 226.462 28.7787 227.08 29.312C227.699 29.8453 228.179 30.528 228.52 31.36C228.862 32.1707 229.032 33.1413 229.032 34.272V44H224.872V35.008C224.872 33.664 224.542 32.6827 223.88 32.064C223.24 31.424 222.184 31.104 220.712 31.104C219.603 31.104 218.6 31.3173 217.704 31.744C216.808 32.1707 216.083 32.7147 215.528 33.376C214.974 34.016 214.654 34.688 214.568 35.392L214.536 33.76C214.643 33.0133 214.888 32.288 215.272 31.584C215.656 30.88 216.168 30.24 216.808 29.664C217.47 29.0667 218.248 28.5973 219.144 28.256C220.04 27.9147 221.054 27.744 222.184 27.744Z" fill="white"/>
</svg>
