<svg width="151" height="50" viewBox="0 0 151 50" fill="none" xmlns="http://www.w3.org/2000/svg">
<rect width="151" height="50" rx="25" fill="#614F89"/>
<path d="M41.28 28.944H40.272L46.224 19.648H48.352V30H46.224V22.48L46.736 22.624L41.984 30H39.6L34.848 22.656L35.36 22.512V30H33.232V19.648H35.36L41.28 28.944ZM53.2421 18.56V20.384H50.8261V18.56H53.2421ZM50.9861 22.048H53.0661V30H50.9861V22.048ZM59.4274 28.784C58.5634 28.784 57.8007 28.656 57.1394 28.4C56.4887 28.1333 55.982 27.744 55.6194 27.232C55.2567 26.72 55.0754 26.1013 55.0754 25.376C55.0754 24.6613 55.2514 24.0427 55.6034 23.52C55.9554 22.9973 56.4567 22.592 57.1074 22.304C57.7687 22.016 58.542 21.872 59.4274 21.872C59.6727 21.872 59.9074 21.888 60.1314 21.92C60.366 21.952 60.5954 21.9947 60.8194 22.048L64.8354 22.064V23.632C64.2914 23.6427 63.7367 23.5787 63.1714 23.44C62.6167 23.2907 62.126 23.1307 61.6994 22.96L61.6514 22.848C62.014 23.0187 62.3554 23.232 62.6754 23.488C62.9954 23.7333 63.2514 24.0213 63.4434 24.352C63.646 24.672 63.7474 25.0453 63.7474 25.472C63.7474 26.1653 63.5714 26.7627 63.2194 27.264C62.8674 27.7547 62.366 28.1333 61.7154 28.4C61.0754 28.656 60.3127 28.784 59.4274 28.784ZM62.0994 33.28V32.896C62.0994 32.4053 61.9394 32.064 61.6194 31.872C61.31 31.68 60.8834 31.584 60.3394 31.584H57.8594C57.3794 31.584 56.974 31.5467 56.6434 31.472C56.3234 31.3973 56.0674 31.2907 55.8754 31.152C55.6834 31.0133 55.5447 30.848 55.4594 30.656C55.374 30.4747 55.3314 30.2773 55.3314 30.064C55.3314 29.6373 55.47 29.3173 55.7474 29.104C56.0247 28.88 56.398 28.7307 56.8674 28.656C57.3367 28.5813 57.854 28.5653 58.4194 28.608L59.4274 28.784C58.7554 28.8053 58.254 28.864 57.9234 28.96C57.6034 29.0453 57.4434 29.2213 57.4434 29.488C57.4434 29.648 57.5074 29.776 57.6354 29.872C57.7634 29.9573 57.9447 30 58.1794 30H60.7874C61.502 30 62.11 30.0747 62.6114 30.224C63.1234 30.384 63.5127 30.6453 63.7794 31.008C64.046 31.3813 64.1794 31.888 64.1794 32.528V33.28H62.0994ZM59.4274 27.28C59.886 27.28 60.286 27.2053 60.6274 27.056C60.9794 26.9067 61.2514 26.6933 61.4434 26.416C61.6354 26.128 61.7314 25.7867 61.7314 25.392C61.7314 24.9867 61.6354 24.64 61.4434 24.352C61.2514 24.064 60.9847 23.8453 60.6434 23.696C60.302 23.536 59.8967 23.456 59.4274 23.456C58.9687 23.456 58.5634 23.536 58.2114 23.696C57.8594 23.8453 57.5874 24.064 57.3954 24.352C57.2034 24.64 57.1074 24.9867 57.1074 25.392C57.1074 25.7867 57.2034 26.128 57.3954 26.416C57.5874 26.6933 57.854 26.9067 58.1954 27.056C58.5474 27.2053 58.958 27.28 59.4274 27.28ZM66.5137 22.048H68.5937V30H66.5137V22.048ZM71.6497 23.76C71.0524 23.76 70.5351 23.8773 70.0977 24.112C69.6604 24.336 69.3084 24.6133 69.0417 24.944C68.7751 25.2747 68.5884 25.5947 68.4817 25.904L68.4657 25.024C68.4764 24.896 68.5191 24.7093 68.5937 24.464C68.6684 24.208 68.7804 23.936 68.9297 23.648C69.0791 23.3493 69.2764 23.0667 69.5217 22.8C69.7671 22.5227 70.0657 22.2987 70.4177 22.128C70.7697 21.9573 71.1804 21.872 71.6497 21.872V23.76ZM77.1276 30.176C76.3383 30.176 75.6183 30.0053 74.9676 29.664C74.3276 29.312 73.8156 28.8267 73.4316 28.208C73.0583 27.5787 72.8716 26.8533 72.8716 26.032C72.8716 25.1893 73.0636 24.4587 73.4476 23.84C73.8316 23.2213 74.349 22.7413 74.9996 22.4C75.661 22.048 76.4076 21.872 77.2396 21.872C78.157 21.872 78.893 22.0587 79.4476 22.432C80.013 22.7947 80.4236 23.2907 80.6796 23.92C80.9356 24.5493 81.0636 25.2533 81.0636 26.032C81.0636 26.5013 80.989 26.9813 80.8396 27.472C80.6903 27.952 80.461 28.4 80.1516 28.816C79.8423 29.2213 79.437 29.552 78.9356 29.808C78.4343 30.0533 77.8316 30.176 77.1276 30.176ZM77.7996 28.576C78.429 28.576 78.973 28.4693 79.4316 28.256C79.8903 28.0427 80.2423 27.744 80.4876 27.36C80.733 26.976 80.8556 26.5333 80.8556 26.032C80.8556 25.488 80.7276 25.0293 80.4716 24.656C80.2263 24.272 79.8743 23.984 79.4156 23.792C78.9676 23.5893 78.429 23.488 77.7996 23.488C76.9143 23.488 76.2263 23.7227 75.7356 24.192C75.245 24.6507 74.9996 25.264 74.9996 26.032C74.9996 26.544 75.117 26.992 75.3516 27.376C75.5863 27.7493 75.9116 28.0427 76.3276 28.256C76.7543 28.4693 77.245 28.576 77.7996 28.576ZM80.8556 22.048H82.9356V30H80.9996C80.9996 30 80.9836 29.8987 80.9516 29.696C80.9303 29.4827 80.909 29.216 80.8876 28.896C80.8663 28.576 80.8556 28.2613 80.8556 27.952V22.048ZM84.5781 22.048H90.7541V23.664H84.5781V22.048ZM86.6261 19.872H88.7061V30H86.6261V19.872ZM94.7796 18.56V20.384H92.3636V18.56H94.7796ZM92.5236 22.048H94.6036V30H92.5236V22.048ZM101.685 30.192C100.682 30.192 99.7969 30.032 99.0289 29.712C98.2715 29.392 97.6795 28.928 97.2529 28.32C96.8262 27.7013 96.6129 26.944 96.6129 26.048C96.6129 25.152 96.8262 24.3947 97.2529 23.776C97.6795 23.1467 98.2715 22.672 99.0289 22.352C99.7969 22.032 100.682 21.872 101.685 21.872C102.688 21.872 103.562 22.032 104.309 22.352C105.066 22.672 105.658 23.1467 106.085 23.776C106.512 24.3947 106.725 25.152 106.725 26.048C106.725 26.944 106.512 27.7013 106.085 28.32C105.658 28.928 105.066 29.392 104.309 29.712C103.562 30.032 102.688 30.192 101.685 30.192ZM101.685 28.592C102.24 28.592 102.736 28.496 103.173 28.304C103.621 28.1013 103.973 27.8133 104.229 27.44C104.485 27.056 104.613 26.592 104.613 26.048C104.613 25.504 104.485 25.04 104.229 24.656C103.973 24.2613 103.626 23.9627 103.189 23.76C102.752 23.5573 102.25 23.456 101.685 23.456C101.13 23.456 100.629 23.5573 100.181 23.76C99.7329 23.9627 99.3755 24.256 99.1089 24.64C98.8529 25.024 98.7249 25.4933 98.7249 26.048C98.7249 26.592 98.8529 27.056 99.1089 27.44C99.3649 27.8133 99.7169 28.1013 100.165 28.304C100.613 28.496 101.12 28.592 101.685 28.592ZM108.582 22.048H110.662V30H108.582V22.048ZM114.358 21.872C114.849 21.872 115.302 21.936 115.718 22.064C116.134 22.192 116.497 22.3893 116.806 22.656C117.116 22.9227 117.356 23.264 117.526 23.68C117.697 24.0853 117.782 24.5707 117.782 25.136V30H115.702V25.504C115.702 24.832 115.537 24.3413 115.206 24.032C114.886 23.712 114.358 23.552 113.622 23.552C113.068 23.552 112.566 23.6587 112.118 23.872C111.67 24.0853 111.308 24.3573 111.03 24.688C110.753 25.008 110.593 25.344 110.55 25.696L110.534 24.88C110.588 24.5067 110.71 24.144 110.902 23.792C111.094 23.44 111.35 23.12 111.67 22.832C112.001 22.5333 112.39 22.2987 112.838 22.128C113.286 21.9573 113.793 21.872 114.358 21.872Z" fill="white"/>
</svg>
