<svg width="263" height="83" viewBox="0 0 263 83" fill="none" xmlns="http://www.w3.org/2000/svg">
<rect width="263" height="83" rx="41.5" fill="#1C7947"/>
<path d="M35.072 31.296H39.328V52H35.072V31.296ZM44.935 36.096H49.095V52H44.935V36.096ZM56.487 35.744C57.4683 35.744 58.375 35.872 59.207 36.128C60.039 36.384 60.7643 36.7787 61.383 37.312C62.0017 37.8453 62.4817 38.528 62.823 39.36C63.1643 40.1707 63.335 41.1413 63.335 42.272V52H59.175V43.008C59.175 41.664 58.8443 40.6827 58.183 40.064C57.543 39.424 56.487 39.104 55.015 39.104C53.9057 39.104 52.903 39.3173 52.007 39.744C51.111 40.1707 50.3857 40.7147 49.831 41.376C49.2763 42.016 48.9563 42.688 48.871 43.392L48.839 41.76C48.9457 41.0133 49.191 40.288 49.575 39.584C49.959 38.88 50.471 38.24 51.111 37.664C51.7723 37.0667 52.551 36.5973 53.447 36.256C54.343 35.9147 55.3563 35.744 56.487 35.744ZM66.6425 36.096H78.9945V39.328H66.6425V36.096ZM70.7385 31.744H74.8985V52H70.7385V31.744ZM96.5547 46.72H100.587C100.416 47.808 99.9574 48.7787 99.2107 49.632C98.4854 50.4853 97.4934 51.1573 96.2347 51.648C94.9761 52.1387 93.4401 52.384 91.6267 52.384C89.6001 52.384 87.8081 52.064 86.2507 51.424C84.6934 50.7627 83.4774 49.8133 82.6027 48.576C81.7281 47.3387 81.2907 45.8453 81.2907 44.096C81.2907 42.3467 81.7174 40.8533 82.5707 39.616C83.4241 38.3573 84.6081 37.3973 86.1227 36.736C87.6587 36.0747 89.4507 35.744 91.4987 35.744C93.5894 35.744 95.3281 36.0747 96.7147 36.736C98.1014 37.3973 99.1254 38.4 99.7867 39.744C100.469 41.0667 100.757 42.7627 100.651 44.832H85.4827C85.5894 45.6427 85.8881 46.3787 86.3787 47.04C86.8907 47.7013 87.5734 48.224 88.4267 48.608C89.3014 48.992 90.3361 49.184 91.5307 49.184C92.8534 49.184 93.9521 48.96 94.8267 48.512C95.7227 48.0427 96.2987 47.4453 96.5547 46.72ZM91.3067 38.912C89.7707 38.912 88.5227 39.2533 87.5627 39.936C86.6027 40.5973 85.9841 41.4187 85.7067 42.4H96.5227C96.4161 41.3333 95.9041 40.4907 94.9867 39.872C94.0907 39.232 92.8641 38.912 91.3067 38.912ZM112.322 49.568C110.594 49.568 109.069 49.312 107.746 48.8C106.445 48.2667 105.432 47.488 104.706 46.464C103.981 45.44 103.618 44.2027 103.618 42.752C103.618 41.3227 103.97 40.0853 104.674 39.04C105.378 37.9947 106.381 37.184 107.682 36.608C109.005 36.032 110.552 35.744 112.322 35.744C112.813 35.744 113.282 35.776 113.73 35.84C114.2 35.904 114.658 35.9893 115.106 36.096L123.138 36.128V39.264C122.05 39.2853 120.941 39.1573 119.81 38.88C118.701 38.5813 117.72 38.2613 116.866 37.92L116.77 37.696C117.496 38.0373 118.178 38.464 118.818 38.976C119.458 39.4667 119.97 40.0427 120.354 40.704C120.76 41.344 120.962 42.0907 120.962 42.944C120.962 44.3307 120.61 45.5253 119.906 46.528C119.202 47.5093 118.2 48.2667 116.898 48.8C115.618 49.312 114.093 49.568 112.322 49.568ZM117.666 58.56V57.792C117.666 56.8107 117.346 56.128 116.706 55.744C116.088 55.36 115.234 55.168 114.146 55.168H109.186C108.226 55.168 107.416 55.0933 106.754 54.944C106.114 54.7947 105.602 54.5813 105.218 54.304C104.834 54.0267 104.557 53.696 104.386 53.312C104.216 52.9493 104.13 52.5547 104.13 52.128C104.13 51.2747 104.408 50.6347 104.962 50.208C105.517 49.76 106.264 49.4613 107.202 49.312C108.141 49.1627 109.176 49.1307 110.306 49.216L112.322 49.568C110.978 49.6107 109.976 49.728 109.314 49.92C108.674 50.0907 108.354 50.4427 108.354 50.976C108.354 51.296 108.482 51.552 108.738 51.744C108.994 51.9147 109.357 52 109.826 52H115.042C116.472 52 117.688 52.1493 118.69 52.448C119.714 52.768 120.493 53.2907 121.026 54.016C121.56 54.7627 121.826 55.776 121.826 57.056V58.56H117.666ZM112.322 46.56C113.24 46.56 114.04 46.4107 114.722 46.112C115.426 45.8133 115.97 45.3867 116.354 44.832C116.738 44.256 116.93 43.5733 116.93 42.784C116.93 41.9733 116.738 41.28 116.354 40.704C115.97 40.128 115.437 39.6907 114.754 39.392C114.072 39.072 113.261 38.912 112.322 38.912C111.405 38.912 110.594 39.072 109.89 39.392C109.186 39.6907 108.642 40.128 108.258 40.704C107.874 41.28 107.682 41.9733 107.682 42.784C107.682 43.5733 107.874 44.256 108.258 44.832C108.642 45.3867 109.176 45.8133 109.858 46.112C110.562 46.4107 111.384 46.56 112.322 46.56ZM126.495 36.096H130.655V52H126.495V36.096ZM136.767 39.52C135.572 39.52 134.538 39.7547 133.663 40.224C132.788 40.672 132.084 41.2267 131.551 41.888C131.018 42.5493 130.644 43.1893 130.431 43.808L130.399 42.048C130.42 41.792 130.506 41.4187 130.655 40.928C130.804 40.416 131.028 39.872 131.327 39.296C131.626 38.6987 132.02 38.1333 132.511 37.6C133.002 37.0453 133.599 36.5973 134.303 36.256C135.007 35.9147 135.828 35.744 136.767 35.744V39.52ZM147.723 52.352C146.144 52.352 144.704 52.0107 143.403 51.328C142.123 50.624 141.099 49.6533 140.331 48.416C139.584 47.1573 139.211 45.7067 139.211 44.064C139.211 42.3787 139.595 40.9173 140.363 39.68C141.131 38.4427 142.165 37.4827 143.467 36.8C144.789 36.096 146.283 35.744 147.947 35.744C149.781 35.744 151.253 36.1173 152.363 36.864C153.493 37.5893 154.315 38.5813 154.827 39.84C155.339 41.0987 155.595 42.5067 155.595 44.064C155.595 45.0027 155.445 45.9627 155.147 46.944C154.848 47.904 154.389 48.8 153.771 49.632C153.152 50.4427 152.341 51.104 151.339 51.616C150.336 52.1067 149.131 52.352 147.723 52.352ZM149.067 49.152C150.325 49.152 151.413 48.9387 152.331 48.512C153.248 48.0853 153.952 47.488 154.443 46.72C154.933 45.952 155.179 45.0667 155.179 44.064C155.179 42.976 154.923 42.0587 154.411 41.312C153.92 40.544 153.216 39.968 152.299 39.584C151.403 39.1787 150.325 38.976 149.067 38.976C147.296 38.976 145.92 39.4453 144.939 40.384C143.957 41.3013 143.467 42.528 143.467 44.064C143.467 45.088 143.701 45.984 144.171 46.752C144.64 47.4987 145.291 48.0853 146.123 48.512C146.976 48.9387 147.957 49.152 149.067 49.152ZM155.179 36.096H159.339V52H155.467C155.467 52 155.435 51.7973 155.371 51.392C155.328 50.9653 155.285 50.432 155.243 49.792C155.2 49.152 155.179 48.5227 155.179 47.904V36.096ZM162.624 36.096H174.976V39.328H162.624V36.096ZM166.72 31.744H170.88V52H166.72V31.744ZM183.027 29.12V32.768H178.195V29.12H183.027ZM178.515 36.096H182.675V52H178.515V36.096ZM196.837 52.384C194.832 52.384 193.061 52.064 191.525 51.424C190.011 50.784 188.827 49.856 187.973 48.64C187.12 47.4027 186.693 45.888 186.693 44.096C186.693 42.304 187.12 40.7893 187.973 39.552C188.827 38.2933 190.011 37.344 191.525 36.704C193.061 36.064 194.832 35.744 196.837 35.744C198.843 35.744 200.592 36.064 202.085 36.704C203.6 37.344 204.784 38.2933 205.637 39.552C206.491 40.7893 206.917 42.304 206.917 44.096C206.917 45.888 206.491 47.4027 205.637 48.64C204.784 49.856 203.6 50.784 202.085 51.424C200.592 52.064 198.843 52.384 196.837 52.384ZM196.837 49.184C197.947 49.184 198.939 48.992 199.813 48.608C200.709 48.2027 201.413 47.6267 201.925 46.88C202.437 46.112 202.693 45.184 202.693 44.096C202.693 43.008 202.437 42.08 201.925 41.312C201.413 40.5227 200.72 39.9253 199.845 39.52C198.971 39.1147 197.968 38.912 196.837 38.912C195.728 38.912 194.725 39.1147 193.829 39.52C192.933 39.9253 192.219 40.512 191.685 41.28C191.173 42.048 190.917 42.9867 190.917 44.096C190.917 45.184 191.173 46.112 191.685 46.88C192.197 47.6267 192.901 48.2027 193.797 48.608C194.693 48.992 195.707 49.184 196.837 49.184ZM210.632 36.096H214.792V52H210.632V36.096ZM222.184 35.744C223.166 35.744 224.072 35.872 224.904 36.128C225.736 36.384 226.462 36.7787 227.08 37.312C227.699 37.8453 228.179 38.528 228.52 39.36C228.862 40.1707 229.032 41.1413 229.032 42.272V52H224.872V43.008C224.872 41.664 224.542 40.6827 223.88 40.064C223.24 39.424 222.184 39.104 220.712 39.104C219.603 39.104 218.6 39.3173 217.704 39.744C216.808 40.1707 216.083 40.7147 215.528 41.376C214.974 42.016 214.654 42.688 214.568 43.392L214.536 41.76C214.643 41.0133 214.888 40.288 215.272 39.584C215.656 38.88 216.168 38.24 216.808 37.664C217.47 37.0667 218.248 36.5973 219.144 36.256C220.04 35.9147 221.054 35.744 222.184 35.744Z" fill="white"/>
</svg>
