<svg width="111" height="50" viewBox="0 0 111 50" fill="none" xmlns="http://www.w3.org/2000/svg">
<rect width="111" height="50" rx="25" fill="#F7BA2D"/>
<path d="M32.544 26.512H34.704C34.7467 26.8747 34.912 27.2053 35.2 27.504C35.4987 27.792 35.888 28.0213 36.368 28.192C36.848 28.352 37.3867 28.432 37.984 28.432C38.528 28.432 38.976 28.3733 39.328 28.256C39.68 28.1387 39.9413 27.9733 40.112 27.76C40.2827 27.5467 40.368 27.2907 40.368 26.992C40.368 26.704 40.2613 26.4853 40.048 26.336C39.8347 26.176 39.4987 26.048 39.04 25.952C38.5813 25.8453 37.9787 25.7387 37.232 25.632C36.6453 25.5467 36.0907 25.4293 35.568 25.28C35.0453 25.12 34.5813 24.9173 34.176 24.672C33.7813 24.4267 33.4667 24.128 33.232 23.776C33.008 23.4133 32.896 22.9867 32.896 22.496C32.896 21.888 33.0667 21.3547 33.408 20.896C33.76 20.4373 34.2773 20.08 34.96 19.824C35.6427 19.568 36.48 19.44 37.472 19.44C38.9653 19.44 40.112 19.76 40.912 20.4C41.7227 21.0293 42.1173 21.8987 42.096 23.008H40.016C39.9733 22.3787 39.7067 21.9253 39.216 21.648C38.736 21.3707 38.128 21.232 37.392 21.232C36.7093 21.232 36.144 21.3333 35.696 21.536C35.2587 21.7387 35.04 22.0853 35.04 22.576C35.04 22.768 35.0933 22.9387 35.2 23.088C35.3067 23.2267 35.488 23.3493 35.744 23.456C36 23.5627 36.3467 23.664 36.784 23.76C37.2213 23.856 37.7653 23.952 38.416 24.048C39.024 24.1333 39.5733 24.2507 40.064 24.4C40.5653 24.5387 40.992 24.7253 41.344 24.96C41.7067 25.184 41.984 25.472 42.176 25.824C42.368 26.176 42.464 26.608 42.464 27.12C42.464 27.7493 42.2987 28.2987 41.968 28.768C41.648 29.2267 41.1467 29.584 40.464 29.84C39.792 30.096 38.9173 30.224 37.84 30.224C37.072 30.224 36.3947 30.144 35.808 29.984C35.2213 29.8133 34.7147 29.5893 34.288 29.312C33.8613 29.0347 33.5147 28.7307 33.248 28.4C32.9813 28.0693 32.7893 27.7387 32.672 27.408C32.5653 27.0773 32.5227 26.7787 32.544 26.512ZM48.2614 30.176C47.472 30.176 46.752 30.0053 46.1014 29.664C45.4614 29.312 44.9494 28.8267 44.5654 28.208C44.192 27.5787 44.0054 26.8533 44.0054 26.032C44.0054 25.1893 44.1974 24.4587 44.5814 23.84C44.9654 23.2213 45.4827 22.7413 46.1334 22.4C46.7947 22.048 47.5414 21.872 48.3734 21.872C49.2907 21.872 50.0267 22.0587 50.5814 22.432C51.1467 22.7947 51.5574 23.2907 51.8134 23.92C52.0694 24.5493 52.1974 25.2533 52.1974 26.032C52.1974 26.5013 52.1227 26.9813 51.9734 27.472C51.824 27.952 51.5947 28.4 51.2854 28.816C50.976 29.2213 50.5707 29.552 50.0694 29.808C49.568 30.0533 48.9654 30.176 48.2614 30.176ZM48.9334 28.576C49.5627 28.576 50.1067 28.4693 50.5654 28.256C51.024 28.0427 51.376 27.744 51.6214 27.36C51.8667 26.976 51.9894 26.5333 51.9894 26.032C51.9894 25.488 51.8614 25.0293 51.6054 24.656C51.36 24.272 51.008 23.984 50.5494 23.792C50.1014 23.5893 49.5627 23.488 48.9334 23.488C48.048 23.488 47.36 23.7227 46.8694 24.192C46.3787 24.6507 46.1334 25.264 46.1334 26.032C46.1334 26.544 46.2507 26.992 46.4854 27.376C46.72 27.7493 47.0454 28.0427 47.4614 28.256C47.888 28.4693 48.3787 28.576 48.9334 28.576ZM51.9894 22.048H54.0694V30H52.1334C52.1334 30 52.1174 29.8987 52.0854 29.696C52.064 29.4827 52.0427 29.216 52.0214 28.896C52 28.576 51.9894 28.2613 51.9894 27.952V22.048ZM60.1439 30.176C59.3545 30.176 58.6345 30.0053 57.9839 29.664C57.3439 29.312 56.8319 28.8267 56.4479 28.208C56.0745 27.5787 55.8879 26.8533 55.8879 26.032C55.8879 25.1893 56.0799 24.4587 56.4639 23.84C56.8479 23.2213 57.3652 22.7413 58.0159 22.4C58.6772 22.048 59.4239 21.872 60.2559 21.872C61.1732 21.872 61.9092 22.0587 62.4639 22.432C63.0292 22.7947 63.4399 23.2907 63.6959 23.92C63.9519 24.5493 64.0799 25.2533 64.0799 26.032C64.0799 26.5013 64.0052 26.9813 63.8559 27.472C63.7065 27.952 63.4772 28.4 63.1679 28.816C62.8585 29.2213 62.4532 29.552 61.9519 29.808C61.4505 30.0533 60.8479 30.176 60.1439 30.176ZM60.8159 28.576C61.4452 28.576 61.9892 28.4693 62.4479 28.256C62.9065 28.0427 63.2585 27.744 63.5039 27.36C63.7492 26.976 63.8719 26.5333 63.8719 26.032C63.8719 25.488 63.7439 25.0293 63.4879 24.656C63.2425 24.272 62.8905 23.984 62.4319 23.792C61.9839 23.5893 61.4452 23.488 60.8159 23.488C59.9305 23.488 59.2425 23.7227 58.7519 24.192C58.2612 24.6507 58.0159 25.264 58.0159 26.032C58.0159 26.544 58.1332 26.992 58.3679 27.376C58.6025 27.7493 58.9279 28.0427 59.3439 28.256C59.7705 28.4693 60.2612 28.576 60.8159 28.576ZM63.8719 22.048H65.9519V30H64.0159C64.0159 30 63.9999 29.8987 63.9679 29.696C63.9465 29.4827 63.9252 29.216 63.9039 28.896C63.8825 28.576 63.8719 28.2613 63.8719 27.952V22.048ZM67.7384 26.512H69.8984C69.941 26.8747 70.1064 27.2053 70.3944 27.504C70.693 27.792 71.0824 28.0213 71.5624 28.192C72.0424 28.352 72.581 28.432 73.1784 28.432C73.7224 28.432 74.1704 28.3733 74.5224 28.256C74.8744 28.1387 75.1357 27.9733 75.3064 27.76C75.477 27.5467 75.5624 27.2907 75.5624 26.992C75.5624 26.704 75.4557 26.4853 75.2424 26.336C75.029 26.176 74.693 26.048 74.2344 25.952C73.7757 25.8453 73.173 25.7387 72.4264 25.632C71.8397 25.5467 71.285 25.4293 70.7624 25.28C70.2397 25.12 69.7757 24.9173 69.3704 24.672C68.9757 24.4267 68.661 24.128 68.4264 23.776C68.2024 23.4133 68.0904 22.9867 68.0904 22.496C68.0904 21.888 68.261 21.3547 68.6024 20.896C68.9544 20.4373 69.4717 20.08 70.1544 19.824C70.837 19.568 71.6744 19.44 72.6664 19.44C74.1597 19.44 75.3064 19.76 76.1064 20.4C76.917 21.0293 77.3117 21.8987 77.2904 23.008H75.2104C75.1677 22.3787 74.901 21.9253 74.4104 21.648C73.9304 21.3707 73.3224 21.232 72.5864 21.232C71.9037 21.232 71.3384 21.3333 70.8904 21.536C70.453 21.7387 70.2344 22.0853 70.2344 22.576C70.2344 22.768 70.2877 22.9387 70.3944 23.088C70.501 23.2267 70.6824 23.3493 70.9384 23.456C71.1944 23.5627 71.541 23.664 71.9784 23.76C72.4157 23.856 72.9597 23.952 73.6104 24.048C74.2184 24.1333 74.7677 24.2507 75.2584 24.4C75.7597 24.5387 76.1864 24.7253 76.5384 24.96C76.901 25.184 77.1784 25.472 77.3704 25.824C77.5624 26.176 77.6584 26.608 77.6584 27.12C77.6584 27.7493 77.493 28.2987 77.1624 28.768C76.8424 29.2267 76.341 29.584 75.6584 29.84C74.9864 30.096 74.1117 30.224 73.0344 30.224C72.2664 30.224 71.589 30.144 71.0024 29.984C70.4157 29.8133 69.909 29.5893 69.4824 29.312C69.0557 29.0347 68.709 28.7307 68.4424 28.4C68.1757 28.0693 67.9837 27.7387 67.8664 27.408C67.7597 27.0773 67.717 26.7787 67.7384 26.512Z" fill="white"/>
</svg>
