<svg width="200" height="83" viewBox="0 0 200 83" fill="none" xmlns="http://www.w3.org/2000/svg">
<rect width="200" height="83" rx="41.5" fill="#E14841"/>
<path d="M37.696 47.488V43.936H51.392V47.488H37.696ZM32.544 52L42.272 31.296H46.88L56.704 52H52.064L43.552 33.344H45.6L37.152 52H32.544ZM67.5585 49.568C65.8305 49.568 64.3052 49.312 62.9825 48.8C61.6812 48.2667 60.6678 47.488 59.9425 46.464C59.2172 45.44 58.8545 44.2027 58.8545 42.752C58.8545 41.3227 59.2065 40.0853 59.9105 39.04C60.6145 37.9947 61.6172 37.184 62.9185 36.608C64.2412 36.032 65.7878 35.744 67.5585 35.744C68.0492 35.744 68.5185 35.776 68.9665 35.84C69.4358 35.904 69.8945 35.9893 70.3425 36.096L78.3745 36.128V39.264C77.2865 39.2853 76.1772 39.1573 75.0465 38.88C73.9372 38.5813 72.9558 38.2613 72.1025 37.92L72.0065 37.696C72.7318 38.0373 73.4145 38.464 74.0545 38.976C74.6945 39.4667 75.2065 40.0427 75.5905 40.704C75.9958 41.344 76.1985 42.0907 76.1985 42.944C76.1985 44.3307 75.8465 45.5253 75.1425 46.528C74.4385 47.5093 73.4358 48.2667 72.1345 48.8C70.8545 49.312 69.3292 49.568 67.5585 49.568ZM72.9025 58.56V57.792C72.9025 56.8107 72.5825 56.128 71.9425 55.744C71.3238 55.36 70.4705 55.168 69.3825 55.168H64.4225C63.4625 55.168 62.6518 55.0933 61.9905 54.944C61.3505 54.7947 60.8385 54.5813 60.4545 54.304C60.0705 54.0267 59.7932 53.696 59.6225 53.312C59.4518 52.9493 59.3665 52.5547 59.3665 52.128C59.3665 51.2747 59.6438 50.6347 60.1985 50.208C60.7532 49.76 61.4998 49.4613 62.4385 49.312C63.3772 49.1627 64.4118 49.1307 65.5425 49.216L67.5585 49.568C66.2145 49.6107 65.2118 49.728 64.5505 49.92C63.9105 50.0907 63.5905 50.4427 63.5905 50.976C63.5905 51.296 63.7185 51.552 63.9745 51.744C64.2305 51.9147 64.5932 52 65.0625 52H70.2785C71.7078 52 72.9238 52.1493 73.9265 52.448C74.9505 52.768 75.7292 53.2907 76.2625 54.016C76.7958 54.7627 77.0625 55.776 77.0625 57.056V58.56H72.9025ZM67.5585 46.56C68.4758 46.56 69.2758 46.4107 69.9585 46.112C70.6625 45.8133 71.2065 45.3867 71.5905 44.832C71.9745 44.256 72.1665 43.5733 72.1665 42.784C72.1665 41.9733 71.9745 41.28 71.5905 40.704C71.2065 40.128 70.6732 39.6907 69.9905 39.392C69.3078 39.072 68.4972 38.912 67.5585 38.912C66.6412 38.912 65.8305 39.072 65.1265 39.392C64.4225 39.6907 63.8785 40.128 63.4945 40.704C63.1105 41.28 62.9185 41.9733 62.9185 42.784C62.9185 43.5733 63.1105 44.256 63.4945 44.832C63.8785 45.3867 64.4118 45.8133 65.0945 46.112C65.7985 46.4107 66.6198 46.56 67.5585 46.56ZM95.946 46.72H99.978C99.8073 47.808 99.3487 48.7787 98.602 49.632C97.8767 50.4853 96.8847 51.1573 95.626 51.648C94.3673 52.1387 92.8313 52.384 91.018 52.384C88.9913 52.384 87.1993 52.064 85.642 51.424C84.0847 50.7627 82.8687 49.8133 81.994 48.576C81.1193 47.3387 80.682 45.8453 80.682 44.096C80.682 42.3467 81.1087 40.8533 81.962 39.616C82.8153 38.3573 83.9993 37.3973 85.514 36.736C87.05 36.0747 88.842 35.744 90.89 35.744C92.9807 35.744 94.7193 36.0747 96.106 36.736C97.4927 37.3973 98.5167 38.4 99.178 39.744C99.8607 41.0667 100.149 42.7627 100.042 44.832H84.874C84.9807 45.6427 85.2793 46.3787 85.77 47.04C86.282 47.7013 86.9647 48.224 87.818 48.608C88.6927 48.992 89.7273 49.184 90.922 49.184C92.2447 49.184 93.3433 48.96 94.218 48.512C95.114 48.0427 95.69 47.4453 95.946 46.72ZM90.698 38.912C89.162 38.912 87.914 39.2533 86.954 39.936C85.994 40.5973 85.3753 41.4187 85.098 42.4H95.914C95.8073 41.3333 95.2953 40.4907 94.378 39.872C93.482 39.232 92.2553 38.912 90.698 38.912ZM103.777 36.096H107.937V52H103.777V36.096ZM115.329 35.744C116.311 35.744 117.217 35.872 118.049 36.128C118.881 36.384 119.607 36.7787 120.225 37.312C120.844 37.8453 121.324 38.528 121.665 39.36C122.007 40.1707 122.177 41.1413 122.177 42.272V52H118.017V43.008C118.017 41.664 117.687 40.6827 117.025 40.064C116.385 39.424 115.329 39.104 113.857 39.104C112.748 39.104 111.745 39.3173 110.849 39.744C109.953 40.1707 109.228 40.7147 108.673 41.376C108.119 42.016 107.799 42.688 107.713 43.392L107.681 41.76C107.788 41.0133 108.033 40.288 108.417 39.584C108.801 38.88 109.313 38.24 109.953 37.664C110.615 37.0667 111.393 36.5973 112.289 36.256C113.185 35.9147 114.199 35.744 115.329 35.744ZM145.485 45.728C145.378 47.1147 144.93 48.3093 144.141 49.312C143.373 50.3147 142.306 51.0827 140.941 51.616C139.576 52.128 137.954 52.384 136.077 52.384C134.114 52.384 132.354 52.0747 130.797 51.456C129.261 50.816 128.045 49.888 127.149 48.672C126.274 47.4347 125.837 45.9093 125.837 44.096C125.837 42.2827 126.274 40.7573 127.149 39.52C128.045 38.2827 129.261 37.344 130.797 36.704C132.354 36.064 134.114 35.744 136.077 35.744C137.954 35.744 139.565 36.0107 140.909 36.544C142.253 37.056 143.309 37.8027 144.077 38.784C144.866 39.7653 145.325 40.9493 145.453 42.336H141.645C141.282 41.2693 140.61 40.4373 139.629 39.84C138.648 39.2427 137.464 38.944 136.077 38.944C134.968 38.944 133.954 39.136 133.037 39.52C132.141 39.904 131.416 40.48 130.861 41.248C130.328 41.9947 130.061 42.944 130.061 44.096C130.061 45.2267 130.328 46.176 130.861 46.944C131.394 47.6907 132.12 48.256 133.037 48.64C133.954 49.0027 134.968 49.184 136.077 49.184C137.57 49.184 138.786 48.8853 139.725 48.288C140.685 47.6907 141.336 46.8373 141.677 45.728H145.485ZM147.742 36.096H152.158L159.038 51.36L155.454 52L147.742 36.096ZM167.198 36.096L156.19 58.4H151.87L156.574 49.632L162.75 36.096H167.198Z" fill="white"/>
</svg>
