<svg width="228" height="50" viewBox="0 0 228 50" fill="none" xmlns="http://www.w3.org/2000/svg">
<rect width="228" height="50" rx="25" fill="#1C7947"/>
<path d="M34.848 27.744V25.968H41.696V27.744H34.848ZM32.272 30L37.136 19.648H39.44L44.352 30H42.032L37.776 20.672H38.8L34.576 30H32.272ZM51.697 30.192C50.993 30.192 50.3903 30.0693 49.889 29.824C49.3983 29.568 48.9983 29.2373 48.689 28.832C48.3797 28.416 48.1503 27.9627 48.001 27.472C47.8517 26.9813 47.777 26.5013 47.777 26.032C47.777 25.4453 47.8463 24.9013 47.985 24.4C48.1343 23.8987 48.3637 23.4613 48.673 23.088C48.9823 22.704 49.3823 22.4053 49.873 22.192C50.3743 21.9787 50.9823 21.872 51.697 21.872C52.497 21.872 53.217 22.048 53.857 22.4C54.497 22.752 55.0037 23.2427 55.377 23.872C55.761 24.4907 55.953 25.2107 55.953 26.032C55.953 26.8747 55.761 27.6107 55.377 28.24C54.993 28.8587 54.481 29.3387 53.841 29.68C53.201 30.0213 52.4863 30.192 51.697 30.192ZM51.025 28.576C51.5903 28.576 52.081 28.4693 52.497 28.256C52.9237 28.0427 53.249 27.7493 53.473 27.376C53.7077 26.992 53.825 26.544 53.825 26.032C53.825 25.264 53.5797 24.6453 53.089 24.176C52.609 23.7067 51.921 23.472 51.025 23.472C50.4597 23.472 49.9423 23.5733 49.473 23.776C49.0143 23.9787 48.6517 24.272 48.385 24.656C48.1183 25.0293 47.985 25.488 47.985 26.032C47.985 26.544 48.1077 26.992 48.353 27.376C48.5983 27.7493 48.9503 28.0427 49.409 28.256C49.8677 28.4693 50.4063 28.576 51.025 28.576ZM45.905 22.048H47.889L47.985 24.16V33.2H45.905V22.048ZM63.5951 30.192C62.8911 30.192 62.2885 30.0693 61.7871 29.824C61.2965 29.568 60.8965 29.2373 60.5871 28.832C60.2778 28.416 60.0485 27.9627 59.8991 27.472C59.7498 26.9813 59.6751 26.5013 59.6751 26.032C59.6751 25.4453 59.7445 24.9013 59.8831 24.4C60.0325 23.8987 60.2618 23.4613 60.5711 23.088C60.8805 22.704 61.2805 22.4053 61.7711 22.192C62.2725 21.9787 62.8805 21.872 63.5951 21.872C64.3951 21.872 65.1151 22.048 65.7551 22.4C66.3951 22.752 66.9018 23.2427 67.2751 23.872C67.6591 24.4907 67.8511 25.2107 67.8511 26.032C67.8511 26.8747 67.6591 27.6107 67.2751 28.24C66.8911 28.8587 66.3791 29.3387 65.7391 29.68C65.0991 30.0213 64.3845 30.192 63.5951 30.192ZM62.9231 28.576C63.4885 28.576 63.9791 28.4693 64.3951 28.256C64.8218 28.0427 65.1471 27.7493 65.3711 27.376C65.6058 26.992 65.7231 26.544 65.7231 26.032C65.7231 25.264 65.4778 24.6453 64.9871 24.176C64.5071 23.7067 63.8191 23.472 62.9231 23.472C62.3578 23.472 61.8405 23.5733 61.3711 23.776C60.9125 23.9787 60.5498 24.272 60.2831 24.656C60.0165 25.0293 59.8831 25.488 59.8831 26.032C59.8831 26.544 60.0058 26.992 60.2511 27.376C60.4965 27.7493 60.8485 28.0427 61.3071 28.256C61.7658 28.4693 62.3045 28.576 62.9231 28.576ZM57.8031 22.048H59.7871L59.8831 24.16V33.2H57.8031V22.048ZM80.0726 19.648C81.2353 19.648 82.206 19.7867 82.9846 20.064C83.7633 20.3413 84.382 20.72 84.8406 21.2C85.31 21.6693 85.6406 22.2133 85.8326 22.832C86.0353 23.4507 86.1366 24.1013 86.1366 24.784C86.1366 25.4667 86.0246 26.1227 85.8006 26.752C85.5873 27.3813 85.2406 27.9413 84.7606 28.432C84.2913 28.912 83.6673 29.296 82.8886 29.584C82.1206 29.8613 81.182 30 80.0726 30H74.1526V19.648H80.0726ZM76.2806 28.176H80.0246C80.7926 28.176 81.4273 28.0853 81.9286 27.904C82.4406 27.712 82.846 27.456 83.1446 27.136C83.4433 26.816 83.6566 26.4533 83.7846 26.048C83.9126 25.6427 83.9766 25.2213 83.9766 24.784C83.9766 24.3467 83.9126 23.9307 83.7846 23.536C83.6566 23.1413 83.4433 22.7893 83.1446 22.48C82.846 22.1707 82.4406 21.9253 81.9286 21.744C81.4273 21.5627 80.7926 21.472 80.0246 21.472H76.2806V28.176ZM95.5111 27.36H97.5271C97.4418 27.904 97.2125 28.3893 96.8391 28.816C96.4765 29.2427 95.9805 29.5787 95.3511 29.824C94.7218 30.0693 93.9538 30.192 93.0471 30.192C92.0338 30.192 91.1378 30.032 90.3591 29.712C89.5805 29.3813 88.9725 28.9067 88.5351 28.288C88.0978 27.6693 87.8791 26.9227 87.8791 26.048C87.8791 25.1733 88.0925 24.4267 88.5191 23.808C88.9458 23.1787 89.5378 22.6987 90.2951 22.368C91.0631 22.0373 91.9591 21.872 92.9831 21.872C94.0285 21.872 94.8978 22.0373 95.5911 22.368C96.2845 22.6987 96.7965 23.2 97.1271 23.872C97.4685 24.5333 97.6125 25.3813 97.5591 26.416H89.9751C90.0285 26.8213 90.1778 27.1893 90.4231 27.52C90.6791 27.8507 91.0205 28.112 91.4471 28.304C91.8845 28.496 92.4018 28.592 92.9991 28.592C93.6605 28.592 94.2098 28.48 94.6471 28.256C95.0951 28.0213 95.3831 27.7227 95.5111 27.36ZM92.8871 23.456C92.1191 23.456 91.4951 23.6267 91.0151 23.968C90.5351 24.2987 90.2258 24.7093 90.0871 25.2H95.4951C95.4418 24.6667 95.1858 24.2453 94.7271 23.936C94.2791 23.616 93.6658 23.456 92.8871 23.456ZM103.498 28.64H102.746L105.658 22.048H107.93L104.106 30H102.138L98.3944 22.048H100.682L103.498 28.64ZM116.354 27.36H118.37C118.285 27.904 118.056 28.3893 117.682 28.816C117.32 29.2427 116.824 29.5787 116.194 29.824C115.565 30.0693 114.797 30.192 113.89 30.192C112.877 30.192 111.981 30.032 111.202 29.712C110.424 29.3813 109.816 28.9067 109.378 28.288C108.941 27.6693 108.722 26.9227 108.722 26.048C108.722 25.1733 108.936 24.4267 109.362 23.808C109.789 23.1787 110.381 22.6987 111.138 22.368C111.906 22.0373 112.802 21.872 113.826 21.872C114.872 21.872 115.741 22.0373 116.434 22.368C117.128 22.6987 117.64 23.2 117.97 23.872C118.312 24.5333 118.456 25.3813 118.402 26.416H110.818C110.872 26.8213 111.021 27.1893 111.266 27.52C111.522 27.8507 111.864 28.112 112.29 28.304C112.728 28.496 113.245 28.592 113.842 28.592C114.504 28.592 115.053 28.48 115.49 28.256C115.938 28.0213 116.226 27.7227 116.354 27.36ZM113.73 23.456C112.962 23.456 112.338 23.6267 111.858 23.968C111.378 24.2987 111.069 24.7093 110.93 25.2H116.338C116.285 24.6667 116.029 24.2453 115.57 23.936C115.122 23.616 114.509 23.456 113.73 23.456ZM120.43 18.848H122.51V30H120.43V18.848ZM129.622 30.192C128.619 30.192 127.734 30.032 126.966 29.712C126.208 29.392 125.616 28.928 125.19 28.32C124.763 27.7013 124.55 26.944 124.55 26.048C124.55 25.152 124.763 24.3947 125.19 23.776C125.616 23.1467 126.208 22.672 126.966 22.352C127.734 22.032 128.619 21.872 129.622 21.872C130.624 21.872 131.499 22.032 132.246 22.352C133.003 22.672 133.595 23.1467 134.022 23.776C134.448 24.3947 134.662 25.152 134.662 26.048C134.662 26.944 134.448 27.7013 134.022 28.32C133.595 28.928 133.003 29.392 132.246 29.712C131.499 30.032 130.624 30.192 129.622 30.192ZM129.622 28.592C130.176 28.592 130.672 28.496 131.11 28.304C131.558 28.1013 131.91 27.8133 132.166 27.44C132.422 27.056 132.55 26.592 132.55 26.048C132.55 25.504 132.422 25.04 132.166 24.656C131.91 24.2613 131.563 23.9627 131.126 23.76C130.688 23.5573 130.187 23.456 129.622 23.456C129.067 23.456 128.566 23.5573 128.118 23.76C127.67 23.9627 127.312 24.256 127.046 24.64C126.79 25.024 126.662 25.4933 126.662 26.048C126.662 26.592 126.79 27.056 127.046 27.44C127.302 27.8133 127.654 28.1013 128.102 28.304C128.55 28.496 129.056 28.592 129.622 28.592ZM142.311 30.192C141.607 30.192 141.005 30.0693 140.503 29.824C140.013 29.568 139.613 29.2373 139.303 28.832C138.994 28.416 138.765 27.9627 138.615 27.472C138.466 26.9813 138.391 26.5013 138.391 26.032C138.391 25.4453 138.461 24.9013 138.599 24.4C138.749 23.8987 138.978 23.4613 139.287 23.088C139.597 22.704 139.997 22.4053 140.487 22.192C140.989 21.9787 141.597 21.872 142.311 21.872C143.111 21.872 143.831 22.048 144.471 22.4C145.111 22.752 145.618 23.2427 145.991 23.872C146.375 24.4907 146.567 25.2107 146.567 26.032C146.567 26.8747 146.375 27.6107 145.991 28.24C145.607 28.8587 145.095 29.3387 144.455 29.68C143.815 30.0213 143.101 30.192 142.311 30.192ZM141.639 28.576C142.205 28.576 142.695 28.4693 143.111 28.256C143.538 28.0427 143.863 27.7493 144.087 27.376C144.322 26.992 144.439 26.544 144.439 26.032C144.439 25.264 144.194 24.6453 143.703 24.176C143.223 23.7067 142.535 23.472 141.639 23.472C141.074 23.472 140.557 23.5733 140.087 23.776C139.629 23.9787 139.266 24.272 138.999 24.656C138.733 25.0293 138.599 25.488 138.599 26.032C138.599 26.544 138.722 26.992 138.967 27.376C139.213 27.7493 139.565 28.0427 140.023 28.256C140.482 28.4693 141.021 28.576 141.639 28.576ZM136.519 22.048H138.503L138.599 24.16V33.2H136.519V22.048ZM148.417 22.048H150.497V30H148.417V22.048ZM154.193 21.872C154.684 21.872 155.137 21.936 155.553 22.064C155.969 22.192 156.332 22.3893 156.641 22.656C156.951 22.9227 157.191 23.264 157.361 23.68C157.532 24.0853 157.617 24.5707 157.617 25.136V30H155.537V25.504C155.537 24.832 155.372 24.3413 155.041 24.032C154.721 23.712 154.193 23.552 153.457 23.552C152.903 23.552 152.401 23.6587 151.953 23.872C151.505 24.0853 151.143 24.3573 150.865 24.688C150.588 25.008 150.428 25.344 150.385 25.696L150.369 24.88C150.423 24.5067 150.545 24.144 150.737 23.792C150.929 23.44 151.185 23.12 151.505 22.832C151.836 22.5333 152.225 22.2987 152.673 22.128C153.121 21.9573 153.628 21.872 154.193 21.872ZM161.121 21.872C161.612 21.872 162.065 21.936 162.481 22.064C162.897 22.192 163.26 22.3893 163.569 22.656C163.879 22.9227 164.119 23.264 164.289 23.68C164.471 24.0853 164.561 24.5707 164.561 25.136V30H162.481V25.504C162.481 24.832 162.316 24.3413 161.985 24.032C161.655 23.712 161.121 23.552 160.385 23.552C159.831 23.552 159.329 23.6587 158.881 23.872C158.433 24.0853 158.071 24.3573 157.793 24.688C157.516 25.008 157.361 25.344 157.329 25.696L157.297 24.832C157.351 24.48 157.479 24.128 157.681 23.776C157.884 23.424 158.151 23.104 158.481 22.816C158.812 22.528 159.196 22.2987 159.633 22.128C160.081 21.9573 160.577 21.872 161.121 21.872ZM174.017 27.36H176.033C175.947 27.904 175.718 28.3893 175.345 28.816C174.982 29.2427 174.486 29.5787 173.857 29.824C173.227 30.0693 172.459 30.192 171.553 30.192C170.539 30.192 169.643 30.032 168.865 29.712C168.086 29.3813 167.478 28.9067 167.041 28.288C166.603 27.6693 166.385 26.9227 166.385 26.048C166.385 25.1733 166.598 24.4267 167.025 23.808C167.451 23.1787 168.043 22.6987 168.801 22.368C169.569 22.0373 170.465 21.872 171.489 21.872C172.534 21.872 173.403 22.0373 174.097 22.368C174.79 22.6987 175.302 23.2 175.633 23.872C175.974 24.5333 176.118 25.3813 176.065 26.416H168.481C168.534 26.8213 168.683 27.1893 168.929 27.52C169.185 27.8507 169.526 28.112 169.953 28.304C170.39 28.496 170.907 28.592 171.505 28.592C172.166 28.592 172.715 28.48 173.153 28.256C173.601 28.0213 173.889 27.7227 174.017 27.36ZM171.393 23.456C170.625 23.456 170.001 23.6267 169.521 23.968C169.041 24.2987 168.731 24.7093 168.593 25.2H174.001C173.947 24.6667 173.691 24.2453 173.233 23.936C172.785 23.616 172.171 23.456 171.393 23.456ZM177.933 22.048H180.013V30H177.933V22.048ZM183.709 21.872C184.199 21.872 184.653 21.936 185.069 22.064C185.485 22.192 185.847 22.3893 186.157 22.656C186.466 22.9227 186.706 23.264 186.877 23.68C187.047 24.0853 187.133 24.5707 187.133 25.136V30H185.053V25.504C185.053 24.832 184.887 24.3413 184.557 24.032C184.237 23.712 183.709 23.552 182.973 23.552C182.418 23.552 181.917 23.6587 181.469 23.872C181.021 24.0853 180.658 24.3573 180.381 24.688C180.103 25.008 179.943 25.344 179.901 25.696L179.885 24.88C179.938 24.5067 180.061 24.144 180.253 23.792C180.445 23.44 180.701 23.12 181.021 22.832C181.351 22.5333 181.741 22.2987 182.189 22.128C182.637 21.9573 183.143 21.872 183.709 21.872ZM188.786 22.048H194.962V23.664H188.786V22.048ZM190.834 19.872H192.914V30H190.834V19.872Z" fill="white"/>
</svg>
