<svg width="574" height="101" viewBox="0 0 574 101" fill="none" xmlns="http://www.w3.org/2000/svg">
<rect width="574" height="101" rx="50.5" fill="#1C7947"/>
<path d="M50.544 59.232V53.904H71.088V59.232H50.544ZM42.816 66L57.408 34.944H64.32L79.056 66H72.096L59.328 38.016H62.4L49.728 66H42.816ZM101.091 66.576C98.979 66.576 97.171 66.208 95.667 65.472C94.195 64.704 92.995 63.712 92.067 62.496C91.139 61.248 90.451 59.888 90.003 58.416C89.555 56.944 89.331 55.504 89.331 54.096C89.331 52.336 89.539 50.704 89.955 49.2C90.403 47.696 91.091 46.384 92.019 45.264C92.947 44.112 94.147 43.216 95.619 42.576C97.123 41.936 98.947 41.616 101.091 41.616C103.491 41.616 105.651 42.144 107.571 43.2C109.491 44.256 111.011 45.728 112.131 47.616C113.283 49.472 113.859 51.632 113.859 54.096C113.859 56.624 113.283 58.832 112.131 60.72C110.979 62.576 109.443 64.016 107.523 65.04C105.603 66.064 103.459 66.576 101.091 66.576ZM99.075 61.728C100.771 61.728 102.243 61.408 103.491 60.768C104.771 60.128 105.747 59.248 106.419 58.128C107.123 56.976 107.475 55.632 107.475 54.096C107.475 51.792 106.739 49.936 105.267 48.528C103.827 47.12 101.763 46.416 99.075 46.416C97.379 46.416 95.827 46.72 94.419 47.328C93.043 47.936 91.955 48.816 91.155 49.968C90.355 51.088 89.955 52.464 89.955 54.096C89.955 55.632 90.323 56.976 91.059 58.128C91.795 59.248 92.851 60.128 94.227 60.768C95.603 61.408 97.219 61.728 99.075 61.728ZM83.715 42.144H89.667L89.955 48.48V75.6H83.715V42.144ZM136.785 66.576C134.673 66.576 132.865 66.208 131.361 65.472C129.889 64.704 128.689 63.712 127.761 62.496C126.833 61.248 126.145 59.888 125.697 58.416C125.249 56.944 125.025 55.504 125.025 54.096C125.025 52.336 125.233 50.704 125.649 49.2C126.097 47.696 126.785 46.384 127.713 45.264C128.641 44.112 129.841 43.216 131.313 42.576C132.817 41.936 134.641 41.616 136.785 41.616C139.185 41.616 141.345 42.144 143.265 43.2C145.185 44.256 146.705 45.728 147.825 47.616C148.977 49.472 149.553 51.632 149.553 54.096C149.553 56.624 148.977 58.832 147.825 60.72C146.673 62.576 145.137 64.016 143.217 65.04C141.297 66.064 139.153 66.576 136.785 66.576ZM134.769 61.728C136.465 61.728 137.937 61.408 139.185 60.768C140.465 60.128 141.441 59.248 142.113 58.128C142.817 56.976 143.169 55.632 143.169 54.096C143.169 51.792 142.433 49.936 140.961 48.528C139.521 47.12 137.457 46.416 134.769 46.416C133.073 46.416 131.521 46.72 130.113 47.328C128.737 47.936 127.649 48.816 126.849 49.968C126.049 51.088 125.649 52.464 125.649 54.096C125.649 55.632 126.017 56.976 126.753 58.128C127.489 59.248 128.545 60.128 129.921 60.768C131.297 61.408 132.913 61.728 134.769 61.728ZM119.409 42.144H125.361L125.649 48.48V75.6H119.409V42.144ZM186.218 34.944C189.706 34.944 192.618 35.36 194.954 36.192C197.29 37.024 199.146 38.16 200.522 39.6C201.93 41.008 202.922 42.64 203.498 44.496C204.106 46.352 204.41 48.304 204.41 50.352C204.41 52.4 204.074 54.368 203.402 56.256C202.762 58.144 201.722 59.824 200.282 61.296C198.874 62.736 197.002 63.888 194.666 64.752C192.362 65.584 189.546 66 186.218 66H168.458V34.944H186.218ZM174.842 60.528H186.074C188.378 60.528 190.282 60.256 191.786 59.712C193.322 59.136 194.538 58.368 195.434 57.408C196.33 56.448 196.97 55.36 197.354 54.144C197.738 52.928 197.93 51.664 197.93 50.352C197.93 49.04 197.738 47.792 197.354 46.608C196.97 45.424 196.33 44.368 195.434 43.44C194.538 42.512 193.322 41.776 191.786 41.232C190.282 40.688 188.378 40.416 186.074 40.416H174.842V60.528ZM232.533 58.08H238.581C238.325 59.712 237.637 61.168 236.517 62.448C235.429 63.728 233.941 64.736 232.053 65.472C230.165 66.208 227.861 66.576 225.141 66.576C222.101 66.576 219.413 66.096 217.077 65.136C214.741 64.144 212.917 62.72 211.605 60.864C210.293 59.008 209.637 56.768 209.637 54.144C209.637 51.52 210.277 49.28 211.557 47.424C212.837 45.536 214.613 44.096 216.885 43.104C219.189 42.112 221.877 41.616 224.949 41.616C228.085 41.616 230.693 42.112 232.773 43.104C234.853 44.096 236.389 45.6 237.381 47.616C238.405 49.6 238.837 52.144 238.677 55.248H215.925C216.085 56.464 216.533 57.568 217.269 58.56C218.037 59.552 219.061 60.336 220.341 60.912C221.653 61.488 223.205 61.776 224.997 61.776C226.981 61.776 228.629 61.44 229.941 60.768C231.285 60.064 232.149 59.168 232.533 58.08ZM224.661 46.368C222.357 46.368 220.485 46.88 219.045 47.904C217.605 48.896 216.677 50.128 216.261 51.6H232.485C232.325 50 231.557 48.736 230.181 47.808C228.837 46.848 226.997 46.368 224.661 46.368ZM256.495 61.92H254.239L262.975 42.144H269.791L258.319 66H252.415L241.183 42.144H248.047L256.495 61.92ZM295.063 58.08H301.111C300.855 59.712 300.167 61.168 299.047 62.448C297.959 63.728 296.471 64.736 294.583 65.472C292.695 66.208 290.391 66.576 287.671 66.576C284.631 66.576 281.943 66.096 279.607 65.136C277.271 64.144 275.447 62.72 274.135 60.864C272.823 59.008 272.167 56.768 272.167 54.144C272.167 51.52 272.807 49.28 274.087 47.424C275.367 45.536 277.143 44.096 279.415 43.104C281.719 42.112 284.407 41.616 287.479 41.616C290.615 41.616 293.223 42.112 295.303 43.104C297.383 44.096 298.919 45.6 299.911 47.616C300.935 49.6 301.367 52.144 301.207 55.248H278.455C278.615 56.464 279.063 57.568 279.799 58.56C280.567 59.552 281.591 60.336 282.871 60.912C284.183 61.488 285.735 61.776 287.527 61.776C289.511 61.776 291.159 61.44 292.471 60.768C293.815 60.064 294.679 59.168 295.063 58.08ZM287.191 46.368C284.887 46.368 283.015 46.88 281.575 47.904C280.135 48.896 279.207 50.128 278.791 51.6H295.015C294.855 50 294.087 48.736 292.711 47.808C291.367 46.848 289.527 46.368 287.191 46.368ZM307.29 32.544H313.53V66H307.29V32.544ZM334.865 66.576C331.857 66.576 329.201 66.096 326.897 65.136C324.625 64.176 322.849 62.784 321.569 60.96C320.289 59.104 319.649 56.832 319.649 54.144C319.649 51.456 320.289 49.184 321.569 47.328C322.849 45.44 324.625 44.016 326.897 43.056C329.201 42.096 331.857 41.616 334.865 41.616C337.873 41.616 340.497 42.096 342.737 43.056C345.009 44.016 346.785 45.44 348.065 47.328C349.345 49.184 349.985 51.456 349.985 54.144C349.985 56.832 349.345 59.104 348.065 60.96C346.785 62.784 345.009 64.176 342.737 65.136C340.497 66.096 337.873 66.576 334.865 66.576ZM334.865 61.776C336.529 61.776 338.017 61.488 339.329 60.912C340.673 60.304 341.729 59.44 342.497 58.32C343.265 57.168 343.649 55.776 343.649 54.144C343.649 52.512 343.265 51.12 342.497 49.968C341.729 48.784 340.689 47.888 339.377 47.28C338.065 46.672 336.561 46.368 334.865 46.368C333.201 46.368 331.697 46.672 330.353 47.28C329.009 47.888 327.937 48.768 327.137 49.92C326.369 51.072 325.985 52.48 325.985 54.144C325.985 55.776 326.369 57.168 327.137 58.32C327.905 59.44 328.961 60.304 330.305 60.912C331.649 61.488 333.169 61.776 334.865 61.776ZM372.934 66.576C370.822 66.576 369.014 66.208 367.51 65.472C366.038 64.704 364.838 63.712 363.91 62.496C362.982 61.248 362.294 59.888 361.846 58.416C361.398 56.944 361.174 55.504 361.174 54.096C361.174 52.336 361.382 50.704 361.798 49.2C362.246 47.696 362.934 46.384 363.862 45.264C364.79 44.112 365.99 43.216 367.462 42.576C368.966 41.936 370.79 41.616 372.934 41.616C375.334 41.616 377.494 42.144 379.414 43.2C381.334 44.256 382.854 45.728 383.974 47.616C385.126 49.472 385.702 51.632 385.702 54.096C385.702 56.624 385.126 58.832 383.974 60.72C382.822 62.576 381.286 64.016 379.366 65.04C377.446 66.064 375.302 66.576 372.934 66.576ZM370.918 61.728C372.614 61.728 374.086 61.408 375.334 60.768C376.614 60.128 377.59 59.248 378.262 58.128C378.966 56.976 379.318 55.632 379.318 54.096C379.318 51.792 378.582 49.936 377.11 48.528C375.67 47.12 373.606 46.416 370.918 46.416C369.222 46.416 367.67 46.72 366.262 47.328C364.886 47.936 363.798 48.816 362.998 49.968C362.198 51.088 361.798 52.464 361.798 54.096C361.798 55.632 362.166 56.976 362.902 58.128C363.638 59.248 364.694 60.128 366.07 60.768C367.446 61.408 369.062 61.728 370.918 61.728ZM355.558 42.144H361.51L361.798 48.48V75.6H355.558V42.144ZM391.252 42.144H397.492V66H391.252V42.144ZM408.58 41.616C410.052 41.616 411.412 41.808 412.66 42.192C413.908 42.576 414.996 43.168 415.924 43.968C416.852 44.768 417.572 45.792 418.084 47.04C418.596 48.256 418.852 49.712 418.852 51.408V66H412.612V52.512C412.612 50.496 412.116 49.024 411.124 48.096C410.164 47.136 408.58 46.656 406.372 46.656C404.708 46.656 403.204 46.976 401.86 47.616C400.516 48.256 399.428 49.072 398.596 50.064C397.764 51.024 397.284 52.032 397.156 53.088L397.108 50.64C397.268 49.52 397.636 48.432 398.212 47.376C398.788 46.32 399.556 45.36 400.516 44.496C401.508 43.6 402.676 42.896 404.02 42.384C405.364 41.872 406.884 41.616 408.58 41.616ZM429.364 41.616C430.836 41.616 432.196 41.808 433.445 42.192C434.693 42.576 435.781 43.168 436.709 43.968C437.636 44.768 438.356 45.792 438.868 47.04C439.412 48.256 439.684 49.712 439.684 51.408V66H433.445V52.512C433.445 50.496 432.949 49.024 431.957 48.096C430.964 47.136 429.364 46.656 427.156 46.656C425.492 46.656 423.988 46.976 422.644 47.616C421.3 48.256 420.212 49.072 419.38 50.064C418.548 51.024 418.084 52.032 417.988 53.088L417.892 50.496C418.052 49.44 418.436 48.384 419.045 47.328C419.653 46.272 420.452 45.312 421.444 44.448C422.436 43.584 423.588 42.896 424.9 42.384C426.244 41.872 427.732 41.616 429.364 41.616ZM468.05 58.08H474.098C473.842 59.712 473.154 61.168 472.034 62.448C470.946 63.728 469.458 64.736 467.57 65.472C465.682 66.208 463.378 66.576 460.658 66.576C457.618 66.576 454.93 66.096 452.594 65.136C450.258 64.144 448.434 62.72 447.122 60.864C445.81 59.008 445.154 56.768 445.154 54.144C445.154 51.52 445.794 49.28 447.074 47.424C448.354 45.536 450.13 44.096 452.402 43.104C454.706 42.112 457.394 41.616 460.466 41.616C463.602 41.616 466.21 42.112 468.29 43.104C470.37 44.096 471.906 45.6 472.898 47.616C473.922 49.6 474.354 52.144 474.194 55.248H451.442C451.602 56.464 452.05 57.568 452.786 58.56C453.554 59.552 454.578 60.336 455.858 60.912C457.17 61.488 458.722 61.776 460.514 61.776C462.498 61.776 464.146 61.44 465.458 60.768C466.802 60.064 467.666 59.168 468.05 58.08ZM460.178 46.368C457.874 46.368 456.002 46.88 454.562 47.904C453.122 48.896 452.194 50.128 451.778 51.6H468.002C467.842 50 467.074 48.736 465.698 47.808C464.354 46.848 462.514 46.368 460.178 46.368ZM479.798 42.144H486.038V66H479.798V42.144ZM497.126 41.616C498.598 41.616 499.958 41.808 501.206 42.192C502.454 42.576 503.542 43.168 504.47 43.968C505.398 44.768 506.118 45.792 506.63 47.04C507.142 48.256 507.398 49.712 507.398 51.408V66H501.158V52.512C501.158 50.496 500.662 49.024 499.67 48.096C498.71 47.136 497.126 46.656 494.918 46.656C493.254 46.656 491.75 46.976 490.406 47.616C489.062 48.256 487.974 49.072 487.142 50.064C486.31 51.024 485.83 52.032 485.702 53.088L485.654 50.64C485.814 49.52 486.182 48.432 486.758 47.376C487.334 46.32 488.102 45.36 489.062 44.496C490.054 43.6 491.222 42.896 492.566 42.384C493.91 41.872 495.43 41.616 497.126 41.616ZM512.359 42.144H530.887V46.992H512.359V42.144ZM518.503 35.616H524.743V66H518.503V35.616Z" fill="white"/>
</svg>
