<svg width="109" height="50" viewBox="0 0 109 50" fill="none" xmlns="http://www.w3.org/2000/svg">
<rect width="109" height="50" rx="25" fill="#F7BA2D"/>
<path d="M34.848 27.744V25.968H41.696V27.744H34.848ZM32.272 30L37.136 19.648H39.44L44.352 30H42.032L37.776 20.672H38.8L34.576 30H32.272ZM49.7793 28.784C48.9152 28.784 48.1526 28.656 47.4912 28.4C46.8406 28.1333 46.3339 27.744 45.9712 27.232C45.6086 26.72 45.4272 26.1013 45.4272 25.376C45.4272 24.6613 45.6032 24.0427 45.9552 23.52C46.3072 22.9973 46.8086 22.592 47.4592 22.304C48.1206 22.016 48.8939 21.872 49.7793 21.872C50.0246 21.872 50.2593 21.888 50.4833 21.92C50.7179 21.952 50.9472 21.9947 51.1712 22.048L55.1873 22.064V23.632C54.6433 23.6427 54.0886 23.5787 53.5233 23.44C52.9686 23.2907 52.4779 23.1307 52.0512 22.96L52.0033 22.848C52.3659 23.0187 52.7073 23.232 53.0273 23.488C53.3472 23.7333 53.6032 24.0213 53.7952 24.352C53.9979 24.672 54.0992 25.0453 54.0992 25.472C54.0992 26.1653 53.9232 26.7627 53.5712 27.264C53.2193 27.7547 52.7179 28.1333 52.0673 28.4C51.4273 28.656 50.6646 28.784 49.7793 28.784ZM52.4513 33.28V32.896C52.4513 32.4053 52.2913 32.064 51.9713 31.872C51.6619 31.68 51.2352 31.584 50.6912 31.584H48.2112C47.7312 31.584 47.3259 31.5467 46.9952 31.472C46.6752 31.3973 46.4192 31.2907 46.2272 31.152C46.0352 31.0133 45.8966 30.848 45.8112 30.656C45.7259 30.4747 45.6832 30.2773 45.6832 30.064C45.6832 29.6373 45.8219 29.3173 46.0992 29.104C46.3766 28.88 46.7499 28.7307 47.2192 28.656C47.6886 28.5813 48.2059 28.5653 48.7712 28.608L49.7793 28.784C49.1072 28.8053 48.6059 28.864 48.2752 28.96C47.9552 29.0453 47.7952 29.2213 47.7952 29.488C47.7952 29.648 47.8592 29.776 47.9872 29.872C48.1152 29.9573 48.2966 30 48.5312 30H51.1392C51.8539 30 52.4619 30.0747 52.9633 30.224C53.4752 30.384 53.8646 30.6453 54.1313 31.008C54.3979 31.3813 54.5312 31.888 54.5312 32.528V33.28H52.4513ZM49.7793 27.28C50.2379 27.28 50.6379 27.2053 50.9792 27.056C51.3312 26.9067 51.6032 26.6933 51.7952 26.416C51.9873 26.128 52.0833 25.7867 52.0833 25.392C52.0833 24.9867 51.9873 24.64 51.7952 24.352C51.6032 24.064 51.3366 23.8453 50.9952 23.696C50.6539 23.536 50.2486 23.456 49.7793 23.456C49.3206 23.456 48.9152 23.536 48.5632 23.696C48.2112 23.8453 47.9392 24.064 47.7472 24.352C47.5552 24.64 47.4592 24.9867 47.4592 25.392C47.4592 25.7867 47.5552 26.128 47.7472 26.416C47.9392 26.6933 48.2059 26.9067 48.5472 27.056C48.8992 27.2053 49.3099 27.28 49.7793 27.28ZM59.2496 18.56V20.384H56.8336V18.56H59.2496ZM56.9936 22.048H59.0736V30H56.9936V22.048ZM61.6269 18.848H63.7069V30H61.6269V18.848ZM73.3786 27.36H75.3946C75.3093 27.904 75.08 28.3893 74.7066 28.816C74.344 29.2427 73.848 29.5787 73.2186 29.824C72.5893 30.0693 71.8213 30.192 70.9146 30.192C69.9013 30.192 69.0053 30.032 68.2266 29.712C67.448 29.3813 66.84 28.9067 66.4026 28.288C65.9653 27.6693 65.7466 26.9227 65.7466 26.048C65.7466 25.1733 65.96 24.4267 66.3866 23.808C66.8133 23.1787 67.4053 22.6987 68.1626 22.368C68.9306 22.0373 69.8266 21.872 70.8506 21.872C71.896 21.872 72.7653 22.0373 73.4586 22.368C74.152 22.6987 74.664 23.2 74.9946 23.872C75.336 24.5333 75.48 25.3813 75.4266 26.416H67.8426C67.896 26.8213 68.0453 27.1893 68.2906 27.52C68.5466 27.8507 68.888 28.112 69.3146 28.304C69.752 28.496 70.2693 28.592 70.8666 28.592C71.528 28.592 72.0773 28.48 72.5146 28.256C72.9626 28.0213 73.2506 27.7227 73.3786 27.36ZM70.7546 23.456C69.9866 23.456 69.3626 23.6267 68.8826 23.968C68.4026 24.2987 68.0933 24.7093 67.9546 25.2H73.3626C73.3093 24.6667 73.0533 24.2453 72.5946 23.936C72.1466 23.616 71.5333 23.456 70.7546 23.456Z" fill="white"/>
</svg>
