<svg width="309" height="58" viewBox="0 0 309 58" fill="none" xmlns="http://www.w3.org/2000/svg">
<rect width="309" height="58" rx="29" fill="#1C7947"/>
<path d="M36.272 33.616V30.952H46.544V33.616H36.272ZM32.408 37L39.704 21.472H43.16L50.528 37H47.048L40.664 23.008H42.2L35.864 37H32.408ZM61.5455 37.288C60.4895 37.288 59.5855 37.104 58.8335 36.736C58.0975 36.352 57.4975 35.856 57.0335 35.248C56.5695 34.624 56.2255 33.944 56.0015 33.208C55.7775 32.472 55.6655 31.752 55.6655 31.048C55.6655 30.168 55.7695 29.352 55.9775 28.6C56.2015 27.848 56.5455 27.192 57.0095 26.632C57.4735 26.056 58.0735 25.608 58.8095 25.288C59.5615 24.968 60.4735 24.808 61.5455 24.808C62.7455 24.808 63.8255 25.072 64.7855 25.6C65.7455 26.128 66.5055 26.864 67.0655 27.808C67.6415 28.736 67.9295 29.816 67.9295 31.048C67.9295 32.312 67.6415 33.416 67.0655 34.36C66.4895 35.288 65.7215 36.008 64.7615 36.52C63.8015 37.032 62.7295 37.288 61.5455 37.288ZM60.5375 34.864C61.3855 34.864 62.1215 34.704 62.7455 34.384C63.3855 34.064 63.8735 33.624 64.2095 33.064C64.5615 32.488 64.7375 31.816 64.7375 31.048C64.7375 29.896 64.3695 28.968 63.6335 28.264C62.9135 27.56 61.8815 27.208 60.5375 27.208C59.6895 27.208 58.9135 27.36 58.2095 27.664C57.5215 27.968 56.9775 28.408 56.5775 28.984C56.1775 29.544 55.9775 30.232 55.9775 31.048C55.9775 31.816 56.1615 32.488 56.5295 33.064C56.8975 33.624 57.4255 34.064 58.1135 34.384C58.8015 34.704 59.6095 34.864 60.5375 34.864ZM52.8575 25.072H55.8335L55.9775 28.24V41.8H52.8575V25.072ZM79.3927 37.288C78.3367 37.288 77.4327 37.104 76.6807 36.736C75.9447 36.352 75.3447 35.856 74.8807 35.248C74.4167 34.624 74.0727 33.944 73.8487 33.208C73.6247 32.472 73.5127 31.752 73.5127 31.048C73.5127 30.168 73.6167 29.352 73.8247 28.6C74.0487 27.848 74.3927 27.192 74.8567 26.632C75.3207 26.056 75.9207 25.608 76.6567 25.288C77.4087 24.968 78.3207 24.808 79.3927 24.808C80.5927 24.808 81.6727 25.072 82.6327 25.6C83.5927 26.128 84.3527 26.864 84.9127 27.808C85.4887 28.736 85.7767 29.816 85.7767 31.048C85.7767 32.312 85.4887 33.416 84.9127 34.36C84.3367 35.288 83.5687 36.008 82.6087 36.52C81.6487 37.032 80.5767 37.288 79.3927 37.288ZM78.3847 34.864C79.2327 34.864 79.9687 34.704 80.5927 34.384C81.2327 34.064 81.7207 33.624 82.0567 33.064C82.4087 32.488 82.5847 31.816 82.5847 31.048C82.5847 29.896 82.2167 28.968 81.4807 28.264C80.7607 27.56 79.7287 27.208 78.3847 27.208C77.5367 27.208 76.7607 27.36 76.0567 27.664C75.3687 27.968 74.8247 28.408 74.4247 28.984C74.0247 29.544 73.8247 30.232 73.8247 31.048C73.8247 31.816 74.0087 32.488 74.3767 33.064C74.7447 33.624 75.2727 34.064 75.9607 34.384C76.6487 34.704 77.4567 34.864 78.3847 34.864ZM70.7047 25.072H73.6807L73.8247 28.24V41.8H70.7047V25.072ZM104.109 21.472C105.853 21.472 107.309 21.68 108.477 22.096C109.645 22.512 110.573 23.08 111.261 23.8C111.965 24.504 112.461 25.32 112.749 26.248C113.053 27.176 113.205 28.152 113.205 29.176C113.205 30.2 113.037 31.184 112.701 32.128C112.381 33.072 111.861 33.912 111.141 34.648C110.437 35.368 109.501 35.944 108.333 36.376C107.181 36.792 105.773 37 104.109 37H95.2289V21.472H104.109ZM98.4209 34.264H104.037C105.189 34.264 106.141 34.128 106.893 33.856C107.661 33.568 108.269 33.184 108.717 32.704C109.165 32.224 109.485 31.68 109.677 31.072C109.869 30.464 109.965 29.832 109.965 29.176C109.965 28.52 109.869 27.896 109.677 27.304C109.485 26.712 109.165 26.184 108.717 25.72C108.269 25.256 107.661 24.888 106.893 24.616C106.141 24.344 105.189 24.208 104.037 24.208H98.4209V34.264ZM127.267 33.04H130.291C130.163 33.856 129.819 34.584 129.259 35.224C128.715 35.864 127.971 36.368 127.027 36.736C126.083 37.104 124.931 37.288 123.571 37.288C122.051 37.288 120.707 37.048 119.539 36.568C118.371 36.072 117.459 35.36 116.803 34.432C116.147 33.504 115.819 32.384 115.819 31.072C115.819 29.76 116.139 28.64 116.779 27.712C117.419 26.768 118.307 26.048 119.443 25.552C120.595 25.056 121.939 24.808 123.475 24.808C125.043 24.808 126.347 25.056 127.387 25.552C128.427 26.048 129.195 26.8 129.691 27.808C130.203 28.8 130.419 30.072 130.339 31.624H118.963C119.043 32.232 119.267 32.784 119.635 33.28C120.019 33.776 120.531 34.168 121.171 34.456C121.827 34.744 122.603 34.888 123.499 34.888C124.491 34.888 125.315 34.72 125.971 34.384C126.643 34.032 127.075 33.584 127.267 33.04ZM123.331 27.184C122.179 27.184 121.243 27.44 120.523 27.952C119.803 28.448 119.339 29.064 119.131 29.8H127.243C127.163 29 126.779 28.368 126.091 27.904C125.419 27.424 124.499 27.184 123.331 27.184ZM139.248 34.96H138.12L142.488 25.072H145.896L140.16 37H137.208L131.592 25.072H135.024L139.248 34.96ZM158.531 33.04H161.555C161.427 33.856 161.083 34.584 160.523 35.224C159.979 35.864 159.235 36.368 158.291 36.736C157.347 37.104 156.195 37.288 154.835 37.288C153.315 37.288 151.971 37.048 150.803 36.568C149.635 36.072 148.723 35.36 148.067 34.432C147.411 33.504 147.083 32.384 147.083 31.072C147.083 29.76 147.403 28.64 148.043 27.712C148.683 26.768 149.571 26.048 150.707 25.552C151.859 25.056 153.203 24.808 154.739 24.808C156.307 24.808 157.611 25.056 158.651 25.552C159.691 26.048 160.459 26.8 160.955 27.808C161.467 28.8 161.683 30.072 161.603 31.624H150.227C150.307 32.232 150.531 32.784 150.899 33.28C151.283 33.776 151.795 34.168 152.435 34.456C153.091 34.744 153.867 34.888 154.763 34.888C155.755 34.888 156.579 34.72 157.235 34.384C157.907 34.032 158.339 33.584 158.531 33.04ZM154.595 27.184C153.443 27.184 152.507 27.44 151.787 27.952C151.067 28.448 150.603 29.064 150.395 29.8H158.507C158.427 29 158.043 28.368 157.355 27.904C156.683 27.424 155.763 27.184 154.595 27.184ZM164.645 20.272H167.765V37H164.645V20.272ZM178.433 37.288C176.929 37.288 175.601 37.048 174.449 36.568C173.313 36.088 172.425 35.392 171.785 34.48C171.145 33.552 170.825 32.416 170.825 31.072C170.825 29.728 171.145 28.592 171.785 27.664C172.425 26.72 173.313 26.008 174.449 25.528C175.601 25.048 176.929 24.808 178.433 24.808C179.937 24.808 181.249 25.048 182.369 25.528C183.505 26.008 184.393 26.72 185.033 27.664C185.673 28.592 185.993 29.728 185.993 31.072C185.993 32.416 185.673 33.552 185.033 34.48C184.393 35.392 183.505 36.088 182.369 36.568C181.249 37.048 179.937 37.288 178.433 37.288ZM178.433 34.888C179.265 34.888 180.009 34.744 180.665 34.456C181.337 34.152 181.865 33.72 182.249 33.16C182.633 32.584 182.825 31.888 182.825 31.072C182.825 30.256 182.633 29.56 182.249 28.984C181.865 28.392 181.345 27.944 180.689 27.64C180.033 27.336 179.281 27.184 178.433 27.184C177.601 27.184 176.849 27.336 176.177 27.64C175.505 27.944 174.969 28.384 174.569 28.96C174.185 29.536 173.993 30.24 173.993 31.072C173.993 31.888 174.185 32.584 174.569 33.16C174.953 33.72 175.481 34.152 176.153 34.456C176.825 34.744 177.585 34.888 178.433 34.888ZM197.467 37.288C196.411 37.288 195.507 37.104 194.755 36.736C194.019 36.352 193.419 35.856 192.955 35.248C192.491 34.624 192.147 33.944 191.923 33.208C191.699 32.472 191.587 31.752 191.587 31.048C191.587 30.168 191.691 29.352 191.899 28.6C192.123 27.848 192.467 27.192 192.931 26.632C193.395 26.056 193.995 25.608 194.731 25.288C195.483 24.968 196.395 24.808 197.467 24.808C198.667 24.808 199.747 25.072 200.707 25.6C201.667 26.128 202.427 26.864 202.987 27.808C203.563 28.736 203.851 29.816 203.851 31.048C203.851 32.312 203.563 33.416 202.987 34.36C202.411 35.288 201.643 36.008 200.683 36.52C199.723 37.032 198.651 37.288 197.467 37.288ZM196.459 34.864C197.307 34.864 198.043 34.704 198.667 34.384C199.307 34.064 199.795 33.624 200.131 33.064C200.483 32.488 200.659 31.816 200.659 31.048C200.659 29.896 200.291 28.968 199.555 28.264C198.835 27.56 197.803 27.208 196.459 27.208C195.611 27.208 194.835 27.36 194.131 27.664C193.443 27.968 192.899 28.408 192.499 28.984C192.099 29.544 191.899 30.232 191.899 31.048C191.899 31.816 192.083 32.488 192.451 33.064C192.819 33.624 193.347 34.064 194.035 34.384C194.723 34.704 195.531 34.864 196.459 34.864ZM188.779 25.072H191.755L191.899 28.24V41.8H188.779V25.072ZM206.626 25.072H209.746V37H206.626V25.072ZM215.29 24.808C216.026 24.808 216.706 24.904 217.33 25.096C217.954 25.288 218.498 25.584 218.962 25.984C219.426 26.384 219.786 26.896 220.042 27.52C220.298 28.128 220.426 28.856 220.426 29.704V37H217.306V30.256C217.306 29.248 217.058 28.512 216.562 28.048C216.082 27.568 215.29 27.328 214.186 27.328C213.354 27.328 212.602 27.488 211.93 27.808C211.258 28.128 210.714 28.536 210.298 29.032C209.882 29.512 209.642 30.016 209.578 30.544L209.554 29.32C209.634 28.76 209.818 28.216 210.106 27.688C210.394 27.16 210.778 26.68 211.258 26.248C211.754 25.8 212.338 25.448 213.01 25.192C213.682 24.936 214.442 24.808 215.29 24.808ZM225.682 24.808C226.418 24.808 227.098 24.904 227.722 25.096C228.346 25.288 228.89 25.584 229.354 25.984C229.818 26.384 230.178 26.896 230.434 27.52C230.706 28.128 230.842 28.856 230.842 29.704V37H227.722V30.256C227.722 29.248 227.474 28.512 226.978 28.048C226.482 27.568 225.682 27.328 224.578 27.328C223.746 27.328 222.994 27.488 222.322 27.808C221.65 28.128 221.106 28.536 220.69 29.032C220.274 29.512 220.042 30.016 219.994 30.544L219.946 29.248C220.026 28.72 220.218 28.192 220.522 27.664C220.826 27.136 221.226 26.656 221.722 26.224C222.218 25.792 222.794 25.448 223.45 25.192C224.122 24.936 224.866 24.808 225.682 24.808ZM245.025 33.04H248.049C247.921 33.856 247.577 34.584 247.017 35.224C246.473 35.864 245.729 36.368 244.785 36.736C243.841 37.104 242.689 37.288 241.329 37.288C239.809 37.288 238.465 37.048 237.297 36.568C236.129 36.072 235.217 35.36 234.561 34.432C233.905 33.504 233.577 32.384 233.577 31.072C233.577 29.76 233.897 28.64 234.537 27.712C235.177 26.768 236.065 26.048 237.201 25.552C238.353 25.056 239.697 24.808 241.233 24.808C242.801 24.808 244.105 25.056 245.145 25.552C246.185 26.048 246.953 26.8 247.449 27.808C247.961 28.8 248.177 30.072 248.097 31.624H236.721C236.801 32.232 237.025 32.784 237.393 33.28C237.777 33.776 238.289 34.168 238.929 34.456C239.585 34.744 240.361 34.888 241.257 34.888C242.249 34.888 243.073 34.72 243.729 34.384C244.401 34.032 244.833 33.584 245.025 33.04ZM241.089 27.184C239.937 27.184 239.001 27.44 238.281 27.952C237.561 28.448 237.097 29.064 236.889 29.8H245.001C244.921 29 244.537 28.368 243.849 27.904C243.177 27.424 242.257 27.184 241.089 27.184ZM250.899 25.072H254.019V37H250.899V25.072ZM259.563 24.808C260.299 24.808 260.979 24.904 261.603 25.096C262.227 25.288 262.771 25.584 263.235 25.984C263.699 26.384 264.059 26.896 264.315 27.52C264.571 28.128 264.699 28.856 264.699 29.704V37H261.579V30.256C261.579 29.248 261.331 28.512 260.835 28.048C260.355 27.568 259.563 27.328 258.459 27.328C257.627 27.328 256.875 27.488 256.203 27.808C255.531 28.128 254.987 28.536 254.571 29.032C254.155 29.512 253.915 30.016 253.851 30.544L253.827 29.32C253.907 28.76 254.091 28.216 254.379 27.688C254.667 27.16 255.051 26.68 255.531 26.248C256.027 25.8 256.611 25.448 257.283 25.192C257.955 24.936 258.715 24.808 259.563 24.808ZM267.179 25.072H276.443V27.496H267.179V25.072ZM270.251 21.808H273.371V37H270.251V21.808Z" fill="white"/>
</svg>
