<svg width="396" height="101" viewBox="0 0 396 101" fill="none" xmlns="http://www.w3.org/2000/svg">
<rect width="396" height="101" rx="50.5" fill="#614F89"/>
<path d="M56.064 66L42.96 34.944H50.016L61.104 62.448L59.04 62.496L69.6 34.944H76.944L87.504 62.496L85.44 62.448L96.528 34.944H103.44L90.48 66H82.656L72.288 39.072H74.304L63.888 66H56.064ZM129.694 66V52.896C129.694 51.584 129.47 50.496 129.022 49.632C128.575 48.768 127.855 48.112 126.862 47.664C125.902 47.216 124.606 46.992 122.974 46.992C121.406 46.992 119.983 47.296 118.703 47.904C117.422 48.48 116.382 49.248 115.582 50.208C114.782 51.136 114.334 52.128 114.238 53.184L114.19 50.544C114.35 49.488 114.718 48.432 115.294 47.376C115.87 46.32 116.638 45.36 117.599 44.496C118.559 43.632 119.711 42.944 121.055 42.432C122.43 41.888 123.966 41.616 125.662 41.616C127.134 41.616 128.495 41.808 129.743 42.192C130.991 42.544 132.078 43.104 133.006 43.872C133.935 44.64 134.655 45.6 135.167 46.752C135.679 47.872 135.935 49.2 135.935 50.736V66H129.694ZM108.334 66V32.544H114.574V66H108.334ZM149.718 31.68V37.152H142.47V31.68H149.718ZM142.95 42.144H149.19V66H142.95V42.144ZM154.689 42.144H173.217V46.992H154.689V42.144ZM160.833 35.616H167.073V66H160.833V35.616ZM199.558 58.08H205.606C205.35 59.712 204.662 61.168 203.542 62.448C202.454 63.728 200.966 64.736 199.078 65.472C197.19 66.208 194.886 66.576 192.166 66.576C189.126 66.576 186.438 66.096 184.102 65.136C181.766 64.144 179.942 62.72 178.63 60.864C177.318 59.008 176.662 56.768 176.662 54.144C176.662 51.52 177.302 49.28 178.582 47.424C179.862 45.536 181.638 44.096 183.91 43.104C186.214 42.112 188.902 41.616 191.974 41.616C195.11 41.616 197.718 42.112 199.798 43.104C201.878 44.096 203.414 45.6 204.406 47.616C205.43 49.6 205.862 52.144 205.702 55.248H182.95C183.11 56.464 183.558 57.568 184.294 58.56C185.062 59.552 186.086 60.336 187.366 60.912C188.678 61.488 190.23 61.776 192.022 61.776C194.006 61.776 195.654 61.44 196.966 60.768C198.31 60.064 199.174 59.168 199.558 58.08ZM191.686 46.368C189.382 46.368 187.51 46.88 186.07 47.904C184.63 48.896 183.702 50.128 183.286 51.6H199.51C199.35 50 198.582 48.736 197.206 47.808C195.862 46.848 194.022 46.368 191.686 46.368ZM224.323 32.544H230.563V66H224.323V32.544ZM249.45 66.528C247.082 66.528 244.922 66.016 242.97 64.992C241.05 63.936 239.514 62.48 238.362 60.624C237.242 58.736 236.682 56.56 236.682 54.096C236.682 51.568 237.258 49.376 238.41 47.52C239.562 45.664 241.114 44.224 243.066 43.2C245.05 42.144 247.29 41.616 249.786 41.616C252.538 41.616 254.746 42.176 256.41 43.296C258.106 44.384 259.338 45.872 260.106 47.76C260.874 49.648 261.258 51.76 261.258 54.096C261.258 55.504 261.034 56.944 260.586 58.416C260.138 59.856 259.45 61.2 258.522 62.448C257.594 63.664 256.378 64.656 254.874 65.424C253.37 66.16 251.562 66.528 249.45 66.528ZM251.466 61.728C253.354 61.728 254.986 61.408 256.362 60.768C257.738 60.128 258.794 59.232 259.53 58.08C260.266 56.928 260.634 55.6 260.634 54.096C260.634 52.464 260.25 51.088 259.482 49.968C258.746 48.816 257.69 47.952 256.314 47.376C254.97 46.768 253.354 46.464 251.466 46.464C248.81 46.464 246.746 47.168 245.274 48.576C243.802 49.952 243.066 51.792 243.066 54.096C243.066 55.632 243.418 56.976 244.122 58.128C244.826 59.248 245.802 60.128 247.05 60.768C248.33 61.408 249.802 61.728 251.466 61.728ZM260.634 42.144H266.874V66H261.066C261.066 66 261.018 65.696 260.922 65.088C260.858 64.448 260.794 63.648 260.73 62.688C260.666 61.728 260.634 60.784 260.634 59.856V42.144ZM291.397 66.528C289.285 66.528 287.477 66.16 285.973 65.424C284.469 64.656 283.253 63.664 282.325 62.448C281.397 61.2 280.709 59.856 280.261 58.416C279.813 56.944 279.589 55.504 279.589 54.096C279.589 52.336 279.797 50.704 280.213 49.2C280.661 47.696 281.349 46.384 282.277 45.264C283.205 44.112 284.421 43.216 285.925 42.576C287.429 41.936 289.253 41.616 291.397 41.616C293.861 41.616 296.037 42.144 297.925 43.2C299.845 44.224 301.349 45.664 302.437 47.52C303.557 49.376 304.117 51.568 304.117 54.096C304.117 56.56 303.557 58.736 302.437 60.624C301.317 62.48 299.797 63.936 297.877 64.992C295.957 66.016 293.797 66.528 291.397 66.528ZM289.381 61.728C291.077 61.728 292.549 61.408 293.797 60.768C295.045 60.128 296.005 59.248 296.677 58.128C297.381 56.976 297.733 55.632 297.733 54.096C297.733 51.792 296.997 49.936 295.525 48.528C294.085 47.12 292.037 46.416 289.381 46.416C287.525 46.416 285.909 46.72 284.533 47.328C283.157 47.936 282.085 48.816 281.317 49.968C280.581 51.088 280.213 52.464 280.213 54.096C280.213 55.6 280.581 56.928 281.317 58.08C282.053 59.232 283.109 60.128 284.485 60.768C285.861 61.408 287.493 61.728 289.381 61.728ZM280.213 32.544V59.856C280.213 60.88 280.165 61.984 280.069 63.168C279.973 64.32 279.877 65.264 279.781 66H273.973V32.544H280.213ZM331.436 58.08H337.484C337.228 59.712 336.54 61.168 335.42 62.448C334.332 63.728 332.844 64.736 330.956 65.472C329.068 66.208 326.764 66.576 324.044 66.576C321.004 66.576 318.316 66.096 315.98 65.136C313.644 64.144 311.82 62.72 310.508 60.864C309.196 59.008 308.54 56.768 308.54 54.144C308.54 51.52 309.18 49.28 310.46 47.424C311.74 45.536 313.516 44.096 315.788 43.104C318.092 42.112 320.78 41.616 323.852 41.616C326.988 41.616 329.596 42.112 331.676 43.104C333.756 44.096 335.292 45.6 336.284 47.616C337.308 49.6 337.74 52.144 337.58 55.248H314.828C314.988 56.464 315.436 57.568 316.172 58.56C316.94 59.552 317.964 60.336 319.244 60.912C320.556 61.488 322.108 61.776 323.9 61.776C325.884 61.776 327.532 61.44 328.844 60.768C330.188 60.064 331.052 59.168 331.436 58.08ZM323.564 46.368C321.26 46.368 319.388 46.88 317.948 47.904C316.508 48.896 315.58 50.128 315.164 51.6H331.388C331.228 50 330.46 48.736 329.084 47.808C327.74 46.848 325.9 46.368 323.564 46.368ZM343.663 32.544H349.903V66H343.663V32.544Z" fill="white"/>
</svg>
