<svg width="200" height="67" viewBox="0 0 200 67" fill="none" xmlns="http://www.w3.org/2000/svg">
<rect width="200" height="67" rx="33.5" fill="#E14841"/>
<path d="M37.696 39.488V35.936H51.392V39.488H37.696ZM32.544 44L42.272 23.296H46.88L56.704 44H52.064L43.552 25.344H45.6L37.152 44H32.544ZM67.5585 41.568C65.8305 41.568 64.3052 41.312 62.9825 40.8C61.6812 40.2667 60.6678 39.488 59.9425 38.464C59.2172 37.44 58.8545 36.2027 58.8545 34.752C58.8545 33.3227 59.2065 32.0853 59.9105 31.04C60.6145 29.9947 61.6172 29.184 62.9185 28.608C64.2412 28.032 65.7878 27.744 67.5585 27.744C68.0492 27.744 68.5185 27.776 68.9665 27.84C69.4358 27.904 69.8945 27.9893 70.3425 28.096L78.3745 28.128V31.264C77.2865 31.2853 76.1772 31.1573 75.0465 30.88C73.9372 30.5813 72.9558 30.2613 72.1025 29.92L72.0065 29.696C72.7318 30.0373 73.4145 30.464 74.0545 30.976C74.6945 31.4667 75.2065 32.0427 75.5905 32.704C75.9958 33.344 76.1985 34.0907 76.1985 34.944C76.1985 36.3307 75.8465 37.5253 75.1425 38.528C74.4385 39.5093 73.4358 40.2667 72.1345 40.8C70.8545 41.312 69.3292 41.568 67.5585 41.568ZM72.9025 50.56V49.792C72.9025 48.8107 72.5825 48.128 71.9425 47.744C71.3238 47.36 70.4705 47.168 69.3825 47.168H64.4225C63.4625 47.168 62.6518 47.0933 61.9905 46.944C61.3505 46.7947 60.8385 46.5813 60.4545 46.304C60.0705 46.0267 59.7932 45.696 59.6225 45.312C59.4518 44.9493 59.3665 44.5547 59.3665 44.128C59.3665 43.2747 59.6438 42.6347 60.1985 42.208C60.7532 41.76 61.4998 41.4613 62.4385 41.312C63.3772 41.1627 64.4118 41.1307 65.5425 41.216L67.5585 41.568C66.2145 41.6107 65.2118 41.728 64.5505 41.92C63.9105 42.0907 63.5905 42.4427 63.5905 42.976C63.5905 43.296 63.7185 43.552 63.9745 43.744C64.2305 43.9147 64.5932 44 65.0625 44H70.2785C71.7078 44 72.9238 44.1493 73.9265 44.448C74.9505 44.768 75.7292 45.2907 76.2625 46.016C76.7958 46.7627 77.0625 47.776 77.0625 49.056V50.56H72.9025ZM67.5585 38.56C68.4758 38.56 69.2758 38.4107 69.9585 38.112C70.6625 37.8133 71.2065 37.3867 71.5905 36.832C71.9745 36.256 72.1665 35.5733 72.1665 34.784C72.1665 33.9733 71.9745 33.28 71.5905 32.704C71.2065 32.128 70.6732 31.6907 69.9905 31.392C69.3078 31.072 68.4972 30.912 67.5585 30.912C66.6412 30.912 65.8305 31.072 65.1265 31.392C64.4225 31.6907 63.8785 32.128 63.4945 32.704C63.1105 33.28 62.9185 33.9733 62.9185 34.784C62.9185 35.5733 63.1105 36.256 63.4945 36.832C63.8785 37.3867 64.4118 37.8133 65.0945 38.112C65.7985 38.4107 66.6198 38.56 67.5585 38.56ZM95.946 38.72H99.978C99.8073 39.808 99.3487 40.7787 98.602 41.632C97.8767 42.4853 96.8847 43.1573 95.626 43.648C94.3673 44.1387 92.8313 44.384 91.018 44.384C88.9913 44.384 87.1993 44.064 85.642 43.424C84.0847 42.7627 82.8687 41.8133 81.994 40.576C81.1193 39.3387 80.682 37.8453 80.682 36.096C80.682 34.3467 81.1087 32.8533 81.962 31.616C82.8153 30.3573 83.9993 29.3973 85.514 28.736C87.05 28.0747 88.842 27.744 90.89 27.744C92.9807 27.744 94.7193 28.0747 96.106 28.736C97.4927 29.3973 98.5167 30.4 99.178 31.744C99.8607 33.0667 100.149 34.7627 100.042 36.832H84.874C84.9807 37.6427 85.2793 38.3787 85.77 39.04C86.282 39.7013 86.9647 40.224 87.818 40.608C88.6927 40.992 89.7273 41.184 90.922 41.184C92.2447 41.184 93.3433 40.96 94.218 40.512C95.114 40.0427 95.69 39.4453 95.946 38.72ZM90.698 30.912C89.162 30.912 87.914 31.2533 86.954 31.936C85.994 32.5973 85.3753 33.4187 85.098 34.4H95.914C95.8073 33.3333 95.2953 32.4907 94.378 31.872C93.482 31.232 92.2553 30.912 90.698 30.912ZM103.777 28.096H107.937V44H103.777V28.096ZM115.329 27.744C116.311 27.744 117.217 27.872 118.049 28.128C118.881 28.384 119.607 28.7787 120.225 29.312C120.844 29.8453 121.324 30.528 121.665 31.36C122.007 32.1707 122.177 33.1413 122.177 34.272V44H118.017V35.008C118.017 33.664 117.687 32.6827 117.025 32.064C116.385 31.424 115.329 31.104 113.857 31.104C112.748 31.104 111.745 31.3173 110.849 31.744C109.953 32.1707 109.228 32.7147 108.673 33.376C108.119 34.016 107.799 34.688 107.713 35.392L107.681 33.76C107.788 33.0133 108.033 32.288 108.417 31.584C108.801 30.88 109.313 30.24 109.953 29.664C110.615 29.0667 111.393 28.5973 112.289 28.256C113.185 27.9147 114.199 27.744 115.329 27.744ZM145.485 37.728C145.378 39.1147 144.93 40.3093 144.141 41.312C143.373 42.3147 142.306 43.0827 140.941 43.616C139.576 44.128 137.954 44.384 136.077 44.384C134.114 44.384 132.354 44.0747 130.797 43.456C129.261 42.816 128.045 41.888 127.149 40.672C126.274 39.4347 125.837 37.9093 125.837 36.096C125.837 34.2827 126.274 32.7573 127.149 31.52C128.045 30.2827 129.261 29.344 130.797 28.704C132.354 28.064 134.114 27.744 136.077 27.744C137.954 27.744 139.565 28.0107 140.909 28.544C142.253 29.056 143.309 29.8027 144.077 30.784C144.866 31.7653 145.325 32.9493 145.453 34.336H141.645C141.282 33.2693 140.61 32.4373 139.629 31.84C138.648 31.2427 137.464 30.944 136.077 30.944C134.968 30.944 133.954 31.136 133.037 31.52C132.141 31.904 131.416 32.48 130.861 33.248C130.328 33.9947 130.061 34.944 130.061 36.096C130.061 37.2267 130.328 38.176 130.861 38.944C131.394 39.6907 132.12 40.256 133.037 40.64C133.954 41.0027 134.968 41.184 136.077 41.184C137.57 41.184 138.786 40.8853 139.725 40.288C140.685 39.6907 141.336 38.8373 141.677 37.728H145.485ZM147.742 28.096H152.158L159.038 43.36L155.454 44L147.742 28.096ZM167.198 28.096L156.19 50.4H151.87L156.574 41.632L162.75 28.096H167.198Z" fill="white"/>
</svg>
