<svg width="173" height="83" viewBox="0 0 173 83" fill="none" xmlns="http://www.w3.org/2000/svg">
<rect width="173" height="83" rx="41.5" fill="#FEA4B9"/>
<path d="M58.624 44.544C58.432 46.208 57.8453 47.6267 56.864 48.8C55.8827 49.9733 54.5493 50.8693 52.864 51.488C51.1787 52.1067 49.1733 52.416 46.848 52.416C44.9067 52.416 43.1253 52.192 41.504 51.744C39.904 51.296 38.5173 50.624 37.344 49.728C36.192 48.832 35.296 47.7227 34.656 46.4C34.016 45.056 33.696 43.488 33.696 41.696C33.696 39.904 34.016 38.336 34.656 36.992C35.296 35.648 36.192 34.528 37.344 33.632C38.5173 32.7147 39.904 32.032 41.504 31.584C43.1253 31.1147 44.9067 30.88 46.848 30.88C49.1733 30.88 51.1787 31.2 52.864 31.84C54.5707 32.48 55.9147 33.3973 56.896 34.592C57.8773 35.7653 58.4533 37.1947 58.624 38.88H54.4C54.1227 37.984 53.6533 37.216 52.992 36.576C52.352 35.9147 51.52 35.4133 50.496 35.072C49.472 34.7307 48.256 34.56 46.848 34.56C45.0987 34.56 43.5627 34.8373 42.24 35.392C40.9173 35.9253 39.8933 36.7253 39.168 37.792C38.4427 38.8373 38.08 40.1387 38.08 41.696C38.08 43.232 38.4427 44.5227 39.168 45.568C39.8933 46.6133 40.9173 47.4133 42.24 47.968C43.5627 48.5013 45.0987 48.768 46.848 48.768C48.256 48.768 49.4613 48.5973 50.464 48.256C51.488 47.9147 52.32 47.424 52.96 46.784C53.6213 46.144 54.1013 45.3973 54.4 44.544H58.624ZM63.1925 29.696H67.3525V52H63.1925V29.696ZM81.576 52.384C79.5707 52.384 77.8 52.064 76.264 51.424C74.7493 50.784 73.5653 49.856 72.712 48.64C71.8587 47.4027 71.432 45.888 71.432 44.096C71.432 42.304 71.8587 40.7893 72.712 39.552C73.5653 38.2933 74.7493 37.344 76.264 36.704C77.8 36.064 79.5707 35.744 81.576 35.744C83.5813 35.744 85.3307 36.064 86.824 36.704C88.3387 37.344 89.5227 38.2933 90.376 39.552C91.2293 40.7893 91.656 42.304 91.656 44.096C91.656 45.888 91.2293 47.4027 90.376 48.64C89.5227 49.856 88.3387 50.784 86.824 51.424C85.3307 52.064 83.5813 52.384 81.576 52.384ZM81.576 49.184C82.6853 49.184 83.6773 48.992 84.552 48.608C85.448 48.2027 86.152 47.6267 86.664 46.88C87.176 46.112 87.432 45.184 87.432 44.096C87.432 43.008 87.176 42.08 86.664 41.312C86.152 40.5227 85.4587 39.9253 84.584 39.52C83.7093 39.1147 82.7067 38.912 81.576 38.912C80.4667 38.912 79.464 39.1147 78.568 39.52C77.672 39.9253 76.9573 40.512 76.424 41.28C75.912 42.048 75.656 42.9867 75.656 44.096C75.656 45.184 75.912 46.112 76.424 46.88C76.936 47.6267 77.64 48.2027 78.536 48.608C79.432 48.992 80.4453 49.184 81.576 49.184ZM113.771 52H109.611V36.096H113.771V52ZM109.835 44.352L109.867 45.44C109.825 45.7387 109.718 46.176 109.547 46.752C109.377 47.3067 109.11 47.904 108.747 48.544C108.406 49.184 107.958 49.8027 107.403 50.4C106.849 50.976 106.166 51.456 105.355 51.84C104.545 52.2027 103.585 52.384 102.475 52.384C101.601 52.384 100.737 52.2773 99.8832 52.064C99.0512 51.8507 98.2939 51.4987 97.6112 51.008C96.9286 50.496 96.3846 49.8133 95.9792 48.96C95.5739 48.1067 95.3712 47.0293 95.3712 45.728V36.096H99.5312V45.024C99.5312 46.048 99.6912 46.8587 100.011 47.456C100.353 48.032 100.843 48.4373 101.483 48.672C102.123 48.9067 102.881 49.024 103.755 49.024C104.907 49.024 105.899 48.7787 106.731 48.288C107.563 47.776 108.235 47.1573 108.747 46.432C109.281 45.7067 109.643 45.0133 109.835 44.352ZM125.943 52.352C124.343 52.352 122.892 52.0107 121.591 51.328C120.311 50.624 119.297 49.6533 118.551 48.416C117.804 47.1573 117.431 45.7067 117.431 44.064C117.431 42.3787 117.793 40.9173 118.519 39.68C119.265 38.4427 120.279 37.4827 121.559 36.8C122.839 36.096 124.3 35.744 125.943 35.744C127.372 35.744 128.588 35.9573 129.591 36.384C130.593 36.8107 131.404 37.408 132.023 38.176C132.641 38.9227 133.089 39.7973 133.367 40.8C133.665 41.8027 133.815 42.8907 133.815 44.064C133.815 45.0027 133.665 45.9627 133.367 46.944C133.068 47.904 132.609 48.8 131.991 49.632C131.372 50.4427 130.561 51.104 129.559 51.616C128.556 52.1067 127.351 52.352 125.943 52.352ZM127.287 49.152C128.545 49.152 129.633 48.9387 130.551 48.512C131.468 48.0853 132.172 47.488 132.663 46.72C133.153 45.952 133.399 45.0667 133.399 44.064C133.399 42.976 133.143 42.0587 132.631 41.312C132.14 40.544 131.436 39.9573 130.519 39.552C129.623 39.1467 128.545 38.944 127.287 38.944C125.516 38.944 124.14 39.4133 123.159 40.352C122.177 41.2907 121.687 42.528 121.687 44.064C121.687 45.088 121.921 45.984 122.391 46.752C122.86 47.4987 123.511 48.0853 124.343 48.512C125.196 48.9387 126.177 49.152 127.287 49.152ZM133.399 29.696H137.559V52H133.687C133.623 51.5093 133.559 50.88 133.495 50.112C133.431 49.3227 133.399 48.5867 133.399 47.904V29.696Z" fill="white"/>
</svg>
