<svg width="131" height="58" viewBox="0 0 131 58" fill="none" xmlns="http://www.w3.org/2000/svg">
<rect width="131" height="58" rx="29" fill="#F7BA2D"/>
<path d="M36.272 33.616V30.952H46.544V33.616H36.272ZM32.408 37L39.704 21.472H43.16L50.528 37H47.048L40.664 23.008H42.2L35.864 37H32.408ZM58.6689 35.176C57.3729 35.176 56.2289 34.984 55.2369 34.6C54.2609 34.2 53.5009 33.616 52.9569 32.848C52.4129 32.08 52.1409 31.152 52.1409 30.064C52.1409 28.992 52.4049 28.064 52.9329 27.28C53.4609 26.496 54.2129 25.888 55.1889 25.456C56.1809 25.024 57.3409 24.808 58.6689 24.808C59.0369 24.808 59.3889 24.832 59.7249 24.88C60.0769 24.928 60.4209 24.992 60.7569 25.072L66.7809 25.096V27.448C65.9649 27.464 65.1329 27.368 64.2849 27.16C63.4529 26.936 62.7169 26.696 62.0769 26.44L62.0049 26.272C62.5489 26.528 63.0609 26.848 63.5409 27.232C64.0209 27.6 64.4049 28.032 64.6929 28.528C64.9969 29.008 65.1489 29.568 65.1489 30.208C65.1489 31.248 64.8849 32.144 64.3569 32.896C63.8289 33.632 63.0769 34.2 62.1009 34.6C61.1409 34.984 59.9969 35.176 58.6689 35.176ZM62.6769 41.92V41.344C62.6769 40.608 62.4369 40.096 61.9569 39.808C61.4929 39.52 60.8529 39.376 60.0369 39.376H56.3169C55.5969 39.376 54.9889 39.32 54.4929 39.208C54.0129 39.096 53.6289 38.936 53.3409 38.728C53.0529 38.52 52.8449 38.272 52.7169 37.984C52.5889 37.712 52.5249 37.416 52.5249 37.096C52.5249 36.456 52.7329 35.976 53.1489 35.656C53.5649 35.32 54.1249 35.096 54.8289 34.984C55.5329 34.872 56.3089 34.848 57.1569 34.912L58.6689 35.176C57.6609 35.208 56.9089 35.296 56.4129 35.44C55.9329 35.568 55.6929 35.832 55.6929 36.232C55.6929 36.472 55.7889 36.664 55.9809 36.808C56.1729 36.936 56.4449 37 56.7969 37H60.7089C61.7809 37 62.6929 37.112 63.4449 37.336C64.2129 37.576 64.7969 37.968 65.1969 38.512C65.5969 39.072 65.7969 39.832 65.7969 40.792V41.92H62.6769ZM58.6689 32.92C59.3569 32.92 59.9569 32.808 60.4689 32.584C60.9969 32.36 61.4049 32.04 61.6929 31.624C61.9809 31.192 62.1249 30.68 62.1249 30.088C62.1249 29.48 61.9809 28.96 61.6929 28.528C61.4049 28.096 61.0049 27.768 60.4929 27.544C59.9809 27.304 59.3729 27.184 58.6689 27.184C57.9809 27.184 57.3729 27.304 56.8449 27.544C56.3169 27.768 55.9089 28.096 55.6209 28.528C55.3329 28.96 55.1889 29.48 55.1889 30.088C55.1889 30.68 55.3329 31.192 55.6209 31.624C55.9089 32.04 56.3089 32.36 56.8209 32.584C57.3489 32.808 57.9649 32.92 58.6689 32.92ZM72.8744 19.84V22.576H69.2504V19.84H72.8744ZM69.4904 25.072H72.6104V37H69.4904V25.072ZM76.4403 20.272H79.5603V37H76.4403V20.272ZM94.0679 33.04H97.0919C96.9639 33.856 96.6199 34.584 96.0599 35.224C95.5159 35.864 94.7719 36.368 93.8279 36.736C92.8839 37.104 91.7319 37.288 90.3719 37.288C88.8519 37.288 87.5079 37.048 86.3399 36.568C85.1719 36.072 84.2599 35.36 83.6039 34.432C82.9479 33.504 82.6199 32.384 82.6199 31.072C82.6199 29.76 82.9399 28.64 83.5799 27.712C84.2199 26.768 85.1079 26.048 86.2439 25.552C87.3959 25.056 88.7399 24.808 90.2759 24.808C91.8439 24.808 93.1479 25.056 94.1879 25.552C95.2279 26.048 95.9959 26.8 96.4919 27.808C97.0039 28.8 97.2199 30.072 97.1399 31.624H85.7639C85.8439 32.232 86.0679 32.784 86.4359 33.28C86.8199 33.776 87.3319 34.168 87.9719 34.456C88.6279 34.744 89.4039 34.888 90.2999 34.888C91.2919 34.888 92.1159 34.72 92.7719 34.384C93.4439 34.032 93.8759 33.584 94.0679 33.04ZM90.1319 27.184C88.9799 27.184 88.0439 27.44 87.3239 27.952C86.6039 28.448 86.1399 29.064 85.9319 29.8H94.0439C93.9639 29 93.5799 28.368 92.8919 27.904C92.2199 27.424 91.2999 27.184 90.1319 27.184Z" fill="white"/>
</svg>
