<svg width="405" height="67" viewBox="0 0 405 67" fill="none" xmlns="http://www.w3.org/2000/svg">
<rect width="405" height="67" rx="33.5" fill="#E14841"/>
<path d="M41.376 44L32.64 23.296H37.344L44.736 41.632L43.36 41.664L50.4 23.296H55.296L62.336 41.664L60.96 41.632L68.352 23.296H72.96L64.32 44H59.104L52.192 26.048H53.536L46.592 44H41.376ZM88.556 38.72H92.588C92.4173 39.808 91.9587 40.7787 91.212 41.632C90.4867 42.4853 89.4947 43.1573 88.236 43.648C86.9773 44.1387 85.4413 44.384 83.628 44.384C81.6013 44.384 79.8093 44.064 78.252 43.424C76.6947 42.7627 75.4787 41.8133 74.604 40.576C73.7293 39.3387 73.292 37.8453 73.292 36.096C73.292 34.3467 73.7187 32.8533 74.572 31.616C75.4253 30.3573 76.6093 29.3973 78.124 28.736C79.66 28.0747 81.452 27.744 83.5 27.744C85.5907 27.744 87.3293 28.0747 88.716 28.736C90.1027 29.3973 91.1267 30.4 91.788 31.744C92.4707 33.0667 92.7587 34.7627 92.652 36.832H77.484C77.5907 37.6427 77.8893 38.3787 78.38 39.04C78.892 39.7013 79.5747 40.224 80.428 40.608C81.3027 40.992 82.3373 41.184 83.532 41.184C84.8547 41.184 85.9533 40.96 86.828 40.512C87.724 40.0427 88.3 39.4453 88.556 38.72ZM83.308 30.912C81.772 30.912 80.524 31.2533 79.564 31.936C78.604 32.5973 77.9853 33.4187 77.708 34.4H88.524C88.4173 33.3333 87.9053 32.4907 86.988 31.872C86.092 31.232 84.8653 30.912 83.308 30.912ZM108.643 44.352C107.235 44.352 106.03 44.1067 105.027 43.616C104.025 43.104 103.214 42.4427 102.595 41.632C101.977 40.8 101.518 39.904 101.219 38.944C100.921 37.9627 100.771 37.0027 100.771 36.064C100.771 34.8907 100.91 33.8027 101.187 32.8C101.486 31.7973 101.945 30.9227 102.563 30.176C103.182 29.408 103.993 28.8107 104.995 28.384C105.998 27.9573 107.214 27.744 108.643 27.744C110.286 27.744 111.737 28.096 112.996 28.8C114.276 29.4827 115.278 30.4427 116.003 31.68C116.75 32.9173 117.123 34.3787 117.123 36.064C117.123 37.7067 116.75 39.1573 116.003 40.416C115.257 41.6533 114.243 42.624 112.963 43.328C111.683 44.0107 110.243 44.352 108.643 44.352ZM107.299 41.152C108.43 41.152 109.411 40.9387 110.243 40.512C111.075 40.0853 111.715 39.4987 112.163 38.752C112.633 37.984 112.868 37.088 112.868 36.064C112.868 34.528 112.377 33.2907 111.396 32.352C110.435 31.4133 109.07 30.944 107.299 30.944C106.062 30.944 104.985 31.1467 104.067 31.552C103.15 31.9573 102.435 32.544 101.923 33.312C101.433 34.0587 101.187 34.976 101.187 36.064C101.187 37.0667 101.433 37.952 101.923 38.72C102.414 39.488 103.118 40.0853 104.035 40.512C104.953 40.9387 106.041 41.152 107.299 41.152ZM101.187 21.696V39.904C101.187 40.5867 101.155 41.3227 101.091 42.112C101.027 42.88 100.963 43.5093 100.899 44H97.0275V21.696H101.187ZM141.583 23.296C143.908 23.296 145.849 23.5733 147.407 24.128C148.964 24.6827 150.201 25.44 151.119 26.4C152.057 27.3387 152.719 28.4267 153.103 29.664C153.508 30.9013 153.711 32.2027 153.711 33.568C153.711 34.9333 153.487 36.2453 153.039 37.504C152.612 38.7627 151.919 39.8827 150.959 40.864C150.02 41.824 148.772 42.592 147.215 43.168C145.679 43.7227 143.801 44 141.583 44H129.743V23.296H141.583ZM133.999 40.352H141.487C143.023 40.352 144.292 40.1707 145.295 39.808C146.319 39.424 147.129 38.912 147.727 38.272C148.324 37.632 148.751 36.9067 149.007 36.096C149.263 35.2853 149.391 34.4427 149.391 33.568C149.391 32.6933 149.263 31.8613 149.007 31.072C148.751 30.2827 148.324 29.5787 147.727 28.96C147.129 28.3413 146.319 27.8507 145.295 27.488C144.292 27.1253 143.023 26.944 141.487 26.944H133.999V40.352ZM172.46 38.72H176.492C176.321 39.808 175.862 40.7787 175.116 41.632C174.39 42.4853 173.398 43.1573 172.14 43.648C170.881 44.1387 169.345 44.384 167.532 44.384C165.505 44.384 163.713 44.064 162.156 43.424C160.598 42.7627 159.382 41.8133 158.508 40.576C157.633 39.3387 157.196 37.8453 157.196 36.096C157.196 34.3467 157.622 32.8533 158.476 31.616C159.329 30.3573 160.513 29.3973 162.028 28.736C163.564 28.0747 165.356 27.744 167.404 27.744C169.494 27.744 171.233 28.0747 172.62 28.736C174.006 29.3973 175.03 30.4 175.692 31.744C176.374 33.0667 176.662 34.7627 176.556 36.832H161.388C161.494 37.6427 161.793 38.3787 162.284 39.04C162.796 39.7013 163.478 40.224 164.332 40.608C165.206 40.992 166.241 41.184 167.436 41.184C168.758 41.184 169.857 40.96 170.732 40.512C171.628 40.0427 172.204 39.4453 172.46 38.72ZM167.212 30.912C165.676 30.912 164.428 31.2533 163.468 31.936C162.508 32.5973 161.889 33.4187 161.612 34.4H172.428C172.321 33.3333 171.809 32.4907 170.892 31.872C169.996 31.232 168.769 30.912 167.212 30.912ZM188.434 41.28H186.93L192.754 28.096H197.298L189.65 44H185.714L178.226 28.096H182.802L188.434 41.28ZM214.146 38.72H218.178C218.007 39.808 217.549 40.7787 216.802 41.632C216.077 42.4853 215.085 43.1573 213.826 43.648C212.567 44.1387 211.031 44.384 209.218 44.384C207.191 44.384 205.399 44.064 203.842 43.424C202.285 42.7627 201.069 41.8133 200.194 40.576C199.319 39.3387 198.882 37.8453 198.882 36.096C198.882 34.3467 199.309 32.8533 200.162 31.616C201.015 30.3573 202.199 29.3973 203.714 28.736C205.25 28.0747 207.042 27.744 209.09 27.744C211.181 27.744 212.919 28.0747 214.306 28.736C215.693 29.3973 216.717 30.4 217.378 31.744C218.061 33.0667 218.349 34.7627 218.242 36.832H203.074C203.181 37.6427 203.479 38.3787 203.97 39.04C204.482 39.7013 205.165 40.224 206.018 40.608C206.893 40.992 207.927 41.184 209.122 41.184C210.445 41.184 211.543 40.96 212.418 40.512C213.314 40.0427 213.89 39.4453 214.146 38.72ZM208.898 30.912C207.362 30.912 206.114 31.2533 205.154 31.936C204.194 32.5973 203.575 33.4187 203.298 34.4H214.114C214.007 33.3333 213.495 32.4907 212.578 31.872C211.682 31.232 210.455 30.912 208.898 30.912ZM222.297 21.696H226.457V44H222.297V21.696ZM240.681 44.384C238.676 44.384 236.905 44.064 235.369 43.424C233.854 42.784 232.67 41.856 231.817 40.64C230.964 39.4027 230.537 37.888 230.537 36.096C230.537 34.304 230.964 32.7893 231.817 31.552C232.67 30.2933 233.854 29.344 235.369 28.704C236.905 28.064 238.676 27.744 240.681 27.744C242.686 27.744 244.436 28.064 245.929 28.704C247.444 29.344 248.628 30.2933 249.481 31.552C250.334 32.7893 250.761 34.304 250.761 36.096C250.761 37.888 250.334 39.4027 249.481 40.64C248.628 41.856 247.444 42.784 245.929 43.424C244.436 44.064 242.686 44.384 240.681 44.384ZM240.681 41.184C241.79 41.184 242.782 40.992 243.657 40.608C244.553 40.2027 245.257 39.6267 245.769 38.88C246.281 38.112 246.537 37.184 246.537 36.096C246.537 35.008 246.281 34.08 245.769 33.312C245.257 32.5227 244.564 31.9253 243.689 31.52C242.814 31.1147 241.812 30.912 240.681 30.912C239.572 30.912 238.569 31.1147 237.673 31.52C236.777 31.9253 236.062 32.512 235.529 33.28C235.017 34.048 234.761 34.9867 234.761 36.096C234.761 37.184 235.017 38.112 235.529 38.88C236.041 39.6267 236.745 40.2027 237.641 40.608C238.537 40.992 239.55 41.184 240.681 41.184ZM266.06 44.384C264.652 44.384 263.447 44.1387 262.444 43.648C261.463 43.136 260.663 42.4747 260.044 41.664C259.426 40.832 258.967 39.9253 258.668 38.944C258.37 37.9627 258.22 37.0027 258.22 36.064C258.22 34.8907 258.359 33.8027 258.636 32.8C258.935 31.7973 259.394 30.9227 260.012 30.176C260.631 29.408 261.431 28.8107 262.412 28.384C263.415 27.9573 264.631 27.744 266.06 27.744C267.66 27.744 269.1 28.096 270.38 28.8C271.66 29.504 272.674 30.4853 273.42 31.744C274.188 32.9813 274.572 34.4213 274.572 36.064C274.572 37.7493 274.188 39.2213 273.42 40.48C272.652 41.7173 271.628 42.6773 270.348 43.36C269.068 44.0427 267.639 44.384 266.06 44.384ZM264.716 41.152C265.847 41.152 266.828 40.9387 267.66 40.512C268.514 40.0853 269.164 39.4987 269.612 38.752C270.082 37.984 270.316 37.088 270.316 36.064C270.316 34.528 269.826 33.2907 268.844 32.352C267.884 31.4133 266.508 30.944 264.716 30.944C263.586 30.944 262.551 31.1467 261.612 31.552C260.695 31.9573 259.97 32.544 259.436 33.312C258.903 34.0587 258.636 34.976 258.636 36.064C258.636 37.088 258.882 37.984 259.372 38.752C259.863 39.4987 260.567 40.0853 261.484 40.512C262.402 40.9387 263.479 41.152 264.716 41.152ZM254.476 28.096H258.444L258.636 32.32V50.4H254.476V28.096ZM278.272 28.096H282.432V44H278.272V28.096ZM289.824 27.744C290.806 27.744 291.712 27.872 292.544 28.128C293.376 28.384 294.102 28.7787 294.72 29.312C295.339 29.8453 295.819 30.528 296.16 31.36C296.502 32.1707 296.672 33.1413 296.672 34.272V44H292.512V35.008C292.512 33.664 292.182 32.6827 291.52 32.064C290.88 31.424 289.824 31.104 288.352 31.104C287.243 31.104 286.24 31.3173 285.344 31.744C284.448 32.1707 283.723 32.7147 283.168 33.376C282.614 34.016 282.294 34.688 282.208 35.392L282.176 33.76C282.283 33.0133 282.528 32.288 282.912 31.584C283.296 30.88 283.808 30.24 284.448 29.664C285.11 29.0667 285.888 28.5973 286.784 28.256C287.68 27.9147 288.694 27.744 289.824 27.744ZM303.68 27.744C304.662 27.744 305.568 27.872 306.4 28.128C307.232 28.384 307.958 28.7787 308.576 29.312C309.195 29.8453 309.675 30.528 310.016 31.36C310.379 32.1707 310.56 33.1413 310.56 34.272V44H306.4V35.008C306.4 33.664 306.07 32.6827 305.408 32.064C304.747 31.424 303.68 31.104 302.208 31.104C301.099 31.104 300.096 31.3173 299.2 31.744C298.304 32.1707 297.579 32.7147 297.024 33.376C296.47 34.016 296.16 34.688 296.096 35.392L296.032 33.664C296.139 32.96 296.395 32.256 296.8 31.552C297.206 30.848 297.739 30.208 298.4 29.632C299.062 29.056 299.83 28.5973 300.704 28.256C301.6 27.9147 302.592 27.744 303.68 27.744ZM329.471 38.72H333.503C333.332 39.808 332.874 40.7787 332.127 41.632C331.402 42.4853 330.41 43.1573 329.151 43.648C327.892 44.1387 326.356 44.384 324.543 44.384C322.516 44.384 320.724 44.064 319.167 43.424C317.61 42.7627 316.394 41.8133 315.519 40.576C314.644 39.3387 314.207 37.8453 314.207 36.096C314.207 34.3467 314.634 32.8533 315.487 31.616C316.34 30.3573 317.524 29.3973 319.039 28.736C320.575 28.0747 322.367 27.744 324.415 27.744C326.506 27.744 328.244 28.0747 329.631 28.736C331.018 29.3973 332.042 30.4 332.703 31.744C333.386 33.0667 333.674 34.7627 333.567 36.832H318.399C318.506 37.6427 318.804 38.3787 319.295 39.04C319.807 39.7013 320.49 40.224 321.343 40.608C322.218 40.992 323.252 41.184 324.447 41.184C325.77 41.184 326.868 40.96 327.743 40.512C328.639 40.0427 329.215 39.4453 329.471 38.72ZM324.223 30.912C322.687 30.912 321.439 31.2533 320.479 31.936C319.519 32.5973 318.9 33.4187 318.623 34.4H329.439C329.332 33.3333 328.82 32.4907 327.903 31.872C327.007 31.232 325.78 30.912 324.223 30.912ZM337.303 28.096H341.463V44H337.303V28.096ZM348.855 27.744C349.836 27.744 350.743 27.872 351.575 28.128C352.407 28.384 353.132 28.7787 353.751 29.312C354.369 29.8453 354.849 30.528 355.191 31.36C355.532 32.1707 355.703 33.1413 355.703 34.272V44H351.543V35.008C351.543 33.664 351.212 32.6827 350.551 32.064C349.911 31.424 348.855 31.104 347.383 31.104C346.273 31.104 345.271 31.3173 344.375 31.744C343.479 32.1707 342.753 32.7147 342.199 33.376C341.644 34.016 341.324 34.688 341.239 35.392L341.207 33.76C341.313 33.0133 341.559 32.288 341.943 31.584C342.327 30.88 342.839 30.24 343.479 29.664C344.14 29.0667 344.919 28.5973 345.815 28.256C346.711 27.9147 347.724 27.744 348.855 27.744ZM359.01 28.096H371.362V31.328H359.01V28.096ZM363.106 23.744H367.266V44H363.106V23.744Z" fill="white"/>
</svg>
