<svg width="595" height="101" viewBox="0 0 595 101" fill="none" xmlns="http://www.w3.org/2000/svg">
<rect width="595" height="101" rx="50.5" fill="#E14841"/>
<path d="M56.064 66L42.96 34.944H50.016L61.104 62.448L59.04 62.496L69.6 34.944H76.944L87.504 62.496L85.44 62.448L96.528 34.944H103.44L90.48 66H82.656L72.288 39.072H74.304L63.888 66H56.064ZM126.834 58.08H132.882C132.626 59.712 131.938 61.168 130.818 62.448C129.73 63.728 128.242 64.736 126.354 65.472C124.466 66.208 122.162 66.576 119.442 66.576C116.402 66.576 113.714 66.096 111.378 65.136C109.042 64.144 107.218 62.72 105.906 60.864C104.594 59.008 103.938 56.768 103.938 54.144C103.938 51.52 104.578 49.28 105.858 47.424C107.138 45.536 108.914 44.096 111.186 43.104C113.49 42.112 116.178 41.616 119.25 41.616C122.386 41.616 124.994 42.112 127.074 43.104C129.154 44.096 130.69 45.6 131.682 47.616C132.706 49.6 133.138 52.144 132.978 55.248H110.226C110.386 56.464 110.834 57.568 111.57 58.56C112.338 59.552 113.362 60.336 114.642 60.912C115.954 61.488 117.506 61.776 119.298 61.776C121.282 61.776 122.93 61.44 124.242 60.768C125.586 60.064 126.45 59.168 126.834 58.08ZM118.962 46.368C116.658 46.368 114.786 46.88 113.346 47.904C111.906 48.896 110.978 50.128 110.562 51.6H126.786C126.626 50 125.858 48.736 124.482 47.808C123.138 46.848 121.298 46.368 118.962 46.368ZM156.965 66.528C154.853 66.528 153.045 66.16 151.541 65.424C150.037 64.656 148.821 63.664 147.893 62.448C146.965 61.2 146.277 59.856 145.829 58.416C145.381 56.944 145.157 55.504 145.157 54.096C145.157 52.336 145.365 50.704 145.781 49.2C146.229 47.696 146.917 46.384 147.845 45.264C148.773 44.112 149.989 43.216 151.493 42.576C152.997 41.936 154.821 41.616 156.965 41.616C159.429 41.616 161.605 42.144 163.493 43.2C165.413 44.224 166.917 45.664 168.005 47.52C169.125 49.376 169.685 51.568 169.685 54.096C169.685 56.56 169.125 58.736 168.005 60.624C166.885 62.48 165.365 63.936 163.445 64.992C161.525 66.016 159.365 66.528 156.965 66.528ZM154.949 61.728C156.645 61.728 158.117 61.408 159.365 60.768C160.613 60.128 161.573 59.248 162.245 58.128C162.949 56.976 163.301 55.632 163.301 54.096C163.301 51.792 162.565 49.936 161.093 48.528C159.653 47.12 157.605 46.416 154.949 46.416C153.093 46.416 151.477 46.72 150.101 47.328C148.725 47.936 147.653 48.816 146.885 49.968C146.149 51.088 145.781 52.464 145.781 54.096C145.781 55.6 146.149 56.928 146.885 58.08C147.621 59.232 148.677 60.128 150.053 60.768C151.429 61.408 153.061 61.728 154.949 61.728ZM145.781 32.544V59.856C145.781 60.88 145.733 61.984 145.637 63.168C145.541 64.32 145.445 65.264 145.349 66H139.541V32.544H145.781ZM206.374 34.944C209.862 34.944 212.774 35.36 215.11 36.192C217.446 37.024 219.302 38.16 220.678 39.6C222.086 41.008 223.078 42.64 223.654 44.496C224.262 46.352 224.566 48.304 224.566 50.352C224.566 52.4 224.23 54.368 223.558 56.256C222.918 58.144 221.878 59.824 220.438 61.296C219.03 62.736 217.158 63.888 214.822 64.752C212.518 65.584 209.702 66 206.374 66H188.614V34.944H206.374ZM194.998 60.528H206.23C208.534 60.528 210.438 60.256 211.942 59.712C213.478 59.136 214.694 58.368 215.59 57.408C216.486 56.448 217.126 55.36 217.51 54.144C217.894 52.928 218.086 51.664 218.086 50.352C218.086 49.04 217.894 47.792 217.51 46.608C217.126 45.424 216.486 44.368 215.59 43.44C214.694 42.512 213.478 41.776 211.942 41.232C210.438 40.688 208.534 40.416 206.23 40.416H194.998V60.528ZM252.69 58.08H258.738C258.482 59.712 257.794 61.168 256.674 62.448C255.586 63.728 254.098 64.736 252.21 65.472C250.322 66.208 248.018 66.576 245.298 66.576C242.258 66.576 239.57 66.096 237.234 65.136C234.898 64.144 233.074 62.72 231.762 60.864C230.45 59.008 229.794 56.768 229.794 54.144C229.794 51.52 230.434 49.28 231.714 47.424C232.994 45.536 234.77 44.096 237.042 43.104C239.346 42.112 242.034 41.616 245.106 41.616C248.242 41.616 250.85 42.112 252.93 43.104C255.01 44.096 256.546 45.6 257.538 47.616C258.562 49.6 258.994 52.144 258.834 55.248H236.082C236.242 56.464 236.69 57.568 237.426 58.56C238.194 59.552 239.218 60.336 240.498 60.912C241.81 61.488 243.362 61.776 245.154 61.776C247.138 61.776 248.786 61.44 250.098 60.768C251.442 60.064 252.306 59.168 252.69 58.08ZM244.818 46.368C242.514 46.368 240.642 46.88 239.202 47.904C237.762 48.896 236.834 50.128 236.418 51.6H252.642C252.482 50 251.714 48.736 250.338 47.808C248.994 46.848 247.154 46.368 244.818 46.368ZM276.651 61.92H274.395L283.131 42.144H289.947L278.475 66H272.571L261.339 42.144H268.203L276.651 61.92ZM315.219 58.08H321.267C321.011 59.712 320.323 61.168 319.203 62.448C318.115 63.728 316.627 64.736 314.739 65.472C312.851 66.208 310.547 66.576 307.827 66.576C304.787 66.576 302.099 66.096 299.763 65.136C297.427 64.144 295.603 62.72 294.291 60.864C292.979 59.008 292.323 56.768 292.323 54.144C292.323 51.52 292.963 49.28 294.243 47.424C295.523 45.536 297.299 44.096 299.571 43.104C301.875 42.112 304.563 41.616 307.635 41.616C310.771 41.616 313.379 42.112 315.459 43.104C317.539 44.096 319.075 45.6 320.067 47.616C321.091 49.6 321.523 52.144 321.363 55.248H298.611C298.771 56.464 299.219 57.568 299.955 58.56C300.723 59.552 301.747 60.336 303.027 60.912C304.339 61.488 305.891 61.776 307.683 61.776C309.667 61.776 311.315 61.44 312.627 60.768C313.971 60.064 314.835 59.168 315.219 58.08ZM307.347 46.368C305.043 46.368 303.171 46.88 301.731 47.904C300.291 48.896 299.363 50.128 298.947 51.6H315.171C315.011 50 314.243 48.736 312.867 47.808C311.523 46.848 309.683 46.368 307.347 46.368ZM327.446 32.544H333.686V66H327.446V32.544ZM355.022 66.576C352.014 66.576 349.358 66.096 347.054 65.136C344.782 64.176 343.006 62.784 341.726 60.96C340.446 59.104 339.806 56.832 339.806 54.144C339.806 51.456 340.446 49.184 341.726 47.328C343.006 45.44 344.782 44.016 347.054 43.056C349.358 42.096 352.014 41.616 355.022 41.616C358.03 41.616 360.654 42.096 362.894 43.056C365.166 44.016 366.942 45.44 368.222 47.328C369.502 49.184 370.142 51.456 370.142 54.144C370.142 56.832 369.502 59.104 368.222 60.96C366.942 62.784 365.166 64.176 362.894 65.136C360.654 66.096 358.03 66.576 355.022 66.576ZM355.022 61.776C356.686 61.776 358.174 61.488 359.486 60.912C360.83 60.304 361.886 59.44 362.654 58.32C363.422 57.168 363.806 55.776 363.806 54.144C363.806 52.512 363.422 51.12 362.654 49.968C361.886 48.784 360.846 47.888 359.534 47.28C358.222 46.672 356.718 46.368 355.022 46.368C353.358 46.368 351.854 46.672 350.51 47.28C349.166 47.888 348.094 48.768 347.294 49.92C346.526 51.072 346.142 52.48 346.142 54.144C346.142 55.776 346.526 57.168 347.294 58.32C348.062 59.44 349.118 60.304 350.462 60.912C351.806 61.488 353.326 61.776 355.022 61.776ZM393.09 66.576C390.978 66.576 389.17 66.208 387.666 65.472C386.194 64.704 384.994 63.712 384.066 62.496C383.138 61.248 382.45 59.888 382.002 58.416C381.554 56.944 381.33 55.504 381.33 54.096C381.33 52.336 381.538 50.704 381.954 49.2C382.402 47.696 383.09 46.384 384.018 45.264C384.946 44.112 386.146 43.216 387.618 42.576C389.122 41.936 390.946 41.616 393.09 41.616C395.49 41.616 397.65 42.144 399.57 43.2C401.49 44.256 403.01 45.728 404.13 47.616C405.282 49.472 405.858 51.632 405.858 54.096C405.858 56.624 405.282 58.832 404.13 60.72C402.978 62.576 401.442 64.016 399.522 65.04C397.602 66.064 395.458 66.576 393.09 66.576ZM391.074 61.728C392.77 61.728 394.242 61.408 395.49 60.768C396.77 60.128 397.746 59.248 398.418 58.128C399.122 56.976 399.474 55.632 399.474 54.096C399.474 51.792 398.738 49.936 397.266 48.528C395.826 47.12 393.762 46.416 391.074 46.416C389.378 46.416 387.826 46.72 386.418 47.328C385.042 47.936 383.954 48.816 383.154 49.968C382.354 51.088 381.954 52.464 381.954 54.096C381.954 55.632 382.322 56.976 383.058 58.128C383.794 59.248 384.85 60.128 386.226 60.768C387.602 61.408 389.218 61.728 391.074 61.728ZM375.714 42.144H381.666L381.954 48.48V75.6H375.714V42.144ZM411.409 42.144H417.649V66H411.409V42.144ZM428.737 41.616C430.209 41.616 431.569 41.808 432.817 42.192C434.065 42.576 435.153 43.168 436.081 43.968C437.009 44.768 437.729 45.792 438.241 47.04C438.753 48.256 439.009 49.712 439.009 51.408V66H432.769V52.512C432.769 50.496 432.273 49.024 431.281 48.096C430.321 47.136 428.737 46.656 426.529 46.656C424.865 46.656 423.361 46.976 422.017 47.616C420.673 48.256 419.585 49.072 418.753 50.064C417.921 51.024 417.441 52.032 417.313 53.088L417.265 50.64C417.425 49.52 417.793 48.432 418.369 47.376C418.945 46.32 419.713 45.36 420.673 44.496C421.665 43.6 422.833 42.896 424.177 42.384C425.521 41.872 427.041 41.616 428.737 41.616ZM449.521 41.616C450.993 41.616 452.353 41.808 453.601 42.192C454.849 42.576 455.937 43.168 456.865 43.968C457.793 44.768 458.513 45.792 459.025 47.04C459.569 48.256 459.841 49.712 459.841 51.408V66H453.601V52.512C453.601 50.496 453.105 49.024 452.113 48.096C451.121 47.136 449.521 46.656 447.313 46.656C445.649 46.656 444.145 46.976 442.801 47.616C441.457 48.256 440.369 49.072 439.537 50.064C438.705 51.024 438.241 52.032 438.145 53.088L438.049 50.496C438.209 49.44 438.593 48.384 439.201 47.328C439.809 46.272 440.609 45.312 441.601 44.448C442.593 43.584 443.745 42.896 445.057 42.384C446.401 41.872 447.889 41.616 449.521 41.616ZM488.206 58.08H494.254C493.998 59.712 493.31 61.168 492.19 62.448C491.102 63.728 489.614 64.736 487.726 65.472C485.838 66.208 483.534 66.576 480.814 66.576C477.774 66.576 475.086 66.096 472.75 65.136C470.414 64.144 468.59 62.72 467.278 60.864C465.966 59.008 465.31 56.768 465.31 54.144C465.31 51.52 465.95 49.28 467.23 47.424C468.51 45.536 470.286 44.096 472.558 43.104C474.862 42.112 477.55 41.616 480.622 41.616C483.758 41.616 486.366 42.112 488.446 43.104C490.526 44.096 492.062 45.6 493.054 47.616C494.078 49.6 494.51 52.144 494.35 55.248H471.598C471.758 56.464 472.206 57.568 472.942 58.56C473.71 59.552 474.734 60.336 476.014 60.912C477.326 61.488 478.878 61.776 480.67 61.776C482.654 61.776 484.302 61.44 485.614 60.768C486.958 60.064 487.822 59.168 488.206 58.08ZM480.334 46.368C478.03 46.368 476.158 46.88 474.718 47.904C473.278 48.896 472.35 50.128 471.934 51.6H488.158C487.998 50 487.23 48.736 485.854 47.808C484.51 46.848 482.67 46.368 480.334 46.368ZM499.954 42.144H506.194V66H499.954V42.144ZM517.282 41.616C518.754 41.616 520.114 41.808 521.362 42.192C522.61 42.576 523.698 43.168 524.626 43.968C525.554 44.768 526.274 45.792 526.786 47.04C527.298 48.256 527.554 49.712 527.554 51.408V66H521.314V52.512C521.314 50.496 520.818 49.024 519.826 48.096C518.866 47.136 517.282 46.656 515.074 46.656C513.41 46.656 511.906 46.976 510.562 47.616C509.218 48.256 508.13 49.072 507.298 50.064C506.466 51.024 505.986 52.032 505.858 53.088L505.81 50.64C505.97 49.52 506.338 48.432 506.914 47.376C507.49 46.32 508.258 45.36 509.218 44.496C510.21 43.6 511.378 42.896 512.722 42.384C514.066 41.872 515.586 41.616 517.282 41.616ZM532.515 42.144H551.043V46.992H532.515V42.144ZM538.659 35.616H544.899V66H538.659V35.616Z" fill="white"/>
</svg>
