<svg width="405" height="83" viewBox="0 0 405 83" fill="none" xmlns="http://www.w3.org/2000/svg">
<rect width="405" height="83" rx="41.5" fill="#E14841"/>
<path d="M41.376 52L32.64 31.296H37.344L44.736 49.632L43.36 49.664L50.4 31.296H55.296L62.336 49.664L60.96 49.632L68.352 31.296H72.96L64.32 52H59.104L52.192 34.048H53.536L46.592 52H41.376ZM88.556 46.72H92.588C92.4173 47.808 91.9587 48.7787 91.212 49.632C90.4867 50.4853 89.4947 51.1573 88.236 51.648C86.9773 52.1387 85.4413 52.384 83.628 52.384C81.6013 52.384 79.8093 52.064 78.252 51.424C76.6947 50.7627 75.4787 49.8133 74.604 48.576C73.7293 47.3387 73.292 45.8453 73.292 44.096C73.292 42.3467 73.7187 40.8533 74.572 39.616C75.4253 38.3573 76.6093 37.3973 78.124 36.736C79.66 36.0747 81.452 35.744 83.5 35.744C85.5907 35.744 87.3293 36.0747 88.716 36.736C90.1027 37.3973 91.1267 38.4 91.788 39.744C92.4707 41.0667 92.7587 42.7627 92.652 44.832H77.484C77.5907 45.6427 77.8893 46.3787 78.38 47.04C78.892 47.7013 79.5747 48.224 80.428 48.608C81.3027 48.992 82.3373 49.184 83.532 49.184C84.8547 49.184 85.9533 48.96 86.828 48.512C87.724 48.0427 88.3 47.4453 88.556 46.72ZM83.308 38.912C81.772 38.912 80.524 39.2533 79.564 39.936C78.604 40.5973 77.9853 41.4187 77.708 42.4H88.524C88.4173 41.3333 87.9053 40.4907 86.988 39.872C86.092 39.232 84.8653 38.912 83.308 38.912ZM108.643 52.352C107.235 52.352 106.03 52.1067 105.027 51.616C104.025 51.104 103.214 50.4427 102.595 49.632C101.977 48.8 101.518 47.904 101.219 46.944C100.921 45.9627 100.771 45.0027 100.771 44.064C100.771 42.8907 100.91 41.8027 101.187 40.8C101.486 39.7973 101.945 38.9227 102.563 38.176C103.182 37.408 103.993 36.8107 104.995 36.384C105.998 35.9573 107.214 35.744 108.643 35.744C110.286 35.744 111.737 36.096 112.996 36.8C114.276 37.4827 115.278 38.4427 116.003 39.68C116.75 40.9173 117.123 42.3787 117.123 44.064C117.123 45.7067 116.75 47.1573 116.003 48.416C115.257 49.6533 114.243 50.624 112.963 51.328C111.683 52.0107 110.243 52.352 108.643 52.352ZM107.299 49.152C108.43 49.152 109.411 48.9387 110.243 48.512C111.075 48.0853 111.715 47.4987 112.163 46.752C112.633 45.984 112.868 45.088 112.868 44.064C112.868 42.528 112.377 41.2907 111.396 40.352C110.435 39.4133 109.07 38.944 107.299 38.944C106.062 38.944 104.985 39.1467 104.067 39.552C103.15 39.9573 102.435 40.544 101.923 41.312C101.433 42.0587 101.187 42.976 101.187 44.064C101.187 45.0667 101.433 45.952 101.923 46.72C102.414 47.488 103.118 48.0853 104.035 48.512C104.953 48.9387 106.041 49.152 107.299 49.152ZM101.187 29.696V47.904C101.187 48.5867 101.155 49.3227 101.091 50.112C101.027 50.88 100.963 51.5093 100.899 52H97.0275V29.696H101.187ZM141.583 31.296C143.908 31.296 145.849 31.5733 147.407 32.128C148.964 32.6827 150.201 33.44 151.119 34.4C152.057 35.3387 152.719 36.4267 153.103 37.664C153.508 38.9013 153.711 40.2027 153.711 41.568C153.711 42.9333 153.487 44.2453 153.039 45.504C152.612 46.7627 151.919 47.8827 150.959 48.864C150.02 49.824 148.772 50.592 147.215 51.168C145.679 51.7227 143.801 52 141.583 52H129.743V31.296H141.583ZM133.999 48.352H141.487C143.023 48.352 144.292 48.1707 145.295 47.808C146.319 47.424 147.129 46.912 147.727 46.272C148.324 45.632 148.751 44.9067 149.007 44.096C149.263 43.2853 149.391 42.4427 149.391 41.568C149.391 40.6933 149.263 39.8613 149.007 39.072C148.751 38.2827 148.324 37.5787 147.727 36.96C147.129 36.3413 146.319 35.8507 145.295 35.488C144.292 35.1253 143.023 34.944 141.487 34.944H133.999V48.352ZM172.46 46.72H176.492C176.321 47.808 175.862 48.7787 175.116 49.632C174.39 50.4853 173.398 51.1573 172.14 51.648C170.881 52.1387 169.345 52.384 167.532 52.384C165.505 52.384 163.713 52.064 162.156 51.424C160.598 50.7627 159.382 49.8133 158.508 48.576C157.633 47.3387 157.196 45.8453 157.196 44.096C157.196 42.3467 157.622 40.8533 158.476 39.616C159.329 38.3573 160.513 37.3973 162.028 36.736C163.564 36.0747 165.356 35.744 167.404 35.744C169.494 35.744 171.233 36.0747 172.62 36.736C174.006 37.3973 175.03 38.4 175.692 39.744C176.374 41.0667 176.662 42.7627 176.556 44.832H161.388C161.494 45.6427 161.793 46.3787 162.284 47.04C162.796 47.7013 163.478 48.224 164.332 48.608C165.206 48.992 166.241 49.184 167.436 49.184C168.758 49.184 169.857 48.96 170.732 48.512C171.628 48.0427 172.204 47.4453 172.46 46.72ZM167.212 38.912C165.676 38.912 164.428 39.2533 163.468 39.936C162.508 40.5973 161.889 41.4187 161.612 42.4H172.428C172.321 41.3333 171.809 40.4907 170.892 39.872C169.996 39.232 168.769 38.912 167.212 38.912ZM188.434 49.28H186.93L192.754 36.096H197.298L189.65 52H185.714L178.226 36.096H182.802L188.434 49.28ZM214.146 46.72H218.178C218.007 47.808 217.549 48.7787 216.802 49.632C216.077 50.4853 215.085 51.1573 213.826 51.648C212.567 52.1387 211.031 52.384 209.218 52.384C207.191 52.384 205.399 52.064 203.842 51.424C202.285 50.7627 201.069 49.8133 200.194 48.576C199.319 47.3387 198.882 45.8453 198.882 44.096C198.882 42.3467 199.309 40.8533 200.162 39.616C201.015 38.3573 202.199 37.3973 203.714 36.736C205.25 36.0747 207.042 35.744 209.09 35.744C211.181 35.744 212.919 36.0747 214.306 36.736C215.693 37.3973 216.717 38.4 217.378 39.744C218.061 41.0667 218.349 42.7627 218.242 44.832H203.074C203.181 45.6427 203.479 46.3787 203.97 47.04C204.482 47.7013 205.165 48.224 206.018 48.608C206.893 48.992 207.927 49.184 209.122 49.184C210.445 49.184 211.543 48.96 212.418 48.512C213.314 48.0427 213.89 47.4453 214.146 46.72ZM208.898 38.912C207.362 38.912 206.114 39.2533 205.154 39.936C204.194 40.5973 203.575 41.4187 203.298 42.4H214.114C214.007 41.3333 213.495 40.4907 212.578 39.872C211.682 39.232 210.455 38.912 208.898 38.912ZM222.297 29.696H226.457V52H222.297V29.696ZM240.681 52.384C238.676 52.384 236.905 52.064 235.369 51.424C233.854 50.784 232.67 49.856 231.817 48.64C230.964 47.4027 230.537 45.888 230.537 44.096C230.537 42.304 230.964 40.7893 231.817 39.552C232.67 38.2933 233.854 37.344 235.369 36.704C236.905 36.064 238.676 35.744 240.681 35.744C242.686 35.744 244.436 36.064 245.929 36.704C247.444 37.344 248.628 38.2933 249.481 39.552C250.334 40.7893 250.761 42.304 250.761 44.096C250.761 45.888 250.334 47.4027 249.481 48.64C248.628 49.856 247.444 50.784 245.929 51.424C244.436 52.064 242.686 52.384 240.681 52.384ZM240.681 49.184C241.79 49.184 242.782 48.992 243.657 48.608C244.553 48.2027 245.257 47.6267 245.769 46.88C246.281 46.112 246.537 45.184 246.537 44.096C246.537 43.008 246.281 42.08 245.769 41.312C245.257 40.5227 244.564 39.9253 243.689 39.52C242.814 39.1147 241.812 38.912 240.681 38.912C239.572 38.912 238.569 39.1147 237.673 39.52C236.777 39.9253 236.062 40.512 235.529 41.28C235.017 42.048 234.761 42.9867 234.761 44.096C234.761 45.184 235.017 46.112 235.529 46.88C236.041 47.6267 236.745 48.2027 237.641 48.608C238.537 48.992 239.55 49.184 240.681 49.184ZM266.06 52.384C264.652 52.384 263.447 52.1387 262.444 51.648C261.463 51.136 260.663 50.4747 260.044 49.664C259.426 48.832 258.967 47.9253 258.668 46.944C258.37 45.9627 258.22 45.0027 258.22 44.064C258.22 42.8907 258.359 41.8027 258.636 40.8C258.935 39.7973 259.394 38.9227 260.012 38.176C260.631 37.408 261.431 36.8107 262.412 36.384C263.415 35.9573 264.631 35.744 266.06 35.744C267.66 35.744 269.1 36.096 270.38 36.8C271.66 37.504 272.674 38.4853 273.42 39.744C274.188 40.9813 274.572 42.4213 274.572 44.064C274.572 45.7493 274.188 47.2213 273.42 48.48C272.652 49.7173 271.628 50.6773 270.348 51.36C269.068 52.0427 267.639 52.384 266.06 52.384ZM264.716 49.152C265.847 49.152 266.828 48.9387 267.66 48.512C268.514 48.0853 269.164 47.4987 269.612 46.752C270.082 45.984 270.316 45.088 270.316 44.064C270.316 42.528 269.826 41.2907 268.844 40.352C267.884 39.4133 266.508 38.944 264.716 38.944C263.586 38.944 262.551 39.1467 261.612 39.552C260.695 39.9573 259.97 40.544 259.436 41.312C258.903 42.0587 258.636 42.976 258.636 44.064C258.636 45.088 258.882 45.984 259.372 46.752C259.863 47.4987 260.567 48.0853 261.484 48.512C262.402 48.9387 263.479 49.152 264.716 49.152ZM254.476 36.096H258.444L258.636 40.32V58.4H254.476V36.096ZM278.272 36.096H282.432V52H278.272V36.096ZM289.824 35.744C290.806 35.744 291.712 35.872 292.544 36.128C293.376 36.384 294.102 36.7787 294.72 37.312C295.339 37.8453 295.819 38.528 296.16 39.36C296.502 40.1707 296.672 41.1413 296.672 42.272V52H292.512V43.008C292.512 41.664 292.182 40.6827 291.52 40.064C290.88 39.424 289.824 39.104 288.352 39.104C287.243 39.104 286.24 39.3173 285.344 39.744C284.448 40.1707 283.723 40.7147 283.168 41.376C282.614 42.016 282.294 42.688 282.208 43.392L282.176 41.76C282.283 41.0133 282.528 40.288 282.912 39.584C283.296 38.88 283.808 38.24 284.448 37.664C285.11 37.0667 285.888 36.5973 286.784 36.256C287.68 35.9147 288.694 35.744 289.824 35.744ZM303.68 35.744C304.662 35.744 305.568 35.872 306.4 36.128C307.232 36.384 307.958 36.7787 308.576 37.312C309.195 37.8453 309.675 38.528 310.016 39.36C310.379 40.1707 310.56 41.1413 310.56 42.272V52H306.4V43.008C306.4 41.664 306.07 40.6827 305.408 40.064C304.747 39.424 303.68 39.104 302.208 39.104C301.099 39.104 300.096 39.3173 299.2 39.744C298.304 40.1707 297.579 40.7147 297.024 41.376C296.47 42.016 296.16 42.688 296.096 43.392L296.032 41.664C296.139 40.96 296.395 40.256 296.8 39.552C297.206 38.848 297.739 38.208 298.4 37.632C299.062 37.056 299.83 36.5973 300.704 36.256C301.6 35.9147 302.592 35.744 303.68 35.744ZM329.471 46.72H333.503C333.332 47.808 332.874 48.7787 332.127 49.632C331.402 50.4853 330.41 51.1573 329.151 51.648C327.892 52.1387 326.356 52.384 324.543 52.384C322.516 52.384 320.724 52.064 319.167 51.424C317.61 50.7627 316.394 49.8133 315.519 48.576C314.644 47.3387 314.207 45.8453 314.207 44.096C314.207 42.3467 314.634 40.8533 315.487 39.616C316.34 38.3573 317.524 37.3973 319.039 36.736C320.575 36.0747 322.367 35.744 324.415 35.744C326.506 35.744 328.244 36.0747 329.631 36.736C331.018 37.3973 332.042 38.4 332.703 39.744C333.386 41.0667 333.674 42.7627 333.567 44.832H318.399C318.506 45.6427 318.804 46.3787 319.295 47.04C319.807 47.7013 320.49 48.224 321.343 48.608C322.218 48.992 323.252 49.184 324.447 49.184C325.77 49.184 326.868 48.96 327.743 48.512C328.639 48.0427 329.215 47.4453 329.471 46.72ZM324.223 38.912C322.687 38.912 321.439 39.2533 320.479 39.936C319.519 40.5973 318.9 41.4187 318.623 42.4H329.439C329.332 41.3333 328.82 40.4907 327.903 39.872C327.007 39.232 325.78 38.912 324.223 38.912ZM337.303 36.096H341.463V52H337.303V36.096ZM348.855 35.744C349.836 35.744 350.743 35.872 351.575 36.128C352.407 36.384 353.132 36.7787 353.751 37.312C354.369 37.8453 354.849 38.528 355.191 39.36C355.532 40.1707 355.703 41.1413 355.703 42.272V52H351.543V43.008C351.543 41.664 351.212 40.6827 350.551 40.064C349.911 39.424 348.855 39.104 347.383 39.104C346.273 39.104 345.271 39.3173 344.375 39.744C343.479 40.1707 342.753 40.7147 342.199 41.376C341.644 42.016 341.324 42.688 341.239 43.392L341.207 41.76C341.313 41.0133 341.559 40.288 341.943 39.584C342.327 38.88 342.839 38.24 343.479 37.664C344.14 37.0667 344.919 36.5973 345.815 36.256C346.711 35.9147 347.724 35.744 348.855 35.744ZM359.01 36.096H371.362V39.328H359.01V36.096ZM363.106 31.744H367.266V52H363.106V31.744Z" fill="white"/>
</svg>
