<svg width="320" height="58" viewBox="0 0 320 58" fill="none" xmlns="http://www.w3.org/2000/svg">
<rect width="320" height="58" rx="29" fill="#E14841"/>
<path d="M39.032 37L32.48 21.472H36.008L41.552 35.224L40.52 35.248L45.8 21.472H49.472L54.752 35.248L53.72 35.224L59.264 21.472H62.72L56.24 37H52.328L47.144 23.536H48.152L42.944 37H39.032ZM74.417 33.04H77.441C77.313 33.856 76.969 34.584 76.409 35.224C75.865 35.864 75.121 36.368 74.177 36.736C73.233 37.104 72.081 37.288 70.721 37.288C69.201 37.288 67.857 37.048 66.689 36.568C65.521 36.072 64.609 35.36 63.953 34.432C63.297 33.504 62.969 32.384 62.969 31.072C62.969 29.76 63.289 28.64 63.929 27.712C64.569 26.768 65.457 26.048 66.593 25.552C67.745 25.056 69.089 24.808 70.625 24.808C72.193 24.808 73.497 25.056 74.537 25.552C75.577 26.048 76.345 26.8 76.841 27.808C77.353 28.8 77.569 30.072 77.489 31.624H66.113C66.193 32.232 66.417 32.784 66.785 33.28C67.169 33.776 67.681 34.168 68.321 34.456C68.977 34.744 69.753 34.888 70.649 34.888C71.641 34.888 72.465 34.72 73.121 34.384C73.793 34.032 74.225 33.584 74.417 33.04ZM70.481 27.184C69.329 27.184 68.393 27.44 67.673 27.952C66.953 28.448 66.489 29.064 66.281 29.8H74.393C74.313 29 73.929 28.368 73.241 27.904C72.569 27.424 71.649 27.184 70.481 27.184ZM89.4826 37.264C88.4266 37.264 87.5226 37.08 86.7706 36.712C86.0186 36.328 85.4106 35.832 84.9466 35.224C84.4826 34.6 84.1386 33.928 83.9146 33.208C83.6906 32.472 83.5786 31.752 83.5786 31.048C83.5786 30.168 83.6826 29.352 83.8906 28.6C84.1146 27.848 84.4586 27.192 84.9226 26.632C85.3866 26.056 85.9946 25.608 86.7466 25.288C87.4986 24.968 88.4106 24.808 89.4826 24.808C90.7146 24.808 91.8026 25.072 92.7466 25.6C93.7066 26.112 94.4586 26.832 95.0026 27.76C95.5626 28.688 95.8426 29.784 95.8426 31.048C95.8426 32.28 95.5626 33.368 95.0026 34.312C94.4426 35.24 93.6826 35.968 92.7226 36.496C91.7626 37.008 90.6826 37.264 89.4826 37.264ZM88.4746 34.864C89.3226 34.864 90.0586 34.704 90.6826 34.384C91.3066 34.064 91.7866 33.624 92.1226 33.064C92.4746 32.488 92.6506 31.816 92.6506 31.048C92.6506 29.896 92.2826 28.968 91.5466 28.264C90.8266 27.56 89.8026 27.208 88.4746 27.208C87.5466 27.208 86.7386 27.36 86.0506 27.664C85.3626 27.968 84.8266 28.408 84.4426 28.984C84.0746 29.544 83.8906 30.232 83.8906 31.048C83.8906 31.8 84.0746 32.464 84.4426 33.04C84.8106 33.616 85.3386 34.064 86.0266 34.384C86.7146 34.704 87.5306 34.864 88.4746 34.864ZM83.8906 20.272V33.928C83.8906 34.44 83.8666 34.992 83.8186 35.584C83.7706 36.16 83.7226 36.632 83.6746 37H80.7706V20.272H83.8906ZM114.187 21.472C115.931 21.472 117.387 21.68 118.555 22.096C119.723 22.512 120.651 23.08 121.339 23.8C122.043 24.504 122.539 25.32 122.827 26.248C123.131 27.176 123.283 28.152 123.283 29.176C123.283 30.2 123.115 31.184 122.779 32.128C122.459 33.072 121.939 33.912 121.219 34.648C120.515 35.368 119.579 35.944 118.411 36.376C117.259 36.792 115.851 37 114.187 37H105.307V21.472H114.187ZM108.499 34.264H114.115C115.267 34.264 116.219 34.128 116.971 33.856C117.739 33.568 118.347 33.184 118.795 32.704C119.243 32.224 119.563 31.68 119.755 31.072C119.947 30.464 120.043 29.832 120.043 29.176C120.043 28.52 119.947 27.896 119.755 27.304C119.563 26.712 119.243 26.184 118.795 25.72C118.347 25.256 117.739 24.888 116.971 24.616C116.219 24.344 115.267 24.208 114.115 24.208H108.499V34.264ZM137.345 33.04H140.369C140.241 33.856 139.897 34.584 139.337 35.224C138.793 35.864 138.049 36.368 137.105 36.736C136.161 37.104 135.009 37.288 133.649 37.288C132.129 37.288 130.785 37.048 129.617 36.568C128.449 36.072 127.537 35.36 126.881 34.432C126.225 33.504 125.897 32.384 125.897 31.072C125.897 29.76 126.217 28.64 126.857 27.712C127.497 26.768 128.385 26.048 129.521 25.552C130.673 25.056 132.017 24.808 133.553 24.808C135.121 24.808 136.425 25.056 137.465 25.552C138.505 26.048 139.273 26.8 139.769 27.808C140.281 28.8 140.497 30.072 140.417 31.624H129.041C129.121 32.232 129.345 32.784 129.713 33.28C130.097 33.776 130.609 34.168 131.249 34.456C131.905 34.744 132.681 34.888 133.577 34.888C134.569 34.888 135.393 34.72 136.049 34.384C136.721 34.032 137.153 33.584 137.345 33.04ZM133.409 27.184C132.257 27.184 131.321 27.44 130.601 27.952C129.881 28.448 129.417 29.064 129.209 29.8H137.321C137.241 29 136.857 28.368 136.169 27.904C135.497 27.424 134.577 27.184 133.409 27.184ZM149.326 34.96H148.198L152.566 25.072H155.974L150.238 37H147.286L141.67 25.072H145.102L149.326 34.96ZM168.61 33.04H171.634C171.506 33.856 171.162 34.584 170.602 35.224C170.058 35.864 169.314 36.368 168.37 36.736C167.426 37.104 166.274 37.288 164.914 37.288C163.394 37.288 162.05 37.048 160.882 36.568C159.714 36.072 158.802 35.36 158.146 34.432C157.49 33.504 157.162 32.384 157.162 31.072C157.162 29.76 157.482 28.64 158.122 27.712C158.762 26.768 159.65 26.048 160.786 25.552C161.938 25.056 163.282 24.808 164.818 24.808C166.386 24.808 167.69 25.056 168.73 25.552C169.77 26.048 170.538 26.8 171.034 27.808C171.546 28.8 171.762 30.072 171.682 31.624H160.306C160.386 32.232 160.61 32.784 160.978 33.28C161.362 33.776 161.874 34.168 162.514 34.456C163.17 34.744 163.946 34.888 164.842 34.888C165.834 34.888 166.658 34.72 167.314 34.384C167.986 34.032 168.418 33.584 168.61 33.04ZM164.674 27.184C163.522 27.184 162.586 27.44 161.866 27.952C161.146 28.448 160.682 29.064 160.474 29.8H168.586C168.506 29 168.122 28.368 167.434 27.904C166.762 27.424 165.842 27.184 164.674 27.184ZM174.723 20.272H177.843V37H174.723V20.272ZM188.511 37.288C187.007 37.288 185.679 37.048 184.527 36.568C183.391 36.088 182.503 35.392 181.863 34.48C181.223 33.552 180.903 32.416 180.903 31.072C180.903 29.728 181.223 28.592 181.863 27.664C182.503 26.72 183.391 26.008 184.527 25.528C185.679 25.048 187.007 24.808 188.511 24.808C190.015 24.808 191.327 25.048 192.447 25.528C193.583 26.008 194.471 26.72 195.111 27.664C195.751 28.592 196.071 29.728 196.071 31.072C196.071 32.416 195.751 33.552 195.111 34.48C194.471 35.392 193.583 36.088 192.447 36.568C191.327 37.048 190.015 37.288 188.511 37.288ZM188.511 34.888C189.343 34.888 190.087 34.744 190.743 34.456C191.415 34.152 191.943 33.72 192.327 33.16C192.711 32.584 192.903 31.888 192.903 31.072C192.903 30.256 192.711 29.56 192.327 28.984C191.943 28.392 191.423 27.944 190.767 27.64C190.111 27.336 189.359 27.184 188.511 27.184C187.679 27.184 186.927 27.336 186.255 27.64C185.583 27.944 185.047 28.384 184.647 28.96C184.263 29.536 184.071 30.24 184.071 31.072C184.071 31.888 184.263 32.584 184.647 33.16C185.031 33.72 185.559 34.152 186.231 34.456C186.903 34.744 187.663 34.888 188.511 34.888ZM207.545 37.288C206.489 37.288 205.585 37.104 204.833 36.736C204.097 36.352 203.497 35.856 203.033 35.248C202.569 34.624 202.225 33.944 202.001 33.208C201.777 32.472 201.665 31.752 201.665 31.048C201.665 30.168 201.769 29.352 201.977 28.6C202.201 27.848 202.545 27.192 203.009 26.632C203.473 26.056 204.073 25.608 204.809 25.288C205.561 24.968 206.473 24.808 207.545 24.808C208.745 24.808 209.825 25.072 210.785 25.6C211.745 26.128 212.505 26.864 213.065 27.808C213.641 28.736 213.929 29.816 213.929 31.048C213.929 32.312 213.641 33.416 213.065 34.36C212.489 35.288 211.721 36.008 210.761 36.52C209.801 37.032 208.729 37.288 207.545 37.288ZM206.537 34.864C207.385 34.864 208.121 34.704 208.745 34.384C209.385 34.064 209.873 33.624 210.209 33.064C210.561 32.488 210.737 31.816 210.737 31.048C210.737 29.896 210.369 28.968 209.633 28.264C208.913 27.56 207.881 27.208 206.537 27.208C205.689 27.208 204.913 27.36 204.209 27.664C203.521 27.968 202.977 28.408 202.577 28.984C202.177 29.544 201.977 30.232 201.977 31.048C201.977 31.816 202.161 32.488 202.529 33.064C202.897 33.624 203.425 34.064 204.113 34.384C204.801 34.704 205.609 34.864 206.537 34.864ZM198.857 25.072H201.833L201.977 28.24V41.8H198.857V25.072ZM216.704 25.072H219.824V37H216.704V25.072ZM225.368 24.808C226.104 24.808 226.784 24.904 227.408 25.096C228.032 25.288 228.576 25.584 229.04 25.984C229.504 26.384 229.864 26.896 230.12 27.52C230.376 28.128 230.504 28.856 230.504 29.704V37H227.384V30.256C227.384 29.248 227.136 28.512 226.64 28.048C226.16 27.568 225.368 27.328 224.264 27.328C223.432 27.328 222.68 27.488 222.008 27.808C221.336 28.128 220.792 28.536 220.376 29.032C219.96 29.512 219.72 30.016 219.656 30.544L219.632 29.32C219.712 28.76 219.896 28.216 220.184 27.688C220.472 27.16 220.856 26.68 221.336 26.248C221.832 25.8 222.416 25.448 223.088 25.192C223.76 24.936 224.52 24.808 225.368 24.808ZM235.76 24.808C236.496 24.808 237.176 24.904 237.8 25.096C238.424 25.288 238.968 25.584 239.432 25.984C239.896 26.384 240.256 26.896 240.512 27.52C240.784 28.128 240.92 28.856 240.92 29.704V37H237.8V30.256C237.8 29.248 237.552 28.512 237.056 28.048C236.56 27.568 235.76 27.328 234.656 27.328C233.824 27.328 233.072 27.488 232.4 27.808C231.728 28.128 231.184 28.536 230.768 29.032C230.352 29.512 230.12 30.016 230.072 30.544L230.024 29.248C230.104 28.72 230.296 28.192 230.6 27.664C230.904 27.136 231.304 26.656 231.8 26.224C232.296 25.792 232.872 25.448 233.528 25.192C234.2 24.936 234.944 24.808 235.76 24.808ZM255.103 33.04H258.127C257.999 33.856 257.655 34.584 257.095 35.224C256.551 35.864 255.807 36.368 254.863 36.736C253.919 37.104 252.767 37.288 251.407 37.288C249.887 37.288 248.543 37.048 247.375 36.568C246.207 36.072 245.295 35.36 244.639 34.432C243.983 33.504 243.655 32.384 243.655 31.072C243.655 29.76 243.975 28.64 244.615 27.712C245.255 26.768 246.143 26.048 247.279 25.552C248.431 25.056 249.775 24.808 251.311 24.808C252.879 24.808 254.183 25.056 255.223 25.552C256.263 26.048 257.031 26.8 257.527 27.808C258.039 28.8 258.255 30.072 258.175 31.624H246.799C246.879 32.232 247.103 32.784 247.471 33.28C247.855 33.776 248.367 34.168 249.007 34.456C249.663 34.744 250.439 34.888 251.335 34.888C252.327 34.888 253.151 34.72 253.807 34.384C254.479 34.032 254.911 33.584 255.103 33.04ZM251.167 27.184C250.015 27.184 249.079 27.44 248.359 27.952C247.639 28.448 247.175 29.064 246.967 29.8H255.079C254.999 29 254.615 28.368 253.927 27.904C253.255 27.424 252.335 27.184 251.167 27.184ZM260.977 25.072H264.097V37H260.977V25.072ZM269.641 24.808C270.377 24.808 271.057 24.904 271.681 25.096C272.305 25.288 272.849 25.584 273.313 25.984C273.777 26.384 274.137 26.896 274.393 27.52C274.649 28.128 274.777 28.856 274.777 29.704V37H271.657V30.256C271.657 29.248 271.409 28.512 270.913 28.048C270.433 27.568 269.641 27.328 268.537 27.328C267.705 27.328 266.953 27.488 266.281 27.808C265.609 28.128 265.065 28.536 264.649 29.032C264.233 29.512 263.993 30.016 263.929 30.544L263.905 29.32C263.985 28.76 264.169 28.216 264.457 27.688C264.745 27.16 265.129 26.68 265.609 26.248C266.105 25.8 266.689 25.448 267.361 25.192C268.033 24.936 268.793 24.808 269.641 24.808ZM277.258 25.072H286.522V27.496H277.258V25.072ZM280.33 21.808H283.45V37H280.33V21.808Z" fill="white"/>
</svg>
