<svg width="235" height="50" viewBox="0 0 235 50" fill="none" xmlns="http://www.w3.org/2000/svg">
<rect width="235" height="50" rx="25" fill="#E14841"/>
<path d="M36.688 30L32.32 19.648H34.672L38.368 28.816L37.68 28.832L41.2 19.648H43.648L47.168 28.832L46.48 28.816L50.176 19.648H52.48L48.16 30H45.552L42.096 21.024H42.768L39.296 30H36.688ZM60.278 27.36H62.294C62.2087 27.904 61.9793 28.3893 61.606 28.816C61.2433 29.2427 60.7473 29.5787 60.118 29.824C59.4887 30.0693 58.7207 30.192 57.814 30.192C56.8007 30.192 55.9047 30.032 55.126 29.712C54.3473 29.3813 53.7393 28.9067 53.302 28.288C52.8647 27.6693 52.646 26.9227 52.646 26.048C52.646 25.1733 52.8593 24.4267 53.286 23.808C53.7127 23.1787 54.3047 22.6987 55.062 22.368C55.83 22.0373 56.726 21.872 57.75 21.872C58.7953 21.872 59.6647 22.0373 60.358 22.368C61.0513 22.6987 61.5633 23.2 61.894 23.872C62.2353 24.5333 62.3793 25.3813 62.326 26.416H54.742C54.7953 26.8213 54.9447 27.1893 55.19 27.52C55.446 27.8507 55.7873 28.112 56.214 28.304C56.6513 28.496 57.1687 28.592 57.766 28.592C58.4273 28.592 58.9767 28.48 59.414 28.256C59.862 28.0213 60.15 27.7227 60.278 27.36ZM57.654 23.456C56.886 23.456 56.262 23.6267 55.782 23.968C55.302 24.2987 54.9927 24.7093 54.854 25.2H60.262C60.2087 24.6667 59.9527 24.2453 59.494 23.936C59.046 23.616 58.4327 23.456 57.654 23.456ZM70.3217 30.176C69.6177 30.176 69.0151 30.0533 68.5137 29.808C68.0124 29.552 67.6071 29.2213 67.2977 28.816C66.9884 28.4 66.7591 27.952 66.6097 27.472C66.4604 26.9813 66.3857 26.5013 66.3857 26.032C66.3857 25.4453 66.4551 24.9013 66.5937 24.4C66.7431 23.8987 66.9724 23.4613 67.2817 23.088C67.5911 22.704 67.9964 22.4053 68.4977 22.192C68.9991 21.9787 69.6071 21.872 70.3217 21.872C71.1431 21.872 71.8684 22.048 72.4978 22.4C73.1378 22.7413 73.6391 23.2213 74.0017 23.84C74.3751 24.4587 74.5617 25.1893 74.5617 26.032C74.5617 26.8533 74.3751 27.5787 74.0017 28.208C73.6284 28.8267 73.1217 29.312 72.4817 29.664C71.8417 30.0053 71.1217 30.176 70.3217 30.176ZM69.6497 28.576C70.2151 28.576 70.7057 28.4693 71.1217 28.256C71.5377 28.0427 71.8577 27.7493 72.0817 27.376C72.3164 26.992 72.4338 26.544 72.4338 26.032C72.4338 25.264 72.1884 24.6453 71.6978 24.176C71.2177 23.7067 70.5351 23.472 69.6497 23.472C69.0311 23.472 68.4924 23.5733 68.0337 23.776C67.5751 23.9787 67.2177 24.272 66.9617 24.656C66.7164 25.0293 66.5937 25.488 66.5937 26.032C66.5937 26.5333 66.7164 26.976 66.9617 27.36C67.2071 27.744 67.5591 28.0427 68.0177 28.256C68.4764 28.4693 69.0204 28.576 69.6497 28.576ZM66.5937 18.848V27.952C66.5937 28.2933 66.5777 28.6613 66.5457 29.056C66.5137 29.44 66.4817 29.7547 66.4497 30H64.5137V18.848H66.5937ZM86.7914 19.648C87.954 19.648 88.9247 19.7867 89.7034 20.064C90.482 20.3413 91.1007 20.72 91.5594 21.2C92.0287 21.6693 92.3594 22.2133 92.5514 22.832C92.754 23.4507 92.8554 24.1013 92.8554 24.784C92.8554 25.4667 92.7434 26.1227 92.5194 26.752C92.306 27.3813 91.9594 27.9413 91.4794 28.432C91.01 28.912 90.386 29.296 89.6074 29.584C88.8394 29.8613 87.9007 30 86.7914 30H80.8714V19.648H86.7914ZM82.9994 28.176H86.7434C87.5114 28.176 88.146 28.0853 88.6474 27.904C89.1594 27.712 89.5647 27.456 89.8634 27.136C90.162 26.816 90.3754 26.4533 90.5034 26.048C90.6314 25.6427 90.6954 25.2213 90.6954 24.784C90.6954 24.3467 90.6314 23.9307 90.5034 23.536C90.3754 23.1413 90.162 22.7893 89.8634 22.48C89.5647 22.1707 89.1594 21.9253 88.6474 21.744C88.146 21.5627 87.5114 21.472 86.7434 21.472H82.9994V28.176ZM102.23 27.36H104.246C104.161 27.904 103.931 28.3893 103.558 28.816C103.195 29.2427 102.699 29.5787 102.07 29.824C101.441 30.0693 100.673 30.192 99.7659 30.192C98.7525 30.192 97.8565 30.032 97.0779 29.712C96.2992 29.3813 95.6912 28.9067 95.2539 28.288C94.8165 27.6693 94.5979 26.9227 94.5979 26.048C94.5979 25.1733 94.8112 24.4267 95.2379 23.808C95.6645 23.1787 96.2565 22.6987 97.0139 22.368C97.7819 22.0373 98.6779 21.872 99.7019 21.872C100.747 21.872 101.617 22.0373 102.31 22.368C103.003 22.6987 103.515 23.2 103.846 23.872C104.187 24.5333 104.331 25.3813 104.278 26.416H96.6939C96.7472 26.8213 96.8965 27.1893 97.1419 27.52C97.3979 27.8507 97.7392 28.112 98.1659 28.304C98.6032 28.496 99.1205 28.592 99.7179 28.592C100.379 28.592 100.929 28.48 101.366 28.256C101.814 28.0213 102.102 27.7227 102.23 27.36ZM99.6059 23.456C98.8379 23.456 98.2139 23.6267 97.7339 23.968C97.2539 24.2987 96.9445 24.7093 96.8059 25.2H102.214C102.161 24.6667 101.905 24.2453 101.446 23.936C100.998 23.616 100.385 23.456 99.6059 23.456ZM110.217 28.64H109.465L112.377 22.048H114.649L110.825 30H108.857L105.113 22.048H107.401L110.217 28.64ZM123.073 27.36H125.089C125.004 27.904 124.774 28.3893 124.401 28.816C124.038 29.2427 123.542 29.5787 122.913 29.824C122.284 30.0693 121.516 30.192 120.609 30.192C119.596 30.192 118.7 30.032 117.921 29.712C117.142 29.3813 116.534 28.9067 116.097 28.288C115.66 27.6693 115.441 26.9227 115.441 26.048C115.441 25.1733 115.654 24.4267 116.081 23.808C116.508 23.1787 117.1 22.6987 117.857 22.368C118.625 22.0373 119.521 21.872 120.545 21.872C121.59 21.872 122.46 22.0373 123.153 22.368C123.846 22.6987 124.358 23.2 124.689 23.872C125.03 24.5333 125.174 25.3813 125.121 26.416H117.537C117.59 26.8213 117.74 27.1893 117.985 27.52C118.241 27.8507 118.582 28.112 119.009 28.304C119.446 28.496 119.964 28.592 120.561 28.592C121.222 28.592 121.772 28.48 122.209 28.256C122.657 28.0213 122.945 27.7227 123.073 27.36ZM120.449 23.456C119.681 23.456 119.057 23.6267 118.577 23.968C118.097 24.2987 117.788 24.7093 117.649 25.2H123.057C123.004 24.6667 122.748 24.2453 122.289 23.936C121.841 23.616 121.228 23.456 120.449 23.456ZM127.149 18.848H129.229V30H127.149V18.848ZM136.34 30.192C135.338 30.192 134.452 30.032 133.684 29.712C132.927 29.392 132.335 28.928 131.908 28.32C131.482 27.7013 131.268 26.944 131.268 26.048C131.268 25.152 131.482 24.3947 131.908 23.776C132.335 23.1467 132.927 22.672 133.684 22.352C134.452 22.032 135.338 21.872 136.34 21.872C137.343 21.872 138.218 22.032 138.964 22.352C139.722 22.672 140.314 23.1467 140.74 23.776C141.167 24.3947 141.38 25.152 141.38 26.048C141.38 26.944 141.167 27.7013 140.74 28.32C140.314 28.928 139.722 29.392 138.964 29.712C138.218 30.032 137.343 30.192 136.34 30.192ZM136.34 28.592C136.895 28.592 137.391 28.496 137.828 28.304C138.276 28.1013 138.628 27.8133 138.884 27.44C139.14 27.056 139.268 26.592 139.268 26.048C139.268 25.504 139.14 25.04 138.884 24.656C138.628 24.2613 138.282 23.9627 137.844 23.76C137.407 23.5573 136.906 23.456 136.34 23.456C135.786 23.456 135.284 23.5573 134.836 23.76C134.388 23.9627 134.031 24.256 133.764 24.64C133.508 25.024 133.38 25.4933 133.38 26.048C133.38 26.592 133.508 27.056 133.764 27.44C134.02 27.8133 134.372 28.1013 134.82 28.304C135.268 28.496 135.775 28.592 136.34 28.592ZM149.03 30.192C148.326 30.192 147.723 30.0693 147.222 29.824C146.731 29.568 146.331 29.2373 146.022 28.832C145.713 28.416 145.483 27.9627 145.334 27.472C145.185 26.9813 145.11 26.5013 145.11 26.032C145.11 25.4453 145.179 24.9013 145.318 24.4C145.467 23.8987 145.697 23.4613 146.006 23.088C146.315 22.704 146.715 22.4053 147.206 22.192C147.707 21.9787 148.315 21.872 149.03 21.872C149.83 21.872 150.55 22.048 151.19 22.4C151.83 22.752 152.337 23.2427 152.71 23.872C153.094 24.4907 153.286 25.2107 153.286 26.032C153.286 26.8747 153.094 27.6107 152.71 28.24C152.326 28.8587 151.814 29.3387 151.174 29.68C150.534 30.0213 149.819 30.192 149.03 30.192ZM148.358 28.576C148.923 28.576 149.414 28.4693 149.83 28.256C150.257 28.0427 150.582 27.7493 150.806 27.376C151.041 26.992 151.158 26.544 151.158 26.032C151.158 25.264 150.913 24.6453 150.422 24.176C149.942 23.7067 149.254 23.472 148.358 23.472C147.793 23.472 147.275 23.5733 146.806 23.776C146.347 23.9787 145.985 24.272 145.718 24.656C145.451 25.0293 145.318 25.488 145.318 26.032C145.318 26.544 145.441 26.992 145.686 27.376C145.931 27.7493 146.283 28.0427 146.742 28.256C147.201 28.4693 147.739 28.576 148.358 28.576ZM143.238 22.048H145.222L145.318 24.16V33.2H143.238V22.048ZM155.136 22.048H157.216V30H155.136V22.048ZM160.912 21.872C161.403 21.872 161.856 21.936 162.272 22.064C162.688 22.192 163.051 22.3893 163.36 22.656C163.67 22.9227 163.91 23.264 164.08 23.68C164.251 24.0853 164.336 24.5707 164.336 25.136V30H162.256V25.504C162.256 24.832 162.091 24.3413 161.76 24.032C161.44 23.712 160.912 23.552 160.176 23.552C159.622 23.552 159.12 23.6587 158.672 23.872C158.224 24.0853 157.862 24.3573 157.584 24.688C157.307 25.008 157.147 25.344 157.104 25.696L157.088 24.88C157.142 24.5067 157.264 24.144 157.456 23.792C157.648 23.44 157.904 23.12 158.224 22.832C158.555 22.5333 158.944 22.2987 159.392 22.128C159.84 21.9573 160.347 21.872 160.912 21.872ZM167.84 21.872C168.331 21.872 168.784 21.936 169.2 22.064C169.616 22.192 169.979 22.3893 170.288 22.656C170.598 22.9227 170.838 23.264 171.008 23.68C171.19 24.0853 171.28 24.5707 171.28 25.136V30H169.2V25.504C169.2 24.832 169.035 24.3413 168.704 24.032C168.374 23.712 167.84 23.552 167.104 23.552C166.55 23.552 166.048 23.6587 165.6 23.872C165.152 24.0853 164.79 24.3573 164.512 24.688C164.235 25.008 164.08 25.344 164.048 25.696L164.016 24.832C164.07 24.48 164.198 24.128 164.4 23.776C164.603 23.424 164.87 23.104 165.2 22.816C165.531 22.528 165.915 22.2987 166.352 22.128C166.8 21.9573 167.296 21.872 167.84 21.872ZM180.735 27.36H182.751C182.666 27.904 182.437 28.3893 182.063 28.816C181.701 29.2427 181.205 29.5787 180.575 29.824C179.946 30.0693 179.178 30.192 178.271 30.192C177.258 30.192 176.362 30.032 175.583 29.712C174.805 29.3813 174.197 28.9067 173.759 28.288C173.322 27.6693 173.103 26.9227 173.103 26.048C173.103 25.1733 173.317 24.4267 173.743 23.808C174.17 23.1787 174.762 22.6987 175.519 22.368C176.287 22.0373 177.183 21.872 178.207 21.872C179.253 21.872 180.122 22.0373 180.815 22.368C181.509 22.6987 182.021 23.2 182.351 23.872C182.693 24.5333 182.837 25.3813 182.783 26.416H175.199C175.253 26.8213 175.402 27.1893 175.647 27.52C175.903 27.8507 176.245 28.112 176.671 28.304C177.109 28.496 177.626 28.592 178.223 28.592C178.885 28.592 179.434 28.48 179.871 28.256C180.319 28.0213 180.607 27.7227 180.735 27.36ZM178.111 23.456C177.343 23.456 176.719 23.6267 176.239 23.968C175.759 24.2987 175.45 24.7093 175.311 25.2H180.719C180.666 24.6667 180.41 24.2453 179.951 23.936C179.503 23.616 178.89 23.456 178.111 23.456ZM184.651 22.048H186.731V30H184.651V22.048ZM190.427 21.872C190.918 21.872 191.371 21.936 191.787 22.064C192.203 22.192 192.566 22.3893 192.875 22.656C193.185 22.9227 193.425 23.264 193.595 23.68C193.766 24.0853 193.851 24.5707 193.851 25.136V30H191.771V25.504C191.771 24.832 191.606 24.3413 191.275 24.032C190.955 23.712 190.427 23.552 189.691 23.552C189.137 23.552 188.635 23.6587 188.187 23.872C187.739 24.0853 187.377 24.3573 187.099 24.688C186.822 25.008 186.662 25.344 186.619 25.696L186.603 24.88C186.657 24.5067 186.779 24.144 186.971 23.792C187.163 23.44 187.419 23.12 187.739 22.832C188.07 22.5333 188.459 22.2987 188.907 22.128C189.355 21.9573 189.862 21.872 190.427 21.872ZM195.505 22.048H201.681V23.664H195.505V22.048ZM197.553 19.872H199.633V30H197.553V19.872Z" fill="white"/>
</svg>
